/* XPM */
static char *_f1cb703456c4d84d5101c9e0cca1371YLyB000WPgZZETVP[] = {
/* columns rows colors chars-per-pixel */
"64 64 9 1 ",
"  c None",
". c #0D090B",
"X c #170109",
"o c #170B0F",
"O c #03160E",
"+ c #0E160C",
"@ c #16100C",
"# c #0B1117",
"$ c gray9",
/* pixels */
"              OOOOOOOOOOOOOOOOOOOOOOOOOOOOOOOOOOOO              ",
"              OOOOOOOOOOOOOOOOOOOOOOOOOOOOOOOOOOOO              ",
"            OOOOOOOOOOOOOOOOOOOOOOOOOOOOOOOOOOOOOOOO            ",
"            OOOOOOOOOOOOOOOOOOOOOOOOOOOOOOOOOOOOOOOO            ",
"          OOOOOOOOOOOOOOOOOOOOOOOOOOOOOOOOOOOOOOOOOOOO          ",
"          OOOOOOOOOOOOOOOOOOOOOOOOOOOOOOOOOOOOOOOOOOOO          ",
"        OOOOOOOOOOOOOOOOOOOOOOOOOOOOOOOOOOOOOOOOOOOOOOOO        ",
"        OOOOOOOOOOOOOOOOOOOOOOOOOOOOOOOOOOOOOOOOOOOOOOOO        ",
"      OOOOOOOOOOOOOOOOOOOOOOOOOOOOOOOOOOOOOOOOOOOOOOOOOOOO      ",
"      OOOOOOOOOOOOOOOOOOOOOOOOOOOOOOOOOOOOOOOOOOOOOOOOOOOO      ",
"    OOOOOOOOOOOOOOOOOOOOOOOOOOOOOOOOOOOOOOOOOOOOOOOOOOOOOOOO    ",
"    OOOOOOOOOOOOOOOOOOOOOOOOOOOOOOOOOOOOOOOOOOOOOOOOOOOOOOOO    ",
"    OOOOOOOOOOOOOOOOOOOOOOOOOOOOOOOOOOOOOOOOOOOOOOOOOOOOOOOO    ",
"    OOOOOOOOOOOOOOOOOOOOOOOOOOOOOOOOOOOOOOOOOOOOOOOOOOOOOOOO    ",
"    OOOOOOOOOOOOOOOOOOOOOOOOOOOOOOOOOOOOOOOOOOOOOOOOOOOOOOOO    ",
"    OOOOOOOOOOOOOOOOOOOOOOOOOOOOOOOOOOOOOOOOOOOOOOOOOOOOOOOO    ",
"    OOOOOOOOOOOOOOOOOOOOOOOOOOOOOOOOOOOOOOOOOOOOOOOOOOOOOOOO    ",
"    OOOOOOOOOOOOOOOOOOOOOOOOOOOOOOOOOOOOOOOOOOOOOOOOOOOOOOOO    ",
"    OOOOOOOOOOOOOOOOOOOOOOOOOOOOOOOOOOOOOOOOOOOOOOOOOOOOOOOO    ",
"    OOOOOOOOOOOOOOOOOOOOOOOOOOOOOOOOOOOOOOOOOOOOOOOOOOOOOOOO    ",
"    OOOOOOOOOOOOOOOOOOOOOOOOOOOOOOOOOOOOOOOOOOOOOOOOOOOOOOOO    ",
"    OOOOOOOOOOOOOOOOOOOOOOOOOOOOOOOOOOOOOOOOOOOOOOOOOOOOOOOO    ",
"    OOOOOOOOOOOOOOOOOOOOOOOOOOOOOOOOOOOOOOOOOOOOOOOOOOOOOOOO    ",
"    OOOOOOOOOOOOOOOOOOOOOOOOOOOOOOOOOOOOOOOOOOOOOOOOOOOOOOOO    ",
"    OOOOOOOOOOOOOOOOOOOOOOOOOOOOOOOOOOOOOOOOOOOOOOOOOOOOOOOO    ",
"    OOOOOOOOOOOOOOOOOOOOOOOOOOOOOOOOOOOOOOOOOOOOOOOOOOOOOOOO    ",
"    OOOOOOOOOOOOOOOOOOOOOOOOOOOOOOOOOOOOOOOOOOOOOOOOOOOOOOOO    ",
"    OOOOOOOOOOOOOOOOOOOOOOOOOOOOOOOOOOOOOOOOOOOOOOOOOOOOOOOO    ",
"    OOOOOOOOOOOOOOOOOOOOOOOOOOOOOOOOOOOOOOOOOOOOOOOOOOOOOOOO    ",
"    OOOOOOOOOOOOOOOOOOOOOOOOOOOOOOOOOOOOOOOOOOOOOOOOOOOOOOOO    ",
"    OOOOOOOOOO@@@@@@........@@@@@@@@........@@@@@@OOOOOOOOOO    ",
"    OOOOOOOOOO@@@@@@........@@@@@@@@........@@@@@@OOOOOOOOOO    ",
"      OOOOOOOOOO@@@@$$####$$@@@@@@@@$$####$$@@@@OOOOOOOOOO      ",
"      OOOOOOOOOO@@@@$$####$$@@@@@@@@$$####$$@@@@OOOOOOOOOO      ",
"        OOOOOOOO@@@@$$$$$$$$@@@@@@@@$$$$$$$$@@@@OOOOOOOO        ",
"        OOOOOOOO@@@@$$$$$$$$@@@@@@@@$$$$$$$$@@@@OOOOOOOO        ",
"          OOOOOO@@@@@@@@@@@@@@@@@@@@@@@@@@@@@@@@OOOOOO          ",
"          OOOOOO@@@@@@@@@@@@@@@@@@@@@@@@@@@@@@@@OOOOOO          ",
"            OOOO@@@@@@@@@@@@@@@@@@@@@@@@@@@@@@@@OOOO            ",
"            OOOO@@@@@@@@@@@@@@@@@@@@@@@@@@@@@@@@OOOO            ",
"              OO@@@@@@@@@@@@oooooooo@@@@@@@@@@@@OO              ",
"              OO@@@@@@@@@@@@oooooooo@@@@@@@@@@@@OO              ",
"                @@@@@@@@@@XXXXXXXXXXXX@@@@@@@@@@                ",
"                @@@@@@@@@@XXXXXXXXXXXX@@@@@@@@@@                ",
"                @@@@@@@@@@@@XXXXXXXX@@@@@@@@@@@@                ",
"                @@@@@@@@@@@@XXXXXXXX@@@@@@@@@@@@                ",
"            @@@@++@@@@@@@@@@@@@@@@@@@@@@@@@@@@++@@@@            ",
"            @@@@++@@@@@@@@@@@@@@@@@@@@@@@@@@@@++@@@@            ",
"          @@@@@@@@++@@@@@@@@++++++++@@@@@@@@++@@@@@@@@          ",
"          @@@@@@@@++@@@@@@@@++++++++@@@@@@@@++@@@@@@@@          ",
"            @@@@@@@@++++++++@@@@@@@@++++++++@@@@@@@@            ",
"            @@@@@@@@++++++++@@@@@@@@++++++++@@@@@@@@            ",
"                @@@@++++++++@@@@@@@@++++++++@@@@                ",
"                @@@@++++++++@@@@@@@@++++++++@@@@                ",
"                @@@@@@@@@@@@@@@@@@@@@@@@@@@@@@@@                ",
"                @@@@@@@@@@@@@@@@@@@@@@@@@@@@@@@@                ",
"                ++++++++++++++++++++++++++++++++                ",
"                ++++++++++++++++++++++++++++++++                ",
"                @@@@@@@@@@            @@@@@@@@@@                ",
"                @@@@@@@@@@            @@@@@@@@@@                ",
"                  @@@@@@@@            @@@@@@@@                  ",
"                  @@@@@@@@            @@@@@@@@                  ",
"                    @@@@                @@@@                    ",
"                    @@@@                @@@@                    "
};
