/* XPM */
static char *_6cc3d06ddaf4e2ad49b44c8fd6bdccbkyBFEB3TapXfxW0k[] = {
/* columns rows colors chars-per-pixel */
"64 64 8 1 ",
"  c None",
". c black",
"X c gray5",
"o c #120000",
"O c #120C09",
"+ c #111202",
"@ c #12120A",
"# c gray7",
/* pixels */
"                          @@@@@@@@@@@@                          ",
"                          @@@@@@@@@@@@                          ",
"                        @@@@@@@@@@@@@@@@                        ",
"                        @@@@@@@@@@@@@@@@                        ",
"                      @@@@@@@@@@@@@@@@@@@@                      ",
"                      @@@@@@@@@@@@@@@@@@@@                      ",
"                    OO@@@@@@@@@@@@@@@@@@@@OO                    ",
"                    OO@@@@@@@@@@@@@@@@@@@@OO                    ",
"                  OOOO@@@@@@@@@@@@@@@@@@@@OOOO                  ",
"                  OOOO@@@@@@@@@@@@@@@@@@@@OOOO                  ",
"                OOOOOO@@@@@@@@@@@@@@@@@@@@OOOOOO                ",
"                OOOOOO@@@@@@@@@@@@@@@@@@@@OOOOOO                ",
"                OOOOOO@@@@@@@@@@@@@@@@@@@@OOOOOO                ",
"                OOOOOO@@@@@@@@@@@@@@@@@@@@OOOOOO                ",
"                OOOOOO@@@@@@@@@@@@@@@@@@@@OOOOOO                ",
"                OOOOOO@@@@@@@@@@@@@@@@@@@@OOOOOO                ",
"                OOOOOOOO@@@@@@@@@@@@@@@@OOOOOOOO                ",
"                OOOOOOOO@@@@@@@@@@@@@@@@OOOOOOOO                ",
"                OOOOOOOOOO@@@@@@@@@@@@OOOOOOOOOO                ",
"                OOOOOOOOOO@@@@@@@@@@@@OOOOOOOOOO                ",
"                OOOOOOOOOOOOOOOOOOOOOOOOOOOOOOOO                ",
"                OOOOOOOOOOOOOOOOOOOOOOOOOOOOOOOO                ",
"                OOOOOOOOOOOOOOOOOOOOOOOOOOOOOOOO                ",
"                OOOOOOOOOOOOOOOOOOOOOOOOOOOOOOOO                ",
"                OOOOOOOOOOOOOOOOOOOOOOOOOOOOOOOO                ",
"                OOOOOOOOOOOOOOOOOOOOOOOOOOOOOOOO                ",
"              OOOOOOOOOOOOOOOOOOOOOOOOOOOOOOOOOOOO              ",
"              OOOOOOOOOOOOOOOOOOOOOOOOOOOOOOOOOOOO              ",
"              OOOOOOOOOOOOOOOOOOOOOOOOOOOOOOOOOOOO              ",
"              OOOOOOOOOOOOOOOOOOOOOOOOOOOOOOOOOOOO              ",
"              OOOOOO..........OOOO..........OOOO++              ",
"              OOOOOO..........OOOO..........OOOO++              ",
"                OOOOOO####..OOOOOOOO..####OOOOOO                ",
"                OOOOOO####..OOOOOOOO..####OOOOOO                ",
"                OOOOOOOOOOOOOOOOOOOOOOOOOOOOOOOO                ",
"                OOOOOOOOOOOOOOOOOOOOOOOOOOOOOOOO                ",
"                OOOOOOOOOOOOOOOOOOOOOOOOOOOOOOOO                ",
"                OOOOOOOOOOOOOOOOOOOOOOOOOOOOOOOO                ",
"                OOOOOOOOOOOOOO####OOOOOOOOOOOOOO                ",
"                OOOOOOOOOOOOOO####OOOOOOOOOOOOOO                ",
"                OOOOOOOOOOOOOO....OOOOOOOOOOOOOO                ",
"                OOOOOOOOOOOOOO....OOOOOOOOOOOOOO                ",
"                OOOOOOOOOOOOOOOOOOOOOOOOOOOOOOOO                ",
"                OOOOOOOOOOOOOOOOOOOOOOOOOOOOOOOO                ",
"                OOOOOOOOOOOOOOOOOOOOOOOOOOOOOOOO                ",
"                OOOOOOOOOOOOOOOOOOOOOOOOOOOOOOOO                ",
"            OO##++OOOOOOOOOOOOOOOOOOOOOOOOOOOO++##OO            ",
"            OO##++OOOOOOOOOOOOOOOOOOOOOOOOOOOO++##OO            ",
"          ++OO####++++++++++++OOOO++++++++++++####OOOO          ",
"          ++OO####++++++++++++OOOO++++++++++++####OOOO          ",
"            OO################++++################OO            ",
"            OO################++++################OO            ",
"              ##############++++++++##############              ",
"              ##############++++++++##############              ",
"                ##############++++##############                ",
"                ##############++++##############                ",
"                ################################                ",
"                ################################                ",
"                oooooooooooooo    oooooooooooooo                ",
"                oooooooooooooo    oooooooooooooo                ",
"                  XXXXXXXX            XXXXXXXX                  ",
"                  XXXXXXXX            XXXXXXXX                  ",
"                    XXXX                XXXX                    ",
"                    XXXX                XXXX                    "
};
