/* XPM */
static char *MA__[] = {
/* columns rows colors chars-per-pixel */
"33 33 2 1 ",
"  c white",
". c None",
/* pixels */
".........              ..........",
".........              ..........",
".........              ..........",
".........              ..........",
".........               .........",
".....    ..........         .....",
".....    ..........         .....",
".....    ..........         .....",
".....    ..........         .....",
"         ...............         ",
"         ...............         ",
"         ...............         ",
"         ...............         ",
"         ...............         ",
"         ...............         ",
"         ...............         ",
"         ...............         ",
"         ...............         ",
"         ...............         ",
"         ...............         ",
"         ...............         ",
"         ...............         ",
"         ...............         ",
".....         ..........    .....",
".....         ..........    .....",
".....         ..........    .....",
".....         ..........    .....",
".....         ..........    .....",
"..........              .........",
"..........              .........",
"..........              .........",
"..........              .........",
"..........              ........."
};
