/* XPM */
static char *MQ__[] = {
/* columns rows colors chars-per-pixel */
"29 33 2 1 ",
"  c white",
". c None",
/* pixels */
"..........         ..........",
"..........         ..........",
"..........         ..........",
"..........         ..........",
"..........         ..........",
".....              ..........",
".....              ..........",
".....              ..........",
".....              ..........",
".....              ..........",
"..........         ..........",
"..........         ..........",
"..........         ..........",
"..........         ..........",
"..........         ..........",
"..........         ..........",
"..........         ..........",
"..........         ..........",
"..........         ..........",
"..........         ..........",
"..........         ..........",
"..........         ..........",
"..........         ..........",
"..........         ..........",
"..........         ..........",
"..........         ..........",
"..........         ..........",
"..........         ..........",
"                            .",
"                            .",
"                            .",
"                            .",
"                            ."
};
