/* XPM */
static char *MQ__[] = {
/* columns rows colors chars-per-pixel */
"13 14 2 1 ",
"  c white",
". c None",
/* pixels */
".....    ....",
".....    ....",
"...      ....",
"...      ....",
".....    ....",
".....    ....",
".....    ....",
".....    ....",
".....    ....",
".....    ....",
".....    ....",
".....    ....",
"             ",
"             "
};
