/* XPM */
static char *Ng__[] = {
/* columns rows colors chars-per-pixel */
"33 33 2 1 ",
"  c white",
". c None",
/* pixels */
".........                   .....",
".........                   .....",
".........                   .....",
".........                   .....",
".........                   .....",
".....         ...................",
".....         ...................",
".....         ...................",
".....         ...................",
"         ........................",
"         ........................",
"         ........................",
"         ........................",
"         ........................",
"                            .....",
"                            .....",
"                            .....",
"                            .....",
"                            .....",
"         ...............         ",
"         ...............         ",
"         ...............         ",
"         ...............         ",
"         ...............         ",
"         ...............         ",
"         ...............         ",
"         ...............         ",
"         ...............         ",
".....                       .....",
".....                       .....",
".....                       .....",
".....                       .....",
".....                       ....."
};
