/* XPM */
static char *Ng__[] = {
/* columns rows colors chars-per-pixel */
"15 14 2 1 ",
"  c white",
". c None",
/* pixels */
"....        ...",
"....        ...",
"..    .........",
"..    .........",
"    ...........",
"    ...........",
"            ...",
"            ...",
"    ......    .",
"    ......    .",
"    ......    .",
"    ......    .",
"..          ...",
"..          ..."
};
