/* XPM */
static char *OQ__[] = {
/* columns rows colors chars-per-pixel */
"15 14 2 1 ",
"  c white",
". c None",
/* pixels */
"..          ...",
"..          ...",
"    ......    .",
"    ......    .",
"    ......    .",
"    ......    .",
"..            .",
"..            .",
"..........    .",
"..........    .",
"........    ...",
"........    ...",
"..        .....",
"..        ....."
};
