/* XPM */
static char *_21e5616ccdc46739e4f315818ac5ca2Cat31Vgekiw8aNdp[] = {
/* columns rows colors chars-per-pixel */
"100 100 15 1 ",
"  c None",
". c black",
"X c #503018",
"o c #384040",
"O c #784040",
"+ c #C03838",
"@ c #885028",
"# c #882840",
"$ c #F06848",
"% c #C89800",
"& c #D8A078",
"* c #406888",
"= c #F8D0B8",
"- c #B8B0D0",
"; c #E8E8F8",
/* pixels */
"                                                                                                    ",
"                                                                                                    ",
"                                                                                                    ",
"                                                                                                    ",
"                                    ############################                                    ",
"                                    ############################                                    ",
"                                    ############################                                    ",
"                                    ############################                                    ",
"                            ....####$$$$$$$$$$$$$$$$$$$$$$$$$$$$####....                            ",
"                            ....####$$$$$$$$$$$$$$$$$$$$$$$$$$$$####....                            ",
"                            ....####$$$$$$$$$$$$$$$$$$$$$$$$$$$$####....                            ",
"                            ....####$$$$$$$$$$$$$$$$$$$$$$$$$$$$####....                            ",
"                        ....++++$$$$$$$$$$$$$$$$$$$$$$$$$$$$$$$$$$$$++++....                        ",
"                        ....++++$$$$$$$$$$$$$$$$$$$$$$$$$$$$$$$$$$$$++++....                        ",
"                        ....++++$$$$$$$$$$$$$$$$$$$$$$$$$$$$$$$$$$$$++++....                        ",
"                        ....++++$$$$$$$$$$$$$$$$$$$$$$$$$$$$$$$$$$$$++++....                        ",
"                        ####$$$$$$$$$$$$$$$$$$$$$$$$$$$$$$$$$$$$$$$$$$$$####                        ",
"                        ####$$$$$$$$$$$$$$$$$$$$$$$$$$$$$$$$$$$$$$$$$$$$####                        ",
"                        ####$$$$$$$$$$$$$$$$$$$$$$$$$$$$$$$$$$$$$$$$$$$$####                        ",
"                        ####$$$$$$$$$$$$$$$$$$$$$$$$$$$$$$$$$$$$$$$$$$$$####                        ",
"                    ....++++$$$$$$$$$$$$$$$$$$$$$$$$$$$$$$$$$$$$$$$$$$$$++++....                    ",
"                    ....++++$$$$$$$$$$$$$$$$$$$$$$$$$$$$$$$$$$$$$$$$$$$$++++....                    ",
"                    ....++++$$$$$$$$$$$$$$$$$$$$$$$$$$$$$$$$$$$$$$$$$$$$++++....                    ",
"                    ....++++$$$$$$$$$$$$$$$$$$$$$$$$$$$$$$$$$$$$$$$$$$$$++++....                    ",
"                    ....++++++++$$$$$$$$$$$$$$$$$$$$$$$$$$$$$$$$$$$$++++++++....                    ",
"                    ....++++++++$$$$$$$$$$$$$$$$$$$$$$$$$$$$$$$$$$$$++++++++....                    ",
"                    ....++++++++$$$$$$$$$$$$$$$$$$$$$$$$$$$$$$$$$$$$++++++++....                    ",
"                    ....++++++++$$$$$$$$$$$$$$$$$$$$$$$$$$$$$$$$$$$$++++++++....                    ",
"                    ....++++++++++++++++$$$$$$$$$$$$$$$$$$$$++++++++++++++++....                    ",
"                    ....++++++++++++++++$$$$$$$$$$$$$$$$$$$$++++++++++++++++....                    ",
"                    ....++++++++++++++++$$$$$$$$$$$$$$$$$$$$++++++++++++++++....                    ",
"                    ....++++++++++++++++$$$$$$$$$$$$$$$$$$$$++++++++++++++++....                    ",
"                    ########++++++++++++++++;;;;;;;;;;;;++++++++++++++++########                    ",
"                    ########++++++++++++++++;;;;;;;;;;;;++++++++++++++++########                    ",
"                    ########++++++++++++++++;;;;;;;;;;;;++++++++++++++++########                    ",
"                    ########++++++++++++++++;;;;;;;;;;;;++++++++++++++++########                    ",
"                XXXXXXXX@@@@----++++++++----++++++++++++----++++++++----@@@@XXXXXXXX                ",
"                XXXXXXXX@@@@----++++++++----++++++++++++----++++++++----@@@@XXXXXXXX                ",
"                XXXXXXXX@@@@----++++++++----++++++++++++----++++++++----@@@@XXXXXXXX                ",
"                XXXXXXXX@@@@----++++++++----++++++++++++----++++++++----@@@@XXXXXXXX                ",
"                OOOO&&&&....####--------;;;;;;;;;;;;;;;;;;;;--------####....&&&&OOOO                ",
"                OOOO&&&&....####--------;;;;;;;;;;;;;;;;;;;;--------####....&&&&OOOO                ",
"                OOOO&&&&....####--------;;;;;;;;;;;;;;;;;;;;--------####....&&&&OOOO                ",
"                OOOO&&&&....####--------;;;;;;;;;;;;;;;;;;;;--------####....&&&&OOOO                ",
"                OOOO&&&&....XXXX....----------------------------....XXXX....&&&&OOOO                ",
"                OOOO&&&&....XXXX....----------------------------....XXXX....&&&&OOOO                ",
"                OOOO&&&&....XXXX....----------------------------....XXXX....&&&&OOOO                ",
"                OOOO&&&&....XXXX....----------------------------....XXXX....&&&&OOOO                ",
"                    ....XXXX@@@@XXXXoooo....................ooooXXXX@@@@XXXX....                    ",
"                    ....XXXX@@@@XXXXoooo....................ooooXXXX@@@@XXXX....                    ",
"                    ....XXXX@@@@XXXXoooo....................ooooXXXX@@@@XXXX....                    ",
"                    ....XXXX@@@@XXXXoooo....................ooooXXXX@@@@XXXX....                    ",
"                        ....@@@@&&&&----....OOOOOOOOOOOO....----&&&&@@@@....                        ",
"                        ....@@@@&&&&----....OOOOOOOOOOOO....----&&&&@@@@....                        ",
"                        ....@@@@&&&&----....OOOOOOOOOOOO....----&&&&@@@@....                        ",
"                        ....@@@@&&&&----....OOOOOOOOOOOO....----&&&&@@@@....                        ",
"                            OOOO&&&&============================&&&&OOOO                            ",
"                            OOOO&&&&============================&&&&OOOO                            ",
"                            OOOO&&&&============================&&&&OOOO                            ",
"                            OOOO&&&&============================&&&&OOOO                            ",
"                            ....OOOO&&&&========&&&&========&&&&OOOO....                            ",
"                            ....OOOO&&&&========&&&&========&&&&OOOO....                            ",
"                            ....OOOO&&&&========&&&&========&&&&OOOO....                            ",
"                            ....OOOO&&&&========&&&&========&&&&OOOO....                            ",
"                        ....oooo%%%%....OOOO&&&&&&&&&&&&OOOO....%%%%oooo....                        ",
"                        ....oooo%%%%....OOOO&&&&&&&&&&&&OOOO....%%%%oooo....                        ",
"                        ....oooo%%%%....OOOO&&&&&&&&&&&&OOOO....%%%%oooo....                        ",
"                        ....oooo%%%%....OOOO&&&&&&&&&&&&OOOO....%%%%oooo....                        ",
"                    OOOOoooooooo%%%%++++----OOOOOOOOOOOO----++++%%%%ooooooooOOOO                    ",
"                    OOOOoooooooo%%%%++++----OOOOOOOOOOOO----++++%%%%ooooooooOOOO                    ",
"                    OOOOoooooooo%%%%++++----OOOOOOOOOOOO----++++%%%%ooooooooOOOO                    ",
"                    OOOOoooooooo%%%%++++----OOOOOOOOOOOO----++++%%%%ooooooooOOOO                    ",
"                OOOO====&&&&oooo@@@@++++++++----oooo----++++++++@@@@oooo&&&&====OOOO                ",
"                OOOO====&&&&oooo@@@@++++++++----oooo----++++++++@@@@oooo&&&&====OOOO                ",
"                OOOO====&&&&oooo@@@@++++++++----oooo----++++++++@@@@oooo&&&&====OOOO                ",
"                OOOO====&&&&oooo@@@@++++++++----oooo----++++++++@@@@oooo&&&&====OOOO                ",
"                OOOO========........OOOO++++----oooo----++++OOOO........========OOOO                ",
"                OOOO========........OOOO++++----oooo----++++OOOO........========OOOO                ",
"                OOOO========........OOOO++++----oooo----++++OOOO........========OOOO                ",
"                OOOO========........OOOO++++----oooo----++++OOOO........========OOOO                ",
"                    OOOOOOOO....****............................****....OOOOOOOO                    ",
"                    OOOOOOOO....****............................****....OOOOOOOO                    ",
"                    OOOOOOOO....****............................****....OOOOOOOO                    ",
"                    OOOOOOOO....****............................****....OOOOOOOO                    ",
"                            ....oooooooo********oooo********oooooooo....                            ",
"                            ....oooooooo********oooo********oooooooo....                            ",
"                            ....oooooooo********oooo********oooooooo....                            ",
"                            ....oooooooo********oooo********oooooooo....                            ",
"                            ....++++++++....................++++++++....                            ",
"                            ....++++++++....................++++++++....                            ",
"                            ....++++++++....................++++++++....                            ",
"                            ....++++++++....................++++++++....                            ",
"                                ........                    ........                                ",
"                                ........                    ........                                ",
"                                ........                    ........                                ",
"                                ........                    ........                                ",
"                                                                                                    ",
"                                                                                                    ",
"                                                                                                    ",
"                                                                                                    "
};
