/* XPM */
static char *_75068e24b9d417bd5fe8916c14d40deYIEjRRVYkGtIJMcu[] = {
/* columns rows colors chars-per-pixel */
"64 64 9 1 ",
"  c None",
". c #D09000",
"X c #FFB001",
"o c #FFC953",
"O c #F4CA6B",
"+ c #CECECE",
"@ c #EAEAEA",
"# c gray95",
"$ c white",
/* pixels */
"                                                                ",
"                                                                ",
"                                                                ",
"                                                                ",
"                                                                ",
"                                                                ",
"                                                                ",
"                                                                ",
"                          $$$$$$$$$$$$                          ",
"                          $$$$$$$$$$$$                          ",
"                        $$$$$$$$$$$$$$$$                        ",
"                        $$$$$$$$$$$$$$$$                        ",
"                      ++@@##@@@@@@@@@@@@++                      ",
"                      ++@@##@@@@@@@@@@@@++                      ",
"                      ++@@##@@@@@@@@@@@@++                      ",
"                      ++@@##@@@@@@@@@@@@++                      ",
"                      ++@@##@@@@@@@@@@@@++                      ",
"                      ++@@##@@@@@@@@@@@@++                      ",
"                      ++..ooXXXXXX..XX..++                      ",
"                      ++..ooXXXXXX..XX..++                      ",
"                      ++XXooXX..XXXXXX..++                      ",
"                      ++XXooXX..XXXXXX..++                      ",
"                      ++XXoo..XXXX..XX..++                      ",
"                      ++XXoo..XXXX..XX..++                      ",
"                      ++XXooXXXXXXXXXX..++                      ",
"                      ++XXooXXXXXXXXXX..++                      ",
"                      ++XXooXXXXXXXX....++                      ",
"                      ++XXooXXXXXXXX....++                      ",
"                        ++ooXXXXXXXX..++                        ",
"                        ++ooXXXXXXXX..++                        ",
"                        ++ooXXXXXXXX..++                        ",
"                        ++ooXXXXXXXX..++                        ",
"                        ++ooXXXXXXXX..++                        ",
"                        ++ooXXXXXXXX..++                        ",
"                        ++ooXXXXXXXX..++                        ",
"                        ++ooXXXXXXXX..++                        ",
"                        ++ooXXXXXXXX..++                        ",
"                        ++ooXXXXXXXX..++                        ",
"                        ++ooXXXXXXXX..++                        ",
"                        ++ooXXXXXXXX..++                        ",
"                        ++ooXXXXXXXX..++                        ",
"                        ++ooXXXXXXXX..++                        ",
"                        ++ooXXXXXXXX..++                        ",
"                        ++ooXXXXXXXX..++                        ",
"                        ++ooXXXXXXXX..++                        ",
"                        ++ooXXXXXXXX..++                        ",
"                        ++OO..........++                        ",
"                        ++OO..........++                        ",
"                          ++++++++++++                          ",
"                          ++++++++++++                          ",
"                                                                ",
"                                                                ",
"                                                                ",
"                                                                ",
"                                                                ",
"                                                                ",
"                                                                ",
"                                                                ",
"                                                                ",
"                                                                ",
"                                                                ",
"                                                                ",
"                                                                ",
"                                                                "
};
