/* XPM */
static char *faac29ce40924f9695025daef3c02082KiXeMPYOBkvYIhnG[] = {
/* columns rows colors chars-per-pixel */
"64 64 9 1 ",
"  c None",
". c black",
"X c #010E00",
"o c #01040B",
"O c gray5",
"+ c #120C09",
"@ c #020A11",
"# c #0A0E12",
"$ c gray7",
/* pixels */
"            oooooo                            oooooo            ",
"            oooooo                            oooooo            ",
"          oooooooooo                        oooooooooo          ",
"          oooooooooo                        oooooooooo          ",
"        oooooooooooooo                    oooooooooooooo        ",
"        oooooooooooooo                    oooooooooooooo        ",
"        oooooooooooooooooooooooooooooooooooooooooooooooo        ",
"        oooooooooooooooooooooooooooooooooooooooooooooooo        ",
"        oooooooooooooooooooooooooooooooooooooooooooooooo        ",
"        oooooooooooooooooooooooooooooooooooooooooooooooo        ",
"          oooooooooooooooooooooooooooooooooooooooooooo          ",
"          oooooooooooooooooooooooooooooooooooooooooooo          ",
"            oooooo++++++++++++++++++++++++++++oooooo            ",
"            oooooo++++++++++++++++++++++++++++oooooo            ",
"            oooo++++++++++++++++++++++++++++++++oooo            ",
"            oooo++++++++++++++++++++++++++++++++oooo            ",
"            oooo++++++++++++++++++++++++++++++++oooo            ",
"            oooo++++++++++++++++++++++++++++++++oooo            ",
"            oooo++++++++++++++++++++++++++++++++oooo            ",
"            oooo++++++++++++++++++++++++++++++++oooo            ",
"            oooo++++++++++++++++++++++++++++++++oooo            ",
"            oooo++++++++++++++++++++++++++++++++oooo            ",
"            oooo++++++++++++++++++++++++++++++++oooo            ",
"            oooo++++++++++++++++++++++++++++++++oooo            ",
"            oooo++++++++++++++++++++++++++++++++oooo            ",
"            oooo++++++++++++++++++++++++++++++++oooo            ",
"            oo++++++++++++++++++++++++++++++++++++oo            ",
"            oo++++++++++++++++++++++++++++++++++++oo            ",
"            oo++++++$$$$$$++++++++++++$$$$$$++++++oo            ",
"            oo++++++$$$$$$++++++++++++$$$$$$++++++oo            ",
"            oo++++++$$..$$++++++++++++$$..$$++++++oo            ",
"            oo++++++$$..$$++++++++++++$$..$$++++++oo            ",
"            oooo++++$$$$$$++++++++++++$$$$$$++++oooo            ",
"            oooo++++$$$$$$++++++++++++$$$$$$++++oooo            ",
"            oooo++++++++++++++++++++++++++++++++oooo            ",
"            oooo++++++++++++++++++++++++++++++++oooo            ",
"              oo++++++++++++........++++++++++++oo              ",
"              oo++++++++++++........++++++++++++oo              ",
"                ++++++++++++........++++++++++++                ",
"                ++++++++++++........++++++++++++                ",
"                ++++++++++++........++++++++++++                ",
"                ++++++++++++........++++++++++++                ",
"                ++++++++++++++++++++++++++++++++                ",
"                ++++++++++++++++++++++++++++++++                ",
"                ++++++++++++++++++++++++++++++++                ",
"                ++++++++++++++++++++++++++++++++                ",
"            ++###++++++++++++++++++++++++++++++###++            ",
"            ++###++++++++++++++++++++++++++++++###++            ",
"          ++++##########@@############@@##########++++          ",
"          ++++##########@@############@@##########++++          ",
"            ++##########@@############@@##########++            ",
"            ++##########@@############@@##########++            ",
"                ########@@############@@########                ",
"                ########@@############@@########                ",
"                XXXXXXXXXXXXXXXXXXXXXXXXXXXXXXXX                ",
"                XXXXXXXXXXXXXXXXXXXXXXXXXXXXXXXX                ",
"                XXXXXXXXXXXXXX    XXXXXXXXXXXXXX                ",
"                XXXXXXXXXXXXXX    XXXXXXXXXXXXXX                ",
"                XXXXXXXXXXXX        XXXXXXXXXXXX                ",
"                XXXXXXXXXXXX        XXXXXXXXXXXX                ",
"                  OOOOOOOO            OOOOOOOO                  ",
"                  OOOOOOOO            OOOOOOOO                  ",
"                    OOOO                OOOO                    ",
"                    OOOO                OOOO                    "
};
