/* XPM */
static char *result[] = {
/* columns rows colors chars-per-pixel */
"64 64 8 1 ",
"  c black",
". c red",
"X c #09C300",
"o c #FFEA00",
"O c gray75",
"+ c #F9AD81",
"@ c white",
"# c None",
/* pixels */
"############......############################......############",
"############......############################......############",
"##########..........########################..........##########",
"##########..........########################..........##########",
"########..............####################..............########",
"########..............####################..............########",
"########................................................########",
"########................................................########",
"########................................................########",
"########................................................########",
"##########............................................##########",
"##########............................................##########",
"############......++++++++++++++++++++++++++++......############",
"############......++++++++++++++++++++++++++++......############",
"############....++++++++++++++++++++++++++++++++....############",
"############....++++++++++++++++++++++++++++++++....############",
"############....++++++++++++++++++++++++++++++++....############",
"############....++++++++++++++++++++++++++++++++....############",
"############....++++++++++++++++++++++++++++++++....############",
"############....++++++++++++++++++++++++++++++++....############",
"############....++++++++++++++++++++++++++++++++....############",
"############....++++++++++++++++++++++++++++++++....############",
"############....++++++++++++++++++++++++++++++++....############",
"############....++++++++++++++++++++++++++++++++....############",
"############....++++++++++++++++++++++++++++++++....############",
"############....++++++++++++++++++++++++++++++++....############",
"############..++++++++++++++++++++++++++++++++++++..############",
"############..++++++++++++++++++++++++++++++++++++..############",
"############..++++++@@@@@@++++++++++++@@@@@@++++++..############",
"############..++++++@@@@@@++++++++++++@@@@@@++++++..############",
"############..++++++@@  @@++++++++++++@@  @@++++++..############",
"############..++++++@@  @@++++++++++++@@  @@++++++..############",
"############....++++@@@@@@++++++++++++@@@@@@++++....############",
"############....++++@@@@@@++++++++++++@@@@@@++++....############",
"############....++++++++++++++++++++++++++++++++....############",
"############....++++++++++++++++++++++++++++++++....############",
"##############..++++++++++++        ++++++++++++..##############",
"##############..++++++++++++        ++++++++++++..##############",
"################++++++++++++        ++++++++++++################",
"################++++++++++++        ++++++++++++################",
"################++++++++++++        ++++++++++++################",
"################++++++++++++        ++++++++++++################",
"################++++++++++++++++++++++++++++++++################",
"################++++++++++++++++++++++++++++++++################",
"################++++++++++++++++++++++++++++++++################",
"################++++++++++++++++++++++++++++++++################",
"############++oooooooooooooooooooooooooooooooooooo++############",
"############++oooooooooooooooooooooooooooooooooooo++############",
"##########++++oooooooooooooooooooooooooooooooooooo++++##########",
"##########++++oooooooooooooooooooooooooooooooooooo++++##########",
"############++oooooooooooooooooooooooooooooooooooo++############",
"############++oooooooooooooooooooooooooooooooooooo++############",
"################oooooooooooooooooooooooooooooooo################",
"################oooooooooooooooooooooooooooooooo################",
"################XXXXXXXXXXXXXXXXXXXXXXXXXXXXXXXX################",
"################XXXXXXXXXXXXXXXXXXXXXXXXXXXXXXXX################",
"################XXXXXXXXXXXXXX####XXXXXXXXXXXXXX################",
"################XXXXXXXXXXXXXX####XXXXXXXXXXXXXX################",
"################XXXXXXXXXXXX########XXXXXXXXXXXX################",
"################XXXXXXXXXXXX########XXXXXXXXXXXX################",
"##################OOOOOOOO############OOOOOOOO##################",
"##################OOOOOOOO############OOOOOOOO##################",
"####################OOOO################OOOO####################",
"####################OOOO################OOOO####################"
};
