/* XPM */
static char *result[] = {
/* columns rows colors chars-per-pixel */
"64 64 5 1 ",
"  c #FF0072",
". c #B7B7B7",
"X c #FF82BA",
"o c #E6E6E6",
"O c None",
/* pixels */
"OOOOOOOOOOOOOOOOOOOOOOOOOOOOOOOOOOOOOOOOOOOOOOOOOOOOOOOOOOOOOOOO",
"OOOOOOOOOOOOOOOOOOOOOOOOOOOOOOOOOOOOOOOOOOOOOOOOOOOOOOOOOOOOOOOO",
"OOOOOOOOOOOOOOOOOOOOOOOOOOOOOOOOOOOOOOOOOOOOOOOOOOOOOOOOOOOOOOOO",
"OOOOOOOOOOOOOOOOOOOOOOOOOOOOOOOOOOOOOOOOOOOOOOOOOOOOOOOOOOOOOOOO",
"OOOOOOOOOOOOOOOOOOOOOOOOOOOOOOOOOOOOOOOOOOOOOOOOOOOOOOOOOOOOOOOO",
"OOOOOOOOOOOOOOOOOOOOOOOOOOOOOOOOOOOOOOOOOOOOOOOOOOOOOOOOOOOOOOOO",
"OOOOOOOOOOOOOOOOOOOOOOOOOOOOOOOOOOOOOOOOOOOOOOOOOOOOOOOOOOOOOOOO",
"OOOOOOOOOOOOOOOOOOOOOOOOOOOOOOOOOOOOOOOOOOOOOOOOOOOOOOOOOOOOOOOO",
"OOOOOOOOOOOOOOOOOOOOOOOOOOOOOOOOOOOOOOOOOOOOOOOOOOOOOOOOOOOOOOOO",
"OOOOOOOOOOOOOOOOOOOOOOOOOOOOOOOOOOOOOOOOOOOOOOOOOOOOOOOOOOOOOOOO",
"OOOOOOOOOOOOOOOOOOOOOOOOOOOOOOOOOOOOOOOOOOOOOOOOOOOOOOOOOOOOOOOO",
"OOOOOOOOOOOOOOOOOOOOOOOOOOOOOOOOOOOOOOOOOOOOOOOOOOOOOOOOOOOOOOOO",
"OOOOOOOOOOOOooOOooOOooOOooOOooOOooOOooOOooOOooOOooooOOOOOOOOOOOO",
"OOOOOOOOOOOOooOOooOOooOOooOOooOOooOOooOOooOOooOOooooOOOOOOOOOOOO",
"OOOOOOOOOOOOooooooooooooooooooooooooooooooooooooooooOOOOOOOOOOOO",
"OOOOOOOOOOOOooooooooooooooooooooooooooooooooooooooooOOOOOOOOOOOO",
"OOOOOOOOOOOOoooo................................ooooOOOOOOOOOOOO",
"OOOOOOOOOOOOoooo................................ooooOOOOOOOOOOOO",
"OOOOOOOOOOOOoooo..........            ..........ooooOOOOOOOOOOOO",
"OOOOOOOOOOOOoooo..........            ..........ooooOOOOOOOOOOOO",
"OOOOOOOOOOOOoooo........    XXXXXXXX    ........ooooOOOOOOOOOOOO",
"OOOOOOOOOOOOoooo........    XXXXXXXX    ........ooooOOOOOOOOOOOO",
"OOOOOOOOOOOOoooo......  XXXXXXXXXXXXXXXX  ......ooooOOOOOOOOOOOO",
"OOOOOOOOOOOOoooo......  XXXXXXXXXXXXXXXX  ......ooooOOOOOOOOOOOO",
"OOOOOOOOOOOOoooo....  XXXXXXXXXXXXXXXXXXXX  ....ooooOOOOOOOOOOOO",
"OOOOOOOOOOOOoooo....  XXXXXXXXXXXXXXXXXXXX  ....ooooOOOOOOOOOOOO",
"OOOOOOOOOOOOoooo..    XXXXXXXXXXXXXXXXXXXX    ..ooooOOOOOOOOOOOO",
"OOOOOOOOOOOOoooo..    XXXXXXXXXXXXXXXXXXXX    ..ooooOOOOOOOOOOOO",
"OOOOOOOOOOOOoooo..  XXXXXXXXXXXXXXXXXXXXXXXX  ..ooooOOOOOOOOOOOO",
"OOOOOOOOOOOOoooo..  XXXXXXXXXXXXXXXXXXXXXXXX  ..ooooOOOOOOOOOOOO",
"OOOOOOOOOOOOoooo..  XXXXXXXXXXXXXXXXXXXXXXXX  ..ooooOOOOOOOOOOOO",
"OOOOOOOOOOOOoooo..  XXXXXXXXXXXXXXXXXXXXXXXX  ..ooooOOOOOOOOOOOO",
"OOOOOOOOOOOOoooo..  XXXXXXXXXXXXXXXXXXXXXXXX  ..ooooOOOOOOOOOOOO",
"OOOOOOOOOOOOoooo..  XXXXXXXXXXXXXXXXXXXXXXXX  ..ooooOOOOOOOOOOOO",
"OOOOOOOOOOOOoooo..  XXXXXXXXXXXXXXXXXXXXXXXX  ..ooooOOOOOOOOOOOO",
"OOOOOOOOOOOOoooo..  XXXXXXXXXXXXXXXXXXXXXXXX  ..ooooOOOOOOOOOOOO",
"OOOOOOOOOOOOoooo..    XXXXXXXXXXXXXXXXXXXX    ..ooooOOOOOOOOOOOO",
"OOOOOOOOOOOOoooo..    XXXXXXXXXXXXXXXXXXXX    ..ooooOOOOOOOOOOOO",
"OOOOOOOOOOOOoooo....  XXXXXXXXXXXXXXXXXXXX  ....ooooOOOOOOOOOOOO",
"OOOOOOOOOOOOoooo....  XXXXXXXXXXXXXXXXXXXX  ....ooooOOOOOOOOOOOO",
"OOOOOOOOOOOOoooo......  XXXXXXXXXXXXXXXX  ......ooooOOOOOOOOOOOO",
"OOOOOOOOOOOOoooo......  XXXXXXXXXXXXXXXX  ......ooooOOOOOOOOOOOO",
"OOOOOOOOOOOOoooo........    XXXXXXXX    ........ooooOOOOOOOOOOOO",
"OOOOOOOOOOOOoooo........    XXXXXXXX    ........ooooOOOOOOOOOOOO",
"OOOOOOOOOOOOoooo..........            ..........ooooOOOOOOOOOOOO",
"OOOOOOOOOOOOoooo..........            ..........ooooOOOOOOOOOOOO",
"OOOOOOOOOOOOoooo................................ooooOOOOOOOOOOOO",
"OOOOOOOOOOOOoooo................................ooooOOOOOOOOOOOO",
"OOOOOOOOOOOOooooooooooooooooooooooooooooooooooooooooOOOOOOOOOOOO",
"OOOOOOOOOOOOooooooooooooooooooooooooooooooooooooooooOOOOOOOOOOOO",
"OOOOOOOOOOOOooOOooOOooOOooOOooOOooOOooOOooOOooOOooooOOOOOOOOOOOO",
"OOOOOOOOOOOOooOOooOOooOOooOOooOOooOOooOOooOOooOOooooOOOOOOOOOOOO",
"OOOOOOOOOOOOOOOOOOOOOOOOOOOOOOOOOOOOOOOOOOOOOOOOOOOOOOOOOOOOOOOO",
"OOOOOOOOOOOOOOOOOOOOOOOOOOOOOOOOOOOOOOOOOOOOOOOOOOOOOOOOOOOOOOOO",
"OOOOOOOOOOOOOOOOOOOOOOOOOOOOOOOOOOOOOOOOOOOOOOOOOOOOOOOOOOOOOOOO",
"OOOOOOOOOOOOOOOOOOOOOOOOOOOOOOOOOOOOOOOOOOOOOOOOOOOOOOOOOOOOOOOO",
"OOOOOOOOOOOOOOOOOOOOOOOOOOOOOOOOOOOOOOOOOOOOOOOOOOOOOOOOOOOOOOOO",
"OOOOOOOOOOOOOOOOOOOOOOOOOOOOOOOOOOOOOOOOOOOOOOOOOOOOOOOOOOOOOOOO",
"OOOOOOOOOOOOOOOOOOOOOOOOOOOOOOOOOOOOOOOOOOOOOOOOOOOOOOOOOOOOOOOO",
"OOOOOOOOOOOOOOOOOOOOOOOOOOOOOOOOOOOOOOOOOOOOOOOOOOOOOOOOOOOOOOOO",
"OOOOOOOOOOOOOOOOOOOOOOOOOOOOOOOOOOOOOOOOOOOOOOOOOOOOOOOOOOOOOOOO",
"OOOOOOOOOOOOOOOOOOOOOOOOOOOOOOOOOOOOOOOOOOOOOOOOOOOOOOOOOOOOOOOO",
"OOOOOOOOOOOOOOOOOOOOOOOOOOOOOOOOOOOOOOOOOOOOOOOOOOOOOOOOOOOOOOOO",
"OOOOOOOOOOOOOOOOOOOOOOOOOOOOOOOOOOOOOOOOOOOOOOOOOOOOOOOOOOOOOOOO"
};
