/* XPM */
static char *e33bf32b9ea6490be7b4ce9bdbf7447fyGu66ZHLN9boKaYt[] = {
/* columns rows colors chars-per-pixel */
"200 68 2 1 ",
"  c None",
". c white",
/* pixels */
"      ...........        ..............      ......         .....  .................  ..................   ......         .....  ......         .....   .....................          .............    ",
"      ...........        ..............      ......         .....  .................  ..................   ......         .....  ......         .....   .....................          .............    ",
"      ...........        ...............     ......         .....  .................  ..................   ......         .....  ......         .....   .....................          .............    ",
"   ......      .....  ......         .....   .........      .....       ......              ......         .........      .....  ......         .....   ......                        ....      ....    ",
"   ......      .....  ......         .....   .........      .....       ......              ......         .........      .....  ......         .....   ......                     .......       ...... ",
"   ......      .....  ......         .....   .........      .....       ......              ......         .........      .....  ......         .....   ......                     .......       ...... ",
"......                ......         .....   ............   .....       ......              ......         ............   .....  ......         .....   ......                     .......       ...... ",
"......                ......         .....   ............   .....       ......              ......         ............   .....  ......         .....   ......                                   ...... ",
"......                ......         .....   ............   .....       ......              ......         ............   .....  ......         .....   ...............                          ...... ",
"......                ......         .....   ....................       ......              ......         ....................  ......         .....   ...............                          ...... ",
"......                ......         .....   ....................       ......              ......         ....................  ......         .....   ...............                   ..........    ",
"......                ......         .....   ....................       ......              ......         ....................  ......         .....   ......                            ..........    ",
"......                ......         .....   ......   ...........       ......              ......         ......   ...........  ......         .....   ......                            ..........    ",
"......                ......         .....   ......   ...........       ......              ......         ......   ...........  ......         .....   ......                                          ",
"   ......      .....  ......         .....   ......   ...........       ......              ......         ......   ...........  ......         .....   ......                                          ",
"   ......      .....  ......         .....   ......      ........       ......              ......         ......      ........  ......         .....   ......                                          ",
"   ......      .....  ......         .....   ......      ........       ......              ......         ......      ........  ......         .....   ......                                          ",
"     .............       ...............     ......      ........       ......        ..................   ......      ........     ...............     .....................             ......        ",
"      ............       ...............     ......         .....       ......        ..................   ......         .....     ...............     .....................             ......        ",
"      ............       ...............     ......         .....       ......        ..................   ......         .....     ...............     .....................             ......        ",
"                                                                                                                                                                                                        ",
"                                                                                                                                                                                                        ",
"                                                                                                                                                                                                        ",
"                                                                                                                                                                                                        ",
"                                                                                                                                                                                                        ",
"                                                                                                                                                                                                        ",
"                                                                                                                                                                                                        ",
"                                                                                                                                                                                                        ",
"                                                                                                                                                                                                        ",
"                                                                                                                                                                                                        ",
"                                                                                                                                                                                                        ",
"                                                                                                                                                                                                        ",
"                                                                                                                                                                                                        ",
"                                                                                                                                                                                                        ",
"                                                                                                                                                                                                        ",
"                                                                                                                                                                                                        ",
"                                                                                                                                                                                                        ",
"                                                                                                                                                                                                        ",
"                                                                                                                                                                                                        ",
"                                                                                                                                                                                                        ",
"                                                                                                                                                                                                        ",
"                                                                                                                                                                                                        ",
"                                                                                                                                                                                                        ",
"                                                                                                                                                                                                        ",
"                                                                                                                                                                                                        ",
"                                                                                                                                                                                                        ",
"                                                                                                                                                                                                        ",
"                                                                                                                                                                                                        ",
" .....      ......   .....................     ............                                                                                               ......         .....     ..............       ",
" .....      ......   .....................     ............                                                                                               ......         .....     ..............       ",
" .....      ......   .....................     ............                                                                                               ......         .....     ...............      ",
" .....      ......   ......                 ......      ......                                                                                            .........      .....  ......         .....    ",
" .....      ......   ......                 ......      ......                                                                                            .........      .....  ......         .....    ",
" .....      ......   ......                 ......      ......                                                                                            .........      .....  ......         .....    ",
" .....      ......   ......                 ......                                                                                                        ............   .....  ......         .....    ",
" .....      ......   ......                 ......                                                                                                        ............   .....  ......         .....    ",
" .....      ......   ...............        ......                                                                                                        ............   .....  ......         .....    ",
"    ...........      ...............           ...............                                                                                            ....................  ......         .....    ",
"    ...........      ...............           ...............                                                                                            ....................  ......         .....    ",
"    ...........      ......                    .................                                                                                          ....................  ......         .....    ",
"      ......         ......                                .....                                                                                          ......   ...........  ......         .....    ",
"      ......         ......                                .....                                                                                          ......   ...........  ......         .....    ",
"      ......         ......                                .....                                                                                          ......   ...........  ......         .....    ",
"      ......         ......                 ......         .....                                                                                          ......      ........  ......         .....    ",
"      ......         ......                 ......         .....                                                                                          ......      ........  ......         .....    ",
"      ......         .....................  ..................                                                                                            ......      ........     ...............      ",
"      ......         .....................     ...............                                                                                            ......         .....     ...............      ",
"      ......         .....................     ...............                                                                                            ......         .....     ...............      "
};
