/* XPM */
static char *Y3JhenkyK2NvcHk_[] = {
/* columns rows colors chars-per-pixel */
"64 64 8 1 ",
"  c black",
". c #353535",
"X c #470000",
"o c #47280C",
"O c #453024",
"+ c #460647",
"@ c gray28",
"# c None",
/* pixels */
"################################################################",
"##################################ooooooooooooooooooooooo#######",
"##################################ooooooooooooooooooooooo#######",
"##########################ooooooooooooooooooooooooooooooooo#####",
"##########################ooooooooooooooooooooooooooooooooo#####",
"################ooooooooooooooooooooooooooooooooooooooooooooo###",
"################ooooooooooooooooooooooooooooooooooooooooooooo###",
"############ooooooooooooooooooooooooooooooooooooooooooooooo#####",
"############ooooooooooooooooooooooooooooooooooooooooooooooo#####",
"##########ooooooooooooooooooooooooooooooooooooooooooooooo#######",
"##########ooooooooooooooooooooooooooooooooooooooooooooooo#######",
"##########ooooooooooooooooooooooooooooooooooooooooooooooooooo###",
"##########ooooooooooooooooooooooooooooooooooooooooooooooooooo###",
"##########ooooooOOOOOOOOOOOOOOOOOOOOOOOOOOOoooooooooooooooo#####",
"##########ooooooOOOOOOOOOOOOOOOOOOOOOOOOOOOoooooooooooooooo#####",
"##########ooooOOOOOOOOOOOOOOOOOOOOOOOOOOOOOOOoooooooooooooooo###",
"##########ooooOOOOOOOOOOOOOOOOOOOOOOOOOOOOOOOoooooooooooooooo###",
"##########ooooOOOOOOOOOOOOOOOOOOOOOOOOOOOOOOOoooooooooooooo#####",
"##########ooooOOOOOOOOOOOOOOOOOOOOOOOOOOOOOOOoooooooooooooo#####",
"##########ooooOOOOOOOOOOOOOOOOOOOOOOOOOOOOOOOoooooooooooo#######",
"##########ooooOOOOOOOOOOOOOOOOOOOOOOOOOOOOOOOoooooooooooo#######",
"##########ooooOOOOOOOOOOOOOOOOOOOOOOOOOOOOOOOoooooooooo#########",
"##########ooooOOOOOOOOOOOOOOOOOOOOOOOOOOOOOOOoooooooooo#########",
"##########ooooOOOOOOOOOOOOOOOOOOOOOOOOOOOOOOOoooooooooooo#######",
"##########ooooOOOOOOOOOOOOOOOOOOOOOOOOOOOOOOOoooooooooooo#######",
"##########ooooOOOOOOOOOOOOOOOOOOOOOOOOOOOOOOOoooooooooooooo#####",
"##########ooooOOOOOOOOOOOOOOOOOOOOOOOOOOOOOOOoooooooooooooo#####",
"##########ooOOOOOOOOOOOOOOOOOOOOOOOOOOOOOOOOOOOoooooooooo#######",
"##########ooOOOOOOOOOOOOOOOOOOOOOOOOOOOOOOOOOOOoooooooooo#######",
"##########ooOOOOOO        OOOOOOOO       OOOOOOoooooooo#########",
"##########ooOOOOOO        OOOOOOOO       OOOOOOoooooooo#########",
"##########ooOOOOOO@@  @@++OOOOOOOO+@@  @@OOOOOOoooooo###########",
"##########ooOOOOOO@@  @@++OOOOOOOO+@@  @@OOOOOOoooooo###########",
"##########ooooOOOO@@@@@@++OOOOOOOO+@@@@@@OOOOoooooo#############",
"##########ooooOOOO@@@@@@++OOOOOOOO+@@@@@@OOOOoooooo#############",
"##########ooooOOOO++++++++OOOOOOOO+++++++OOOOoooo###############",
"##########ooooOOOO++++++++OOOOOOOO+++++++OOOOoooo###############",
"############ooOOOOOOOOOOOOOOOOOOOOOOOOOOOOOOOoo#################",
"############ooOOOOOOOOOOOOOOOOOOOOOOOOOOOOOOOoo#################",
"##############OOOOOOOOOOOOOO@@@@OOOOOOOOOOOOO###################",
"##############OOOOOOOOOOOOOO@@@@OOOOOOOOOOOOO###################",
"##############OOOOOOOOOOOOOO    OOOOOOOOOOOOO###################",
"##############OOOOOOOOOOOOOO    OOOOOOOOOOOOO###################",
"##############OOOOOOOOOOOOOO    OOOOOOOOOOOOO###################",
"##############OOOOOOOOOOOOOO    OOOOOOOOOOOOO###################",
"##############OOOOOOOOOOOOOO@@@@OOOOOOOOOOOOO###################",
"##########OOOO@@OOOOOOOOOOOO@@@@OOOOOOOOOOO@@OOOO###############",
"##########OOOO@@OOOOOOOOOOOOOOOOOOOOOOOOOOO@@OOOO###############",
"########OOOOOO@@OOOOOOOOOOOOOOOOOOOOOOOOOOO@@OOOOOO#############",
"########OOOOOO@@OOOOOOOOOOOOOOOOOOOOOOOOOOO@@OOOOOO#############",
"##########OOOO@@@@@@@@@@@@@@@@@@@@@@@@@@@@@@@OOOO###############",
"##########OOOO@@@@@@@@@@@@@@@@@@@@@@@@@@@@@@@OOOO###############",
"##############@@@@@@@@@@@@@@@@@@@@@@@@@@@@@@@###################",
"##############@@@@@@@@@@@@@@@@@@@@@@@@@@@@@@@###################",
"##############XXXXXXXXXXXXXXXXXXXXXXXXXXXXXXX###################",
"##############XXXXXXXXXXXXXXXXXXXXXXXXXXXXXXX###################",
"##############XXXXXXXXXXXXXX####XXXXXXXXXXXXX###################",
"##############XXXXXXXXXXXXXX####XXXXXXXXXXXXX###################",
"##############XXXXXXXXXXXX########XXXXXXXXXXX###################",
"##############XXXXXXXXXXXX########XXXXXXXXXXX###################",
"################........###########........#####################",
"################........###########........#####################",
"##################....###############....#######################",
"##################....###############....#######################"
};
