/* XPM */
static char *result[] = {
/* columns rows colors chars-per-pixel */
"64 64 149 2 ",
"   c black",
".  c #010E00",
"X  c gray5",
"o  c #120000",
"O  c #120C09",
"+  c #121100",
"@  c gray7",
"#  c #16111E",
"$  c #16111F",
"%  c #1B0E26",
"&  c #1D072E",
"*  c #1A0E29",
"=  c #1D082F",
"-  c #151027",
";  c #181120",
":  c #181221",
">  c #1A1024",
",  c #1B1024",
"<  c #1C1129",
"1  c #1D1229",
"2  c #200E2E",
"3  c #21142E",
"4  c #210432",
"5  c #220F34",
"6  c #250C3A",
"7  c #280E38",
"8  c #280E39",
"9  c #2C0D3F",
"0  c #231131",
"q  c #241433",
"w  c #271235",
"e  c #271337",
"r  c #251434",
"t  c #261534",
"y  c #24113D",
"u  c #340F49",
"i  c #3B0C4E",
"p  c #2E1142",
"a  c #2C1846",
"s  c #2C194D",
"d  c #331447",
"f  c #331248",
"g  c #36154A",
"h  c #37104D",
"j  c #3B114D",
"k  c #3A114F",
"l  c #38144E",
"z  c #3A164E",
"x  c #3E0E50",
"c  c #3D1750",
"v  c #3E1056",
"b  c #3E1B52",
"n  c #411959",
"m  c #41195B",
"M  c #411E64",
"N  c #4D1D67",
"B  c #4A1B69",
"V  c #541970",
"C  c #571F73",
"Z  c #4F226B",
"A  c #5B2B6B",
"S  c #662376",
"D  c #612E73",
"F  c #642B75",
"G  c #642A77",
"H  c #652F77",
"J  c #6E2B7E",
"K  c #683075",
"L  c #671A81",
"P  c #671A83",
"I  c #6A1887",
"U  c #6E158C",
"Y  c #6F1E8E",
"T  c #761C8F",
"R  c #70149F",
"E  c #682A87",
"W  c #662388",
"Q  c #6A268D",
"!  c #6C278F",
"~  c #742E80",
"^  c #71238A",
"/  c #703082",
"(  c #723482",
")  c #783786",
"_  c #7D2099",
"`  c #7A259B",
"'  c #7E279F",
"]  c #7E2C9E",
"[  c #7614A3",
"{  c #7919A8",
"}  c #822496",
"|  c #8B3D91",
" . c #8729A0",
".. c #8D36AF",
"X. c #963FA6",
"o. c #973DAA",
"O. c #8731B8",
"+. c #9241A1",
"@. c #9C43A8",
"#. c #9E49AC",
"$. c #975CA2",
"%. c #9A5EA6",
"&. c #9E5FA9",
"*. c #8B48B3",
"=. c #9C47B0",
"-. c #A445B8",
";. c #A351B1",
":. c #A951B7",
">. c #A558B5",
",. c #A659B8",
"<. c #AB5DBA",
"1. c #AD5CB9",
"2. c #B45ABB",
"3. c #B05EB9",
"4. c #A465AE",
"5. c #AB68B6",
"6. c #B263BF",
"7. c #AE52C3",
"8. c #B159C1",
"9. c #B25DC0",
"0. c #B366C7",
"q. c #BC60C3",
"w. c #B56CC0",
"e. c #BD61CF",
"r. c #BD70C6",
"t. c #C061CD",
"y. c #C476CF",
"u. c #C876D8",
"i. c #CE77DD",
"p. c #CF7DDB",
"a. c #CD7EDB",
"s. c #D37CE0",
"d. c #D67CE3",
"f. c #D57EE2",
"g. c #D67FE3",
"h. c #D87FE4",
"j. c #D480E0",
"k. c #D681E3",
"l. c #D880E4",
"z. c #D982E5",
"x. c #D983E5",
"c. c #DA82E7",
"v. c #DC85E7",
"b. c #DC87E7",
"n. c #DF86EA",
"m. c #DE87EA",
"M. c #DF86EB",
"N. c #E28AED",
"B. c #E58EEF",
/* pixels */
"0.0.u.u.v.v.z.z.k.k.j.j.p.p.a.a.y.y.r.r.w.w.5.5.4.4.&.&.%.%.$.$.$.$.%.%.&.&.4.4.5.5.w.w.r.r.y.y.a.a.p.p.j.j.k.k.z.z.v.v.u.u.0.0.",
"0.0.u.u.v.v.z.z.k.k.j.j.p.p.a.a.y.y.r.r.w.w.5.5.4.4.&.&.%.%.$.$.$.$.%.%.&.&.4.4.5.5.w.w.r.r.y.y.a.a.p.p.j.j.k.k.z.z.v.v.u.u.0.0.",
"i.i.3.3.7.7.-.-.o.o.X.X.o o o o o o | | ) ) ( ( K K H H D D A A A A D D H H K K ( ( ) ) | | o o o o o o X.X.o.o.-.-.7.7.3.3.i.i.",
"i.i.3.3.7.7.-.-.o.o.X.X.o o o o o o | | ) ) ( ( K K H H D D A A A A D D H H K K ( ( ) ) | | o o o o o o X.X.o.o.-.-.7.7.3.3.i.i.",
"B.B.8.8.....{ { [ [ o o o o o o o o o o b b c c z z g g d d f f f f d d g g z z c c b b o o o o o o o o o o [ [ { { ....8.8.B.B.",
"B.B.8.8.....{ { [ [ o o o o o o o o o o b b c c z z g g d d f f f f d d g g z z c c b b o o o o o o o o o o [ [ { { ....8.8.B.B.",
"N.N.e.e.' ' R R o o o o o o o o o o o o o o e e w w r r q q t t t t q q r r w w e e o o o o o o o o o o o o o o R R ' ' e.e.N.N.",
"N.N.e.e.' ' R R o o o o o o o o o o o o o o e e w w r r q q t t t t q q r r w w e e o o o o o o o o o o o o o o R R ' ' e.e.N.N.",
"M.M.t.t. . .` ` o o o o o o o o o o o o o o o o o o o o o o o o o o o o o o o o o o o o o o o o o o o o o o o o ` `  . .t.t.M.M.",
"M.M.t.t. . .` ` o o o o o o o o o o o o o o o o o o o o o o o o o o o o o o o o o o o o o o o o o o o o o o o o ` `  . .t.t.M.M.",
"n.n.q.q.} } _ _ o o o o o o o o o o o o o o o o o o o o o o o o o o o o o o o o o o o o o o o o o o o o o o o o _ _ } } q.q.n.n.",
"n.n.q.q.} } _ _ o o o o o o o o o o o o o o o o o o o o o o o o o o o o o o o o o o o o o o o o o o o o o o o o _ _ } } q.q.n.n.",
"m.m.9.9.T T ^ ^ Z Z o o o o o o o o o o o o o o o o o o o o o o o o o o o o o o o o o o o o o o o o o o o o Z Z ^ ^ T T 9.9.m.m.",
"m.m.9.9.T T ^ ^ Z Z o o o o o o o o o o o o o o o o o o o o o o o o o o o o o o o o o o o o o o o o o o o o Z Z ^ ^ T T 9.9.m.m.",
"b.b.1.1.L L C C m m p p o o o o o o O O O O O O O O O O O O O O O O O O O O O O O O O O O O o o o o o o p p m m C C L L 1.1.b.b.",
"b.b.1.1.L L C C m m p p o o o o o o O O O O O O O O O O O O O O O O O O O O O O O O O O O O o o o o o o p p m m C C L L 1.1.b.b.",
"x.x.,.,.Q Q V V h h 8 8 o o o o O O O O O O O O O O O O O O O O O O O O O O O O O O O O O O O O o o o o 8 8 h h V V Q Q ,.,.x.x.",
"x.x.,.,.Q Q V V h h 8 8 o o o o O O O O O O O O O O O O O O O O O O O O O O O O O O O O O O O O o o o o 8 8 h h V V Q Q ,.,.x.x.",
"l.l.:.:.W W N N u u 7 7 o o o o O O O O O O O O O O O O O O O O O O O O O O O O O O O O O O O O o o o o 7 7 u u N N W W :.:.l.l.",
"l.l.:.:.W W N N u u 7 7 o o o o O O O O O O O O O O O O O O O O O O O O O O O O O O O O O O O O o o o o 7 7 u u N N W W :.:.l.l.",
"h.h.2.2.S S v v 9 9 0 0 o o o o O O O O O O O O O O O O O O O O O O O O O O O O O O O O O O O O o o o o 0 0 9 9 v v S S 2.2.h.h.",
"h.h.2.2.S S v v 9 9 0 0 o o o o O O O O O O O O O O O O O O O O O O O O O O O O O O O O O O O O o o o o 0 0 9 9 v v S S 2.2.h.h.",
"c.c.6.6.~ ~ i i 5 5 3 3 o o o o O O O O O O O O O O O O O O O O O O O O O O O O O O O O O O O O o o o o 3 3 5 5 i i ~ ~ 6.6.c.c.",
"c.c.6.6.~ ~ i i 5 5 3 3 o o o o O O O O O O O O O O O O O O O O O O O O O O O O O O O O O O O O o o o o 3 3 5 5 i i ~ ~ 6.6.c.c.",
"g.g.<.<.F F l l 6 6 < < o o o o O O O O O O O O O O O O O O O O O O O O O O O O O O O O O O O O o o o o < < 6 6 l l F F <.<.g.g.",
"g.g.<.<.F F l l 6 6 < < o o o o O O O O O O O O O O O O O O O O O O O O O O O O O O O O O O O O o o o o < < 6 6 l l F F <.<.g.g.",
"f.f.>.>.G G k k = = - - o o o o O O O O O O O O O O O O O O O O O O O O O O O O O O O O O O O O o o o o - - = = k k G G >.>.f.f.",
"f.f.>.>.G G k k = = - - o o o o O O O O O O O O O O O O O O O O O O O O O O O O O O O O O O O O o o o o - - = = k k G G >.>.f.f.",
"s.s.;.;./ / j j & & * * o o O O O O O O O O O O O O O O O O O O O O O O O O O O O O O O O O O O O O o o * * & & j j / / ;.;.s.s.",
"s.s.;.;./ / j j & & * * o o O O O O O O O O O O O O O O O O O O O O O O O O O O O O O O O O O O O O o o * * & & j j / / ;.;.s.s.",
"d.d.#.#.J J x x 4 4 % % o o O O O O O O @ @ @ @ @ @ O O O O O O O O O O O O @ @ @ @ @ @ O O O O O O o o % % 4 4 x x J J #.#.d.d.",
"d.d.#.#.J J x x 4 4 % % o o O O O O O O @ @ @ @ @ @ O O O O O O O O O O O O @ @ @ @ @ @ O O O O O O o o % % 4 4 x x J J #.#.d.d.",
"d.d.#.#.J J x x 4 4 % % o o O O O O O O @ @     @ @ O O O O O O O O O O O O @ @     @ @ O O O O O O o o % % 4 4 x x J J #.#.d.d.",
"d.d.#.#.J J x x 4 4 % % o o O O O O O O @ @     @ @ O O O O O O O O O O O O @ @     @ @ O O O O O O o o % % 4 4 x x J J #.#.d.d.",
"s.s.;.;./ / j j & & * * o o o o O O O O @ @ @ @ @ @ O O O O O O O O O O O O @ @ @ @ @ @ O O O O o o o o * * & & j j / / ;.;.s.s.",
"s.s.;.;./ / j j & & * * o o o o O O O O @ @ @ @ @ @ O O O O O O O O O O O O @ @ @ @ @ @ O O O O o o o o * * & & j j / / ;.;.s.s.",
"f.f.>.>.G G k k = = - - o o o o O O O O O O O O O O O O O O O O O O O O O O O O O O O O O O O O o o o o - - = = k k G G >.>.f.f.",
"f.f.>.>.G G k k = = - - o o o o O O O O O O O O O O O O O O O O O O O O O O O O O O O O O O O O o o o o - - = = k k G G >.>.f.f.",
"g.g.<.<.F F l l 6 6 < < $ $ o o O O O O O O O O O O O O                 O O O O O O O O O O O O o o $ $ < < 6 6 l l F F <.<.g.g.",
"g.g.<.<.F F l l 6 6 < < $ $ o o O O O O O O O O O O O O                 O O O O O O O O O O O O o o $ $ < < 6 6 l l F F <.<.g.g.",
"c.c.6.6.~ ~ i i 5 5 3 3 > > # # O O O O O O O O O O O O                 O O O O O O O O O O O O # # > > 3 3 5 5 i i ~ ~ 6.6.c.c.",
"c.c.6.6.~ ~ i i 5 5 3 3 > > # # O O O O O O O O O O O O                 O O O O O O O O O O O O # # > > 3 3 5 5 i i ~ ~ 6.6.c.c.",
"h.h.2.2.S S v v 9 9 0 0 , , ; ; O O O O O O O O O O O O                 O O O O O O O O O O O O ; ; , , 0 0 9 9 v v S S 2.2.h.h.",
"h.h.2.2.S S v v 9 9 0 0 , , ; ; O O O O O O O O O O O O                 O O O O O O O O O O O O ; ; , , 0 0 9 9 v v S S 2.2.h.h.",
"l.l.:.:.W W N N u u 7 7 1 1 : : O O O O O O O O O O O O O O O O O O O O O O O O O O O O O O O O : : 1 1 7 7 u u N N W W :.:.l.l.",
"l.l.:.:.W W N N u u 7 7 1 1 : : O O O O O O O O O O O O O O O O O O O O O O O O O O O O O O O O : : 1 1 7 7 u u N N W W :.:.l.l.",
"x.x.,.,.Q Q V V h h 8 8 2 2 + + + + + + + + + + + + + + + + + + + + + + + + + + + + + + + + + + + + 2 2 8 8 h h V V Q Q ,.,.x.x.",
"x.x.,.,.Q Q V V h h 8 8 2 2 + + + + + + + + + + + + + + + + + + + + + + + + + + + + + + + + + + + + 2 2 8 8 h h V V Q Q ,.,.x.x.",
"b.b.1.1.L L C C m m p p O O + + + + + + + + + + + + + + + + + + + + + + + + + + + + + + + + + + + + O O p p m m C C L L 1.1.b.b.",
"b.b.1.1.L L C C m m p p O O + + + + + + + + + + + + + + + + + + + + + + + + + + + + + + + + + + + + O O p p m m C C L L 1.1.b.b.",
"m.m.9.9.T T ^ ^ Z Z O O O O + + + + + + + + + + + + + + + + + + + + + + + + + + + + + + + + + + + + O O O O Z Z ^ ^ T T 9.9.m.m.",
"m.m.9.9.T T ^ ^ Z Z O O O O + + + + + + + + + + + + + + + + + + + + + + + + + + + + + + + + + + + + O O O O Z Z ^ ^ T T 9.9.m.m.",
"n.n.q.q.} } _ _ P P n n O O O y + + + + + + + + + + + + + + + + + + + + + + + + + + + + + + + + O O O O n n P P _ _ } } q.q.n.n.",
"n.n.q.q.} } _ _ P P n n a a y y + + + + + + + + + + + + + + + + + + + + + + + + + + + + + + + + y y a a n n P P _ _ } } q.q.n.n.",
"M.M.t.t. . .` ` ] ] E E M M s s . . . . . . . . . . . . . . . . . . . . . . . . . . . . . . . . s s M M E E ] ] ` `  . .t.t.M.M.",
"M.M.t.t. . .` ` ] ] E E M M s s . . . . . . . . . . . . . . . . . . . . . . . . . . . . . . . . s s M M E E ] ] ` `  . .t.t.M.M.",
"N.N.e.e.' ' R R O.O.*.*.! ! B B . . . . . . . . . . . . . . t t t t . . . . . . . . . . . . . . B B ! ! *.*.O.O.R R ' ' e.e.N.N.",
"N.N.e.e.' ' R R O.O.*.*.! ! B B . . . . . . . . . . . . . . t t t t . . . . . . . . . . . . . . B B ! ! *.*.O.O.R R ' ' e.e.N.N.",
"B.B.8.8.....{ { [ [ Y Y I I U U . . . . . . . . . . . . d d f f f f d d . . . . . . . . . . . . U U I I Y Y [ [ { { ....8.8.B.B.",
"B.B.8.8.....{ { [ [ Y Y I I U U . . . . . . . . . . . . d d f f f f d d . . . . . . . . . . . . U U I I Y Y [ [ { { ....8.8.B.B.",
"i.i.3.3.7.7.-.-.o.o.X.X.+.+.=.=.@.@.X X X X X X X X H H D D A A A A D D H H X X X X X X X X @.@.=.=.+.+.X.X.o.o.-.-.7.7.3.3.i.i.",
"i.i.3.3.7.7.-.-.o.o.X.X.+.+.=.=.@.@.X X X X X X X X H H D D A A A A D D H H X X X X X X X X @.@.=.=.+.+.X.X.o.o.-.-.7.7.3.3.i.i.",
"0.0.u.u.v.v.z.z.k.k.j.j.p.p.a.a.y.y.r.r.X X X X 4.4.&.&.%.%.$.$.$.$.%.%.&.&.4.4.X X X X r.r.y.y.a.a.p.p.j.j.k.k.z.z.v.v.u.u.0.0.",
"0.0.u.u.v.v.z.z.k.k.j.j.p.p.a.a.y.y.r.r.X X X X 4.4.&.&.%.%.$.$.$.$.%.%.&.&.4.4.X X X X r.r.y.y.a.a.p.p.j.j.k.k.z.z.v.v.u.u.0.0."
};
