/* XPM */
static char *_e0beb751140446bbdf361d0cf8dc09b6HqZZqvbUFONa6lT[] = {
/* columns rows colors chars-per-pixel */
"128 64 62 1 ",
"  c black",
". c gray3",
"X c #000018",
"o c #1B1B1B",
"O c #221C1C",
"+ c #000039",
"@ c gray16",
"# c #3E3E3E",
"$ c #6B2D3E",
"% c #6D2E3D",
"& c #7B3637",
"* c #7D3736",
"= c #73313A",
"- c #753239",
"; c #2D0C57",
": c #2E0C57",
"> c #290A59",
", c #2A0A59",
"< c #320F55",
"1 c #310E56",
"2 c #371153",
"3 c #361154",
"4 c #3B1452",
"5 c #3C1451",
"6 c #41174F",
"7 c #42174F",
"8 c #471A4D",
"9 c #4F1E49",
"0 c #4E1D4A",
"q c #491B4C",
"w c #542147",
"e c #562246",
"r c #5E2643",
"t c #5C2544",
"y c #632941",
"u c #652A40",
"i c gray34",
"p c gray45",
"a c #747474",
"s c #833A33",
"d c #853B33",
"f c #873C32",
"g c #8A3D31",
"h c red",
"j c #DA690F",
"k c #DC690E",
"l c #CC6115",
"z c #CE6214",
"x c #D56611",
"c c #D46512",
"v c #E16C0C",
"b c #E36D0C",
"n c #33FF2E",
"m c #FFA200",
"M c #D5FF2E",
"N c #FFDC50",
"B c #7DFFE5",
"V c #F9AD81",
"C c #9AFF9C",
"Z c #F0FF9D",
"A c #F79AFF",
"S c white",
/* pixels */
"OOOOOOOOOOOOOOOOOOOOOOOOOOOOOOOOOOOOOOOOOOOOOOOOOOOOOOOOOOOOOOOOOOOOOOOOOOOOOO    ++++++++++++++++++++++++++++    OOOOOOOOOOOOOO",
"OOOOOOOOOOOOOOOOOOOOOOOOOOOOOOOOOOOOOOOOOOOOOoOOOOOOOOOOOOOOOOOOOOOOOOOOOOOOOO    ++++++++++++++++++++++++++++    OOOOOOOOOOOOOO",
">>OO>>OO>>OO>>OO>>OO>,OO::OO<<OO22OO44OO77OOqqOO00OOeeOOtrOOyuOOu=OO=-OO&*OOsd  ++++++++++++++XXXX++++++++++++++  OOcxOOkkOObbOO",
">>OO>>OO>>OO>>OO>>OO>>OO::OO<<OO22OO44OO57OOqqOO00OOweOOtrOOyuOOuuOO--OO&*OOsd  ++++++++++++++XXXX++++++++++++++  OOccOOjkOObbOO",
"OOOOOOOOOOOOOOOOOOOOOOOOOOOOOOOOOOOOOOOOOOOOOOOOOOOOOOOOOOOOOOOOOOOOOOOOOOOOOO  ++++++++++++++++++++++++++++++++  OOOOOOOOOOOOOO",
"OOOOOOOOOOOOOOOOOOOOOOOOOOOOOOOOOOOOOOOOOOOOOOOOOOOOOOOOOOOOOOOOOOOOOOOOOOOOOO  ++++++++++++++++++++++++++++++++  OOOOOOOOOOOOOO",
">>OO>>OO>>OO>>OO>>OO>>OO,<OO<<OO22OO44OO77OOqqOO00OOweOOtrOOyuOO=uOO&-@O&*OO    ++++++++++++++++++++++++++++++++    ccOOjkOOkbOO",
">>OO>>OO>>OO>>OO>>OO>>OO:,OO:<OO22OO44OO77OOqqOO09OOweOOtrOOyuOOu=OO--oO&*OO    ++++++++++++++++++++++++++++++++    ccOOjkOObbOO",
"OOOOOOOOOOOOOOOOOOOOOOOOOOOOOOOOOOOOOOOOOOOOOOOOOOOOOOOOOOOOOOOOOOOOOOOOOOOO  OO++++++++++++++++++++++++++++++++OO  OOOOOOOOOOOO",
"OOOOOOOOOOOOOOOOOOOOOOOOOOOOOOOOOOOOOOOOOOOOOOOOOOOOOOOOOOOOOOOOOOOOOOOOOOOO  OO++++++++++++++++++++++++++++++++OO  OOOOOOOOOOOO",
">>OO>>OO>>OO>>OO>>OO>,OO::OO<<OO22OO44OO77OO8qOO09OOweOOtrOOyuOO$%OO=-OO&*OO  fg++++++++++++++++++++++++++++++++ll  cxOOjkOObbOO",
">>OO>>OO>>OO>>OO>>OO>,OO::OO<<OO22OO44OO57OO8qOO09OOweOOtrOOyuOO$%OO=-OO&*OO  fg++++++++++++++++++++++++++++++++lz  cxOOjkOObbOO",
"OOOOOOOOOOOOOOOOOOOOOOOOOOOOOOOOOOOOOOOOOOOOOOOOOOOOOOOOOOOOOOOOOOOOOOOOOOOO  OO++++++++++++++++++++++++++++++++OO  OOOOOOOOOOOO",
"OOOOOOOOOOOOOOOOOOOOOOOOOOOOOOOOOOOOOOOOOOOOOOOOOOOOOOOOOOOOOOOOOOOOOOOOOOOO  OO++++++++++++++++++++++++++++++++OO  OOOOOOOOOOOO",
">>OO>>OO>>OO>>OO>>OO>,OO,<OO<<OO22OO55OO78OO8qOO09OOeeOOtrOOyuOO$%OO=-OO&*OO    XXXXXXXXXXXXXXXXXXXXXXXXXXXXXXXX    xxOOjkOOkbOO",
">>OO>>OO>>OO>>OO>>OO>,OO:,OO:<OO22OO55OO56OO8qOO09OOweOOtrOOyuOO$%OO=-OO&*OO    XXXXXXXXXXXXXXXXXXXXXXXXXXXXXXXX    xxOOjkOObbOO",
"OOOOOOOOOOOOOOOOOOOOOOOOOOOOOOOOOOOOOOOOOOOOOOOOOOOOOOOOOOOOOOOOOOOOOOOOOOOO    VV++++++++++++++++++++++++++++VV    OOOOOOOOOOOO",
"OOOOOOOOOOOOOOOOOOOOOOOOOOOOOOOOOOOOOOOOOOOOOOOOOOOOOOOOOOOOOOOOOOOOOOOOOOOO    VV++++++++++++++++++++++++++++VV    OOOOOOOOOOOO",
">>OO>>OO>>OO>>OO>>OO>,OO::OO<<OO32OO55OO77OO8qOO00OOweOOtrOOyuOO$%OO=-OO&*    VVVV++++++++++++++++++++++++++++VV      OOjkOObbOO",
">>OO>>OO>>OO>>OO>>OO>,OO::OO<<OO32OO45OO77OO8qOO00OOweOOtrOOyuOO$%OO=-OO&*    VVVV++++++++++++++++++++++++++++VV      OOjkOObbOO",
"OOOOOOOOOOOOOOOOOOOOOOOOOOOOOOOOOOOOOOOOOOOOOOOOOOOOOOOOOOOOOOOOOOOOOOOOOO    VVVV++++++++++++++++++++++++++++VV      OOOOOOOOOO",
"OOOOOOOOOOOOOOOOOOOOOOOOOOOOOOOOOOOOOOOOOOOOOOOOOOOOOOOOOOOOOOOOOOOOOOOOOO    VVVV++++++++++++++++++++++++++++VV      OOOOOOOOOO",
">>OO>>OO>>OO>>OO>>OO>,OO,<OO<<OO32OO45OO78OO8qOO09OOweOOtrOOyuOO$%OO=-OO&*    VVVV++++++++++++++++++++++++++++VV      OOjkOObbOO",
">>OO>>OO>>OO>>OO>>OO>,OO:,OO:<OO33OO45OO56OO8qOO00OOeeOOtrOOyuOO$%OO=-OO&*    VVVV++++++++++++++++++++++++++++VV      OOjkOOkbOO",
"OOOOOOOOOOOOOOOOOOOOOOOOOOOOOOOOOOOOOOOOOOOOOOOOOOOOOOOOOOOOOOOOOOOOOOOOOOOO    VV++++++++++++++++++++++++++++VV    OOOOOOOOOOOO",
"OOOOOOOOOOOOOOOOOOOOOOOOOOOOOOOOOOOOOOOOOOOOOOOOOOOOOOOOOOOOOOOOOOOOOOOOOOOO    VV++++++++++++++++++++++++++++VV    OOOOOOOOOOOO",
">>OO>>OO>>OO>>OO>>OO>,OO::OO<<OO32OO55OO66OO8qOO09OOeeOOtrOOyuOO$%OO=-OO&*OOsd  VVVV++++++++++++++++++++++++VVVV  OOcxOOjkOObbOO",
">>OO>>OO>>OO>>OO>>OO>,OO::OO<<OO32OO45OO66OO8qOO09OOweOOtrOOyuOO$%OO=-OO&*OOsd  VVVV++++++++++++++++++++++++VVVV  OOcxOOjkOObbOO",
"OOOOOOOOOOOOOOOOOOOOOOOOOOOOOOOOOOOOOOOOOOOOOOOOOOOOOOOOOOOOOOOOOOOOOOOOOOOOOOOOVVVVVV++++++++++++++++++++VVVVVVOOOOOOOOOOOOOOOO",
"OOOOOOOOOOOOOOOOOOOOOOOOOOOOOOOOOOOOOOOOOOOOOOOOOOOOOOOOOOOOOOOOOOOOOOOOOOOOOOOOVVVVVV++++++++++++++++++++VVVVVVOOOOOOOOOOOOOOOO",
">>OO>>OO>>OO>>OO>>OO>,OO,<OO<<OO32OO55OO66OO8qOO00OOweOOtrOOyuOO$%OO=-OO&*OOsdOOVVVVVVVVVVVVVVVVVVVVVVVVVVVVVVVVlzOOcxOOjkOOkbOO",
">>OO>>OO>>OO>>OO>>OO>,OO:,OO:<OO32OO55OO66OOqqOO00OOweOOtrOOyuOO$%OO=-OO&*OOsdOOVVVVVVVVVVVVVVVVVVVVVVVVVVVVVVVVllOOcxOOjkOObbOO",
"                                                                                                                                ",
"                                                                                                                                ",
"  aa    ZZZZ    CCCC    AAAA    BBBB    NNNN            aaaaaaaaaaaaaaaa    nn      NNNN    BBBB    AAAA    CCCC    ZZZZ    aa  ",
"  aa    ZZZZ    CCCC    AAAA    BBBB    NNNN            aaaaaaaaaaaaaaaa    nn      NNNN    BBBB    AAAA    CCCC    ZZZZ    aa  ",
"  aaaa                                                                                                                    aaaa  ",
"  aaaa                                                                                                                    aaaa  ",
"  aa                                                    nn  aa    aa  nn    hh                                              aa  ",
"  aa                                                    nn  aa    aa  nn    hh                                              aa  ",
"  aa          ii##ii##ii##ii##ii##ii                    nn  aa    aa  nn                    ii##ii##ii##ii##ii##ii  ..      aa  ",
"  aa          ii##ii##ii##ii##ii##ii                    nn  aa    aa  nn                    ii##ii##ii##ii##ii##ii  ..      aa  ",
"  aa      ii####pppp@@@@@@@@@@@@@@@@ii##ii              nn  aa    aa  nn              ii##ii##@@@@@@@@@@@@@@pppp####ii      aa  ",
"  aa      ii####pppp@@@@@@@@@@@@@@@@ii##ii              nn  aa    aa  nn              ii##ii##@@@@@@@@@@@@@@pppp####ii      aa  ",
"      ii##@@@@@@@@pppp@@@@@@@@@@@@@@@@@@@@##ii          MM            MM          ii##@@@@@@@@@@@@@@@@@@@@pppp@@@@@@@@##ii      ",
"      ii##@@@@@@@@pppp@@@@@@@@@@@@@@@@@@@@##ii          MM            MM          ii##@@@@@@@@@@@@@@@@@@@@aapp@@@@@@@@##ii      ",
"    ####@@@@@@@@@@@@@@########@@@@@@@@@@@@@@####        MM  aa    aa  MM        ####@@@@@@@@@@@@@@########@@@@@@@@@@@@@@####    ",
"    ####@@@@@@@@@@@@@@########@@@@@@@@@@@@@@####        MM  aa    aa  MM        ####@@@@@@@@@@@@@@########@@@@@@@@@@@@@@####    ",
"    ii##@@@@@@@@@@@@@@########@@@@@@@@@@@@@@##ii        MM            MM        ii##@@@@@@@@@@@@@@########@@@@@@@@@@@@@@##ii    ",
"    ii##@@@@@@@@@@@@@@########@@@@@@@@@@@@@@##ii        MM            MM        ii##@@@@@@@@@@@@@@########@@@@@@@@@@@@@@##ii    ",
"      ii##@@@@@@@@@@@@@@@@@@@@pp@@@@@@@@@@##ii          mm  aa    aa  mm          ii##@@@@@@@@@@pp@@@@@@@@@@@@@@@@@@@@##ii      ",
"      ii##@@@@@@@@@@@@@@@@@@@@pp@@@@@@@@@@##ii          mm  aa    aa  mm          ii##@@@@@@@@@@pp@@@@@@@@@@@@@@@@@@@@##ii      ",
"          ii##ii##@@@@@@@@@@@@aappii##ii##              mm            mm              ##ii##iipppp@@@@@@@@@@@@##ii##ii          ",
"          ii##ii##@@@@@@@@@@@@pappii##ii##              mm            mm              ##ii##iipppp@@@@@@@@@@@@##ii##ii          ",
"                ii##ii##ii##ii##ii##                    hh  aa    aa  hh              ..    ##ii##ii##ii##ii##ii                ",
"                ii##ii##ii##ii##ii##                    hh  aa    aa  hh              ..    ##ii##ii##ii##ii##ii                ",
"                                                                                                                                ",
"                                                                                                                                ",
"oooooooooooooooooooooooooooooooooooooooooooooooooooooooooooooooooooooooooooooooooooooooooooooooooooooooooooooooooooooooooooooooo",
"oooooooooooooooooooooooooooooooooooooooooooooooooooooooooooooooooooooooooooooooooooooooooooooooooooooooooooooooooooooooooooooooo",
"oooooooooooooooooooooooooooooooohhooSSoo  oooooooooooooooooooooooooooooooooooooooooooooooooooooooooooooooooooooooooooooooooooooo",
"oooooooooooooooooooooooooooooooohhooSSoo  oooooooooooooooooooooooooooooooooooooooooooooooooooooooooooooooooooooooooooooooooooooo",
"oooooooooooooooooooooooooooooooo  oo  oo  oooooooooooooooooooooooooooooooooooooooooooooooooooooooooooooooooooooooooooooooooooooo",
"oooooooooooooooooooooooooooooooo  oo  oo  oooooooooooooooooooooooooooooooooooooooooooooooooooooooooooooooooooooooooooooooooooooo"
};
