/* XPM */
static char *bce05ff103d848deeec97b604ceedf11pttNga8BPGIDt4sZ[] = {
/* columns rows colors chars-per-pixel */
"128 64 37 1 ",
"  c black",
". c #060606",
"X c #090909",
"o c gray5",
"O c #0F0D0D",
"+ c gray7",
"@ c #181818",
"# c #191919",
"$ c #360000",
"% c #0B360A",
"& c #362200",
"* c #2D360A",
"= c #362F11",
"- c #1B3631",
"; c #203621",
": c #333621",
"> c #342036",
", c gray21",
"< c #736015",
"1 c #704E3A",
"2 c #251763",
"3 c #261762",
"4 c #281361",
"5 c #281461",
"6 c #231A65",
"7 c #241964",
"8 c #221D65",
"9 c #211D66",
"0 c #1F2068",
"q c #1D2369",
"w c #1B266A",
"e c #1B276B",
"r c #1C2469",
"t c #19296C",
"y c #182A6C",
"u c #202067",
"i c gray45",
/* pixels */
"OOOOOOOOOOOOOOOOOOOOOOOOOOOOOOOOOOOOOOOOOO  OOOO<<<<<<<<<<<<<<<<<<<<<<<<<<<<<<<<OOOO  OOOOOOOOOOOOOOOOOOOOOOOOOOOOOOOOOOOOOOOOOO",
"OOOOOOOOOOOOOOOOOOOOOOOOOOOOOOOOOOOOOOOOOO  OOOO<<<<<<<<<<<<<<<<<<<<<<<<<<<<<<<<OOOO  OOOOOOOOOOOOOOOOOOOOOOOOOOOOOOOOOOOOOOOOOO",
"444444444444444444444444444444444444444444  4444<<<<111111111111111111111111<<<<4444  444444444444444444444444444444444444444444",
"555555555555555555555555555555555555555555  5555<<<<111111111111111111111111<<<<5555  555555555555555555555555555555555555555555",
"OOOOOOOOOOOOOOOOOOOOOOOOOOOOOOOOOOOOOOOOOO  OO  <<1111111111111111111111111111<<  OO  OOOOOOOOOOOOOOOOOOOOOOOOOOOOOOOOOOOOOOOOOO",
"OOOOOOOOOOOOOOOOOOOOOOOOOOOOOOOOOOOOOOOOOO  OO  <<1111111111111111111111111111<<  OO  OOOOOOOOOOOOOOOOOOOOOOOOOOOOOOOOOOOOOOOOOO",
"333333333333333333333333333333333333333333      <<1111111111111111111111111111<<      333333333333333333333333333333333333333333",
"222222232222222222222222222222222222222722      <<1111111111111111111111111111<<      772222222222222222222222272222222222222222",
"OOOOOOOOOOOOOOOOOOOOOOOOOOOOOOOOOOOOOOOOOO      <<1111111111111111111111111111<<      OOOOOOOOOOOOOOOOOOOOOOOOOOOOOOOOOOOOOOOOOO",
"OOOOOOOOOOOOOOOOOOOOOOOOOOOOOOOOOOOOOOOOOO      <<1111111111111111111111111111<<      OOOOOOOOOOOOOOOOOOOOOOOOOOOOOOOOOOOOOOOOOO",
"777777777777777777777777777777777777777777      1111          1111          1111      777777777777777777777777777777777777777777",
"977797779777977766667877777966676778666667      1111          1111          1111      776666787766776787666666676666666776666666",
"OOOOOOOOOOOOOOOOOOOOOOOOOOOOOOOOOOOOOOOOOOOO    111111iiii111111111111iiii111111    OOOOOOOOOOOOOOOOOOOOOOOOOOOOOOOOOOOOOOOOOOOO",
"OOOOOOOOOOOOOOOOOOOOOOOOOOOOOOOOOOOOOOOOOOOO    111111iiii111111111111iiii111111    OOOOOOOOOOOOOOOOOOOOOOOOOOOOOOOOOOOOOOOOOOOO",
"9999988899888888889988888888899988888888889999  111111  ii111111111111  ii111111  8888888899989999888888988888888898888888888898",
"9999999999999999999999999999999999999999999999  111111  ii111111111111  ii111111  9999999999999999999999999999999999999999999999",
"OOOOOOOOOOOOOOOOOOOOOOOOOOOOOOOOOOOOOOOOOOOOOOOO11111111111111111111111111111111OOOOOOOOOOOOOOOOOOOOOOOOOOOOOOOOOOOOOOOOOOOOOOOO",
"OOOOOOOOOOOOOOOOOOOOOOOOOOOOOOOOOOOOOOOOOOOOOOOO11111111111111111111111111111111OOOOOOOOOOOOOOOOOOOOOOOOOOOOOOOOOOOOOOOOOOOOOOOO",
"uuuuuuuuuuuuuuuuuuuu0000uuuuuuuu0u90uuuuuuuuuuuu11111111111111111111111111111111uuuuuuuuuuuuuuuuuuuuuuuuuuuu0u00uuuuuuu0uuuuuuuu",
"00000000000000uu0uuu00000000000000000000000000uu11111111111111111111111111111111uuu00000000u0000000000uu000000000uuu000000000000",
"OOOOOOOOOOOOOOOOOOOOOOOOOOOOOOOOOOOOOOOOOOOOOOOO111111111111111       1111111111OOOOOOOOOOOOOOOOOOOOOOOOOOOOOOOOOOOOOOOOOOOOOOOO",
"OOOOOOOOOOOOOOOOOOOOOOOOOOOOOOOOOOOOOOOOOOOOOOOO111111111111111       1111111111OOOOOOOOOOOOOOOOOOOOOOOOOOOOOOOOOOOOOOOOOOOOOOOO",
"r00qrrr0q0qq0rrrq0q0rr00r0rr0rrr0err0rrrrr0rrr0r11111111111111111111111111111111e0r00e0qrr0rqqqqr0qq0rrrr0rr0rrrq0q0e0rrqq0qrr0r",
"rrrerrrrereqrrrrqeerrrerrrrrrrrrrrrrrrrrrrrrrrrr11111111111111111111111111111111rrrrr0eerrrreqqqrreqrrrrrrrrrrrrqeerrrrrrerrrrrr",
"OOOOOOOOOOOOOOOOOOOOOOOOOOOOOOOOOOOOOOOOOOOOOOOO11111111111111111111111111111111OOOOOOOOOOOOOOOOOOOOOOOOOOOOOOOOOOOOOOOOOOOOOOOO",
"OOOOOOOOOOOOOOOOOOOOOOOOOOOOOOOOO+OOOOOOOOOOOOOO11111111111111111111111111111111OOOOooOOOOOOOOOOOOOOOOOOO+OOOOOOOOOOOOOOOOOOOOOO",
"eeererereqeqyqeerrryeeqeereerereeqqeererer1111iiii1111111111111111111111111111iiii1111eeeqrqqyeeeeeryqereqqeerereqqeyqqqerererer",
"yqeeyeeyeeeeeeeeeeeeeeeqeeeeeeeeeetqeeeeqy1111iiii1111111111111111111111111111iiii1111eeeyqyeeeqyqeeqyqyeetqeeeeeyeeeyyqeeeeyeey",
"OOOOOOOOOOOOOOOOOOOOOOOOOOOOOOOOOOOOOOOOOO1111iiii1111111111111111111111111111iiii1111OOOOOOOOOOOOOOOOOOOOOOOOOOOOOOOOOOOOOOOOOO",
"OOOOOOOOOOOOOOOOOOOOOOOOOOOOOOOOOOOOOOOOOO1111iiii1111111111111111111111111111iiii1111OOOOOOOOOOOOOOOOOOOOOOOOOOOOOOOOOOOOOOOOOO",
"yeeyyyyeeyyyyeeyyyyyyyeyeyyyyyyyyyyyyqyyyy1111iiiiiiiiiiiiiiiiiiiiiiiiiiiiiiiiiiii1111yyyyyyeyyeyeeyyyyytttyeyyyeyyyeyyyyeeyyyye",
"yyyyyyyyyyyyyyyyyyyyyyyyyyyyyyyyyyyyyyyyyy1111iiiiiiiiiiiiiiiiiiiiiiiiiiiiiiiiiiii1111yyyyyyyyyyyyyyyyyyyyyyyyyyyyyyyyyyyyyyyyyy",
"                                                                                                                                ",
"                                                                                                                                ",
"  ##    ::::    ;;;;    >>>>    ----    ====            ################    %%      ====    ----    >>>>    ;;;;    ::::    ##  ",
"  ##    ::::    ;;;;    >>>>    ----    ====            ################    %%      ====    ----    >>>>    ;;;;    ::::    ##  ",
"  ####                                                                                                                    ####  ",
"  ####                                                                                                                    ####  ",
"  ##                                                    %%  ##    ##  %%    $$                                              ##  ",
"  ##                                                    %%  ##    ##  %%    $$                                              ##  ",
"  ##          OO++oo++oo++oo++oo++oo                    %%  ##    ##  %%                    OO++Oo++oo++oo++oo++oO          ##  ",
"  ##          oo++oo++oo++oo++oo++oo                    %%  ##    ##  %%                    oo++OO++oo++oo++oo++oO          ##  ",
"  ##      Oo++++XXXXXXXXXXXXXXXXXXXXOO++Oo              %%  ##    ##  %%              OO++oo++XXXXXXXXXXXXXXXXXX++++++      ##  ",
"  ##      Oo++++XXXXXXXXXXXXXXXXXXXXoo++Oo              %%  ##    ##  %%              oo++oo++XXXXXXXXXXXXXXXXXX++++++      ##  ",
"      Oo++XXXXXXXXXXXXXXXXXXXXXXXXXX@@@@@@++Oo          **            **          oO++XXXXXXXXXXXXXXXXXXXXXXXXXX@@@@@@oo++      ",
"      Oo++XXXXXXXXXXXXXXXXXXXXXXXXXX@@@@@#++Oo          **            **          oO++XXXXXXXXXXXXXXXXXXXXXXXXXX@@@@@@oo++      ",
"    ++ooXXXXXXXXXXXXXXoooooooo@@@@@@XXXXXXXX++++        &&  ##    ##  &&        ++++XXXXXXXXXXXXXXoooooooo@@@@@@XXXXXXXXOOoo    ",
"    ++ooXXXXXXXXXXXXXXoooooooo@@@@@@XXXXXXXX++++        &&  ##    ##  &&        ++++XXXXXXXXXXXXXXoooooooo@@@@@@XXXXXXXXooOO    ",
"    OoooXXXXXXXXXXXX@@ooooooooXXXXXXXXXXXXXX++oo        $$            $$        ooooXXXXXXXXXXXXXXooooooooXXXXXXXXXXXXXXOO++    ",
"    OoooXXXXXXXXXXXX@@ooooooooXXXXXXXXXXXXXX++OO        $$            $$        OOooXXXXXXXXXXXXXXooooooooXXXXXXXXXXXXXXoo++    ",
"      oo++XX@@@@@@@@XXXXXXXXXXXXXXXXXXXXXX++Oo              ##    ##              oO++@@@@@@@@@@@@XXXXXXXXXXXXXXXXXXXX++oo      ",
"      oo++XX@@@@@@@@XXXXXXXXXXXXXXXXXXXXXX++Oo              ##    ##              oO++@@@@@@@@@@@@XXXXXXXXXXXXXXXXXXXX++oo      ",
"          Oo++oO++XXXXXXXXXXXXXXXXoO++oo++                                            ++oo++OOXXXXXXXXXXXXXXXX++oo++OO          ",
"          Oo++oO++XXXXXXXXXXXXXXXXoO++oo++                                            ++oo++ooXXXXXXXXXXXXXXXX++oo++oo          ",
"                oo++oo++oo++OO++oo++                        ##    ##                        ++XX++oo++oo++oo++oO                ",
"                oo++oo++oo++oo++oo++                        ##    ##                        ++oo++oo++oo++oo++oO                ",
"                                                                                                                                ",
"                                                                                                                                ",
"................................................................................................................................",
"................................................................................................................................",
"................................$$..,,..  ......................................................................................",
"................................$$..,,..  ......................................................................................",
"................................  ..  ..  ......................................................................................",
"................................  ..  ..  ......................................................................................"
};
