/* XPM */
static char *ZGoz[] = {
/* columns rows colors chars-per-pixel */
"128 64 37 1 ",
"  c black",
". c #060606",
"X c #090909",
"o c gray5",
"O c #0F0D0D",
"+ c gray7",
"@ c #181818",
"# c #191919",
"$ c #360000",
"% c #0B360A",
"& c #362200",
"* c #2D360A",
"= c #362F11",
"- c #1B3631",
"; c #203621",
": c #333621",
"> c #342036",
", c gray21",
"< c #736015",
"1 c #704E3A",
"2 c #251763",
"3 c #261762",
"4 c #281361",
"5 c #281461",
"6 c #231A65",
"7 c #241964",
"8 c #221D65",
"9 c #211D66",
"0 c #1F2068",
"q c #1D2369",
"w c #1B266A",
"e c #1B276B",
"r c #1C2469",
"t c #19296C",
"y c #182A6C",
"u c #202067",
"i c gray45",
/* pixels */
"OOOOOOOOOOOOOOOOOOOOOOOOOOOOOOOOOOOOOOOOOO  OOOO<<<<<<<<<<<<<<<<<<<<<<<<<<<<<<<<OOOO  OOOOOOOOOOOOOOOOOOOOOOOOOOOOOOOOOOOOOOOOOO",
"OOOOOOOOOOOOOOOOOOOOOOOOOOOOOOOOOOOOOOOOOO  OOOO<<<<<<<<<<<<<<<<<<<<<<<<<<<<<<<<OOOO  OOOOOOOOOOOOOOOOOOOOOOOOOOOOOOOOOOOOOOOOOO",
"444444444444444444444444444444444444444444  4444<<<<111111111111111111111111<<<<4444  444444444444444444444444444444444444444444",
"555555555555555555555555555555555555555555  5555<<<<111111111111111111111111<<<<5555  555555555555555555555555555555555555555555",
"OOOOOOOOOOOOOOOOOOOOOOOOOOOOOOOOOOOOOOOOOO  OO  <<1111111111111111111111111111<<  OO  OOOOOOOOOOOOOOOOOOOOOOOOOOOOOOOOOOOOOOOOOO",
"OOOOOOOOOOOOOOOOOOOOOOOOOOOOOOOOOOOOOOOOOO  OO  <<1111111111111111111111111111<<  OO  OOOOOOOOOOOOOOOOOOOOOOOOOOOOOOOOOOOOOOOOOO",
"333333333333333333333333333333333333332333      <<1111111111111111111111111111<<      575573333333333333337573253333333333333333",
"222222232222222222222222222222222222222722      <<1111111111111111111111111111<<      377733322222222222223237222222222222222222",
"OOOOOOOOOOOOOOOOOOOOOOOOOOOOOOOOOOOOOOOOOO      <<1111111111111111111111111111<<      OOOOOOOOOOOOOOOOOOOOOOOOOOOOOOOOOOOOOOOOOO",
"OOOOOOOOOOOOOOOOOOOOOOOOOOOOOOOOOOOOOOOOOO      <<1111111111111111111111111111<<      OOOOOOOOOOOOOOOOOOOOOOOOOOOOOOOOOOOOOOOOOO",
"777777777777777777777777777777777777777777      1111          1111          1111      777777777777777777777777777777777777777777",
"977797779777977766667877777966677787666677      1111          1111          1111      877779777797779777977797776797778777796677",
"OOOOOOOOOOOOOOOOOOOOOOOOOOOOOOOOOOOOOOOOOOOO    111111iiii111111111111iiii111111    OOOOOOOOOOOOOOOOOOOOOOOOOOOOOOOOOOOOOOOOOOOO",
"OOOOOOOOOOOOOOOOOOOOOOOOOOOOOOOOOOOOOOOOOOOO    111111iiii111111111111iiii111111    OOOOOOOOOOOOOOOOOOOOOOOOOOOOOOOOOOOOOOOOOOOO",
"9999988899888888889988888888899988888888899999  111111  ii111111111111  ii111111  8888989999989999998888998888888899888888889999",
"9999999999999999999999999999999999999999999999  111111  ii111111111111  ii111111  9999999999999999999999999999999999999999999999",
"OOOOOOOOOOOOOOOOOOOOOOOOOOOOOOOOOOOOOOOOOOOOOOOO11111111111111111111111111111111OOOOOOOOOOOOOOOOOOOOOOOOOOOOOOOOOOOOOOOOOOOOOOOO",
"OOOOOOOOOOOOOOOOOOOOOOOOOOOOOOOOOOOOOOOOOOOOOOOO11111111111111111111111111111111OOOOOOOOOOOOOOOOOOOOOOOOOOOOOOOOOOOOOOOOOOOOOOOO",
"uuuu9000uuuuuuuuuuuu0000uuuuuuuu0u00uuuuuuuuuuuu11111111111111111111111111111111uuuuuuuu0000uuuuuuuuuu00uuuuuuuuuuuu0000uuuuuuuu",
"000000000000uuuu0uuu00000000000000000000000000uu11111111111111111111111111111111uuu0000000000000000000000000uuuu0uuu000000000000",
"OOOOOOOOOOOOOOOOOOOOOOOOOOOOOOOOOOOOOOOOOOOOOOOO111111111111111       1111111111OOOOOOOOOOOOOOOOOOOOOOOOOOOOOOOOOOOOOOOOOOOOOOOO",
"OOOOOOOOOOOOOOOOOOOOOOOOOOOOOOOOOOOOOOOOOOOOOOOO111111111111111       1111111111OOOOOOOOOOOOOOOOOOOOOOOOOOOOOOOOOOOOOOOOOOOOOOOO",
"r0rr0re0q00qrrrrq0q0rr00r0rr0rrr0re0rrr00rrr0rrr11111111111111111111111111111111rrr00r0qr00r0rrr0r0r0re0q00qrrrrq0q0rr00r0rr0rrr",
"rrrrrrrreeqerrrrqeerrrerrrrrrrrrrrrrrrrrrrrrrrrr11111111111111111111111111111111rrrre0eerrerrrrrrrrrrrrreeqerrrrqeerrrerrrrrrrrr",
"OOOOOOOOOOOOOOOOOOOOOOOOOOOOOOOOOOOOOOOOOOOOOOOO11111111111111111111111111111111OOOOOOOOOOOOOOOOOOOOOOOOOOOOOOOOOOOOOOOOOOOOOOOO",
"OOOOOOOOOOOOOOOOOOOOOOOOOOOOOOOOOOOOOOOOOOOOOOOO11111111111111111111111111111111OOOOOOOOOOOOOOOOOOOOOOOOOOOOOOOOOOOOOOOOOOOOOOOO",
"eqyrererqeyqeqyqyrerqeqyereerereeeeeereree1111iiii1111111111111111111111111111iiii1111eeerreereeyrerererqeyqeqyqreqyeqqeereerere",
"yqeeeeeyeeeeeeeeeeeeeeeqeeeeeeeeeeeqeeeeee1111iiii1111111111111111111111111111iiii1111eeeeeeeeeeeeeeyeeyeeeeeeeeeeeeeyeeeeyryeee",
"OOOOOOOOOOOOOOOOOOOOOOOOOOOOOOOOOOOOOOOOOO1111iiii1111111111111111111111111111iiii1111OOOOOOOOOOOOOOOOOOOOOOOOOOOOOOOOOOOOOOOOOO",
"OOOOOOOOOOOOOOOOOOOOOOOOOOOOOOOOOOOOOOOOOO1111iiii1111111111111111111111111111iiii1111OOOOOOOOOOOOOOOOOOOOOOOOOOOOOOOOOOOOOOOOOO",
"yyyeyeyyyeyeyyyeyeyyyyeyeyyyyyyyyyeyeyyyey1111iiiiiiiiiiiiiiiiiiiiiiiiiiiiiiiiiiii1111yyyeyyeyyeyeyyyqyyyeyeyyyeyeyyeyyyyeeyyyye",
"yyyyyyyyyyyyyyyyyyyyyyyyyyyyyyyyyyyyyyyyyy1111iiiiiiiiiiiiiiiiiiiiiiiiiiiiiiiiiiii1111yyyyyyyyyyyyyyyyyyyyyyyyyyyyyyyyyyyyyyyyyy",
"                                                                                                                                ",
"                                                                                                                                ",
"  ##    ::::    ;;;;    >>>>    ----    ====            ################    %%      ====    ----    >>>>    ;;;;    ::::    ##  ",
"  ##    ::::    ;;;;    >>>>    ----    ====            ################    %%      ====    ----    >>>>    ;;;;    ::::    ##  ",
"  ####                                                                                                                    ####  ",
"  ####                                                                                                                    ####  ",
"  ##                                                    %%  ##    ##  %%    $$                                              ##  ",
"  ##                                                    %%  ##    ##  %%    $$                                              ##  ",
"  ##          ++oo++oo++oo++oo++oO++                    %%  ##    ##  **                    ++oo++OO++oo++oo++oo++          ##  ",
"  ##          ++oo++oo++oo++oo++oO++                    %%  ##    ##  **                    ++OO++oO++oo++oo++oo++          ##  ",
"  ##      ++ooOOXXXXXXXX@@@@@@XXXXXX++oo++              **  ##    ##  &&              ++ooXXXXXXXX@@@@@@XXXXXXXXOOoo++      ##  ",
"  ##      ++ooOOXXXXXXXX@@@@@@XXXXXX++oo++              **  ##    ##  &&              ++ooXXXXXXXX@@@@@@XXXXXXXXooOO++      ##  ",
"      ++ooXXXXXXXXXXXXXXXX@@XXXXXXXXXXXXXXoo++          **            &&          ++OoXXXXXXXXXXXXXX@@XXXXXXXXXXXXXXXXoo++      ",
"      ++ooXXXXXXXXXXXXXXXX@@XXXXXXXXXXXXXXoo++          **            &&          ++OoXXXXXXXXXXXXXX@@XXXXXXXXXXXXXXXXoo++      ",
"    ooooXXXXXXXXXXXXXXooooooooXXXXXXXXXXXXXXooOO        &&  ##    ##  $$        OOooXXXXXXXXXXXXXXooooooooXXXXXXXXXXXXXXOOoo    ",
"    ooooXXXXXXXXXXXXXXooooooooXXXXXXXXXXXXXXoooo        &&  ##    ##  $$        ooooXXXXXXXXXXXXXXooooooooXXXXXXXXXXXXXXooOO    ",
"    ++OOXXXXXXXXXXXXXXooooooooXXXXXXXXXXXXXXoo++        &&                      ++OoXXXXXXXXXXXXXXooooooooXXXXXXXXXXXXXXoo++    ",
"    ++ooXXXXXXXXXXXXXXooooooooXXXXXXXXXXXXXXoo++        &&                      ++OoXXXXXXXXXXXXXXooooooooXXXXXXXXXXXXXXoo++    ",
"      ++ooXXXXXXXXXXXXXXXX@@XXXXXXXXXXXXXXoO++          $$  ##    ##              ++ooXXXXXXXXXXXXXX@@XXXXXXXXXXXXXXXXoO++      ",
"      ++OOXXXXXXXXXXXXXXXX@@XXXXXXXXXXXXXXoO++          $$  ##    ##              ++ooXXXXXXXXXXXXXX@@XXXXXXXXXXXXXXXXoO++      ",
"          ++oO++ooXXXX@@@@@@@@@@XX++oo++oo                                            oO++oo++XX@@@@@@@@@@XXXXXX++oo++          ",
"          ++oO++ooXXXX@@@@@@@@@@XX++oo++OO                                            oO++OO++XX@@@@@@@@@@XXXXXX++OO++          ",
"                ++oo++oo++oo++oo++oo                        ##    ##                        oo++oo++oo++oo++oo++                ",
"                ++oo++oo++oo++OO++OO                        ##    ##                        oo++oo++oo++oo++OO++                ",
"                                                                                                                                ",
"                                                                                                                                ",
"................................................................................................................................",
"................................................................................................................................",
"................................$$..,,..  ......................................................................................",
"................................$$..,,..  ......................................................................................",
"................................  ..  ..  ......................................................................................",
"................................  ..  ..  ......................................................................................"
};
