/* XPM */
static char *result[] = {
/* columns rows colors chars-per-pixel */
"128 64 37 1 ",
"  c black",
". c #060606",
"X c #090909",
"o c gray5",
"O c #0F0D0D",
"+ c gray7",
"@ c #181818",
"# c #191919",
"$ c #360000",
"% c #0B360A",
"& c #362200",
"* c #2D360A",
"= c #362F11",
"- c #1B3631",
"; c #203621",
": c #333621",
"> c #342036",
", c gray21",
"< c #736015",
"1 c #704E3A",
"2 c #251763",
"3 c #261762",
"4 c #281361",
"5 c #281461",
"6 c #231A65",
"7 c #241964",
"8 c #221D65",
"9 c #211D66",
"0 c #1F2068",
"q c #1D2369",
"w c #1B266A",
"e c #1B276B",
"r c #1C2469",
"t c #19296C",
"y c #182A6C",
"u c #202067",
"i c gray45",
/* pixels */
"OOOOOOOOOOOOOOOOOOOOOOOOOOOOOOOOOOOOOOOOOO  OOOO<<<<<<<<<<<<<<<<<<<<<<<<<<<<<<<<OOOO  OOOOOOOOOOOOOOOOOOOOOOOOOOOOOOOOOOOOOOOOOO",
"OOOOOOOOOOOOOOOOOOOOOOOOOOOOOOOOOOOOOOOOOO  OOOO<<<<<<<<<<<<<<<<<<<<<<<<<<<<<<<<OOOO  OOOOOOOOOOOOOOOOOOOOOOOOOOOOOOOOOOOOOOOOOO",
"444444444444444444444444444444444444444444  4444<<<<111111111111111111111111<<<<4444  444444444444444444444444444444444444444444",
"555555555555555555555555555555555555555555  5555<<<<111111111111111111111111<<<<5555  555555555555555555555555555555555555555555",
"OOOOOOOOOOOOOOOOOOOOOOOOOOOOOOOOOOOOOOOOOO  OO  <<1111111111111111111111111111<<  OO  OOOOOOOOOOOOOOOOOOOOOOOOOOOOOOOOOOOOOOOOOO",
"OOOOOOOOOOOOOOOOOOOOOOOOOOOOOOOOOOOOOOOOOO  OO  <<1111111111111111111111111111<<  OO  OOOOOOOOOOOOOOOOOOOOOOOOOOOOOOOOOOOOOOOOOO",
"333333333333333333333333333333333333333333      <<1111111111111111111111111111<<      333333333333333333333333333333333333333333",
"222222222222222222222222222222222222222222      <<1111111111111111111111111111<<      222222222222222222222222222222222222222222",
"OOOOOOOOOOOOOOOOOOOOOOOOOOOOOOOOOOOOOOOOOO      <<1111111111111111111111111111<<      OOOOOOOOOOOOOOOOOOOOOOOOOOOOOOOOOOOOOOOOOO",
"OOOOOOOOOOOOOOOOOOOOOOOOOOOOOOOOOOOOOOOOOO      <<1111111111111111111111111111<<      OOOOOOOOOOOOOOOOOOOOOOOOOOOOOOOOOOOOOOOOOO",
"777777777777777777777777777777777777777777      1111          1111          1111      777777777777777777777777777777777777777777",
"666666666666666666666666666666666666666666      1111          1111          1111      666666666666666666666666666666666666666666",
"OOOOOOOOOOOOOOOOOOOOOOOOOOOOOOOOOOOOOOOOOOOO    111111iiii111111111111iiii111111    OOOOOOOOOOOOOOOOOOOOOOOOOOOOOOOOOOOOOOOOOOOO",
"OOOOOOOOOOOOOOOOOOOOOOOOOOOOOOOOOOOOOOOOOOOO    111111iiii111111111111iiii111111    OOOOOOOOOOOOOOOOOOOOOOOOOOOOOOOOOOOOOOOOOOOO",
"8888888888888888888888888888888888888888888888  111111  ii111111111111  ii111111  8888888888888888888888888888888888888888888888",
"9999999999999999999999999999999999999999999999  111111  ii111111111111  ii111111  9999999999999999999999999999999999999999999999",
"OOOOOOOOOOOOOOOOOOOOOOOOOOOOOOOOOOOOOOOOOOOOOOOO11111111111111111111111111111111OOOOOOOOOOOOOOOOOOOOOOOOOOOOOOOOOOOOOOOOOOOOOOOO",
"OOOOOOOOOOOOOOOOOOOOOOOOOOOOOOOOOOOOOOOOOOOOOOOO11111111111111111111111111111111OOOOOOOOOOOOOOOOOOOOOOOOOOOOOOOOOOOOOOOOOOOOOOOO",
"uuuuuuuuuuuuuuuuuuuuuuuuuuuuuuuuuuuuuuuuuuuuuuuu11111111111111111111111111111111uuuuuuuuuuuuuuuuuuuuuuuuuuuuuuuuuuuuuuuuuuuuuuuu",
"00000000000000000000000000000000000000000000000011111111111111111111111111111111000000000000000000000000000000000000000000000000",
"OOOOOOOOOOOOOOOOOOOOOOOOOOOOOOOOOOOOOOOOOOOOOOOO111111111111111       1111111111OOOOOOOOOOOOOOOOOOOOOOOOOOOOOOOOOOOOOOOOOOOOOOOO",
"OOOOOOOOOOOOOOOOOOOOOOOOOOOOOOOOOOOOOOOOOOOOOOOO111111111111111       1111111111OOOOOOOOOOOOOOOOOOOOOOOOOOOOOOOOOOOOOOOOOOOOOOOO",
"qqqqqqqqqqqqqqqqqqqqqqqqqqqqqqqqqqqqqqqqqqqqqqqq11111111111111111111111111111111qqqqqqqqqqqqqqqqqqqqqqqqqqqqqqqqqqqqqqqqqqqqqqqq",
"rrrrrrrrrrrrrrrrrrrrrrrrrrrrrrrrrrrrrrrrrrrrrrrr11111111111111111111111111111111rrrrrrrrrrrrrrrrrrrrrrrrrrrrrrrrrrrrrrrrrrrrrrrr",
"OOOOOOOOOOOOOOOOOOOOOOOOOOOOOOOOOOOOOOOOOOOOOOOO11111111111111111111111111111111OOOOOOOOOOOOOOOOOOOOOOOOOOOOOOOOOOOOOOOOOOOOOOOO",
"OOOOOOOOOOOOOOOOOOOOOOOOOOOOOOOOOOOOOOOOOOOOOOOO11111111111111111111111111111111OOOOOOOOOOOOOOOOOOOOOOOOOOOOOOOOOOOOOOOOOOOOOOOO",
"wwwwwwwwwwwwwwwwwwwwwwwwwwwwwwwwwwwwwwwwww1111iiii1111111111111111111111111111ii111111wwwwwwwwwwwwwwwwwwwwwwwwwwwwwwwwwwwwwwwwww",
"eeeeeeeeeeeeeeeeeeeeeeeeeeeeeeeeeeeeeeeeee1111iiii1111111111111111111111111111ii111111eeeeeeeeeeeeeeeeeeeeeeeeeeeeeeeeeeeeeeeeee",
"OOOOOOOOOOOOOOOOOOOOOOOOOOOOOOOOOOOOOOOOOO1111iiii1111111111111111111111111111iiii1111OOOOOOOOOOOOOOOOOOOOOOOOOOOOOOOOOOOOOOOOOO",
"OOOOOOOOOOOOOOOOOOOOOOOOOOOOOOOOOOOOOOOOOO1111iiii1111111111111111111111111111iiii1111OOOOOOOOOOOOOOOOOOOOOOOOOOOOOOOOOOOOOOOOOO",
"tttttttttttttttttttttttttttttttttttttttttt1111iiiiiiiiiiiiiiiiiiiiiiiiiiiiiiiiiiii1111tttttttttttttttttttttttttttttttttttttttttt",
"yyyyyyyyyyyyyyyyyyyyyyyyyyyyyyyyyyyyyyyyyy1111iiiiiiiiiiiiiiiiiiiiiiiiiiiiiiiiiiii1111yyyyyyyyyyyyyyyyyyyyyyyyyyyyyyyyyyyyyyyyyy",
"                                                                                                                                ",
"                                                                                                                                ",
"  ##    ::::    ;;;;    >>>>    ----    ====            ################    %%      ====    ----    >>>>    ;;;;    ::::    ##  ",
"  ##    ::::    ;;;;    >>>>    ----    ====            ################    %%      ====    ----    >>>>    ;;;;    ::::    ##  ",
"  ####                                                                                                                    ####  ",
"  ####                                                                                                                    ####  ",
"  ##                                                    %%  ##    ##  %%    $$                                              ##  ",
"  ##                                                    %%  ##    ##  %%    $$                                              ##  ",
"  ##          ++oo++oo++oo++oo++oo++                    %%  ##    ##  **                    ++oo++oo++oo++oo++oo++          ##  ",
"  ##          ++oo++oo++oo++oo++oo++                    %%  ##    ##  **                    ++oo++oo++oo++oo++oo++          ##  ",
"  ##      ++ooooXXXXXXXX@@@@@@XXXXXX++oo++              **  ##    ##  &&              ++ooXXXXXXXX@@@@@@XXXXXXXXoooo++      ##  ",
"  ##      ++ooooXXXXXXXX@@@@@@XXXXXX++oo++              **  ##    ##  &&              ++ooXXXXXXXX@@@@@@XXXXXXXXoooo++      ##  ",
"      ++ooXXXXXXXXXXXXXXXX@@XXXXXXXXXXXXXXoo++          **            &&          ++ooXXXXXXXXXXXXXX@@XXXXXXXXXXXXXXXXoo++      ",
"      ++ooXXXXXXXXXXXXXXXX@@XXXXXXXXXXXXXXoo++          **            &&          ++ooXXXXXXXXXXXXXX@@XXXXXXXXXXXXXXXXoo++      ",
"    ooooXXXXXXXXXXXXXXooooooooXXXXXXXXXXXXXXoooo        &&  ##    ##  $$        ooooXXXXXXXXXXXXXXooooooooXXXXXXXXXXXXXXoooo    ",
"    ooooXXXXXXXXXXXXXXooooooooXXXXXXXXXXXXXXoooo        &&  ##    ##  $$        ooooXXXXXXXXXXXXXXooooooooXXXXXXXXXXXXXXoooo    ",
"    ++ooXXXXXXXXXXXXXXooooooooXXXXXXXXXXXXXXoo++        &&                      ++ooXXXXXXXXXXXXXXooooooooXXXXXXXXXXXXXXoo++    ",
"    ++ooXXXXXXXXXXXXXXooooooooXXXXXXXXXXXXXXoo++        &&                      ++ooXXXXXXXXXXXXXXooooooooXXXXXXXXXXXXXXoo++    ",
"      ++ooXXXXXXXXXXXXXXXX@@XXXXXXXXXXXXXXoo++          $$  ##    ##              ++ooXXXXXXXXXXXXXX@@XXXXXXXXXXXXXXXXoo++      ",
"      ++ooXXXXXXXXXXXXXXXX@@XXXXXXXXXXXXXXoo++          $$  ##    ##              ++ooXXXXXXXXXXXXXX@@XXXXXXXXXXXXXXXXoo++      ",
"          ++oo++ooXXXX@@@@@@@@@@XX++oo++oo                                            oo++oo++XX@@@@@@@@@@XXXXXX++oo++          ",
"          ++oo++ooXXXX@@@@@@@@@@XX++oo++oo                                            oo++oo++XX@@@@@@@@@@XXXXXX++oo++          ",
"                ++oo++oo++oo++oo++oo                        ##    ##                        oo++oo++oo++oo++oo++                ",
"                ++oo++oo++oo++oo++oo                        ##    ##                        oo++oo++oo++oo++oo++                ",
"                                                                                                                                ",
"                                                                                                                                ",
"................................................................................................................................",
"................................................................................................................................",
"................................$$..,,..  ......................................................................................",
"................................$$..,,..  ......................................................................................",
"................................  ..  ..  ......................................................................................",
"................................  ..  ..  ......................................................................................"
};
