/* XPM */
static char *f7165b05d8ca45f7e662e82772ec956eIuV5IZDMLKts5IcA[] = {
/* columns rows colors chars-per-pixel */
"64 64 13 1 ",
"  c gray2",
". c #0E0E0E",
"X c #111111",
"o c #131313",
"O c #161616",
"+ c #191919",
"@ c #260004",
"# c #320006",
"$ c #3D0007",
"% c gray17",
"& c #460008",
"* c #4B0008",
"= c #702830",
/* pixels */
"******==**$$##@@##$$**==****&&@@@@&&****==**$$##@@##$$**==******",
"******==**$$##@@##$$**==****&&@@@@&&****==**$$##@@##$$**==******",
"******==**$$##@@##$$**==****&&@@@@&&****==**$$##@@##$$**==******",
"******==**$$##@@##$$**==****&&@@@@&&****==**$$##@@##$$**==******",
"******==**$$##@@##$$**==****&&@@@@&&****==**$$##@@##$$**==******",
"******==**$$##@@##$$**==****&&@@@@&&****==**$$##@@##$$**==******",
"******==**$$##@@##$$**==****&&@@@@&&****==**$$##@@##$$**==******",
"******==**$$##@@##$$**==****&&@@@@&&****==**$$##@@##$$**==******",
"******==**$$##@@##$$**==****&&@@@@&&****==**$$##@@##$$**==******",
"******==**$$##@@##$$**==****&&@@@@&&****==**$$##@@##$$**==******",
"******==**$$##@@##$$**==****&&@@@@&&****==**$$##@@##$$**==******",
"******==**$$##@@##$$**==****&&@@@@&&****==**$$##@@##$$**==******",
"******==**$$##@@##$$**==****&&@@@@&&****==**$$##@@##$$**==******",
"******==**$$##@@##$$**==****&&@@@@&&****==**$$##@@##$$**==******",
"******==**$$##  ##$$**==****&&    &&****==**$$##  ##$$**==******",
"******==**$$##  ##$$**==****&&    &&****==**$$##  ##$$**==******",
"******==**$$##..##$$**==****&&....&&****==**$$##..##$$**==******",
"******==**$$##..##$$**==****&&....&&****==**$$##..##$$**==******",
"..****==**$$      $$**==****        ****==**$$      $$**==****..",
"..****==**$$      $$**==****        ****==**$$      $$**==****..",
"..  **==**++++++++++**==**++++    ++++**==**++++++++++**==**  ..",
"..  **==**++++++++++**==**++++    ++++**==**++++++++++**==**  ..",
"..  ++++++++++++++++++++++++++    ++++++++++++++++++++++++++  ..",
"..  ++++++++++++++++++++++++++    ++++++++++++++++++++++++++  ..",
"..  OOOOOOOOOOOOOOOOOOOOOOOOOO    OOOOOOOOOOOOOOOOOOOOOOOOOO  ..",
"..  OOOOOOOOOOOOOOOOOOOOOOOOOO    OOOOOOOOOOOOOOOOOOOOOOOOOO  ..",
"..  OOOOOOOOOOOOOOOOOOOOOOOOOO    OOOOOOOOOOOOOOOOOOOOOOOOOO  ..",
"..  OOOOOOOOOOOOOOOOOOOOOOOOOO    OOOOOOOOOOOOOOOOOOOOOOOOOO  ..",
"..  oooooooooooooooooooooooooo    oooooooooooooooooooooooooo  ..",
"..  oooooooooooooooooooooooooo    oooooooooooooooooooooooooo  ..",
"..  oooooooooooooooooooooooooo    oooooooooooooooooooooooooo  ..",
"..  oooooooooooooooooooooooooo    oooooooooooooooooooooooooo  ..",
"..  oooooooooooooooooooooooooo    oooooooooooooooooooooooooo  ..",
"..  oooooooooooooooooooooooooo    oooooooooooooooooooooooooo  ..",
"..  .o.o.o.oo..oo..oo.o.o.%%.o    oo%%.o.oo...ooo..oo..ooo..  ..",
"..  .ooo.ooo.oo..oo.ooo..o%%o.    o.%%.ooo.ooo.o.oo..oo.o.oo  ..",
"..  .oo.oo.oo.oooo.oo.oooo%%oo    .o%%o.oo.o.oo.oo.oo.ooo..o  ..",
"..  o..o.oo.o..oo..o.oo.o.%%.o    oo%%oo.oo.o.ooo.o..o.o.oo.  ..",
"..  oooo.oo..oo..oo..oo.oo%%o.    o.%%.oo..oo.o...oooo..oooo  ..",
"..  .o..oo.ooo.oo.ooo.oo..%%o.    .o%%o.o.oo.oo.oo.oo.ooo..o  ..",
"..  ......................%%..    ..%%......................  ..",
"..  ......................%%..    ..%%......................  ..",
"..  ......................%%..    ..%%......................  ..",
"..  ......................%%..    ..%%......................  ..",
"..  ......................%%..    ..%%......................  ..",
"..  ......................%%..    ..%%......................  ..",
"..  ......................%%..    ..%%......................  ..",
"..  ......................%%..    ..%%......................  ..",
"..  ......................%%..    ..%%......................  ..",
"..  ......................%%..    ..%%......................  ..",
"..  ......................%%..    ..%%......................  ..",
"..  ......................%%..    ..%%......................  ..",
"..  ..........................    ..........................  ..",
"..  ..........................    ..........................  ..",
"..  ..........................    ..........................  ..",
"..  ..........................    ..........................  ..",
"..  ..........................    ..........................  ..",
"..  ..........................    ..........................  ..",
"..  ..........................    ..........................  ..",
"..  ..........................    ..........................  ..",
"..                                                            ..",
"..                                                            ..",
"................................................................",
"................................................................"
};
