/* XPM */
static char *_8ec484d829948e7d2f94582be06807485OTxYKKgVfg6Kg5[] = {
/* columns rows colors chars-per-pixel */
"64 64 13 1 ",
"  c gray2",
". c #0E0E0E",
"X c #111111",
"o c #131313",
"O c #161616",
"+ c #191919",
"@ c #260004",
"# c #320006",
"$ c #3D0007",
"% c gray17",
"& c #460008",
"* c #4B0008",
"= c #702830",
/* pixels */
"******==**$$##@@##$$**==****&&@@@@&&****==**$$##@@##$$**==******",
"******==**$$##@@##$$**==****&&@@@@&&****==**$$##@@##$$**==******",
"******==**$$##@@##$$**==****&&@@@@&&****==**$$##@@##$$**==******",
"******==**$$##@@##$$**==****&&@@@@&&****==**$$##@@##$$**==******",
"******==**$$##@@##$$**==****&&@@@@&&****==**$$##@@##$$**==******",
"******==**$$##@@##$$**==****&&@@@@&&****==**$$##@@##$$**==******",
"******==**$$##@@##$$**==****&&@@@@&&****==**$$##@@##$$**==******",
"******==**$$##@@##$$**==****&&@@@@&&****==**$$##@@##$$**==******",
"******==**$$##@@##$$**==****&&@@@@&&****==**$$##@@##$$**==******",
"******==**$$##@@##$$**==****&&@@@@&&****==**$$##@@##$$**==******",
"******==**$$##@@##$$**==****&&@@@@&&****==**$$##@@##$$**==******",
"******==**$$##@@##$$**==****&&@@@@&&****==**$$##@@##$$**==******",
"******==**$$##@@##$$**==****&&@@@@&&****==**$$##@@##$$**==******",
"******==**$$##@@##$$**==****&&@@@@&&****==**$$##@@##$$**==******",
"******==**$$##  ##$$**==****&&    &&****==**$$##  ##$$**==******",
"******==**$$##  ##$$**==****&&    &&****==**$$##  ##$$**==******",
"******==**$$##..##$$**==****&&....&&****==**$$##..##$$**==******",
"******==**$$##..##$$**==****&&....&&****==**$$##..##$$**==******",
"..****==**$$      $$**==****        ****==**$$      $$**==****..",
"..****==**$$      $$**==****        ****==**$$      $$**==****..",
"..  **==**          **==**        ++++**==**++++++++++**==**  ..",
"..  **==**          **==**        ++++**==**++++++++++**==**  ..",
"..                                ++++++++++++++++++++++++++  ..",
"..                                ++++++++++++++++++++++++++  ..",
"..                                OOOOOOOOOOOOOOOOOOOOOOOOOO  ..",
"..                                OOOOOOOOOOOOOOOOOOOOOOOOOO  ..",
"..                                OOOOOOOOOOOOOOOOOOOOOOOOOO  ..",
"..                                OOOOOOOOOOOOOOOOOOOOOOOOOO  ..",
"..                                oooooooooooooooooooooooooo  ..",
"..                                oooooooooooooooooooooooooo  ..",
"..                                oooooooooooooooooooooooooo  ..",
"..                                oooooooooooooooooooooooooo  ..",
"..                                oooooooooooooooooooooooooo  ..",
"..                                oooooooooooooooooooooooooo  ..",
"..                                oo%%.o.oo...ooo..oo..ooo..  ..",
"..                                o.%%.ooo.ooo.o.oo..oo.o.oo  ..",
"..                                .o%%o.oo.o.oo.oo.oo.ooo..o  ..",
"..                                oo%%oo.oo.o.ooo.o..o.o.oo.  ..",
"..                                o.%%.oo..oo.o...oooo..oooo  ..",
"..                                .o%%o.o.oo.oo.oo.oo.ooo..o  ..",
"..                                ..%%......................  ..",
"..                                ..%%......................  ..",
"..                                ..%%......................  ..",
"..                                ..%%......................  ..",
"..                                ..%%......................  ..",
"..                                ..%%......................  ..",
"..                                ..%%......................  ..",
"..                                ..%%......................  ..",
"..                                ..%%......................  ..",
"..                                ..%%......................  ..",
"..                                ..%%......................  ..",
"..                                ..%%......................  ..",
"..                                ..........................  ..",
"..                                ..........................  ..",
"..                                ..........................  ..",
"..                                ..........................  ..",
"..                                ..........................  ..",
"..                                ..........................  ..",
"..                                ..........................  ..",
"..                                ..........................  ..",
"..                                                            ..",
"..                                                            ..",
"................................................................",
"................................................................"
};
