/* XPM */
static char *_c3a5c9969b042d2c0d12d7415b8cba5mZkmKmD18fWLw8Zm[] = {
/* columns rows colors chars-per-pixel */
"64 64 6 1 ",
"  c None",
". c #171000",
"X c #382800",
"o c #470000",
"O c #6E5802",
"+ c #73683B",
/* pixels */
"                                                                ",
"                                                                ",
"                                                                ",
"                                                                ",
"                                                                ",
"                                                                ",
"                                                                ",
"                                                                ",
"                                                                ",
"                                                                ",
"                                                                ",
"                                                                ",
"                                                                ",
"                                                                ",
"                                                                ",
"                                                                ",
"                                                                ",
"                                                                ",
"                                                                ",
"                                                                ",
"                                                                ",
"                                                                ",
"O                                                              O",
"O                                                              O",
"+++                                                          OO+",
"+++                                                          OO+",
"O                                                              O",
"O                                                              O",
"X                                                              X",
"X                                                              X",
"O++oo                                                      ooXXO",
"O++oo                                                      ooXXO",
"O++  oo                                                  oo  XXO",
"O++  oo                                                  oo  XXO",
"O++  oo                                                  oo  XXO",
"O++  oo                                                  oo  XXO",
"O++    oo                                              oo    XXO",
"O++    oo                                              oo    XXO",
"O++      oo                                          oo      XXO",
"O++      oo                                          oo      XXO",
"O++        oo                                      oo        XXO",
"O++        oo                                      oo        XXO",
"O++          oo                                  oo          XXO",
"O++          oo                                  oo          XXO",
"O++            oo                              oo            XXO",
"O++            oo                              oo            XXO",
"O++              oooo                      oooo              XXO",
"O++              oooo                      oooo              XXO",
"O++                  oooo              oooo                  XXO",
"O++                  oooo              oooo                  XXO",
"O++                      oooooooooooooo                      XXO",
"O++                      oooooooooooooo                      XXO",
"O++                                                          XXO",
"O++                                                          XXO",
"O++                                                          XXO",
"O++                                                          XXO",
"O++                                                          XXO",
"O++                                                          XXO",
"X                                                              X",
"X                                                              X",
"O++OO                                                      ..XXO",
"O++OO                                                      ..XXO",
"O++OO                                                      ..XXO",
"O++OO                                                      ..XXO"
};
