/* XPM */
static char *b411f5d996734a67a33b49321b5d5570lHB3AraM8SsZP3yN[] = {
/* columns rows colors chars-per-pixel */
"64 64 6 1 ",
"  c None",
". c #332400",
"X c #7C5800",
"o c #9E0000",
"O c #F4C404",
"+ c #FFE683",
/* pixels */
"                                                                ",
"                                                                ",
"                                                                ",
"                                                                ",
"                                                                ",
"                                                                ",
"                                                                ",
"                                                                ",
"                                                                ",
"                                                                ",
"                                                                ",
"                                                                ",
"O                                                              O",
"O                                                              O",
"+++                                                          OO+",
"+++                                                          OO+",
"O                                                              O",
"O                                                              O",
"X                                                              X",
"X                                                              X",
"O++oo                                                      ooXXO",
"O++oo                                                      ooXXO",
"O++  oo                                                  oo  XXO",
"O++  oo                                                  oo  XXO",
"O++  oo                                                  oo  XXO",
"O++  oo                                                  oo  XXO",
"O++    oo                                              oo    XXO",
"O++    oo                                              oo    XXO",
"O++      oo                                          oo      XXO",
"O++      oo                                          oo      XXO",
"O++        oo                                      oo        XXO",
"O++        oo                                      oo        XXO",
"O++          oo                                  oo          XXO",
"O++          oo                                  oo          XXO",
"O++            oo                              oo            XXO",
"O++            oo                              oo            XXO",
"O++              oooo                      oooo              XXO",
"O++              oooo                      oooo              XXO",
"O++                  oooo              oooo                  XXO",
"O++                  oooo              oooo                  XXO",
"O++                      oooooooooooooo                      XXO",
"O++                      oooooooooooooo                      XXO",
"O++                                                          XXO",
"O++                                                          XXO",
"O++                                                          XXO",
"O++                                                          XXO",
"O++                                                          XXO",
"O++                                                          XXO",
"X                                                              X",
"X                                                              X",
"O++OO                                                      ..XXO",
"O++OO                                                      ..XXO",
"O++OO                                                      ..XXO",
"O++OO                                                      ..XXO",
"                                                                ",
"                                                                ",
"                                                                ",
"                                                                ",
"                                                                ",
"                                                                ",
"                                                                ",
"                                                                ",
"                                                                ",
"                                                                "
};
