/* XPM */
static char *_a637417de77462dce968e65172f51ebnehkMkSN3ilmlPSO[] = {
/* columns rows colors chars-per-pixel */
"64 64 209 2 ",
"   c #010102",
".  c #010103",
"X  c #010204",
"o  c #010205",
"O  c #020206",
"+  c #020307",
"@  c #020308",
"#  c #030409",
"$  c #03040A",
"%  c #03040B",
"&  c #04050C",
"*  c #04050D",
"=  c #04050E",
"-  c #04060F",
";  c #050610",
":  c #050711",
">  c #050712",
",  c #060713",
"<  c #060814",
"1  c #060815",
"2  c #060916",
"3  c #070917",
"4  c #070918",
"5  c #070A19",
"6  c #080A1A",
"7  c #080B1B",
"8  c #080B1C",
"9  c #090B1D",
"0  c #090C1E",
"q  c #090C1F",
"w  c #090D20",
"e  c #0A0D21",
"r  c #0A0D22",
"t  c #0A0E23",
"y  c #0B0E24",
"u  c #0B0F25",
"i  c #0B0F26",
"p  c #0B0F27",
"a  c #0C1028",
"s  c #0C1029",
"d  c #0C102A",
"f  c #0D112B",
"g  c #0D112C",
"h  c #0D122D",
"j  c #0E122E",
"k  c #0E122F",
"l  c #0E1330",
"z  c #0E1331",
"x  c #0F1432",
"c  c #0F1433",
"v  c #0F1434",
"b  c #101535",
"n  c #101536",
"m  c #101637",
"M  c #101638",
"N  c #111639",
"B  c #11173A",
"V  c #11173B",
"C  c #12183C",
"Z  c #12183D",
"A  c #12183E",
"S  c #13193F",
"D  c #131940",
"F  c #131941",
"G  c #131A42",
"H  c #141A43",
"J  c #141B44",
"K  c #141B45",
"L  c #151B46",
"P  c #151C47",
"I  c #151C48",
"U  c #151D49",
"Y  c #161D4A",
"T  c #161D4B",
"R  c #161E4C",
"E  c #171E4D",
"W  c #171F4E",
"Q  c #171F4F",
"!  c #181F50",
"~  c #182051",
"^  c #182052",
"/  c #182153",
"(  c #192154",
")  c #192155",
"_  c #192256",
"`  c #1A2257",
"'  c #1A2358",
"]  c #1A2359",
"[  c #1A235A",
"{  c #1B245B",
"}  c #1B245C",
"|  c #1B245D",
" . c #1C255E",
".. c #1C255F",
"X. c #1C2660",
"o. c #1D2661",
"O. c #1D2662",
"+. c #1D2763",
"@. c #1D2764",
"#. c #1E2865",
"$. c #1E2866",
"%. c #1E2867",
"&. c #1F2968",
"*. c #1F2969",
"=. c #1F2A6A",
"-. c #1F2A6B",
";. c #202A6C",
":. c #202B6D",
">. c #202B6E",
",. c #212C6F",
"<. c #212C70",
"1. c #212C71",
"2. c #222D72",
"3. c #222D73",
"4. c #222D74",
"5. c #222E75",
"6. c #232E76",
"7. c #232F77",
"8. c #232F78",
"9. c #242F79",
"0. c #24307A",
"q. c #24307B",
"w. c #24317C",
"e. c #25317D",
"r. c #25317E",
"t. c #25327F",
"y. c #263280",
"u. c #263381",
"i. c #263382",
"p. c #273383",
"a. c #273484",
"s. c #273485",
"d. c #273586",
"f. c #283587",
"g. c #283588",
"h. c #283689",
"j. c #29368A",
"k. c #29378B",
"l. c #29378C",
"z. c #29378D",
"x. c #2A388E",
"c. c #2A388F",
"v. c #2A3890",
"b. c #2B3991",
"n. c #2B3992",
"m. c #2B3A93",
"M. c #2C3A94",
"N. c #2C3A95",
"B. c #2C3B96",
"V. c #2C3B97",
"C. c #2D3C98",
"Z. c #2D3C99",
"A. c #2D3C9A",
"S. c #2E3D9B",
"D. c #2E3D9C",
"F. c #2E3E9D",
"G. c #2E3E9E",
"H. c #2F3E9F",
"J. c #2F3FA0",
"K. c #2F3FA1",
"L. c #3040A2",
"P. c #3040A3",
"I. c #3040A4",
"U. c #3141A5",
"Y. c #3141A6",
"T. c #3141A7",
"R. c #3142A8",
"E. c #3242A9",
"W. c #3243AA",
"Q. c #3243AB",
"!. c #3343AC",
"~. c #3344AD",
"^. c #3344AE",
"/. c #3345AF",
"(. c #3445B0",
"). c #3445B1",
"_. c #3446B2",
"`. c #3546B3",
"'. c #3547B4",
"]. c #3547B5",
"[. c #3647B6",
"{. c #3648B8",
"}. c #3649B9",
"|. c #3749BA",
" X c #3749BB",
".X c #374ABC",
"XX c #384ABD",
"oX c #384BBE",
"OX c #384BBF",
"+X c #384BC0",
"@X c #394CC1",
"#X c #394CC2",
"$X c #394CC3",
"%X c #3A4DC4",
"&X c #3A4DC5",
"*X c #3A4EC6",
"=X c #3B4EC7",
"-X c #3B4EC8",
";X c #3B4FC9",
":X c #3B4FCA",
">X c #3C50CB",
",X c #3D51CE",
"<X c #3D51CF",
"1X c #3E52D2",
"2X c #3E53D3",
"3X c #3F54D5",
"4X c #3F54D6",
"5X c #4055D8",
"6X c #4B64FF",
/* pixels */
"        . . + . + . . $ $ + $ $ * * * * - - ; ; 1 < 1 ; 1 1 1 1 1 1 < < < < < 1 ; 1 ; : ; ; % : % - % $ $ . $ $ . . . . + . . . ",
"        . .   + . $ . + + $ $ $ @ * * * * - ; ; ; ; 1 1 ; 1 1 ; 1 1 < < < < 1 1 1 < ; : ; : : : % % % $ $ $ $ . . $ @ . . . .   ",
"        . . . . . . + + + $ $ $ % - * - * ; ; 1 1 ; ; 1 1 1 1 1 1 1 1 < 1 1 1 ; ; ; ; ; ; % : % - - % $ . # @ @ @ . . . .   .   ",
"        . . + K a.K $ K i.I % K s.I * R s.R ; R h.! < ! g.! 4 ! k.! 6 ! k.! 6 ! k.! < W h.R ; R a.I - I f.P # L i.P @ @ + + . . ",
". .   . . + . a.6Xu.$ i.6Xh.% h.6Xp.; a.6Xk.1 h.6Xl.5 l.6Xl.8 l.6Xk.6 x.6Xk.6 l.6Xk.1 k.6Xk.1 k.6Xf.; k.6Xu.@ p.6Xu.$ . . + . . ",
". .   + + . . K u.P $ P a.I ; I g.R 1 ! l.! 5 _ l._ 8 ' v.' w ' m.{ 0 ' M._ 8 _ v._ 6 _ l.! < ! k.R : R k.I - L a.P + + + . . + ",
". + . . . . $ + @ # % - - % : ; ; 1 1 5 5 5 8 8 8 w e e w w y w e e r r r r p r e 8 8 8 8 5 5 < < 1 ; ; % - - - % $ . $ + $ + . ",
". . + G a.K $ K p.I - I a.R : R g.! 4 ! l._ 8 _ l.' y ' v.} p } m.} f { M.] p ] v.' e _ l._ 6 / k.! < ! k.I - I a.P $ P i.K . + ",
". $ . u.6Xp.@ p.6Xf.% h.6Xh.< h.6Xl.8 l.6Xm.y v.6Xm.f m.6XB.j B.6XB.j B.6XB.d B.6Xn.p n.6Xx.0 m.6Xl.< k.6Xk.; k.6Xa.@ p.6Xu.. . ",
". . . L p.L # I f.I ; R h.~ < ~ l._ 0 ' m.' y } M.o.j @.A.@.l %.C.%.x %.D.@.j @.B.o.d | M.{ e ' v._ 6 _ l.! ; W k.I - I f.L @ @ ",
"$ . @ @ @ # @ - - ; : : < < 5 8 8 e e y y p j j j l x x l b b b b b b b b b v l b l k j f p i y e w 8 8 5 1 1 ; ; ; % - # # @ @ ",
"+ $ . L p.I - I a.R : Q k./ 5 _ x.{ y } M.o.j o.M.%.N *.C.*.Z *.F.>.Z >.A.-.N *.B.@.b o.B.| f } v.' e _ l.! 5 R k.I - I f.I # @ ",
"$ $ @ u.6Xa.- a.6Xk.; k.6Xx.0 x.6XB.f M.6XC.v C.6XF.Z F.6XL.G J.6XL.K J.6XF.Z J.6XC.b C.6XB.j B.6XM.e m.6Xk.5 l.6Xf.; p.6Xf.@ # ",
". $ @ I s.I - R h./ < / x.' e { B.} f o.F.*.N -.L.1.G <.Y.6.L 8.Y.7.I 0.E.7.K 7.K.1.Z >.F.;.x %.A.| p ' m._ 6 / l.! 1 W f.I # - ",
"$ $ $ $ - - ; ; ; < 5 8 0 e y y f f x v b B Z G G K I I R R R ~ ! ! ! R R R R R I L G G Z N b x l j d p y e 8 8 6 < 1 ; ; - - # ",
"$ $ $ I a.R ; R h._ 5 _ x.} p X.m.%.v *.C.<.L <.J.0.Q w.Y.r._ r.Y.u._ r.E.r.! 9.Y.6.I 6.F.>.Z ;.A.o.j o.m.' e _ l.! 1 W g.I * - ",
"$ $ $ a.6Xk.; k.6Xx.8 l.6XB.d M.6XF.N F.6XK.I K.6XE._ E.6X!.} ^.6X^.} ^.6X!.' !.6XY.R Y.6XF.G F.6XC.x C.6Xm.e m.6Xk.5 k.6Xp.; - ",
"% % - I k.R < ! l._ e ' M.o.j @.F.-.Z >.K.9.W u.!.s.' k.`.k.o.l.{.k.%.x.[.k.| k.(.s._ u.E.7.L 7.F.-.b %.C.} i { l._ 5 ! k.R ; - ",
"% - - ; ; 1 < 5 8 0 e y p j j v N Z G L R ! ! ' } | o.@.@.@.;.*.*.*.*.*.*.*.%.o.o.} { _ / R I I G Z N v x d f i e 8 8 5 5 ; ; - ",
"; % - I k.! < / l.' y } B.@.l *.F.1.L 7.K.9.' s.!.k.*.l.`.m.1.m.].M.<.m.`.m.>.l.(.k.o.a.E.r.R 0.L.<.Z *.B.o.f } m._ 8 / k.! ; ; ",
"- - - k.6Xl.5 l.6Xm.y m.6XC.N C.6XK.W K.6X!.} !.6X[.>.[.6X X8..X6X.X0..X6X|.7.|.6X(.@.[.6XW._ E.6XF.G F.6XB.j M.6Xl.e l.6Xk.; ; ",
"- - - R k.! 6 _ v.} p X.C.;.B >.K.9.W r.^.k.@.l.{.B.4.A.+XF.u.J.$XL.i.L.#XF.8.C..XM.-.v.{.a.' u.E.0.L <.F.*.x o.M.' w ' l.! 1 1 ",
"- - ; 1 1 < 6 8 e y f j b N Z L I W / ' | @.*.>.1.7.8.u.u.u.s.a.h.h.a.a.s.u.u.r.9.7.<.>.*.o.} ' / R I G Z N v j d y y 8 5 5 1 ; ",
"; ; ; R l._ 8 _ m.} j o.C.:.G <.K.r.' p.^.l.>.M.{.D.u.J.$XK.h.E.$XE.x.W.#XY.f.K..XA.7.B.[.l.@.a.E.0.I 7.F.*.v %.M.} y ' l.! 5 ; ",
"; ; 1 k.6Xx.8 c.6XB.j B.6XK.G L.6X^.] ^.6X{.<.{.6X#Xs.#X6X:Xm.&X6X:XM.:X6X&Xz.&X6X.Xr.XX6X`.%.`.6XY.W Y.6XC.b A.6Xm.i m.6Xk.< < ",
"1 ; ; R l._ 0 ] M.o.l %.F.<.L 6.E.f.| j.[.M.7.F.#XY.k.E.:X(.M.[.,X].A.].,X(.m.^.:XK.r.F..Xm.*.l.`.u./ 9.Y.1.N ;.C.} y { x._ 5 < ",
"1 ; 1 < 6 6 0 p a j b b Z G I W / ` ;.;.>.7.0.r.s.k.l.M.M.F.F.F.J.F.J.F.F.A.M.M.m.h.a.y.8.<.>.*.o.' / W L G Z b x j p y e 8 5 < ",
"; 1 1 ! k._ r ] m.o.b %.F.6.I 0.E.f.| f.{.C.r.J.#XE.m.(.>X[.J.{.1X{.J.|.,X].F.(.&XR.h.I..XA.<.m.`.p._ r.Y.<.Z ;.C.X.d } l._ 5 5 ",
"1 1 1 k.6Xx.r c.6XC.v C.6XY.R Y.6X`.%.`.6XoXr.oX6X:XA.:X6X1XY.1X6X2XR.1X6X1XF.,X6X&Xl.&X6X{.7.|.6XE.' !.6XK.D H.6XB.d B.6Xl.5 < ",
"1 1 , / l.` r | B.%.b -.J.7.R r.^.k.%.M. XF.u.Y.:X`.A.[.1XXXE.+X3X$XW.+X3X|.J.{.,X(.l.R.+XA.7.M.`.f.' u.K.7.D >.A.o.d o.v._ 6 5 ",
", , 1 1 6 0 r p f l b Z G I R _ | +.;.:.0.r.a.x.m.B.F.J.Y.E.E.!.^.^.^.!.!.R.I.L.F.M.m.l.s.r.8.1.*.o.} _ W I G Z b l d y e 8 8 < ",
"1 1 1 / l.] r | B.@.b -.J.8./ r.^.k.;.m.|.L.a.Y.&X`.F.{.1XXX!.#X3X$X(.$X3X+XI..X,X(.M.E.#XF.8.M.[.k.} u.K.7.G >.A.@.j o.v._ 8 6 ",
"1 1 1 k.6Xn.w n.6XF.N D.6XE.! K.6X[.;.[.6X$Xh.$X6X,XF.,X6X3X^.3X6X4X].4X6X2XI.3X6X-XB.-X6XXX9..X6X!.} ^.6XJ.G J.6XB.g B.6Xl.8 4 ",
"1 1 1 ! l.] r | B.@.v -.J.9.! u.!.l.;.B..XJ.h.E.:X].J.|.2X$X^.$X4X&X(.&X3X$XW.|.:X`.B.E.#XH.9.B.[.k.} u.E.7.K >.D.o.g X.v._ 8 4 ",
"1 1 1 6 6 w e d j l N Z L I ! ' } @.>.1.8.u.h.l.M.A.F.I.R.W.^.^.(.(.(.(.^.W.R.L.F.A.B.l.k.u.9.7.-.@.} ' R I L Z b l j p p w 8 4 ",
"1 ; 1 ! l.] e | B.@.n -.J.8.! u.(.l.-.B..XJ.h.R.>X(.F.|.1X$X!.&X4X:X(.&X3X$XI.|.,X`.M.E.#XF.9.B.[.h.} u.E.1.G >.F.o.g X.n._ 8 4 ",
"1 , 1 k.6Xn.w n.6XA.b A.6XK.! K.6X[.*.[.6X+Xs.$X6X,XF.,X6X2XE.3X6X3X^.3X6X1XI.2X6X:Xm.:X6X.X7.|.6X!.} !.6XJ.G J.6XB.j B.6Xv.8 4 ",
"1 1 , W l.` e ] B.@.b ;.F.7.R u.!.k.%.m.|.F.u.K.&X(.A.].1X.XE..X2XOX^.OX1X|.L.{.-X!.l.E.#XC.7.M.].a.' u.J.7.G -.A.o.d | l.! 6 4 ",
"< , 1 1 6 8 w p d l l N G L R ! ' } @.>.7.8.u.a.l.m.B.F.F.J.Y.Y.R.R.E.I.I.L.F.C.B.m.l.h.u.9.7.;.%.X.' _ R K G N b k d p p 8 6 1 ",
", , , / l._ w ' B.@.l ;.F.7.I r.!.k.o.x.|.F.w.J.&X^.m.(.,X|.L.|.2X|.I.|.1X|.C.[.:XE.k.K.XXA.>.m.(.a._ w.I.1.Z *.A.o.d | l._ 6 1 ",
", , : k.6Xl.e m.6XB.x C.6XL.L J.6X`.o.`.6X.X8..X6X:Xl.&X6X,XF.,X6X,XF.1X6X-XA.-X6X#Xf.#X6X[.>.{.6XE._ E.6XF.Z F.6XM.p M.6Xk.1 1 ",
": ; : ! k._ 8 _ m.o.l %.C.<.L 7.Y.u.} g.(.M.7.D.+XK.k.E.&X^.B.(.>X(.Z.(.-X^.M.E.#XK.u.C.[.m.*.k.^.r.! 0.L.:.N *.B.| p ] c./ 6 1 ",
": : < < 1 6 8 r y f j x N Z G L R _ ' X.@.>.1.8.w.u.a.h.x.m.m.m.M.M.M.m.B.l.l.k.p.u.r.6.<.>.%.o.{ _ ! I G Z N x k d p r 9 6 1 1 ",
": : ; ! l./ 8 ] m.} f %.F.>.G 7.E.u.' s.`.v.>.B.+XJ.y.K.&XE.h.E.:X!.l.E.:XK.s.K.#XF.6.C.{.x.o.f.^.0.I 7.L.*.b %.B.] r ] c./ 1 < ",
"; ; - f.6Xl.6 x.6XM.d B.6XF.Z F.6XE.~ E.6X[.*.`.6X.X0..X6X#Xs.+X6X$Xh.$X6X+Xu.#X6X|.<.|.6X!.| ^.6XJ.I L.6XC.b C.6Xx.r c.6Xj.< , ",
"- - - W k.! 6 _ x.{ d } B.*.Z -.F.0.Q w.E.a.o.k.(.M.7.M.|.F.r.F..XJ.u.F..XC.9.A.[.m.>.l.^.u.{ r.I.7.K <.C.%.l o.M.{ e _ k./ < - ",
"- * - ; ; < 6 6 8 e i d j x M Z G K I ! _ ' } @.@.*.-.1.7.7.8.8.8.0.0.8.8.7.1.1.>.*.@.o.| ' _ ! I L G N b x j f y e 0 6 6 1 < ; ",
"* * - I k./ 1 / x.{ y } B.%.v *.L.<.L 7.E.u.{ a.].l.*.v.{.v.1.Z..XC.7.M..XB.>.v.[.k.o.f.^.r.W 9.Y.<.Z >.F.o.f | M._ 0 / k.W , ; ",
"* - * p.6Xk.1 k.6Xv.e v.6XB.l B.6XL.G L.6XE._ E.6X(.o.(.6X].*.[.6X[.;.{.6X`.%.`.6X^.{ ^.6XK.W K.6XC.N F.6XM.d M.6Xk.6 l.6Xk.; - ",
"* # - I k.R ; ! k._ e _ M.| j @.C.-.Z :.J.7.R 0.Y.u.' u.!.g.X.h.^.k.+.k.^.f.| a.E.r._ r.K.7.L 1.F.*.b @.B.| p ] x./ 6 ! k.I ; - ",
"* * # - - ; 1 < 1 6 8 e y p d j x b B Z G L I I ! / _ _ ' } } } | | | | { { _ _ _ ! ! I I L G N N b x j d p p e 8 6 6 1 1 ; - - ",
"# # # I k.R ; R l./ 8 _ m.' f | C.*.b *.F.<.G 7.E.9.R r.!.s.! u.^.a._ i.^.r./ r.Y.0.I 6.K.1.Z >.F.%.j o.B.] 0 ' x.! 1 W k.I - # ",
"# # # p.6Xk.; f.6Xl.5 k.6Xm.e M.6XB.x C.6XF.N A.6XJ.I I.6XY.R E.6XE./ Y.6XY.R Y.6XL.G K.6XA.b F.6XB.f B.6Xl.8 x.6Xk.1 k.6Xp.- # ",
"@ # # I p.L - R k.! < / k._ e _ M.| f o.B.;.b ;.C.1.K <.F.7.L 7.L.<.P 7.L.<.P <.F.:.Z ;.A.*.l @.B.| p { x._ 6 / k.R ; R f.L # # ",
"@ @ @ # # % - ; - ; < 5 6 6 8 e e a d j j j b b N N Z Z G F G G G G G G G Z Z Z Z B b b l l j d d p r e w 6 6 6 1 ; ; ; - * # # ",
". # @ L f.L # I k.R : R k._ 8 _ M.{ r | B.o.d ;.F.*.b -.F.>.Z >.K.>.Z >.L.:.N ;.F.%.b %.A.o.d X.M.' e _ x._ 1 ! l.R ; I s.I # @ ",
"@ . . i.6Xa.% a.6Xf.; k.6Xl.5 l.6Xv.e m.6XB.d B.6XC.b B.6XA.b A.6XS.b F.6XA.b A.6XM.j B.6Xm.p m.6Xl.8 x.6Xk.< k.6Xa.- a.6Xu.@ . ",
". $ . K u.P $ I s.I ; R k.R < ! k._ 8 _ l.' p | M.| f o.B.@.l o.B.o.l o.B.o.j o.M.X.d } m.' e ' l._ 6 ! k.R 1 R h.I - I u.L @ $ ",
"@ . . $ . $ $ $ % - - ; ; < < < < 6 8 8 w w w r p p p d d f j f j j f j f f d d d y y e w w 8 8 8 5 5 1 ; ; ; ; - - @ $ @ @ . @ ",
". @ . @ . . . P s.I # I h.R ; ! k.! 6 _ v._ w ] M.{ p ] B.| p | B.| d | B.| p | M.' e ' v._ 8 _ l./ < ! k.R - R a.I $ @ . @ # . ",
". + . + . $ + a.6Xa.$ a.6Xh.% k.6Xk.< l.6Xl.8 x.6Xx.0 c.6Xm.e M.6XM.e M.6Xn.e v.6Xl.8 m.6Xl.5 l.6Xk.; k.6Xa.- a.6Xu.$ . # . # . ",
". . . . + . . K u.L $ P a.I ; I k.R ; R k.! 5 / k./ 6 / k._ 8 _ l._ e _ l.! 8 _ l.~ 8 ! h.! < ! k.I ; I a.I - P u.K $ $ . # @ . ",
". . . . $ . . @ @ . $ $ $ - % ; ; ; ; < ; 1 < < 6 6 6 6 6 6 6 8 6 8 8 6 6 6 8 6 5 5 5 < < < 1 ; ; ; * * - @ $ $ @ @ $ . $ . . . ",
"      . . . . @ . $ $ . $ $ % % - % ; ; ; ; : < : < < < 6 < 6 1 5 5 6 1 6 1 6 1 < 1 1 1 : 1 ; ; ; * - @ $ $ $ @ $ . $ . . . . . "
};
