/* XPM */
static char *_62e65e59da64b08bb75ab7a5e6972bb4Nk6trNBGrv3pVJM[] = {
/* columns rows colors chars-per-pixel */
"64 64 2 1 ",
"  c None",
". c black",
/* pixels */
"................................................................",
"................................................................",
"......  ..  ..  ..  ..  ..  ..  ..  ..  ..  ..  ..  ..  ........",
"......  ..  ..  ..  ..  ..  ..  ..  ..  ..  ..  ..  ..  ........",
"................................................................",
"................................................................",
"..  ..  ..  ..  ..  ..  ..  ..  ..  ..  ..  ..  ..  ..  ..  ....",
"..  ..  ..  ..  ..  ..  ..  ..  ..  ..  ..  ..  ..  ..  ..  ....",
"................................................................",
"................................................................",
"..  ..  ..  ..  ..  ..  ..  ..  ..  ..  ..  ..  ..  ..  ..  ....",
"..  ..  ..  ..  ..  ..  ..  ..  ..  ..  ..  ..  ..  ..  ..  ....",
"................................................................",
"................................................................",
"..  ..  ..  ..  ..  ..  ..  ..  ..  ..  ..  ..  ..  ..  ..  ....",
"..  ..  ..  ..  ..  ..  ..  ..  ..  ..  ..  ..  ..  ..  ..  ....",
"................................................................",
"................................................................",
"..  ..  ..  ..  ..  ..  ..  ..  ..  ..  ..  ..  ..  ..  ..  ....",
"..  ..  ..  ..  ..  ..  ..  ..  ..  ..  ..  ..  ..  ..  ..  ....",
"................................................................",
"................................................................",
"..  ..  ..  ..  ..  ..  ..  ..  ..  ..  ..  ..  ..  ..  ..  ....",
"..  ..  ..  ..  ..  ..  ..  ..  ..  ..  ..  ..  ..  ..  ..  ....",
"................................................................",
"................................................................",
"..  ..  ..  ..  ..  ..  ..  ..  ..  ..  ..  ..  ..  ..  ..  ....",
"..  ..  ..  ..  ..  ..  ..  ..  ..  ..  ..  ..  ..  ..  ..  ....",
"................................................................",
"................................................................",
"..  ..  ..  ..  ..  ..  ..  ..  ..  ..  ..  ..  ..  ..  ..  ....",
"..  ..  ..  ..  ..  ..  ..  ..  ..  ..  ..  ..  ..  ..  ..  ....",
"................................................................",
"................................................................",
"..  ..  ..  ..  ..  ..  ..  ..  ..  ..  ..  ..  ..  ..  ..  ....",
"..  ..  ..  ..  ..  ..  ..  ..  ..  ..  ..  ..  ..  ..  ..  ....",
"................................................................",
"................................................................",
"..  ..  ..  ..  ..  ..  ..  ..  ..  ..  ..  ..  ..  ..  ..  ....",
"..  ..  ..  ..  ..  ..  ..  ..  ..  ..  ..  ..  ..  ..  ..  ....",
"................................................................",
"................................................................",
"..  ..  ..  ..  ..  ..  ..  ..  ..  ..  ..  ..  ..  ..  ..  ....",
"..  ..  ..  ..  ..  ..  ..  ..  ..  ..  ..  ..  ..  ..  ..  ....",
"................................................................",
"................................................................",
"..  ..  ..  ..  ..  ..  ..  ..  ..  ..  ..  ..  ..  ..  ..  ....",
"..  ..  ..  ..  ..  ..  ..  ..  ..  ..  ..  ..  ..  ..  ..  ....",
"................................................................",
"................................................................",
"..  ..  ..  ..  ..  ..  ..  ..  ..  ..  ..  ..  ..  ..  ..  ....",
"..  ..  ..  ..  ..  ..  ..  ..  ..  ..  ..  ..  ..  ..  ..  ....",
"................................................................",
"................................................................",
"..  ..  ..  ..  ..  ..  ..  ..  ..  ..  ..  ..  ..  ..  ..  ....",
"..  ..  ..  ..  ..  ..  ..  ..  ..  ..  ..  ..  ..  ..  ..  ....",
"................................................................",
"................................................................",
"......  ..  ..  ..  ..  ..  ..  ..  ..  ..  ..  ..  ..  ........",
"......  ..  ..  ..  ..  ..  ..  ..  ..  ..  ..  ..  ..  ........",
"................................................................",
"................................................................",
"................................................................",
"................................................................"
};
