/* XPM */
static char *_52601b854d44c19dbb0871fbe75385bGgLw8wQ4xYh3tkzZ[] = {
/* columns rows colors chars-per-pixel */
"64 64 161 2 ",
"   c #14121A",
".  c #15121A",
"X  c #15131B",
"o  c #16121B",
"O  c #16111C",
"+  c #17111D",
"@  c #17121D",
"#  c #16111E",
"$  c #16121E",
"%  c #180F21",
"&  c #1B0E26",
"*  c #1A0F26",
"=  c #1D072E",
"-  c #1A0E29",
";  c #1B0F2B",
":  c #1D0F2C",
">  c #171020",
",  c #161120",
"<  c #161320",
"1  c #151027",
"2  c #181221",
"3  c #1B1423",
"4  c #1B1024",
"5  c #1B1125",
"6  c #1B1324",
"7  c #1B1026",
"8  c #1C1129",
"9  c #1D102C",
"0  c #1F0F35",
"q  c #200D2F",
"w  c #200E2E",
"e  c #21142E",
"r  c #210432",
"t  c #230E34",
"y  c #250C3A",
"u  c #280E38",
"i  c #280E39",
"p  c #2C0D3F",
"a  c #231131",
"s  c #241433",
"d  c #271235",
"f  c #271337",
"g  c #261534",
"h  c #261138",
"j  c #221439",
"k  c #24113D",
"l  c #340F49",
"z  c #3B0C4E",
"x  c #2E1142",
"c  c #2C1846",
"v  c #2C1A48",
"b  c #2C194D",
"n  c #331447",
"m  c #331248",
"M  c #36154A",
"N  c #37104D",
"B  c #3B114D",
"V  c #38144E",
"C  c #3A164E",
"Z  c #341A4D",
"A  c #3E0E50",
"S  c #3D1750",
"D  c #3E1056",
"F  c #3E1B52",
"G  c #411959",
"H  c #41195B",
"J  c #412057",
"K  c #411E64",
"L  c #4D1D67",
"P  c #4A1B69",
"I  c #541970",
"U  c #571F73",
"Y  c #591B70",
"T  c #4F226B",
"R  c #5B2B6B",
"E  c #662376",
"W  c #612E73",
"Q  c #642B75",
"!  c #642A77",
"~  c #652F77",
"^  c #6E2B7E",
"/  c #683075",
"(  c #671A81",
")  c #671A83",
"_  c #6A1887",
"`  c #6E158C",
"'  c #6F1E8E",
"]  c #761C8F",
"[  c #70149F",
"{  c #682A87",
"}  c #662388",
"|  c #6A268D",
" . c #6C278F",
".. c #742E80",
"X. c #71238A",
"o. c #723482",
"O. c #783786",
"+. c #7D2099",
"@. c #7A259B",
"#. c #7E279F",
"$. c #7E2C9E",
"%. c #7614A3",
"&. c #7919A8",
"*. c #822496",
"=. c #8B3D91",
"-. c #8729A0",
";. c #8D36AF",
":. c #963FA6",
">. c #973DAA",
",. c #8731B8",
"<. c #9241A1",
"1. c #9C43A8",
"2. c #9E49AC",
"3. c #975CA2",
"4. c #9A5EA6",
"5. c #9E5FA9",
"6. c #8B48B3",
"7. c #9C47B0",
"8. c #A445B8",
"9. c #A351B1",
"0. c #A951B7",
"q. c #A558B5",
"w. c #A659B8",
"e. c #AB5DBA",
"r. c #AD5CB9",
"t. c #B45ABB",
"y. c #B05EB9",
"u. c #A465AE",
"i. c #AB68B6",
"p. c #B263BF",
"a. c #AE52C3",
"s. c #B159C1",
"d. c #B25DC0",
"f. c #B366C7",
"g. c #BC60C3",
"h. c #B56CC0",
"j. c #BD61CF",
"k. c #BD70C6",
"l. c #C061CD",
"z. c #C476CF",
"x. c #C876D8",
"c. c #CE77DD",
"v. c #CF7DDB",
"b. c #CD7EDB",
"n. c #D37CE0",
"m. c #D67CE3",
"M. c #D57EE2",
"N. c #D67FE3",
"B. c #D87FE4",
"V. c #D480E0",
"C. c #D681E3",
"Z. c #D880E4",
"A. c #D982E5",
"S. c #D983E5",
"D. c #DA82E7",
"F. c #DC85E7",
"G. c #DC87E7",
"H. c #DE87EA",
"J. c #DF86EB",
"K. c #E28AED",
"L. c #E58EEF",
/* pixels */
"f.f.x.x.F.F.A.A.C.C.C.n.V.b.b.b.z.z.k.k.h.h.i.i.u.u.5.5.4.4.3.3.3.3.4.4.5.5.u.u.i.i.p.k.k.k.z.z.V.b.b.b.B.V.C.C.C.D.F.F.x.x.f.f.",
"f.f.x.x.F.F.A.A.C.C.n.C.b.b.b.b.z.z.k.k.h.h.i.i.u.u.5.5.4.4.3.3.3.3.4.4.5.5.u.u.i.i.p.p.k.k.z.z.V.b.b.b.C.C.C.C.A.A.F.F.x.x.f.f.",
"c.c.y.y.a.a.8.8.>.>.:.:.<.=.2.2.1.1.=.=.O.O.o.o./ / ~ ~ W W R R R R W W ~ ~ / / o.o.O.O.=.=.5.1.2.2.<.<.>.<.>.>.8.8.a.a.r.p.c.c.",
"c.c.y.y.a.a.8.8.>.>.:.:.<.:.7.2.1.1.=.=.O.O.o.o./ / ~ ~ W W R R R R W W ~ ~ / / o.^ O.O.=.=.1.1.2.1.<.<.<.>.>.>.8.8.a.a.y.r.c.c.",
"L.L.s.s.;.;.&.&.%.%.' ' _ _ ` ` Y Y J J F F S S V V M M n n m m m m n n M M V C C S G F J J Y Y ` ` _ _ ' ' %.%.&.&.;.;.s.s.L.L.",
"L.L.s.s.;.;.&.&.%.%.' ' _ _ ` ` Y I J J F F S F C S M M n n m m m M n n M M C C F F F F J J Y Y ` ` _ _ ' ' %.%.&.&.;.;.s.s.L.L.",
"K.K.j.j.#.#.[ [ ,.,.6.6. . .P P v v 0 0 t t d f d d s g a s g g s s s s d s d d f f t t 0 0 v v P P | | 6.6.,.,.[ [ #.#.j.j.K.K.",
"K.K.j.j.#.#.[ [ ,.,.6.6. . .P P v v 0 a t t d d d f g g g g g g g d s s s g d d y g t t 0 0 v c P P | | 6.6.,.,.[ [ #.#.j.j.K.K.",
"K.K.l.l.-.-.@.@.$.$.{ { K K b b j j 9 : 1 * & & 4 + e @ 3 @ 3 3 3 3 3 3 4 3 4 4 3 4 8 4 9 - j j b b K F { { $.$.@.@.-.-.l.l.L.L.",
"A.K.l.l.-.-.@.#.$.$.{ | K K b b j h 9 : * * * * 4 4 @ e 3 e 3 3 3 3 3 3 @ e 4 4 4 4 4 4 - : j j b b K T { { $.$.@.@.*.*.l.l.J.K.",
"K.K.d.g.*.*.] *._ ) F K c c y x : : 8 4 $ % $ X + + @ @ o o @ @ @ @ , $ O o + + $ $ 2 2 4 * e 8 0 x c c H H _ ( +.+.*.*.l.d.J.J.",
"K.B.l.d.*.*.*.] ) ) H F c b j j 9 8 4 & % # $ $ + + @ @ @ o @ o @ + X $ X o + + $ $ % 2 & & : w k j c c G G ( ( +.+.*.*.p.s.J.J.",
"K.K.s.s.] ] ] X.T T Z Z y h 9 9 & 4 + + + + o o + X X X o o o o + X X . O O o @ X X O O O + 4 4 ; ; j j Z Z T T X.' ] ] t.d.L.K.",
"K.B.d.t.] ] | ] T T Z Z j t 9 9 & e + 3 o + @ o + O . X o o o o X $ O . O . o o O O X O 2 + & & ; 0 h t Z Z T T X.] ] ] d.d.D.K.",
"G.H.r.r.) E U U H H x x t : * * O o X o o o o o . O . . o o o o X O X X . o o o O X O O + X O 2 * * t : p x H H Y T ( ( r.r.K.D.",
"G.J.r.r.) ) U Y H H x x : 0 * * 4 O X + o o o o O . O O o o o o X . . O O O o o O O O X + + 2 % * - : t n m H G U U ( E r.r.K.D.",
"A.A.w.w. .| I I B l y i a 9 % % + + O O O . . . o o o o o o o o o o o o o o o o o o O O + + + + % % : t u u z l I I | | w.w.A.A.",
"C.G.w.q. . .I I z l u i : t % 2 X + + O X O . . o o o o o o o o o o o o o o o o o . O . + + + + % % w : u u l B I I  .| w.w.A.A.",
"C.B.0.0.} } L L l l u u 8 8 2 2 $ O X X O X . . o o o o o o o o o o o o o o o o o o . . X X o @ 2 2 : 5 u u l l L L } } 0.0.C.B.",
"B.C.0.0.} } L L l l u u 8 8 2 2 + X + + X O O X o o o o o o o o o o o o o o o o @ o . . . X o o 2 2 8 8 y y l l L L } } 0.0.B.A.",
"Z.n.t.t.E E A D p p t e 4 & , $ o o o o O O O . o o o o o o o o o o o o o o o o o o o o @ X O o $ 2 4 4 a a x p G G E E t.t.B.B.",
"B.n.t.t.E E D D x x w t 4 & % % o o o o X O O O o o o o o o o o o o o o o o o o o o o o o o o o % 2 4 & a a x x G G E ^ t.t.B.B.",
"A.A.p.p.....A z t a e e 2 & # # o o o o o o O . o o o o o o o o o o o o o o o o o o o o O o o o + $ % + e e a a z z ^ ^ p.f.D.D.",
"D.A.f.f.....z z t a e e & 2 $ $ o o o o o o o O o o o o o o o o o o o o o o o o o o o o X @ o @ + 2 & & e e t t z z ^ ^ p.f.D.D.",
"B.A.r.e.Q Q N V y y 5 8 $ 2 $ $ @ o @ o o o o o o o o o o o o o o o o o o o o o o o o o o o o o $ $ $ , 4 : y y l l Q Q r.e.B.B.",
"B.n.e.e.Q Q V V y y 8 8 % $ $ $ o o o o o o o o o o o o o o o o o o o o o o o o o o o o o o o @ $ $ , , 8 : y y z z Q Q r.e.n.B.",
"n.n.q.q.Q Q z B = 0 1 1 , , X $ @ o @ X o o o o o o o o o o o o o o o o o o o o o o O O o o o o $ % , , ; 1 = = B z Q Q q.q.B.n.",
"C.B.q.q.Q Q z B = = 1 1 + $ + $ X o o O o o o o o o o o o o o o o o o o o o o o o O . O o o o o $   , $ 1 1 = = B M Q Q q.q.B.n.",
"n.n.9.9.{ ^ B B = = - - , ,     O o o o o o o o o o o o o o o o o o o o o o o o O X O . + X + X     $ $ & & = = V A o.o.9.9.n.n.",
"n.n.9.9.o.o.z z = = - & , , X X o o o o o @ o o o o o o o o o o o o o o o o o o X O O O X + X $     , $ & & = = z N ..^ 9.9.n.n.",
"B.m.2.2.^ ^ H z r r * & $ 2 X X X . O . o o o o o o o o o o o o o o o o o o o o X . . . + X     X X 2 $ : * r r z F ^ ^ 2.2.B.n.",
"m.m.2.2.^ ^ z H r r & & , $ X X X X O O o o o o o o o o o o o o o o o o o o o o O . . . O X X X X X $ 2 2 1 r r D A ^ { 2.2.m.B.",
"m.m.2.2.^ { A D r r * * + + $   . . o o o o o o o o o o o o o o o o o o o o o o o o o o o o . . . . O 3 * & r r z A ^ ^ 2.2.A.B.",
"m.m.2.2.^ E F z r r * * 2 $ X   . X o o o o o o o o o o o o o o o o o o o o o o o o o o o o X X . . O O * * r r A A ^ ^ 2.2.m.m.",
"m.n.9.9.^ ..V z = = : 1 $ 2     O o o o o o o o o o o o o o o o o o o o o o o o X O o O o o o X X X 3 o - - = = z B o.o.9.9.n.n.",
"n.n.9.9.o...V A = = 9 4 $ 2     o o o o o o o o o o o o o o o o o o o o o o o o @ o o X o o o @ X X @ 3 - - = = z B { ^ 9.9.n.n.",
"n.n.q.q.! ! S S = = 1 1 , , $ $ o o @ X o o o o o o o o o o o o o o o o o o o o o o o @ o o o O $ $ , , 1 1 t = l S Q Q q.q.n.n.",
"B.B.q.q.! ! l A = = 1 1 $ % %   o o o O o o o o o o o o o o o o o o o o o o o o o . o o o o o O O $ , + 1 1 = = A A Q Q q.q.B.A.",
"B.C.e.e.Q Q S l y y : 8 $ % $ $ o o o o o o o o o o o o o o o o o o o o o o o o O o X o o o . O $ $ $ $ 8 8 y y N S Q Q e.e.n.C.",
"B.n.e.e.Q Q V S y y 8 8 + # $ $ o O X @ o o o o o o o o o o o o o o o o o o o o X o O O X o X X $ $ $ $ 8 8 y y V N Q Q e.e.B.B.",
"C.D.p.p.^ O.G z t t a e % 2 $ $ @ X O o o X O o o o o o o o o o o o o o o o o o o o o o o o + X $ $ 2 4 a 9 t a D z o.^ d.p.Z.D.",
"D.D.f.f.^ ^ z z t t : e 4 4 $ + o O X @ o @ o o o o o o o o o o o o o o o o o o o o o o o o + o $ X : , e : t t z z ^ ^ d.k.D.D.",
"B.B.t.t.E E G G x p a t 8 & + 2 o X O o o o o o o o o o o o o o o o o o o o o o o o o o o o + + % 2 5 5 a a p p D D E E t.t.M.B.",
"B.B.t.t.E Y G z x i a g 2 * 2 2 o @ o o o o o o o o o o o o o o o o o o o o o o o o o o o o + + % + 5 5 a a x x D D E E t.t.B.B.",
"B.A.0.0._ ) P L l l i u 4 4 4 4 o o O X o o o o o o o o o o o o o o o o o o o o o o o o o o + + 2 2 8 8 u u l l T P } } 0.0.Z.Z.",
"C.C.0.0.E ` L L l m i u e e + + o o o @ o o o o o o o o @ o o o o o o o o o o o o o o o o o o o 2 2 & e u i l l L P } } 0.0.Z.Z.",
"D.A.w.w.| | I I z l u u w w % % o o o o o o o o o o X @ X O X O o o o o o o o o o o o o @ o o o % % w w i i B l I I | | q.q.D.Z.",
"S.S.w.w.| | I I l S u u w w % 2 + O o o o o o o o o O o o o o o o o o o o o o o o o o o X O o o % 2 w w u t l B I I  . .w.q.F.F.",
"H.G.p.q.( _ U U H H x x t w * * + 2 $ + X O O X O O . O o o X . O O O O . X O X O + + O X $ % 2 & * w t x x H H U U E ) r.r.D.H.",
"S.H.r.y.( ( U U H H x x 8 0 * * 2 2 X $ X + X O O . O . X o O o . O . O . X X + X O X X $ $ $ , 4 * w : x x H H U U ) _ r.r.F.F.",
"H.H.t.t.] ] X.| T T Z Z t y : : 8 * % 2 O O + X . O . O o o o o O O O X . . X $ O X $ O + % - 5 9 : t u Z Z T T X.X.] ] d.d.J.H.",
"H.H.d.d.] ] X.] T T Z Z h d : : 4 & $ $ + X O O o . O . o o o @ o o X O . . + $ O O X + 2 2 5 1 9 : h h Z Z T L X.X.] ] d.d.H.H.",
"H.K.g.g.*.*.] -.( ( G H c c k k : : * 5 $ 2 @ @ @ . @ @ @ @ @ @ o @ @ @ + @ @ X O O O + * 5 : : k k c c H H _ ) [ -.*.*.g.g.H.H.",
"H.H.g.d.*.*.*.] _ ( G H c c k k : 9 5 * % , $ + @ @ @ o @ @ @ o o @ @ @ + + $ $ . O + & 5 5 : : k k c c G H E _ *.] *.*.g.g.H.K.",
"H.K.j.l.-.-.+.@.$.$.{ { K K b b j j 9 - * * 4 4 @ @ w @ e 3 3 3 3 3 e @ 4 3 2 4 4 4 & * - 9 j j b b K K { { $.$.#.+.-.-.l.l.H.H.",
"K.F.l.l.-.-.#.#.$.$.{ { K K b b j j - : * * & & w @ @ w @ 3 3 3 3 3 3 3 3 4 8 2 4 & * * 8 8 j j b b K K { { $.$.@.@.-.-.l.j.D.K.",
"K.L.l.j.#.#.[ [ ,.,.6.6.|  .P P v v a 0 a j f f d d d s s s g s g g s e g a f f g d a t j 0 v v P P  .| 6.6.,.,.%.[ #.#.j.j.K.K.",
"K.L.l.d.#.#.[ [ ,.,.6.6.|  .P P v g a 0 t t f f d d s s s s g s g g e d g g d f g s t t 0 0 v v P P  .| 6.6.,.,.[ [ #.@.j.j.K.K.",
"L.L.s.s.;.;.&.&.%.%.] ' _ _ ` ` Y Y J J F F C C C C M M M n n m n B n n M M C C S S F F G J Y Y ` ` _ _ ] ' %.%.&.&.;.;.s.s.L.L.",
"L.L.s.t.;.;.&.&.%.%.' ' _ _ ` ` Y Y J J F F C G C C M n n n z m n n n n M M C C F Z F J J J Y Y ` ` _ _ ' ' %.%.&.&.;.;.s.s.L.L.",
"c.c.s.e.a.a.8.8.>.>.>.<.<.<.7.7.1.1.=.=.O.O.o.o./ / ~ ~ W W R R R R W W / ~ / / O.O.O.O.=.=.1.1.7.7.<.<.>.1.>.>.8.8.a.a.p.y.c.c.",
"c.c.e.t.a.a.8.8.>.>.1.<.<.<.7.7.1.3.=.=.O.O.o.o./ / ~ ~ W W R R R R W W / ~ / / / O.O.O.=.=.1.2.7.7.<.<.<.<.>.>.8.8.a.a.r.y.c.c.",
"f.f.x.x.H.F.A.A.n.C.V.V.b.b.V.b.C.k.n.p.h.k.i.i.u.u.4.5.4.4.3.3.3.3.4.4.5.5.u.u.i.i.p.p.k.k.z.z.b.n.n.b.V.V.C.C.A.B.F.F.x.x.f.f.",
"f.f.x.x.S.H.A.A.C.C.n.C.b.b.b.b.p.n.i.z.p.p.i.i.u.u.5.5.4.4.3.3.3.3.4.4.5.5.u.u.i.i.k.p.k.k.z.k.b.v.v.b.V.V.C.C.S.A.F.F.x.x.f.f."
};
