/* XPM */
static char *_75c9797512042bd80c12b647c096bbb8XlGkXd0NG2j3K9g[] = {
/* columns rows colors chars-per-pixel */
"312 33 2 1 ",
"  c None",
". c #560000",
/* pixels */
"         ........................            ..............             .........               .........    .................................                                 .......................         .........               .........   .................................   ............................     ",
"         ........................            ..............             .........               .........    .................................                                 .......................         .........               .........   .................................   ............................     ",
"         ........................            ..............             .........               .........    .................................                                 .......................         .........               .........   .................................   ............................     ",
"         ........................            ..............             .........               .........    .................................                                 .......................         .........               .........   .................................   ............................     ",
"         ........................            ...............            ..............     ..............    .................................                                 ........................        .........               .........   .................................   .................................",
"     .........                           .........     .........        ..............     ..............    ..........                                                   .........               .........    .........               .........   ..........                          .........               .........",
"     .........                           .........     .........        ..............     ..............    ..........                                                   .........               .........    .........               .........   ..........                          .........               .........",
"     .........                           .........     .........        ..............     ..............    ..........                                                   .........               .........    .........               .........   ..........                          .........               .........",
"     .........                           .........     .........        ..............     ..............    ..........                                                   .........               .........    .........               .........   ..........                          .........               .........",
".........                           .........               .........   .................................    ..........                                                   .........               .........    .........               .........   ..........                          .........               .........",
".........                           .........               .........   .................................    ..........                                                   .........               .........    .........               .........   ..........                          .........               .........",
".........                           .........               .........   .................................    ..........                                                   .........               .........    .........               .........   ..........                          .........               .........",
".........                           .........               .........   .................................    ..........                                                   .........               .........    .........               .........   ..........                          .........               .........",
".........                           .........               .........   .................................    ........................                                     .........               .........    ..............          .........   ........................            .........               .........",
".........          ..............   .........               .........   .................................    ........................                                     .........               .........    ..............     ..............   ........................            .........          ..............",
".........          ..............   .........               .........   .................................    ........................                                     .........               .........    ..............     ..............   ........................            .........          ..............",
".........          ..............   .........               .........   .................................    ........................                                     .........               .........    ..............     ..............   ........................            .........          ..............",
".........          ..............   .........               .........   .................................    ........................                                     .........               .........    ..............     ..............   ........................            .........          ..............",
".........          ..............   .................................   ..........    .....     .........    ..........                                                   .........               .........    ..............     ..............   ..........                          .......................          ",
".........               .........   .................................   ..........    .....     .........    ..........                                                   .........               .........         .......................        ..........                          .......................          ",
".........               .........   .................................   ..........    .....     .........    ..........                                                   .........               .........         .......................        ..........                          .......................          ",
".........               .........   .................................   ..........    .....     .........    ..........                                                   .........               .........         .......................        ..........                          .......................          ",
".........               .........   .................................   ..........    .....     .........    ..........                                                   .........               .........         .......................        ..........                          .......................          ",
".........               .........   .........               .........   ..........              .........    ..........                                                   .........               .........             ...............            ..........                          .........     .........          ",
"     .........          .........   .........               .........   ..........              .........    ..........                                                   .........               .........             ...............            ..........                          .........     ..............     ",
"     .........          .........   .........               .........   ..........              .........    ..........                                                   .........               .........             ...............            ..........                          .........     ..............     ",
"     .........          .........   .........               .........   ..........              .........    ..........                                                   .........               .........             ...............            ..........                          .........     ..............     ",
"     .........          .........   .........               .........   ..........              .........    ..........                                                   .........               .........             ...............            ..........                          .........          .........     ",
"          .......................   .........               .........   ..........              .........    .................................                                 .......................                       .....                 .................................   .........          ..............",
"          .......................   .........               .........   ..........              .........    .................................                                 .......................                       .....                 .................................   .........          ..............",
"          .......................   .........               .........   ..........              .........    .................................                                 .......................                       .....                 .................................   .........          ..............",
"          .......................   .........               .........   ..........              .........    .................................                                 .......................                       .....                 .................................   .........          ..............",
"          .......................   .........               .........   ..........              .........    .................................                                 .......................                       .....                 .................................   .........          .............."
};
