/* XPM */
static char *d8384f644a354b2dabfc00c9961e62f1SYVHyPJRJjixpdGA[] = {
/* columns rows colors chars-per-pixel */
"64 64 8 1 ",
"  c None",
". c black",
"X c #040002",
"o c #070002",
"O c #010400",
"+ c #0C0906",
"@ c #140E0A",
"# c gray8",
/* pixels */
"                                                                ",
"                                                                ",
"                                                                ",
"                                                                ",
"                  ............................                  ",
"                  ............................                  ",
"                ................................                ",
"                ................................                ",
"              ....................................              ",
"              ....................................              ",
"            ........................................            ",
"            ........................................            ",
"          ............................................          ",
"          ............................................          ",
"          ............................................          ",
"          ............................................          ",
"          ............................................          ",
"          ............................................          ",
"          ............................................          ",
"          ............................................          ",
"          ............................................          ",
"          ............................................          ",
"          ............................................          ",
"          ............................................          ",
"          ..........@@@@@@@@@@@@@@@@@@@@@@@@..........          ",
"          ..........@@@@@@@@@@@@@@@@@@@@@@@@..........          ",
"          ..........@@@@@@@@@@@@@@@@@@@@@@@@..........          ",
"          ..........@@@@@@@@@@@@@@@@@@@@@@@@..........          ",
"          ..........@@@@@@@@@@@@@@@@@@@@@@@@..........          ",
"          ..........@@@@@@@@@@@@@@@@@@@@@@@@..........          ",
"          ..........++++++++@@@@@@@@++++++++..........          ",
"          ..........++++++++@@@@@@@@++++++++..........          ",
"          ..........##OOOO##@@@@@@@@##OOOO##..........          ",
"          ..........##OOOO##@@@@@@@@##OOOO##..........          ",
"          ..........########@@@@@@@@########..........          ",
"          ..........########@@@@@@@@########..........          ",
"          ..........@@@@@@@@@@@@@@@@@@@@@@@@..........          ",
"          ..........@@@@@@@@@@@@@@@@@@@@@@@@..........          ",
"          ......@@@@@@@@@@@@@@@@@@@@@@@@@@@@@@@@......          ",
"          ......@@@@@@@@@@@@@@@@@@@@@@@@@@@@@@@@......          ",
"          ......@@@@@@@@@@@@oooooooo@@@@@@@@@@@@......          ",
"          ......@@@@@@@@@@@@oooooooo@@@@@@@@@@@@......          ",
"            ....@@@@@@@@@@XXXXXXXXo.XX@@@@@@@@@@....            ",
"            ....@@@@@@@@@@XXXXXXXX.oXX@@@@@@@@@@....            ",
"                @@@@@@@@@@@@XXXXXXXX@@@@@@@@@@@@                ",
"                @@@@@@@@@@@@XXXXXXXX@@@@@@@@@@@@                ",
"            @@@@..@@@@@@@@@@@@@@@@@@@@@@@@@@@@..@@..            ",
"            @@@@..@@@@@@@@@@@@@@@@@@@@@@@@@@@@..@@..            ",
"          @@@@@@....@@@@@@@@@@@@@@@@@@@@@@@@....@@..@@          ",
"          @@@@@@....@@@@@@@@@@@@@@@@@@@@@@@@....@@..@@          ",
"            @@@@......@@@@@@@@@@@@@@@@@@@@......@@..            ",
"            @@@@......@@@@@@@@@@@@@@@@@@@@......@@..            ",
"                ................................  ....          ",
"                ................................  ....          ",
"                ................................  ....          ",
"                ................................  ....          ",
"                ................................                ",
"                ................................                ",
"                  @@@@@@@@            @@@@@@@@                  ",
"                  @@@@@@@@            @@@@@@@@                  ",
"                  ........            ........                  ",
"                  ........            ........                  ",
"                    ....                ....                    ",
"                    ....                ....                    "
};
