/* XPM */
static char *result[] = {
/* columns rows colors chars-per-pixel */
"64 64 8 1 ",
"  c black",
". c #370114",
"X c #103700",
"o c #54001D",
"O c #937948",
"+ c #F9AD81",
"@ c white",
"# c None",
/* pixels */
"################################################################",
"################################################################",
"################################################################",
"################################################################",
"##################                            ##################",
"##################                            ##################",
"################                                ################",
"################                                ################",
"##############                                    ##############",
"##############                                    ##############",
"############                                        ############",
"############                                        ############",
"##########                                            ##########",
"##########                                            ##########",
"##########                                            ##########",
"##########                                            ##########",
"##########                                            ##########",
"##########                                            ##########",
"##########                                            ##########",
"##########                                            ##########",
"##########                                            ##########",
"##########                                            ##########",
"##########                                            ##########",
"##########                                            ##########",
"##########          ++++++++++++++++++++++++          ##########",
"##########          ++++++++++++++++++++++++          ##########",
"##########          ++++++++++++++++++++++++          ##########",
"##########          ++++++++++++++++++++++++          ##########",
"##########          ++++++++++++++++++++++++          ##########",
"##########          ++++++++++++++++++++++++          ##########",
"##########          OOOOOOOO++++++++OOOOOOOO          ##########",
"##########          OOOOOOOO++++++++OOOOOOOO          ##########",
"##########          @@XXXX@@++++++++@@XXXX@@          ##########",
"##########          @@XXXX@@++++++++@@XXXX@@          ##########",
"##########          @@@@@@@@++++++++@@@@@@@@          ##########",
"##########          @@@@@@@@++++++++@@@@@@@@          ##########",
"##########          ++++++++++++++++++++++++          ##########",
"##########          ++++++++++++++++++++++++          ##########",
"##########      ++++++++++++++++++++++++++++++++      ##########",
"##########      ++++++++++++++++++++++++++++++++      ##########",
"##########      ++++++++++++oooooooo++++++++++++      ##########",
"##########      ++++++++++++oooooooo++++++++++++      ##########",
"############    ++++++++++............++++++++++    ############",
"############    ++++++++++............++++++++++    ############",
"################++++++++++++........++++++++++++################",
"################++++++++++++........++++++++++++################",
"############++++  ++++++++++++++++++++++++++++  ++  ############",
"############++++  ++++++++++++++++++++++++++++  ++  ############",
"##########++++++    ++++++++++++++++++++++++    ++  ++##########",
"##########++++++    ++++++++++++++++++++++++    ++  ++##########",
"############++++      ++++++++++++++++++++      ++  ############",
"############++++      ++++++++++++++++++++      ++  ############",
"################                                ##    ##########",
"################                                ##    ##########",
"################                                ##    ##########",
"################                                ##    ##########",
"################                                ################",
"################                                ################",
"##################++++++++############++++++++##################",
"##################++++++++############++++++++##################",
"##################        ############        ##################",
"##################        ############        ##################",
"####################    ################    ####################",
"####################    ################    ####################"
};
