/* XPM */
static char *result[] = {
/* columns rows colors chars-per-pixel */
"64 64 8 1 ",
"  c black",
". c #040002",
"X c #070002",
"o c #010400",
"O c #0C0906",
"+ c #140E0A",
"@ c gray8",
"# c None",
/* pixels */
"################################################################",
"################################################################",
"################################################################",
"################################################################",
"####################                            ################",
"####################                            ################",
"##################                                ##############",
"##################                                ##############",
"################                                    ############",
"################                                    ############",
"##############                                        ##########",
"##############                                        ##########",
"############                                            ########",
"############                                            ########",
"############                                            ########",
"############                                            ########",
"############                                            ########",
"############                                            ########",
"############                                            ########",
"############                                            ########",
"############                                            ########",
"############                                            ########",
"############                                            ########",
"############                                            ########",
"############          ++++++++++++++++++++++++          ########",
"############          ++++++++++++++++++++++++          ########",
"############          ++++++++++++++++++++++++          ########",
"############          ++++++++++++++++++++++++          ########",
"############          ++++++++++++++++++++++++          ########",
"############          ++++++++++++++++++++++++          ########",
"############          OOOOOOOO++++++++OOOOOOOO          ########",
"############          OOOOOOOO++++++++OOOOOOOO          ########",
"############          @@oooo@@++++++++@@oooo@@          ########",
"############          @@oooo@@++++++++@@oooo@@          ########",
"############          @@@@@@@@++++++++@@@@@@@@          ########",
"############          @@@@@@@@++++++++@@@@@@@@          ########",
"############          ++++++++++++++++++++++++          ########",
"############          ++++++++++++++++++++++++          ########",
"############      ++++++++++++++++++++++++++++++++      ########",
"############      ++++++++++++++++++++++++++++++++      ########",
"############      ++++++++++++XXXXXXXX++++++++++++      ########",
"############      ++++++++++++XXXXXXXX++++++++++++      ########",
"##############    ++++++++++..@@@@@@@@..++++++++++    ##########",
"##############    ++++++++++..@@@@@@@@..++++++++++    ##########",
"##################++++++++++++........++++++++++++##############",
"##################++++++++++++........++++++++++++##############",
"##############++  ++++++++++++++++++++++++++++  ################",
"##############++  ++++++++++++++++++++++++++++  ################",
"############++++    ++++++++++++++++++++++++    ++  ############",
"############++++    ++++++++++++++++++++++++    ++  ############",
"##############++      ++++++++++++++++++++      ++  ++##########",
"##############++      ++++++++++++++++++++      ++  ++##########",
"################                                ++  ############",
"################                                ++  ############",
"################                                ##    ##########",
"################                                ##    ##########",
"################                                ##    ##########",
"################                                ##    ##########",
"####################++++++++########++++++++####################",
"####################++++++++########++++++++####################",
"####################        ########        ####################",
"####################        ########        ####################",
"######################    ############    ######################",
"######################    ############    ######################"
};
