/* XPM */
static char *_8175315d8c44dfaea088a0473ec34c8HqLgUjqgIvBALvn4[] = {
/* columns rows colors chars-per-pixel */
"100 100 13 1 ",
"  c #33531C",
". c #3E5F21",
"X c #446F25",
"o c #4D792A",
"O c #558B2F",
"+ c #5E9533",
"@ c #639A36",
"# c #689F38",
"$ c #7EAD56",
"% c #FDD835",
"& c #95BC74",
"* c #B0CD8F",
"= c #F9FBE7",
/* pixels */
"####################################################################################################",
"####################################################################################################",
"###==##########################################O##OO################################################",
"##=%%=############################OO############OO#######################################OO#########",
"##=%%=############################OO############OO#######################################OO#########",
"###==#######################OO### #######################################################  #########",
"###################O##########O###########################O#####OOO####################+O###########",
"###################O##########O###########################O#####OOO####################+O###########",
"#################OO###############OO######################OOO#+OOO ##############&&####o ###########",
"############################OO### #########################OO#+O  #################&########&&######",
"############################OO### #########################OO#+O  #################&########&&######",
"############################## ############################  #+O###################&###$&##&########",
"##############################X############################oo#@+##+#####+++########$##$$$##$########",
"##############################O###################################O#####OOO###########&$############",
"##O############################################################### OO#OOOOO###########&$############",
"##O############################################################### OO#OOOOO###########&$############",
"OO###O#############################################################OO#OO ######################OO###",
"OO### #########################################O###################  #  #######################  ###",
"OO### #########################################O###################  #  #######################  ###",
"  #OO####&&&$###############==###############OO######OO##########################################O##",
"  #  ###&##################=%%=#####################O############################################ ##",
"  #  ###&##################=%%=#####################O############################################ ##",
"############################==#################O#################################OO#################",
"#####&&&####$&&&#########################O###OO####################################O################",
"#####&&&####$&&&#########################O###OO####################################O################",
"###&&######&$##########################OO############OO#########OOO#################################",
"###&&######&$##########################OO############OO#########OOO#################################",
"####################################################O######OOO+###O#################################",
"#############################################OO##############OOO##.OO###O###################==######",
"#############################################OO##############OOO##.OO###O###################==######",
"############################################O#################o OO#  #OOO##################=%%=#####",
"##############################################################o OO###O  ####################==######",
"##############################################################o OO###O  ####################==######",
"###################O###OO######OO##################################OO ##############################",
"####################OO###OO###O########&&###########################################################",
"####################OO###OO###O########&&###########################################################",
"######OO#OO###########O##OO#OO###########&###&&#####################################################",
"######+++++###########+##++#OO###########$##$$$#####################################################",
"########O###################OO##############&#######################################################",
"####################################################################################################",
"####################################################################################################",
"#########################################&######################==##########################OO######",
"##########################################&&##################*=%%=###########################O#####",
"##########################################&&##################*=%%=###########################O#####",
"###OOO####################################&&####################==##############&###################",
"######OOO##################################################==####################&&###&$############",
"######OOO##################################################==####################&&###&$############",
"OOOOO###O#######################################OO########=%%=*#####################&&##############",
"###OOO##.OO###OO#&&&###########OO#OO############  #########==############################&&#########",
"###OOO##.OO###OO#&&&###########OO#OO############  #########==############################&&#########",
"##### OO#  #+OOO&################O################OO#############################&&####$&###########",
"##### OO#  #+OOO&################O################OO#############################&&####$&###########",
"##### OO###OX ####################################  ###############################&################",
"#########OO o####OOO###############################################################&################",
"#########OO o####OOO###############################################################&################",
"########&##&$######OOO##############################################################################",
"##OOO####&&###OO### OO###OO#######################################OOOO#####################O########",
"##OOO####&&###OO### OO###OO#######################################OOOO#####################O########",
"###OOO##########O## OO#OOOO########################################OOOOO####################OO######",
"###  O###OO##### OO#  #OO  ##########+O###OO######################### OO###OOOOO##################OO",
"###  O###OO##### OO#  #OO  ##########+O###OO######################### OO###OOOOO##################OO",
"OO#  O##OOO##### OO###O  ##############OO###O#################+OOOO###  #OOOO ######################",
"XX+ooX##OXX#####o++###Xoo##############++###+#################@+XXO++#oo#OOXXo######################",
"  O## ##O  ########### #########################################  OOO####OO  #######################",
"  O###OO ###$&##&###################O+############################   O######################OO######",
"  O###OO ###$&##&###################O+############################   O######################OO######",
"######  ######&&#####################+O#######################################################O#####",
"####################################################################################################",
"####################################################################################################",
"##########################################OO####OOOO###############################O##O+############",
"#######################OO##O##############OOO##OOO  ################################OO##############",
"#######################OO##O##############OOO##OOO  ################################OO##############",
"#########################OO#################O##O  ##################################################",
"#####O###################################### ##O#########################OO#########################",
"#####O###################################### ##O#########################OO#########################",
"##### ############################################OO####OOO#############O###########################",
"##### ############################################OO####OOO#############O###########################",
"######OO#########==###############################  O##OOOO###########OO############################",
"######  ########=%%=################################O##O  #######################OO####+OOO#########",
"######  ########=%%=################################O##O  #######################OO####+OOO#########",
"#################==################################# ## #########################OOO##OOOOO#########",
"######################=########OO########O#####OOO######################O####=#####O##OOO###########",
"######################=########OO########O#####OOO######################O####=#####O##OOO###########",
"########&#####&&&###==%==########O####### OO#OOO  ####################OO###==%==###O##O+############",
"#########&&#$&########=###################  #OO #####################O#######=######################",
"#########&&#$&########=###################  #OO #####################O#######=######################",
"###########&&&##&&&############OO#########  #OO#####################################################",
"###########$$$$$$$$############+++########oo#++#++++################################################",
"##############&&#################O##############OOOO################################################",
"##OOO#######################################OOO###OO#####################################OOO########",
"##OOO#######################################OOO###OO#####################################OOO########",
"OOO##############################O###########OOO##..O###OO#################################OOO####OO",
"OOO######################OO#######OO########### OO## ##OOO#############################+O###OO ###OO",
"OOO######################OO#######OO########### OO## ##OOO#############################+O###OO ###OO",
"  ##############O########  #################### OO###OO #################OO###########O+#  #  ###   ",
"###OOO###########OO########O########################O  #################O################## ###  ###",
"###OOO###########OO########O########################O  #################O################## ###  ###",
"  O######################## ##########################################OO######################O###  ",
"####################################################################################################",
"####################################################################################################"
};
