/* XPM */
static char *_a4ed3937d6941e5f3ace5b20e16703dC6jB2DcBLnWIQXva[] = {
/* columns rows colors chars-per-pixel */
"64 64 7 1 ",
"  c None",
". c black",
"X c #0F0101",
"o c #080504",
"O c #140E0A",
"+ c #0F1414",
"@ c gray8",
/* pixels */
"                                                                ",
"                                                                ",
"            XX    XX    XX  XX    XX  XX    XX    XX            ",
"            XX    XX    XX  XX    XX  XX    XX    XX            ",
"        XX    XX    XX    XX  XXXX  XX    XX    XX    XX        ",
"        XX    XX    XX    XX  XXXX  XX    XX    XX    XX        ",
"          XX    XX    XX    XX    XX    XX    XX    XX          ",
"          XX    XX    XX    XX    XX    XX    XX    XX          ",
"      XX    XX    XXXXXXXXXXXXXXXXXXXXXXXXXXXX    XX    XX      ",
"      XX    XX    XXXXXXXXXXXXXXXXXXXXXXXXXXXX    XX    XX      ",
"        XX    XX  XXXXXXXXXXXXXXXXXXXXXXXXXXXX  XX    XX        ",
"        XX    XX  XXXXXXXXXXXXXXXXXXXXXXXXXXXX  XX    XX        ",
"          XX    XXXXXXXXXXXXXXXXXXXXXXXXXXXXXXXX    XX          ",
"          XX    XXXXXXXXXXXXXXXXXXXXXXXXXXXXXXXX    XX          ",
"      XX    XX  XXXXXXXXXXXXXXXXXXXXXXXXXXXXXXXX  XX    XX      ",
"      XX    XX  XXXXXXXXXXXXXXXXXXXXXXXXXXXXXXXX  XX    XX      ",
"        XX    XXXXXXXXXXXXXXXXXXXXXXXXXXXXXXXXXXXX    XX        ",
"        XX    XXXXXXXXXXXXXXXXXXXXXXXXXXXXXXXXXXXX    XX        ",
"          XX  XXXXXXXXXXXXXXXXXXXXXXXXXXXXXXXXXXXX  XX          ",
"          XX  XXXXXXXXXXXXXXXXXXXXXXXXXXXXXXXXXXXX  XX          ",
"      XX    XXXXOOOOOOOOOOOOOOOOOOOOOOOOOOOOOOOOXXXX    XX      ",
"      XX    XXXXOOOOOOOOOOOOOOOOOOOOOOOOOOOOOOOOXXXX    XX      ",
"        XX    XXOOOOOOOOOOOOOOOOOOOOOOOOOOOOOOOOXX    XX        ",
"        XX    XXOOOOOOOOOOOOOOOOOOOOOOOOOOOOOOOOXX    XX        ",
"          XXXXXXOOOOOOOOOOOOOOOOOOOOOOOOOOOOOOOOXXXXXX          ",
"          XXXXXXOOOOOOOOOOOOOOOOOOOOOOOOOOOOOOOOXXXXXX          ",
"        XX    XXOOOOOOOOOOOOOOOOOOOOOOOOOOOOOOOOXX    XX        ",
"        XX    XXOOOOOOOOOOOOOOOOOOOOOOOOOOOOOOOOXX    XX        ",
"      XX    XX++OOOOOOOOOOOOOOOOOOOOOOOOOOOOOOOO++XX    XX      ",
"      XX    XX++OOOOOOOOOOOOOOOOOOOOOOOOOOOOOOOO++XX    XX      ",
"          XX  OO++++++++++++++++++++++++++++++++OO  XX          ",
"          XX  OO++++++++++++++++++++++++++++++++OO  XX          ",
"        XX    OOOO++@@@@@@@@++OOOO++@@@@@@@@++OOOO    XX        ",
"        XX    OOOO++@@@@@@@@++OOOO++@@@@@@@@++OOOO    XX        ",
"      XX    XXXXOOOO++++++++OOOOOOOO++++++++OOOOXXXX    XX      ",
"      XX    XXXXOOOO++++++++OOOOOOOO++++++++OOOOXXXX    XX      ",
"          XX  XXOOOOOOOOOOOOOOOOOOOOOOOOOOOOOOOOXX  XX          ",
"          XX  XXOOOOOOOOOOOOOOOOOOOOOOOOOOOOOOOOXX  XX          ",
"        XX      OOOOOOOOOOOOOOOOOOOOOOOOOOOOOOOO      XX        ",
"        XX      OOOOOOOOOOOOOOOOOOOOOOOOOOOOOOOO      XX        ",
"      XX        OOOOOOOOOOOOOOOOOOOOOOOOOOOOOOOO        XX      ",
"      XX        OOOOOOOOOOOOOOOOOOOOOOOOOOOOOOOO        XX      ",
"                OOOOOOOOOOOOOO....OOOOOOOOOOOOOO                ",
"                OOOOOOOOOOOOOO....OOOOOOOOOOOOOO                ",
"                OOOOOOOOOOOOOOOOOOOOOOOOOOOOOOOOooOO            ",
"                OOOOOOOOOOOOOOOOOOOOOOOOOOOOOOOOooOO            ",
"                OOooOOooOOooOOooooOOooOOooOOooOOooOOOO          ",
"                OOooOOooOOooOOooooOOooOOooOOooOOooOOOO          ",
"            OOooooooooooooOOooOOOOooOOooooooooooooOO            ",
"            OOooooooooooooOOooOOOOooOOooooooooooooOO            ",
"          OOOOooOOooOOooOOooOOooooOOooOOooOOooOO                ",
"          OOOOooOOooOOooOOooOOooooOOooOOooOOooOO                ",
"            OOooooOOooOOooOOooOOOOooOOooOOooOOoo                ",
"            OOooooOOooOOooOOooOOOOooOOooOOooOOoo                ",
"                ................................                ",
"                ................................                ",
"                ..............    ..............                ",
"                ..............    ..............                ",
"                  ............    ............                  ",
"                  ............    ............                  ",
"                    XXXXXXXX        XXXXXXXX                    ",
"                    XXXXXXXX        XXXXXXXX                    ",
"                      XXXX            XXXX                      ",
"                      XXXX            XXXX                      "
};
