/* XPM */
static char *result[] = {
/* columns rows colors chars-per-pixel */
"64 64 8 1 ",
"  c black",
". c #644534",
"X c #FF0817",
"o c #3EFF1E",
"O c #FFA81E",
"+ c #B7B7B7",
"@ c #F9AD81",
"# c None",
/* pixels */
"############oo####oo####oo##oo####oo##oo####oo####oo############",
"############oo####oo####oo##oo####oo##oo####oo####oo############",
"########oo####oo####oo####oo##oooo##oo####oo####oo####oo########",
"########oo####oo####oo####oo##oooo##oo####oo####oo####oo########",
"##########oo####oo####oo####oo####oo####oo####oo####oo##########",
"##########oo####oo####oo####oo####oo####oo####oo####oo##########",
"######oo####oo####oooooooooooooooooooooooooooo####oo####oo######",
"######oo####oo####oooooooooooooooooooooooooooo####oo####oo######",
"########oo####oo##oooooooooooooooooooooooooooo##oo####oo########",
"########oo####oo##oooooooooooooooooooooooooooo##oo####oo########",
"##########oo####oooooooooooooooooooooooooooooooo####oo##########",
"##########oo####oooooooooooooooooooooooooooooooo####oo##########",
"######oo####oo##oooooooooooooooooooooooooooooooo##oo####oo######",
"######oo####oo##oooooooooooooooooooooooooooooooo##oo####oo######",
"########oo####oooooooooooooooooooooooooooooooooooo####oo########",
"########oo####oooooooooooooooooooooooooooooooooooo####oo########",
"##########oo##oooooooooooooooooooooooooooooooooooo##oo##########",
"##########oo##oooooooooooooooooooooooooooooooooooo##oo##########",
"######oo####oooo@@@@@@@@@@@@@@@@@@@@@@@@@@@@@@@@oooo####oo######",
"######oo####oooo@@@@@@@@@@@@@@@@@@@@@@@@@@@@@@@@oooo####oo######",
"########oo####oo@@@@@@@@@@@@@@@@@@@@@@@@@@@@@@@@oo####oo########",
"########oo####oo@@@@@@@@@@@@@@@@@@@@@@@@@@@@@@@@oo####oo########",
"##########oooooo@@@@@@@@@@@@@@@@@@@@@@@@@@@@@@@@oooooo##########",
"##########oooooo@@@@@@@@@@@@@@@@@@@@@@@@@@@@@@@@oooooo##########",
"########oo####oo@@@@@@@@@@@@@@@@@@@@@@@@@@@@@@@@oo####oo########",
"########oo####oo@@@@@@@@@@@@@@@@@@@@@@@@@@@@@@@@oo####oo########",
"######oo####oo++@@@@@@@@@@@@@@@@@@@@@@@@@@@@@@@@++oo####oo######",
"######oo####oo++@@@@@@@@@@@@@@@@@@@@@@@@@@@@@@@@++oo####oo######",
"##########oo##@@++++++++++++++++++++++++++++++++@@##oo##########",
"##########oo##@@++++++++++++++++++++++++++++++++@@##oo##########",
"########oo####@@@@++OOOOOOOO++@@@@++OOOOOOOO++@@@@####oo########",
"########oo####@@@@++OOOOOOOO++@@@@++OOOOOOOO++@@@@####oo########",
"######oo####oooo@@@@++++++++@@@@@@@@++++++++@@@@oooo####oo######",
"######oo####oooo@@@@++++++++@@@@@@@@++++++++@@@@oooo####oo######",
"##########oo##oo@@@@@@@@@@@@@@@@@@@@@@@@@@@@@@@@oo##oo##########",
"##########oo##oo@@@@@@@@@@@@@@@@@@@@@@@@@@@@@@@@oo##oo##########",
"########oo######@@@@@@@@@@@@@@@@@@@@@@@@@@@@@@@@######oo########",
"########oo######@@@@@@@@@@@@@@@@@@@@@@@@@@@@@@@@######oo########",
"######oo########@@@@@@@@@@@@@@@@@@@@@@@@@@@@@@@@########oo######",
"######oo########@@@@@@@@@@@@@@@@@@@@@@@@@@@@@@@@########oo######",
"################@@@@@@@@@@@@@@    @@@@@@@@@@@@@@################",
"################@@@@@@@@@@@@@@    @@@@@@@@@@@@@@################",
"################@@@@@@@@@@@@@@@@@@@@@@@@@@@@@@@@################",
"################@@@@@@@@@@@@@@@@@@@@@@@@@@@@@@@@################",
"################@@@@@@@@@@@@@@@@@@@@@@@@@@@@@@@@################",
"################@@@@@@@@@@@@@@@@@@@@@@@@@@@@@@@@################",
"############@@..@@..@@..@@..@@....@@..@@..@@..@@..@@############",
"############@@..@@..@@..@@..@@....@@..@@..@@..@@..@@############",
"##########@@@@............@@..@@@@..@@............@@@@##########",
"##########@@@@............@@..@@@@..@@............@@@@##########",
"############@@..@@..@@..@@..@@....@@..@@..@@..@@..@@############",
"############@@..@@..@@..@@..@@....@@..@@..@@..@@..@@############",
"################..@@..@@..@@..@@@@..@@..@@..@@..################",
"################..@@..@@..@@..@@@@..@@..@@..@@..################",
"################                                ################",
"################                                ################",
"################              ####              ################",
"################              ####              ################",
"################            ########            ################",
"################            ########            ################",
"##################XXXXXXXX############XXXXXXXX##################",
"##################XXXXXXXX############XXXXXXXX##################",
"####################XXXX################XXXX####################",
"####################XXXX################XXXX####################"
};
