/* XPM */
static char *b261cc1065924162c108e450996eb5f4nVMbET69e8kCZBrz[] = {
/* columns rows colors chars-per-pixel */
"16 14 3 1 ",
"  c None",
". c #F10934",
"X c #FAA4B4",
/* pixels */
"  ....    ....  ",
"  ....    ....  ",
"................",
"................",
"..XX............",
"..XX............",
"....XX..........",
"....XX..........",
"  ............  ",
"  ............  ",
"    ........    ",
"    ........    ",
"      ....      ",
"      ....      "
};
