/* XPM */
static char *_6116c1cf97149dfa082e7a9887bd98cCGtlbnUijN0wImpW[] = {
/* columns rows colors chars-per-pixel */
"64 64 21 1 ",
"  c None",
". c black",
"X c #2F241E",
"o c #2F182E",
"O c #750018",
"+ c #780053",
"@ c red",
"# c #FF2020",
"$ c #98006A",
"% c #FF4F4F",
"& c #FFA774",
"* c #FFAA7C",
"= c #A654D0",
"- c #D074FF",
"; c #71B4ED",
": c #FF8181",
"> c #81F985",
", c #FAC1A0",
"< c #E881F9",
"1 c #F981F5",
"2 c white",
/* pixels */
"                                                                ",
"                                                                ",
"                      ++++$$$$++++$$$$++++                      ",
"                      ++++$$$$++++$$$$++++                      ",
"                  ++$$$$$$$$$$++++$$$$$$$$$$++                  ",
"                  ++$$$$$$$$$$++++$$$$$$$$$$++                  ",
"                ++$$$$$$$$$$$$++++$$$$$$$$$$$$++                ",
"                ++$$$$$$$$$$$$++++$$$$$$$$$$$$++                ",
"              ++$$<<$$$$$$$$$$++++$$$$$$$$$$<<$$++              ",
"              ++$$<<$$$$$$$$$$++++$$$$$$$$$$<<$$++              ",
"            ++$$<<>><<$$$$$$$$++++$$$$$$$$<<>><<$$++            ",
"            ++$$<<>><<$$$$$$$$++++$$$$$$$$<<>><<$$++            ",
"            $$$$$$<<$$$$$$$$$$++++$$$$$$$$$$<<$$$$$$            ",
"            $$$$$$<<$$$$$$$$$$++++$$$$$$$$$$<<$$$$$$            ",
"          ++$$$$$$$$$$++$$$$$$++++$$$$$$++$$$$$$$$$$++          ",
"          ++$$$$$$$$$$++$$$$$$++++$$$$$$++$$$$$$$$$$++          ",
"          $$$$$$$$$$++$$$$++++++++++++$$$$++$$$$$$$$$$          ",
"          $$$$$$$$$$++$$$$++++++++++++$$$$++$$$$$$$$$$          ",
"          ++$$$$$$++$$$$++,,,,,,,,,,,,++$$$$++$$$$$$++          ",
"          ++$$$$$$++$$$$++,,,,,,,,,,,,++$$$$++$$$$$$++          ",
"          ++$$$$++$$$$++,,,,,,,,,,,,,,,,++$$$$++$$$$++          ",
"          ++$$$$++$$$$++,,,,,,,,,,,,,,,,++$$$$++$$$$++          ",
"          ++$$$$++++++,,,,,,,,,,,,,,,,,,,,++++++$$$$++          ",
"          ++$$$$++++++,,,,,,,,,,,,,,,,,,,,++++++$$$$++          ",
"          ++$$$$++++,,,,,,,,,,,,,,,,,,,,,,,,++++$$$$++          ",
"          ++$$$$++++,,,,,,,,,,,,,,,,,,,,,,,,++++$$$$++          ",
"          ++$$$$++,,OOOO,,,,,,,,,,,,,,,,OOOO,,++$$$$++          ",
"          ++$$$$++,,OOOO,,,,,,,,,,,,,,,,OOOO,,++$$$$++          ",
"          ++$$++++OO,,,,,,,,,,,,,,,,,,,,,,,,OO++++$$++          ",
"          ++$$++++OO,,,,,,,,,,,,,,,,,,,,,,,,OO++++$$++          ",
"          ++$$++++22;;..,,,,,,,,,,,,,,,,..;;22++++$$++          ",
"          ++$$++++22;;..,,,,,,,,,,,,,,,,..;;22++++$$++          ",
"          ++$$++++222222,,,,,,,,,,,,,,,,222222++++$$++          ",
"          ++$$++++222222,,,,,,,,,,,,,,,,222222++++$$++          ",
"          ++$$++++::::::,,,,**,,,,**,,,,::::::++++$$++          ",
"          ++$$++++::::::,,,,**,,,,**,,,,::::::++++$$++          ",
"          ++$$++++,,**,,**,,,,,,,,,,,,**,,**,,++++$$++          ",
"          ++$$++++,,**,,**,,,,,,,,,,,,**,,**,,++++$$++          ",
"          ++$$++++,,,,,,,,,,%%%%%%%%,,,,,,,,,,++++$$++          ",
"          ++$$++++,,,,,,,,,,%%%%%%%%,,,,,,,,,,++++$$++          ",
"          ++$$++++,,,,,,,,@@@@@@@@@@@@,,,,,,,,++++$$++          ",
"          ++$$++++,,,,,,,,@@@@@@@@@@@@,,,,,,,,++++$$++          ",
"          ++++++++,,,,,,,,,,########,,,,,,,,,,++++++++          ",
"          ++++++++,,,,,,,,,,########,,,,,,,,,,++++++++          ",
"                  ,,,,,,,,,,,,,,,,,,,,,,,,,,,,                  ",
"                  ,,,,,,,,,,,,,,,,,,,,,,,,,,,,                  ",
"            ,,--,,,,,,,,,,,,,,,,,,,,,,,,,,,,,,,,--,,            ",
"            ,,--,,,,,,,,,,,,,,,,,,,,,,,,,,,,,,,,--,,            ",
"          ,,,,--,,,,,,,,,,,,,,&&&&,,,,,,,,,,,,,,--,,,,          ",
"          ,,,,--,,,,,,,,,,,,,,&&&&,,,,,,,,,,,,,,--,,,,          ",
"            ,,--,,,,,,,,,,,,,,&&&&,,,,,,,,,,,,,,--,,            ",
"            ,,--,,,,,,,,,,,,,,&&&&,,,,,,,,,,,,,,--,,            ",
"                --------------====--------------                ",
"                --------------====--------------                ",
"                --------------------------------                ",
"                --------------------------------                ",
"                XXXXXXXXXXXXXXXXXXXXXXXXXXXXXXXX                ",
"                XXXXXXXXXXXXXXXXXXXXXXXXXXXXXXXX                ",
"                XXXXXXXXXX............XXXXXXXXXX                ",
"                XXXXXXXXXX............XXXXXXXXXX                ",
"                ..oooooooo............oooooooo..                ",
"                ..oooooooo............oooooooo..                ",
"                    1111                1111                    ",
"                    1111                1111                    "
};
