/* XPM */
static char *_49cd826d38c494fc34c648b8137ebd4GRmlqfcbZuniKMRe[] = {
/* columns rows colors chars-per-pixel */
"64 64 9 1 ",
"  c None",
". c black",
"X c red",
"o c #FF2020",
"O c #FF4F4F",
"+ c #FFFD46",
"@ c #F9AD81",
"# c #92F981",
"$ c #F981F5",
/* pixels */
"                                                                ",
"                ++++++++++++++++++++++++++++++++                ",
"                ++++++++++++++++++++++++++++++++                ",
"             ++++++++++++++++++++++++++++++++++++++             ",
"             ++++++++++++++++++++++++++++++++++++++             ",
"           ++++++++++++++++++++++++++++++++++++++++++           ",
"           ++++++++++++++++++++++++++++++++++++++++++           ",
"         +++++++++##++++++++++++++++++++++++##+++++++++         ",
"         +++++++++##++++++++++++++++++++++++##+++++++++         ",
"       +++++++++##$$##++++++++++++++++++++##$$##+++++++++       ",
"       +++++++++##$$##++++++++++++++++++++##$$##+++++++++       ",
"       +++++++++++##++++++++++++++++++++++++##+++++++++++       ",
"       +++++++++++##++++++++++++++++++++++++##+++++++++++       ",
"       ++++++++++++++++++++++++++++++++++++++++++++++++++       ",
"       ++++++++++++++++++++++++++++++++++++++++++++++++++       ",
"       ++++++++++++++++++++++++++++++++++++++++++++++++++       ",
"       ++++++++++++++++++++++++++++++++++++++++++++++++++       ",
"       +++++++++@@@@@@@@@@@@@@@@@@@@@@@@@@@@@@@@+++++++++       ",
"       +++++++++@@@@@@@@@@@@@@@@@@@@@@@@@@@@@@@@+++++++++       ",
"       +++++++++@@@@@@@@@@@@@@@@@@@@@@@@@@@@@@@@+++++++++       ",
"       +++++++++@@@@@@@@@@@@@@@@@@@@@@@@@@@@@@@@+++++++++       ",
"       +++++++++@@@@@@@@@@@@@@@@@@@@@@@@@@@@@@@@+++++++++       ",
"       +++++++++@@@@@@@@@@@@@@@@@@@@@@@@@@@@@@@@+++++++++       ",
"       +++++++++@@@@@@@@@@@@@@@@@@@@@@@@@@@@@@@@+++++++++       ",
"       +++++++++@@@@@@@@@@@@@@@@@@@@@@@@@@@@@@@@+++++++++       ",
"       +++++++++@@@@@@@@@@@@@@@@@@@@@@@@@@@@@@@@+++++++++       ",
"       +++++++++@@@@@@@@@@@@@@@@@@@@@@@@@@@@@@@@+++++++++       ",
"       +++++++++@@@@@@@@@@@@@@@@@@@@@@@@@@@@@@@@+++++++++       ",
"       +++++++++@@@@@@@@@@@@@@@@@@@@@@@@@@@@@@@@+++++++++       ",
"       +++++++++@@......@@@@@@@@@@@@@@@@......@@+++++++++       ",
"       +++++++++@@......@@@@@@@@@@@@@@@@......@@+++++++++       ",
"       +++++++++@@@@@@@@@@@@@@@@@@@@@@@@@@@@@@@@+++++++++       ",
"       +++++++++@@@@@@@@@@@@@@@@@@@@@@@@@@@@@@@@+++++++++       ",
"       +++++++++@@@@@@@@@@@@@@@@@@@@@@@@@@@@@@@@+++++++++       ",
"       +++++++++@@@@@@@@@@@@@@@@@@@@@@@@@@@@@@@@+++++++++       ",
"       +++++++++@@@@@@@@@@@@@@@@@@@@@@@@@@@@@@@@+++++++++       ",
"       +++++++++@@@@@@@@@@@@@@@@@@@@@@@@@@@@@@@@+++++++++       ",
"       +++++++++@@@@@@@@@@@@@@@@@@@@@@@@@@@@@@@@+++++++++       ",
"       +++++++++@@@@@@@@@@@@OOOOOOOO@@@@@@@@@@@@+++++++++       ",
"       +++++++++@@@@@@@@@@@@OOOOOOOO@@@@@@@@@@@@+++++++++       ",
"       +++++++++@@@@@@@@@@XXXXXXXXXXXX@@@@@@@@@@+++++++++       ",
"       +++++++++@@@@@@@@@@XXXXXXXXXXXX@@@@@@@@@@+++++++++       ",
"       ++++++   @@@@@@@@@@@@oooooooo@@@@@@@@@@@@   ++++++       ",
"       ++++++   @@@@@@@@@@@@oooooooo@@@@@@@@@@@@   ++++++       ",
"       ++++     @@@@@@@@@@@@@@@@@@@@@@@@@@@@@@@@     ++++       ",
"       ++++     @@@@@@@@@@@@@@@@@@@@@@@@@@@@@@@@     ++++       ",
"       ++  @@XXX..@@@@@@@@@@@@....@@@@@@@@@@@@..XXX@@  ++       ",
"       ++  @@XXX..@@@@@@@@@@@@....@@@@@@@@@@@@..XXX@@  ++       ",
"         @@@@XXX..@@@@@@@@@@@@....@@@@@@@@@@@@..XXX@@@@         ",
"         @@@@XXX..@@@@@@@@@@@@....@@@@@@@@@@@@..XXX@@@@         ",
"           @@XXX..@@@@@@@@@@@@....@@@@@@@@@@@@..XXX@@           ",
"           @@XXX..@@@@@@@@@@@@....@@@@@@@@@@@@..XXX@@           ",
"                XXXXXXXXXXXXXXXXXXXXXXXXXXXXXXXX                ",
"                XXXXXXXXXXXXXXXXXXXXXXXXXXXXXXXX                ",
"                XXXXXXXXXXXXXXXXXXXXXXXXXXXXXXXX                ",
"                XXXXXXXXXXXXXXXXXXXXXXXXXXXXXXXX                ",
"                XXXXXXXXXXXXXXXXXXXXXXXXXXXXXXXX                ",
"                XXXXXXXXXXXXXXXXXXXXXXXXXXXXXXXX                ",
"                XXXXXXXXXXXXXXXXXXXXXXXXXXXXXXXX                ",
"                XXXXXXXXXXXXXXXXXXXXXXXXXXXXXXXX                ",
"                  ........            ........                  ",
"                  ........            ........                  ",
"                    ....                ....                    ",
"                    ....                ....                    "
};
