/* XPM */
static char *_ec646d644684504c4f6ecfbf58f7ba0F8rbRdGts3OzIEnf[] = {
/* columns rows colors chars-per-pixel */
"64 64 21 1 ",
"  c None",
". c black",
"X c #050403",
"o c #050305",
"O c #0D0003",
"+ c #0D0009",
"@ c #1C0000",
"# c #1C0404",
"$ c #11000C",
"% c #1C0909",
"& c #1C0E0E",
"* c #0E1B0F",
"= c #1C120D",
"- c #1C130E",
"; c #120917",
": c #170D1C",
"> c #190E1B",
", c #1B0E1B",
"< c #0C141A",
"1 c #1B1512",
"2 c gray11",
/* pixels */
"                                                                ",
"                                                                ",
"                      ++++$$$$++++$$$$++++                      ",
"                      ++++$$$$++++$$$$++++                      ",
"                  ++$$$$$$$$$$++++$$$$$$$$$$++                  ",
"                  ++$$$$$$$$$$++++$$$$$$$$$$++                  ",
"                ++$$$$$$$$$$$$++++$$$$$$$$$$$$++                ",
"                ++$$$$$$$$$$$$++++$$$$$$$$$$$$++                ",
"              ++$$>>$$$$$$$$$$++++$$$$$$$$$$>>$$++              ",
"              ++$$>>$$$$$$$$$$++++$$$$$$$$$$>>$$++              ",
"            ++$$>>**>>$$$$$$$$++++$$$$$$$$>>**>>$$++            ",
"            ++$$>>**>>$$$$$$$$++++$$$$$$$$>>**>>$$++            ",
"            $$$$$$>>$$$$$$$$$$++++$$$$$$$$$$>>$$$$$$            ",
"            $$$$$$>>$$$$$$$$$$++++$$$$$$$$$$>>$$$$$$            ",
"          ++$$$$$$$$$$++$$$$$$++++$$$$$$++$$$$$$$$$$++          ",
"          ++$$$$$$$$$$++$$$$$$++++$$$$$$++$$$$$$$$$$++          ",
"          $$$$$$$$$$++$$$$++++++++++++$$$$++$$$$$$$$$$          ",
"          $$$$$$$$$$++$$$$++++++++++++$$$$++$$$$$$$$$$          ",
"          ++$$$$$$++$$$$++111111111111++$$$$++$$$$$$++          ",
"          ++$$$$$$++$$$$++111111111111++$$$$++$$$$$$++          ",
"          ++$$$$++$$$$++1111111111111111++$$$$++$$$$++          ",
"          ++$$$$++$$$$++1111111111111111++$$$$++$$$$++          ",
"          ++$$$$++++++11111111111111111111++++++$$$$++          ",
"          ++$$$$++++++11111111111111111111++++++$$$$++          ",
"          ++$$$$++++111111111111111111111111++++$$$$++          ",
"          ++$$$$++++111111111111111111111111++++$$$$++          ",
"          ++$$$$++11OOOO1111111111111111OOOO11++$$$$++          ",
"          ++$$$$++11OOOO1111111111111111OOOO11++$$$$++          ",
"          ++$$++++OO111111111111111111111111OO++++$$++          ",
"          ++$$++++OO111111111111111111111111OO++++$$++          ",
"          ++$$++++22<<..1111111111111111..<<22++++$$++          ",
"          ++$$++++22<<..1111111111111111..<<22++++$$++          ",
"          ++$$++++2222221111111111111111222222++++$$++          ",
"          ++$$++++2222221111111111111111222222++++$$++          ",
"          ++$$++++&&&&&&1111--1111--1111&&&&&&++++$$++          ",
"          ++$$++++&&&&&&1111--1111--1111&&&&&&++++$$++          ",
"          ++$$++++11--11--111111111111--11--11++++$$++          ",
"          ++$$++++11--11--111111111111--11--11++++$$++          ",
"          ++$$++++1111111111%%%%%%%%1111111111++++$$++          ",
"          ++$$++++1111111111%%%%%%%%1111111111++++$$++          ",
"          ++$$++++11111111@@@@@@@@@@@@11111111++++$$++          ",
"          ++$$++++11111111@@@@@@@@@@@@11111111++++$$++          ",
"          ++++++++1111111111########1111111111++++++++          ",
"          ++++++++1111111111########1111111111++++++++          ",
"                  1111111111111111111111111111                  ",
"                  1111111111111111111111111111                  ",
"            11::11111111111111111111111111111111::11            ",
"            11::11111111111111111111111111111111::11            ",
"          1111::11111111111111==--11111111111111::1111          ",
"          1111::11111111111111===-11111111111111::1111          ",
"            11::11111111111111--==11111111111111::11            ",
"            11::11111111111111=-==11111111111111::11            ",
"                ::::::::::::::;;;;::::::::::::::                ",
"                ::::::::::::::;;;;::::::::::::::                ",
"                ::::::::::::::::::::::::::::::::                ",
"                ::::::::::::::::::::::::::::::::                ",
"                XXXXXXXXXXXXXXXXXXXXXXXXXXXXXXXX                ",
"                XXXXXXXXXXXXXXXXXXXXXXXXXXXXXXXX                ",
"                XXXXXXXXXX............XXXXXXXXXX                ",
"                XXXXXXXXXX............XXXXXXXXXX                ",
"                ..oooooooo............oooooooo..                ",
"                ..oooooooo............oooooooo..                ",
"                    ,,,,                ,,,,                    ",
"                    ,,,,                ,,,>                    "
};
