/* XPM */
static char *_a3cb011d913421ba272d0130015238d1Fo01YHGhrARvitd[] = {
/* columns rows colors chars-per-pixel */
"174 102 2 1 ",
"  c None",
". c white",
/* pixels */
" .........                             .................................   .........               .........    ................................. .........                   ",
" .........                             .................................   .........               .........    ................................. .........                   ",
" .........                             .................................   .........               .........    ................................. .........                   ",
" .........                             .................................   .........               .........    ................................. .........                   ",
" .........                             .................................   .........               .........    ................................. .........                   ",
" .........                             ..........                          .........               .........    ..........                        .........                   ",
" .........                             ..........                          .........               .........    ..........                        .........                   ",
" .........                             ..........                          .........               .........    ..........                        .........                   ",
" .........                             ..........                          .........               .........    ..........                        .........                   ",
" .........                             ..........                          .........               .........    ..........                        .........                   ",
" .........                             ..........                          .........               .........    ..........                        .........                   ",
" .........                             ..........                          .........               .........    ..........                        .........                   ",
" .........                             ..........                          .........               .........    ..........                        .........                   ",
" .........                             ........................            ..............          .........    ........................          .........                   ",
" .........                             ........................            ..............     ..............    ........................          .........                   ",
" .........                             ........................            ..............     ..............    ........................          .........                   ",
" .........                             ........................            ..............     ..............    ........................          .........                   ",
" .........                             ........................            ..............     ..............    ........................          .........                   ",
" .........                             ..........                          ..............     ..............    ..........                        .........                   ",
" .........                             ..........                               .......................         ..........                        .........                   ",
" .........                             ..........                               .......................         ..........                        .........                   ",
" .........                             ..........                               .......................         ..........                        .........                   ",
" .........                             ..........                               .......................         ..........                        .........                   ",
" .........                             ..........                                   ...............             ..........                        .........                   ",
" .........                             ..........                                   ...............             ..........                        .........                   ",
" .........                             ..........                                   ...............             ..........                        .........                   ",
" .........                             ..........                                   ...............             ..........                        .........                   ",
" .........                             ..........                                   ...............             ..........                        .........                   ",
" ............................          .................................                 .....                  ................................. ............................",
" ............................          .................................                 .....                  ................................. ............................",
" ............................          .................................                 .....                  ................................. ............................",
" ............................          .................................                 .....                  ................................. ............................",
" ............................          .................................                 .....                  ................................. ............................",
"                                                                                                                                                                              ",
"                                                                                                                                                                              ",
"                                                                                                                                                                              ",
"                                                                                                                                                                              ",
"                                                                                                                                                                              ",
"                                                                                                                                                                              ",
"                                                                                                                                                                              ",
"                                                                                                                                                                              ",
"                                                                                                                                                                              ",
"                                                                                                                                                                              ",
"                                                                                                                                                                              ",
"                                                                                                                                                                              ",
"                                                                                                                                                                              ",
"                                                                                                                                                                              ",
"                                                                                                                                                                              ",
"                                                                                                                                                                              ",
"                                                                                                                                                                              ",
"                                                                                                                                                                              ",
"                                                                                                                                                                              ",
"                                                                                                                                                                              ",
"                                                                                                                                                                              ",
"                                                                                                                                                                              ",
"                                                                                                                                                                              ",
"                                                                                                                                                                              ",
"                                                                                                                                                                              ",
"                                                                                                                                                                              ",
"                                                                                                                                                                              ",
"                                                                                                                                                                              ",
"                                                                                                                                                                              ",
"                                                                                                                                                                              ",
"                                                                                                                                                                              ",
"                                                                                                                                                                              ",
"                                                                                                                                                                              ",
"                                                                                                                                                                              ",
"                                                                                                                                                                              ",
"                                                                                                                                                                              ",
"                                                                                                                                                                              ",
"                                                                                                                                                                              ",
"                                                                                                                                                                              ",
"                                                                                                                                                                              ",
"                                                                                                                                                                              ",
"                                                                                                                                                                              ",
"                                                                                                                                                                              ",
"                       ..........                                                                                                ..........                                   ",
"                       ..........                                                                                                ..........                                   ",
"                       ..........                                                                                                ..........                                   ",
"                       ..........                                                                                                ..........                                   ",
"                       ..........                                                                                                ..........                                   ",
"                 ...........                                                                                                          ...........                             ",
"                 ...........                                                                                                          ...........                             ",
"                 ...........                                                                                                          ...........                             ",
"                 ...........                                                                                                          ...........                             ",
"                 ...........                                                                                                          ...........                             ",
"                 ......                                                                                                                    ......                             ",
"            ..........                                                                                                                      ..........                        ",
"            ..........                                                                                                                      ..........                        ",
"            ..........                                                                                                                      ..........                        ",
"            ..........                                                                                                                      ..........                        ",
"            ...........                                                                                                                    ...........                        ",
"                 ...........                                                                                                          ...........                             ",
"                 ...........                                                                                                          ...........                             ",
"                 ...........                                                                                                          ...........                             ",
"                 ...........                                                                                                          ...........                             ",
"                 ...........                                                                                                          ...........                             ",
"                       ..........                                                                                                ..........                                   ",
"                       ..........                                                                                                ..........                                   ",
"                       ..........                                                                                                ..........                                   ",
"                       ..........                                                                                                ..........                                   ",
"                       ..........                                                                                                ..........                                   "
};
