/* XPM */
static char *c39c778d69024a8b98b31ee27177feb9m4Pjrj8mjgUOgmWh[] = {
/* columns rows colors chars-per-pixel */
"64 64 15 1 ",
"  c None",
". c black",
"X c #482F12",
"o c #471729",
"O c #754A1C",
"+ c #682447",
"@ c #954012",
"# c #F7681D",
"$ c #922E54",
"% c #8B4063",
"& c #BC5F6E",
"* c #F48899",
"= c #F9AD81",
"- c #EEA2C5",
"; c white",
/* pixels */
"                                                                ",
"                                                                ",
"                OOOOOOOOOOOOOOOOOOOOOOOOOOOOOOOO                ",
"                OOOOOOOOOOOOOOOOOOOOOOOOOOOOOOOO                ",
"              OOOOOOOOOOOOOOOOOOOOOOOOOOOOOOOOOOOO              ",
"              OOOOOOOOOOOOOOOOOOOOOOOOOOOOOOOOOOOO              ",
"            OOOOOOOOOOOOOOOOOOOOOOOOOOOOOOOOOOOOOOOO            ",
"            OOOOOOOOOOOOOOOOOOOOOOOOOOOOOOOOOOOOOOOO            ",
"          OOOOOOOOOOOOOOOOOOOOOOOOOOOOOOOOOOOOOOOOOOOO          ",
"          OOOOOOOOOOOOOOOOOOOOOOOOOOOOOOOOOOOOOOOOOOOO          ",
"        OOOOOOOOOOOOOOOOOOOOOOOOOOOOOOOOOOOOOOOOOOOOOOOO        ",
"        OOOOOOOOOOOOOOOOOOOOOOOOOOOOOOOOOOOOOOOOOOOOOOOO        ",
"      OOOOOOOOOOOOOOOOOOOOOOOOOOOOOOOOOOOOOOOOOOOOOOOOOOOO      ",
"      OOOOOOOOOOOOOOOOOOOOOOOOOOOOOOOOOOOOOOOOOOOOOOOOOOOO      ",
"    OOOOOOOOOOOOOOOOOOOOOOOOOOOOOOOOOOOOOOOOOOOOOOOOOOOOOOOO    ",
"    OOOOOOOOOOOOOOOOOOOOOOOOOOOOOOOOOOOOOOOOOOOOOOOOOOOOOOOO    ",
"    OOOOOOOOOOOOOOOOOOOOOOOOOOOOOOOOOOOOOOOOOOOOOOOOOOOOOOOO    ",
"    OOOOOOOOOOOOOOOOOOOOOOOOOOOOOOOOOOOOOOOOOOOOOOOOOOOOOOOO    ",
"    OOOOOOOOOOOOOOOOXXXXXXXXXXXXXXXXXXXXXXXXOOOOOOOOOOOOOOOO    ",
"    OOOOOOOOOOOOOOOOXXXXXXXXXXXXXXXXXXXXXXXXOOOOOOOOOOOOOOOO    ",
"    OOOOOOOOOOOOOOXX========================XXOOOOOOOOOOOOOO    ",
"    OOOOOOOOOOOOOOXX========================XXOOOOOOOOOOOOOO    ",
"    OOOOOOOOOOOOXX============================XXOOOOOOOOOOOO    ",
"    OOOOOOOOOOOOXX============================XXOOOOOOOOOOOO    ",
"    XXOOOOOO++++++++++++++++++++++++++++++++++++++++OOOOOOXX    ",
"    XXOOOOOO++++++++++++++++++++++++++++++++++++++++OOOOOOXX    ",
"    XXOO++++++&&&&**********++++++++**********&&&&++++++OOXX    ",
"    XXOO++++++&&&&**********++++++++**********&&&&++++++OOXX    ",
"    XXXX++++++&&&&**********++++++++**********&&&&++++++XXXX    ",
"    XXXX++++++&&&&**********++++++++**********&&&&++++++XXXX    ",
"    XXXXXXXX++&&&&&&&&&&&&**++====++**&&&&&&&&&&&&++XXXXXXXX    ",
"    XXXXXXXX++&&&&&&&&&&&&**++====++**&&&&&&&&&&&&++XXXXXXXX    ",
"    XXXXXXXX++&&&&--%%--****++====++****--%%--&&&&++XXXXXXXX    ",
"    XXXXXXXX++&&&&--%%--****++====++****--%%--&&&&++XXXXXXXX    ",
"    XXXXXXXX++&&&&------****++====++****------&&&&++XXXXXXXX    ",
"    XXXXXXXX++&&&&------****++====++****------&&&&++XXXXXXXX    ",
"    XXXXXXXX++&&&&**********++====++**********&&&&++XXXXXXXX    ",
"    XXXXXXXX++&&&&**********++====++**********&&&&++XXXXXXXX    ",
"      XXXXXXXX++&&********++========++********&&++XXXXXXXX      ",
"      XXXXXXXX++&&********++========++********&&++XXXXXXXX      ",
"        XXXXXXXX++++++++++==;;;;;;;;==++++++++++XXXXXXXX        ",
"        XXXXXXXX++++++++++==;;;;;;;;==++++++++++XXXXXXXX        ",
"          XXXXXXXX==========;;;;;;;;==========XXXXXXXX          ",
"          XXXXXXXX==========;;;;;;;;==========XXXXXXXX          ",
"            XXXXXX==========;;;;;;;;==========XXXXXX            ",
"            XXXXXX==========;;;;;;;;==========XXXXXX            ",
"                oooooooooo============oooooooooo                ",
"                oooooooooo============oooooooooo                ",
"            ==$$oooooooooooo========oooooooooooo$$==            ",
"            ==$$oooooooooooo========oooooooooooo$$==            ",
"          ====$$$$oooooo$$$$oo====oo$$$$oooooo$$$$====          ",
"          ====$$$$oooooo$$$$oo====oo$$$$oooooo$$$$====          ",
"            ==$$$$$$oo$$$$$$oo====oo$$$$$$oo$$$$$$==            ",
"            ==$$$$$$oo$$$$$$oo====oo$$$$$$oo$$$$$$==            ",
"                $$$$$$$$$$$$$$oooo$$$$$$$$$$$$$$                ",
"                $$$$$$$$$$$$$$oooo$$$$$$$$$$$$$$                ",
"                ##############@@@@##############                ",
"                ##############@@@@##############                ",
"                @@@@@@@@@@@@@@....@@@@@@@@@@@@@@                ",
"                @@@@@@@@@@@@@@....@@@@@@@@@@@@@@                ",
"                  ;;;;;;;;............;;;;;;;;                  ",
"                  ;;;;;;;;............;;;;;;;;                  ",
"                    ;;;;................;;;;                    ",
"                    ;;;;................;;;;                    "
};
