/* XPM */
static char *_fe4f85136064584c3130a22b1af4cd4Gif8RZubM1VYz2nB[] = {
/* columns rows colors chars-per-pixel */
"64 64 12 1 ",
"  c None",
". c black",
"X c #754A1C",
"o c #171847",
"O c #B86F16",
"+ c #F7941D",
"@ c #2E3192",
"# c #F06EAA",
"$ c #F9AD81",
"% c #D7D7D7",
"& c gray92",
"* c white",
/* pixels */
"                XXXXXXXXXXXXXXXXXXXXXXXXXXXXXXXX                ",
"                XXXXXXXXXXXXXXXXXXXXXXXXXXXXXXXX                ",
"              XXXXXXXXXXXXXXXXXXXXXXXXXXXXXXXXXXXX              ",
"              XXXXXXXXXXXXXXXXXXXXXXXXXXXXXXXXXXXX              ",
"            XXXXXXXXXXXXXXXXXXXXXXXXXXXXXXXXXXXXXXXX            ",
"            XXXXXXXXXXXXXXXXXXXXXXXXXXXXXXXXXXXXXXXX            ",
"          XXXXXXXXXXXXXXXXXXXXXXXXXXXXXXXXXXXXXXXXXXXX          ",
"          XXXXXXXXXXXXXXXXXXXXXXXXXXXXXXXXXXXXXXXXXXXX          ",
"        XXXXXXXXXXXXXXXXXXXXXXXXXXXXXXXXXXXXXXXXXXXXXXXX        ",
"        XXXXXXXXXXXXXXXXXXXXXXXXXXXXXXXXXXXXXXXXXXXXXXXX        ",
"      XXXXXXXXXXXXXXXXXXXXXXXXXXXXXXXXXXXXXXXXXXXXXXXXXXXX      ",
"      XXXXXXXXXXXXXXXXXXXXXXXXXXXXXXXXXXXXXXXXXXXXXXXXXXXX      ",
"    XXXXXXXXXXXXXXXXXXXXXXXXXXXXXXXXXXXXXXXXXXXXXXXXXXXXXXXX    ",
"    XXXXXXXXXXXXXXXXXXXXXXXXXXXXXXXXXXXXXXXXXXXXXXXXXXXXXXXX    ",
"    XXXXXXXXXXXXXXXXXXXXXXXXXXXXXXXXXXXXXXXXXXXXXXXXXXXXXXXX    ",
"    XXXXXXXXXXXXXXXXXXXXXXXXXXXXXXXXXXXXXXXXXXXXXXXXXXXXXXXX    ",
"    XXXXXXXXXXXXXXXXXXXXXXXXXXXXXXXXXXXXXXXXXXXXXXXXXXXXXXXX    ",
"    XXXXXXXXXXXXXXXXXXXXXXXXXXXXXXXXXXXXXXXXXXXXXXXXXXXXXXXX    ",
"    XXXXXXXXXXXXXX$$$$$$$$$$$$$$$$$$$$$$$$$$$$XXXXXXXXXXXXXX    ",
"    XXXXXXXXXXXXXX$$$$$$$$$$$$$$$$$$$$$$$$$$$$XXXXXXXXXXXXXX    ",
"    XXXXXXXXXXXXXX$$$$$$$$$$$$$$$$$$$$$$$$$$$$XXXXXXXXXXXXXX    ",
"    XXXXXXXXXXXXXX$$$$$$$$$$$$$$$$$$$$$$$$$$$$XXXXXXXXXXXXXX    ",
"    XXXXXXXXXX%%%%%%%%%%%%%%$$$$$$$$%%%%%%%%%%%%%%XXXXXXXXXX    ",
"    XXXXXXXXXX%%%%%%%%%%%%%%$$$$$$$$%%%%%%%%%%%%%%XXXXXXXXXX    ",
"    XXXX%%%%%%##############%%$$$$%%##############%%%%%%XXXX    ",
"    XXXX%%%%%%##############%%$$$$%%##############%%%%%%XXXX    ",
"    XXXXXXXX%%##############%%%%%%%%##############%%XXXXXXXX    ",
"    XXXXXXXX%%##############%%%%%%%%##############%%XXXXXXXX    ",
"    XXXXXXXX%%##############%%$$$$%%##############%%XXXXXXXX    ",
"    XXXXXXXX%%##############%%$$$$%%##############%%XXXXXXXX    ",
"    XXXXXXXX%%####&&..&&####%%$$$$%%####&&..&&####%%XXXXXXXX    ",
"    XXXXXXXX%%####&&..&&####%%$$$$%%####&&..&&####%%XXXXXXXX    ",
"    XXXXXXXX%%####&&&&&&####%%$$$$%%####&&&&&&####%%XXXXXXXX    ",
"    XXXXXXXX%%####&&&&&&####%%$$$$%%####&&&&&&####%%XXXXXXXX    ",
"    XXXXXXXX%%##############%%$$$$%%##############%%XXXXXXXX    ",
"    XXXXXXXX%%##############%%$$$$%%##############%%XXXXXXXX    ",
"      XXXXXXXX%%##########%%$$$$$$$$%%##########%%XXXXXXXX      ",
"      XXXXXXXX%%##########%%$$$$$$$$%%##########%%XXXXXXXX      ",
"        XXXXXXXX%%%%%%%%%%$$&&&&&&&&$$%%%%%%%%%%XXXXXXXX        ",
"        XXXXXXXX%%%%%%%%%%$$&&&&&&&&$$%%%%%%%%%%XXXXXXXX        ",
"          XXXXXXXX$$$$$$$$$$&&&&&&&&$$$$$$$$$$XXXXXXXX          ",
"          XXXXXXXX$$$$$$$$$$&&&&&&&&$$$$$$$$$$XXXXXXXX          ",
"            XXXXXX$$$$$$$$$$&&&&&&&&$$$$$$$$$$XXXXXX            ",
"            XXXXXX$$$$$$$$$$&&&&&&&&$$$$$$$$$$XXXXXX            ",
"              oooooooooooo$$$$$$$$$$$$oooooooooooo              ",
"              oooooooooooo$$$$$$$$$$$$oooooooooooo              ",
"            $$@@oo@@@@@@oooo$$$$$$$$oooo@@@@@@oo@@$$            ",
"            $$@@oo@@@@@@oooo$$$$$$$$oooo@@@@@@oo@@$$            ",
"          $$$$@@@@oo@@oo@@@@oo$$$$oo@@@@oo@@oo@@@@$$$$          ",
"          $$$$@@@@oo@@oo@@@@oo$$$$oo@@@@oo@@oo@@@@$$$$          ",
"            $$@@@@@@oo@@@@@@@@$$$$@@@@@@@@oo@@@@@@$$            ",
"            $$@@@@@@oo@@@@@@@@$$$$@@@@@@@@oo@@@@@@$$            ",
"                @@@@@@@@@@@@@@@@@@@@@@@@@@@@@@@@                ",
"                @@@@@@@@@@@@@@@@@@@@@@@@@@@@@@@@                ",
"                ++++++++++++++OOOO++++++++++++++                ",
"                ++++++++++++++OOOO++++++++++++++                ",
"                ..********..        ..********..                ",
"                ..********..        ..********..                ",
"                ..********..        ..********..                ",
"                ..********..        ..********..                ",
"                  ..****..            ..****..                  ",
"                  ..****..            ..****..                  ",
"                    ....                ....                    ",
"                    ....                ....                    "
};
