/* XPM */
static char *f0d9e2004b5a4632b32a5c9497018d8dn3gWTxMbp0XnDPhn[] = {
/* columns rows colors chars-per-pixel */
"64 64 17 1 ",
"  c None",
". c black",
"X c #482F12",
"o c #471729",
"O c #754A1C",
"+ c #682447",
"@ c #954012",
"# c #F7681D",
"$ c #922E54",
"% c #8B4063",
"& c #BC5F6E",
"* c #EF6EAB",
"= c #F48899",
"- c #F9AD81",
"; c #E69ABD",
": c #F6ABCE",
"> c white",
/* pixels */
"                                                                ",
"                                                                ",
"                OOOOOOOOOOOOOOOOOOOOOOOOOOOOOO                  ",
"                OOOOOOOOOOOOOOOOOOOOOOOOOOOOOO                  ",
"              OOOOOOOOOOOOOOOOOOOOOOOOOOOOOOOOOO                ",
"              OOOOOOOOOOOOOOOOOOOOOOOOOOOOOOOOOO                ",
"            OOOOOOOOOOOOOOOOOOOOOOOOOOOOOOOOOOOOOO              ",
"            OOOOOOOOOOOOOOOOOOOOOOOOOOOOOOOOOOOOOO              ",
"          OOOOOOOOOOOOOOOOOOOOOOOOOOOOOOOOOOOOOOOOOO            ",
"          OOOOOOOOOOOOOOOOOOOOOOOOOOOOOOOOOOOOOOOOOO            ",
"        OOOOOOOOOOOOOOOOOOOOOOOOOOOOOOOOOOOOOOOOOOOO            ",
"        OOOOOOOOOOOOOOOOOOOOOOOOOOOOOOOOOOOOOOOOOOOO            ",
"      OOOOOOOOOOOOOOOOOOOOOOOOOOOOOOOOOOOOOOOOOOOOOO            ",
"      OOOOOOOOOOOOOOOOOOOOOOOOOOOOOOOOOOOOOOOOOOOOOO            ",
"    OOOOOOOOOOOOOOOOOOOOOOOOOOOOOOOOOOOOOOOOOOOOOOOO            ",
"    OOOOOOOOOOOOOOOOOOOOOOOOOOOOOOOOOOOOOOOOOOOOOOOO            ",
"    OOOOOOOOOOOOOOOOOOOOOOOOOOOOOOOOOOOOOOOOOOOOOO              ",
"    OOOOOOOOOOOOOOOOOOOOOOOOOOOOOOOOOOOOOOOOOOOOOO              ",
"    OOOOOOOOOOOOOOOOOOOOOOOOOOOOOOOOOOOOOOOOXXXX                ",
"    OOOOOOOOOOOOOOOOOOOOOOOOOOOOOOOOOOOOOOOOXXXX                ",
"    OOOOOOOOOOOOOOOOOOOOOOOOOOOOOOOOOOOOOOXX--                  ",
"    OOOOOOOOOOOOOOOOOOOOOOOOOOOOOOOOOOOOOOXX--                  ",
"    OOOOOOOOOOOOOOOOOOOOOOOOOOOOOOOOOOOOXX----                  ",
"    OOOOOOOOOOOOOOOOOOOOOOOOOOOOOOOOOOOOXX----                  ",
"    OOOOOOOOOOOOOOOOOOOOOO++++++++++++++++++++++++              ",
"    OOOOOOOOOOOOOOOOOOOOOO++++++++++++++++++++++++              ",
"    XXOOOOOOOOOOOOOOOOOOOO++++++++============;;++              ",
"    XXOOOOOOOOOOOOOOOOOOOO++++++++============;;++              ",
"    XXOOOOOOOOOOOOOOOOOOOOXXXXXX++============;;++              ",
"    XXOOOOOOOOOOOOOOOOOOOOXXXXXX++============;;++              ",
"    XXXXOOOOOOOOOOOOOOOOXXXXXXXX++==&&&&&&&&==**++              ",
"    XXXXOOOOOOOOOOOOOOOOXXXXXXXX++==&&&&&&&&==**++              ",
"    XXXXXXXXXXXXXXXXXXXXXXXXXXXX++==::::%%====**++              ",
"    XXXXXXXXXXXXXXXXXXXXXXXXXXXX++==::::%%====**++              ",
"    XXXXXXXXXXXXXXXXXXXXXXXXXXXX++==::::::====**++              ",
"    XXXXXXXXXXXXXXXXXXXXXXXXXXXX++==::::::====**++              ",
"    XXXXXXXXXXXXXXXXXXXXXXXXXXXX++============**++              ",
"    XXXXXXXXXXXXXXXXXXXXXXXXXXXX++============**++              ",
"      XXXXXXXXXXXXXXXXXXXXXXXXXX--++==========++                ",
"      XXXXXXXXXXXXXXXXXXXXXXXXXX--++==========++                ",
"        XXXXXXXXXXXXXXXXXXXXXXXX----++++++++++                  ",
"        XXXXXXXXXXXXXXXXXXXXXXXX----++++++++++                  ",
"          XXXXXXXXXXXXXXXXXXXX------------>>>>                  ",
"          XXXXXXXXXXXXXXXXXXXX------------>>>>                  ",
"            XXXXXXXXXXXXXXXX-------------->>>>                  ",
"            XXXXXXXXXXXXXXXX-------------->>>>                  ",
"                oooooooooooooooooooooooooooooo                  ",
"                oooooooooooooooooooooooooooooo                  ",
"                oo$$$$$$$$oo$$$$$$oo$$$$$$oooo                  ",
"                oo$$$$$$$$oo$$$$$$oo$$$$$$oooo                  ",
"                  $$$$$$$$oo$$$$$$oo$$$$$$$$oo                  ",
"                  $$$$$$$$oo$$$$$$oo$$$$$$$$oo                  ",
"                  $$$$$$$$$$------$$$$$$$$$$                    ",
"                  $$$$$$$$$$------$$$$$$$$$$                    ",
"                  $$$$$$$$$$------$$$$$$$$$$                    ",
"                  $$$$$$$$$$------$$$$$$$$$$                    ",
"                  ##########################                    ",
"                  ##########################                    ",
"                    @@@@@@@@@@@@@@@@@@@@@@                      ",
"                    @@@@@@@@@@@@@@@@@@@@@@                      ",
"                            >>>>>>>>                            ",
"                            >>>>>>>>                            ",
"                    ..........>>>>........                      ",
"                    ..........>>>>........                      "
};
