/* XPM */
static char *ff66871638394f67a1ba658cb21dae5fmr1eClKox6oJeKUn[] = {
/* columns rows colors chars-per-pixel */
"64 64 16 1 ",
"  c None",
". c black",
"X c #482F12",
"o c #754A1C",
"O c #682447",
"+ c #375477",
"@ c #8B4063",
"# c #BC5F6E",
"$ c #F06EAA",
"% c #5686C1",
"& c #F48899",
"* c #F9AD81",
"= c #E69ABD",
"- c #F6ABCE",
"; c gray89",
": c white",
/* pixels */
"                                                                ",
"                                                                ",
"                  oooooooooooooooooooooooooooooo                ",
"                  oooooooooooooooooooooooooooooo                ",
"                oooooooooooooooooooooooooooooooooo              ",
"                oooooooooooooooooooooooooooooooooo              ",
"              oooooooooooooooooooooooooooooooooooooo            ",
"              oooooooooooooooooooooooooooooooooooooo            ",
"            oooooooooooooooooooooooooooooooooooooooooo          ",
"            oooooooooooooooooooooooooooooooooooooooooo          ",
"            oooooooooooooooooooooooooooooooooooooooooooo        ",
"            oooooooooooooooooooooooooooooooooooooooooooo        ",
"            oooooooooooooooooooooooooooooooooooooooooooooo      ",
"            oooooooooooooooooooooooooooooooooooooooooooooo      ",
"            oooooooooooooooooooooooooooooooooooooooooooooooo    ",
"            oooooooooooooooooooooooooooooooooooooooooooooooo    ",
"              oooooooooooooooooooooooooooooooooooooooooooooo    ",
"              oooooooooooooooooooooooooooooooooooooooooooooo    ",
"                XXXXoooooooooooooooooooooooooooooooooooooooo    ",
"                XXXXoooooooooooooooooooooooooooooooooooooooo    ",
"                  **XXoooooooooooooooooooooooooooooooooooooo    ",
"                  **XXoooooooooooooooooooooooooooooooooooooo    ",
"                  ****XXoooooooooooooooooooooooooooooooooooo    ",
"                  ****XXoooooooooooooooooooooooooooooooooooo    ",
"              OOOOOOOOOOOOOOOOOOOOOOOOoooooooooooooooooooooo    ",
"              OOOOOOOOOOOOOOOOOOOOOOOOoooooooooooooooooooooo    ",
"              OO==&&&&&&&&&&&&OOOOOOOOooooooooooooooooooooXX    ",
"              OO==&&&&&&&&&&&&OOOOOOOOooooooooooooooooooooXX    ",
"              OO==&&&&&&&&&&&&OOXXXXXXooooooooooooooooooooXX    ",
"              OO==&&&&&&&&&&&&OOXXXXXXooooooooooooooooooooXX    ",
"              OO$$&&########&&OOXXXXXXXXooooooooooooooooXXXX    ",
"              OO$$&&########&&OOXXXXXXXXooooooooooooooooXXXX    ",
"              OO$$&&&&@@----&&OOXXXXXXXXXXXXXXXXXXXXXXXXXXXX    ",
"              OO$$&&&&@@----&&OOXXXXXXXXXXXXXXXXXXXXXXXXXXXX    ",
"              OO$$&&&&------&&OOXXXXXXXXXXXXXXXXXXXXXXXXXXXX    ",
"              OO$$&&&&------&&OOXXXXXXXXXXXXXXXXXXXXXXXXXXXX    ",
"              OO$$&&&&&&&&&&&&OOXXXXXXXXXXXXXXXXXXXXXXXXXXXX    ",
"              OO$$&&&&&&&&&&&&OOXXXXXXXXXXXXXXXXXXXXXXXXXXXX    ",
"                OO&&&&&&&&&&OO**XXXXXXXXXXXXXXXXXXXXXXXXXX      ",
"                OO&&&&&&&&&&OO**XXXXXXXXXXXXXXXXXXXXXXXXXX      ",
"                  OOOOOOOOOO****XXXXXXXXXXXXXXXXXXXXXXXX        ",
"                  OOOOOOOOOO****XXXXXXXXXXXXXXXXXXXXXXXX        ",
"                  ****************XXXXXXXXXXXXXXXXXXXX          ",
"                  ****************XXXXXXXXXXXXXXXXXXXX          ",
"                  ******************XXXXXXXXXXXXXXXX            ",
"                  ******************XXXXXXXXXXXXXXXX            ",
"                  ;;;;;;;;;;;;;;;;;;;;;;XXXXXXXXXX              ",
"                  ;;;;;;;;;;;;;;;;;;;;;;XXXXXXXXXX              ",
"                  ;;;;::::::;;::::::;;::::::::                  ",
"                  ;;;;::::::;;::::::;;::::::::                  ",
"                  ;;::::::::;;::::::;;::::::::                  ",
"                  ;;::::::::;;::::::;;::::::::                  ",
"                  ::::::::::;;::::::;;::::::::                  ",
"                  ::::::::::;;::::::;;::::::::                  ",
"                  ::::::::::::******::::::::::                  ",
"                  ::::::::::::******::::::::::                  ",
"                  %%%%%%%%%%%%%%%%%%%%%%%%%%%%                  ",
"                  %%%%%%%%%%%%%%%%%%%%%%%%%%%%                  ",
"                  %%%%%%%%%%%%%%%%%%%%%%%%%%%%                  ",
"                  %%%%%%%%%%%%%%%%%%%%%%%%%%%%                  ",
"                  ++++++++++++++++++++++++++++                  ",
"                  ++++++++++++++++++++++++++++                  ",
"                      ......::::::::::......                    ",
"                      ......::::::::::......                    "
};
