/* XPM */
static char *_8d8b788ba634d53ffe5bbab663dab719FuHZXqkgr67esoI[] = {
/* columns rows colors chars-per-pixel */
"64 64 17 1 ",
"  c None",
". c black",
"X c #482F12",
"o c #471729",
"O c #754A1C",
"+ c #682447",
"@ c #954012",
"# c #F7681D",
"$ c #922E54",
"% c #8B4063",
"& c #BC5F6E",
"* c #F06EAA",
"= c #F48899",
"- c #F9AD81",
"; c #E69ABD",
": c #F6ABCE",
"> c white",
/* pixels */
"                                                                ",
"                                                                ",
"                  OOOOOOOOOOOOOOOOOOOOOOOOOOOOOO                ",
"                  OOOOOOOOOOOOOOOOOOOOOOOOOOOOOO                ",
"                OOOOOOOOOOOOOOOOOOOOOOOOOOOOOOOOOO              ",
"                OOOOOOOOOOOOOOOOOOOOOOOOOOOOOOOOOO              ",
"              OOOOOOOOOOOOOOOOOOOOOOOOOOOOOOOOOOOOOO            ",
"              OOOOOOOOOOOOOOOOOOOOOOOOOOOOOOOOOOOOOO            ",
"            OOOOOOOOOOOOOOOOOOOOOOOOOOOOOOOOOOOOOOOOOO          ",
"            OOOOOOOOOOOOOOOOOOOOOOOOOOOOOOOOOOOOOOOOOO          ",
"            OOOOOOOOOOOOOOOOOOOOOOOOOOOOOOOOOOOOOOOOOOOO        ",
"            OOOOOOOOOOOOOOOOOOOOOOOOOOOOOOOOOOOOOOOOOOOO        ",
"            OOOOOOOOOOOOOOOOOOOOOOOOOOOOOOOOOOOOOOOOOOOOOO      ",
"            OOOOOOOOOOOOOOOOOOOOOOOOOOOOOOOOOOOOOOOOOOOOOO      ",
"            OOOOOOOOOOOOOOOOOOOOOOOOOOOOOOOOOOOOOOOOOOOOOOOO    ",
"            OOOOOOOOOOOOOOOOOOOOOOOOOOOOOOOOOOOOOOOOOOOOOOOO    ",
"              OOOOOOOOOOOOOOOOOOOOOOOOOOOOOOOOOOOOOOOOOOOOOO    ",
"              OOOOOOOOOOOOOOOOOOOOOOOOOOOOOOOOOOOOOOOOOOOOOO    ",
"                XXXXOOOOOOOOOOOOOOOOOOOOOOOOOOOOOOOOOOOOOOOO    ",
"                XXXXOOOOOOOOOOOOOOOOOOOOOOOOOOOOOOOOOOOOOOOO    ",
"                  --XXOOOOOOOOOOOOOOOOOOOOOOOOOOOOOOOOOOOOOO    ",
"                  --XXOOOOOOOOOOOOOOOOOOOOOOOOOOOOOOOOOOOOOO    ",
"                  ----XXOOOOOOOOOOOOOOOOOOOOOOOOOOOOOOOOOOOO    ",
"                  ----XXOOOOOOOOOOOOOOOOOOOOOOOOOOOOOOOOOOOO    ",
"              ++++++++++++++++++++++++OOOOOOOOOOOOOOOOOOOOOO    ",
"              ++++++++++++++++++++++++OOOOOOOOOOOOOOOOOOOOOO    ",
"              ++;;============++++++++OOOOOOOOOOOOOOOOOOOOXX    ",
"              ++;;============++++++++OOOOOOOOOOOOOOOOOOOOXX    ",
"              ++;;============++XXXXXXOOOOOOOOOOOOOOOOOOOOXX    ",
"              ++;;============++XXXXXXOOOOOOOOOOOOOOOOOOOOXX    ",
"              ++**==&&&&&&&&==++XXXXXXXXOOOOOOOOOOOOOOOOXXXX    ",
"              ++**==&&&&&&&&==++XXXXXXXXOOOOOOOOOOOOOOOOXXXX    ",
"              ++**====%%::::==++XXXXXXXXXXXXXXXXXXXXXXXXXXXX    ",
"              ++**====%%::::==++XXXXXXXXXXXXXXXXXXXXXXXXXXXX    ",
"              ++**====::::::==++XXXXXXXXXXXXXXXXXXXXXXXXXXXX    ",
"              ++**====::::::==++XXXXXXXXXXXXXXXXXXXXXXXXXXXX    ",
"              ++**============++XXXXXXXXXXXXXXXXXXXXXXXXXXXX    ",
"              ++**============++XXXXXXXXXXXXXXXXXXXXXXXXXXXX    ",
"                ++==========++--XXXXXXXXXXXXXXXXXXXXXXXXXX      ",
"                ++==========++--XXXXXXXXXXXXXXXXXXXXXXXXXX      ",
"                  ++++++++++----XXXXXXXXXXXXXXXXXXXXXXXX        ",
"                  ++++++++++----XXXXXXXXXXXXXXXXXXXXXXXX        ",
"                  >>>>------------XXXXXXXXXXXXXXXXXXXX          ",
"                  >>>>------------XXXXXXXXXXXXXXXXXXXX          ",
"                  >>>>--------------XXXXXXXXXXXXXXXX            ",
"                  >>>>--------------XXXXXXXXXXXXXXXX            ",
"                  oooooooooooooooooooooooooooooo                ",
"                  oooooooooooooooooooooooooooooo                ",
"                  oooo$$$$$$oo$$$$$$oo$$$$$$$$oo                ",
"                  oooo$$$$$$oo$$$$$$oo$$$$$$$$oo                ",
"                  oo$$$$$$$$oo$$$$$$oo$$$$$$$$                  ",
"                  oo$$$$$$$$oo$$$$$$oo$$$$$$$$                  ",
"                    $$$$$$$$$$------$$$$$$$$$$                  ",
"                    $$$$$$$$$$------$$$$$$$$$$                  ",
"                    $$$$$$$$$$------$$$$$$$$$$                  ",
"                    $$$$$$$$$$------$$$$$$$$$$                  ",
"                    ##########################                  ",
"                    ##########################                  ",
"                      @@@@@@@@@@@@@@@@@@@@@@                    ",
"                      @@@@@@@@@@@@@@@@@@@@@@                    ",
"                            >>>>>>>>                            ",
"                            >>>>>>>>                            ",
"                      ........>>>>..........                    ",
"                      ........>>>>..........                    "
};
