/* XPM */
static char *ddc5b2c04d944bf99c23242329be0590zYuo0S7A36O41hAH[] = {
/* columns rows colors chars-per-pixel */
"64 64 9 1 ",
"  c None",
". c black",
"X c #482F12",
"o c #754A1C",
"O c #375477",
"+ c #5686C1",
"@ c #F9AD81",
"# c gray89",
"$ c white",
/* pixels */
"                                                                ",
"                                                                ",
"                oooooooooooooooooooooooooooooooo                ",
"                oooooooooooooooooooooooooooooooo                ",
"              oooooooooooooooooooooooooooooooooooo              ",
"              oooooooooooooooooooooooooooooooooooo              ",
"            oooooooooooooooooooooooooooooooooooooooo            ",
"            oooooooooooooooooooooooooooooooooooooooo            ",
"          oooooooooooooooooooooooooooooooooooooooooooo          ",
"          oooooooooooooooooooooooooooooooooooooooooooo          ",
"        oooooooooooooooooooooooooooooooooooooooooooooooo        ",
"        oooooooooooooooooooooooooooooooooooooooooooooooo        ",
"      oooooooooooooooooooooooooooooooooooooooooooooooooooo      ",
"      oooooooooooooooooooooooooooooooooooooooooooooooooooo      ",
"    oooooooooooooooooooooooooooooooooooooooooooooooooooooooo    ",
"    oooooooooooooooooooooooooooooooooooooooooooooooooooooooo    ",
"    oooooooooooooooooooooooooooooooooooooooooooooooooooooooo    ",
"    oooooooooooooooooooooooooooooooooooooooooooooooooooooooo    ",
"    oooooooooooooooooooooooooooooooooooooooooooooooooooooooo    ",
"    oooooooooooooooooooooooooooooooooooooooooooooooooooooooo    ",
"    oooooooooooooooooooooooooooooooooooooooooooooooooooooooo    ",
"    oooooooooooooooooooooooooooooooooooooooooooooooooooooooo    ",
"    oooooooooooooooooooooooooooooooooooooooooooooooooooooooo    ",
"    oooooooooooooooooooooooooooooooooooooooooooooooooooooooo    ",
"    oooooooooooooooooooooooooooooooooooooooooooooooooooooooo    ",
"    oooooooooooooooooooooooooooooooooooooooooooooooooooooooo    ",
"    XXooooooooooooooooooooooooooooooooooooooooooooooooooooXX    ",
"    XXooooooooooooooooooooooooooooooooooooooooooooooooooooXX    ",
"    XXXXooooooooooooooooooooooooooooooooooooooooooooooooXXXX    ",
"    XXXXooooooooooooooooooooooooooooooooooooooooooooooooXXXX    ",
"    XXXXXXooooooooooooooooooooooooooooooooooooooooooooXXXXXX    ",
"    XXXXXXooooooooooooooooooooooooooooooooooooooooooooXXXXXX    ",
"    XXXXXXXXXXXXXXXXXXXXXXXXXXXXXXXXXXXXXXXXXXXXXXXXXXXXXXXX    ",
"    XXXXXXXXXXXXXXXXXXXXXXXXXXXXXXXXXXXXXXXXXXXXXXXXXXXXXXXX    ",
"    XXXXXXXXXXXXXXXXXXXXXXXXXXXXXXXXXXXXXXXXXXXXXXXXXXXXXXXX    ",
"    XXXXXXXXXXXXXXXXXXXXXXXXXXXXXXXXXXXXXXXXXXXXXXXXXXXXXXXX    ",
"    XXXXXXXXXXXXXXXXXXXXXXXXXXXXXXXXXXXXXXXXXXXXXXXXXXXXXXXX    ",
"    XXXXXXXXXXXXXXXXXXXXXXXXXXXXXXXXXXXXXXXXXXXXXXXXXXXXXXXX    ",
"      XXXXXXXXXXXXXXXXXXXXXXXXXXXXXXXXXXXXXXXXXXXXXXXXXXXX      ",
"      XXXXXXXXXXXXXXXXXXXXXXXXXXXXXXXXXXXXXXXXXXXXXXXXXXXX      ",
"        XXXXXXXXXXXXXXXXXXXXXXXXXXXXXXXXXXXXXXXXXXXXXXXX        ",
"        XXXXXXXXXXXXXXXXXXXXXXXXXXXXXXXXXXXXXXXXXXXXXXXX        ",
"          XXXXXXXXXXXXXXXXXXXXXXXXXXXXXXXXXXXXXXXXXXXX          ",
"          XXXXXXXXXXXXXXXXXXXXXXXXXXXXXXXXXXXXXXXXXXXX          ",
"            XXXXXXXXXXXXXXXXXXXXXXXXXXXXXXXXXXXXXXXX            ",
"            XXXXXXXXXXXXXXXXXXXXXXXXXXXXXXXXXXXXXXXX            ",
"                ################################                ",
"                ################################                ",
"          @@$$$$################################$$$$@@          ",
"          @@$$$$################################$$$$@@          ",
"          @@$$$$$$$$$$$$$$$$$$$$$$$$$$$$$$$$$$$$$$$$@@          ",
"          @@$$$$$$$$$$$$$$$$$$$$$$$$$$$$$$$$$$$$$$$$@@          ",
"          @@$$$$$$$$$$$$$$$$$$$$$$$$$$$$$$$$$$$$$$$$@@          ",
"          @@$$$$$$$$$$$$$$$$$$$$$$$$$$$$$$$$$$$$$$$$@@          ",
"                $$$$$$$$$$$$$$$$$$$$$$$$$$$$$$$$                ",
"                $$$$$$$$$$$$$$$$$$$$$$$$$$$$$$$$                ",
"                ++++++++++++++++++++++++++++++++                ",
"                ++++++++++++++++++++++++++++++++                ",
"                ++++++++++++++....++++++++++++++                ",
"                ++++++++++++++....++++++++++++++                ",
"                OOOOOOOOOOOOOO....OOOOOOOOOOOOOO                ",
"                OOOOOOOOOOOOOO....OOOOOOOOOOOOOO                ",
"                  $$$$$$$$............$$$$$$$$                  ",
"                  $$$$$$$$............$$$$$$$$                  "
};
