/* XPM */
static char *bWF4K2JhY2srY29weQ__[] = {
/* columns rows colors chars-per-pixel */
"64 64 9 1 ",
"  c black",
". c #482F12",
"X c #754A1C",
"o c #375477",
"O c #5686C1",
"+ c #F9AD81",
"@ c gray89",
"# c white",
"$ c None",
/* pixels */
"$$$$$$$$$$$$$$$$$$$$$$$$$$$$$$$$$$$$$$$$$$$$$$$$$$$$$$$$$$$$$$$$",
"$$$$$$$$$$$$$$$$$$$$$$$$$$$$$$$$$$$$$$$$$$$$$$$$$$$$$$$$$$$$$$$$",
"$$$$$$$$$$$$$$$$XXXXXXXXXXXXXXXXXXXXXXXXXXXXXXXX$$$$$$$$$$$$$$$$",
"$$$$$$$$$$$$$$$$XXXXXXXXXXXXXXXXXXXXXXXXXXXXXXXX$$$$$$$$$$$$$$$$",
"$$$$$$$$$$$$$$XXXXXXXXXXXXXXXXXXXXXXXXXXXXXXXXXXXX$$$$$$$$$$$$$$",
"$$$$$$$$$$$$$$XXXXXXXXXXXXXXXXXXXXXXXXXXXXXXXXXXXX$$$$$$$$$$$$$$",
"$$$$$$$$$$$$XXXXXXXXXXXXXXXXXXXXXXXXXXXXXXXXXXXXXXXX$$$$$$$$$$$$",
"$$$$$$$$$$$$XXXXXXXXXXXXXXXXXXXXXXXXXXXXXXXXXXXXXXXX$$$$$$$$$$$$",
"$$$$$$$$$$XXXXXXXXXXXXXXXXXXXXXXXXXXXXXXXXXXXXXXXXXXXX$$$$$$$$$$",
"$$$$$$$$$$XXXXXXXXXXXXXXXXXXXXXXXXXXXXXXXXXXXXXXXXXXXX$$$$$$$$$$",
"$$$$$$$$XXXXXXXXXXXXXXXXXXXXXXXXXXXXXXXXXXXXXXXXXXXXXXXX$$$$$$$$",
"$$$$$$$$XXXXXXXXXXXXXXXXXXXXXXXXXXXXXXXXXXXXXXXXXXXXXXXX$$$$$$$$",
"$$$$$$XXXXXXXXXXXXXXXXXXXXXXXXXXXXXXXXXXXXXXXXXXXXXXXXXXXX$$$$$$",
"$$$$$$XXXXXXXXXXXXXXXXXXXXXXXXXXXXXXXXXXXXXXXXXXXXXXXXXXXX$$$$$$",
"$$$$XXXXXXXXXXXXXXXXXXXXXXXXXXXXXXXXXXXXXXXXXXXXXXXXXXXXXXXX$$$$",
"$$$$XXXXXXXXXXXXXXXXXXXXXXXXXXXXXXXXXXXXXXXXXXXXXXXXXXXXXXXX$$$$",
"$$$$XXXXXXXXXXXXXXXXXXXXXXXXXXXXXXXXXXXXXXXXXXXXXXXXXXXXXXXX$$$$",
"$$$$XXXXXXXXXXXXXXXXXXXXXXXXXXXXXXXXXXXXXXXXXXXXXXXXXXXXXXXX$$$$",
"$$$$XXXXXXXXXXXXXXXXXXXXXXXXXXXXXXXXXXXXXXXXXXXXXXXXXXXXXXXX$$$$",
"$$$$XXXXXXXXXXXXXXXXXXXXXXXXXXXXXXXXXXXXXXXXXXXXXXXXXXXXXXXX$$$$",
"$$$$XXXXXXXXXXXXXXXXXXXXXXXXXXXXXXXXXXXXXXXXXXXXXXXXXXXXXXXX$$$$",
"$$$$XXXXXXXXXXXXXXXXXXXXXXXXXXXXXXXXXXXXXXXXXXXXXXXXXXXXXXXX$$$$",
"$$$$XXXXXXXXXXXXXXXXXXXXXXXXXXXXXXXXXXXXXXXXXXXXXXXXXXXXXXXX$$$$",
"$$$$XXXXXXXXXXXXXXXXXXXXXXXXXXXXXXXXXXXXXXXXXXXXXXXXXXXXXXXX$$$$",
"$$$$XXXXXXXXXXXXXXXXXXXXXXXXXXXXXXXXXXXXXXXXXXXXXXXXXXXXXXXX$$$$",
"$$$$XXXXXXXXXXXXXXXXXXXXXXXXXXXXXXXXXXXXXXXXXXXXXXXXXXXXXXXX$$$$",
"$$$$..XXXXXXXXXXXXXXXXXXXXXXXXXXXXXXXXXXXXXXXXXXXXXXXXXXXX..$$$$",
"$$$$..XXXXXXXXXXXXXXXXXXXXXXXXXXXXXXXXXXXXXXXXXXXXXXXXXXXX..$$$$",
"$$$$....XXXXXXXXXXXXXXXXXXXXXXXXXXXXXXXXXXXXXXXXXXXXXXXX....$$$$",
"$$$$....XXXXXXXXXXXXXXXXXXXXXXXXXXXXXXXXXXXXXXXXXXXXXXXX....$$$$",
"$$$$......XXXXXXXXXXXXXXXXXXXXXXXXXXXXXXXXXXXXXXXXXXXX......$$$$",
"$$$$......XXXXXXXXXXXXXXXXXXXXXXXXXXXXXXXXXXXXXXXXXXXX......$$$$",
"$$$$........................................................$$$$",
"$$$$........................................................$$$$",
"$$$$........................................................$$$$",
"$$$$........................................................$$$$",
"$$$$........................................................$$$$",
"$$$$........................................................$$$$",
"$$$$$$....................................................$$$$$$",
"$$$$$$....................................................$$$$$$",
"$$$$$$$$................................................$$$$$$$$",
"$$$$$$$$................................................$$$$$$$$",
"$$$$$$$$$$............................................$$$$$$$$$$",
"$$$$$$$$$$............................................$$$$$$$$$$",
"$$$$$$$$$$$$........................................$$$$$$$$$$$$",
"$$$$$$$$$$$$........................................$$$$$$$$$$$$",
"$$$$$$$$$$$$$$$$@@@@@@@@@@@@@@@@@@@@@@@@@@@@@@@@$$$$$$$$$$$$$$$$",
"$$$$$$$$$$$$$$$$@@@@@@@@@@@@@@@@@@@@@@@@@@@@@@@@$$$$$$$$$$$$$$$$",
"$$$$$$$$$$$$++##@@@@@@@@@@@@@@@@@@@@@@@@@@@@@@@@##++$$$$$$$$$$$$",
"$$$$$$$$$$$$++##@@@@@@@@@@@@@@@@@@@@@@@@@@@@@@@@##++$$$$$$$$$$$$",
"$$$$$$$$$$++++####################################++++$$$$$$$$$$",
"$$$$$$$$$$++++####################################++++$$$$$$$$$$",
"$$$$$$$$$$$$++####################################++$$$$$$$$$$$$",
"$$$$$$$$$$$$++####################################++$$$$$$$$$$$$",
"$$$$$$$$$$$$$$$$################################$$$$$$$$$$$$$$$$",
"$$$$$$$$$$$$$$$$################################$$$$$$$$$$$$$$$$",
"$$$$$$$$$$$$$$$$OOOOOOOOOOOOOOOOOOOOOOOOOOOOOOOO$$$$$$$$$$$$$$$$",
"$$$$$$$$$$$$$$$$OOOOOOOOOOOOOOOOOOOOOOOOOOOOOOOO$$$$$$$$$$$$$$$$",
"$$$$$$$$$$$$$$$$OOOOOOOOOOOOOO    OOOOOOOOOOOOOO$$$$$$$$$$$$$$$$",
"$$$$$$$$$$$$$$$$OOOOOOOOOOOOOO    OOOOOOOOOOOOOO$$$$$$$$$$$$$$$$",
"$$$$$$$$$$$$$$$$oooooooooooooo    oooooooooooooo$$$$$$$$$$$$$$$$",
"$$$$$$$$$$$$$$$$oooooooooooooo    oooooooooooooo$$$$$$$$$$$$$$$$",
"$$$$$$$$$$$$$$$$$$########            ########$$$$$$$$$$$$$$$$$$",
"$$$$$$$$$$$$$$$$$$########            ########$$$$$$$$$$$$$$$$$$"
};
