/* XPM */
static char *ec7ec498b8f7405be895e9636217dd8egGyE7RojTkVRZwHO[] = {
/* columns rows colors chars-per-pixel */
"64 64 16 1 ",
"  c None",
". c black",
"X c #482F12",
"o c #754A1C",
"O c #682447",
"+ c #375477",
"@ c #8B4063",
"# c #BC5F6E",
"$ c #F06EAA",
"% c #5686C1",
"& c #F48899",
"* c #F9AD81",
"= c #E69ABD",
"- c #F6ABCE",
"; c gray89",
": c white",
/* pixels */
"                                                                ",
"                                                                ",
"                oooooooooooooooooooooooooooooo                  ",
"                oooooooooooooooooooooooooooooo                  ",
"              oooooooooooooooooooooooooooooooooo                ",
"              oooooooooooooooooooooooooooooooooo                ",
"            oooooooooooooooooooooooooooooooooooooo              ",
"            oooooooooooooooooooooooooooooooooooooo              ",
"          oooooooooooooooooooooooooooooooooooooooooo            ",
"          oooooooooooooooooooooooooooooooooooooooooo            ",
"        oooooooooooooooooooooooooooooooooooooooooooo            ",
"        oooooooooooooooooooooooooooooooooooooooooooo            ",
"      oooooooooooooooooooooooooooooooooooooooooooooo            ",
"      oooooooooooooooooooooooooooooooooooooooooooooo            ",
"    oooooooooooooooooooooooooooooooooooooooooooooooo            ",
"    oooooooooooooooooooooooooooooooooooooooooooooooo            ",
"    oooooooooooooooooooooooooooooooooooooooooooooo              ",
"    oooooooooooooooooooooooooooooooooooooooooooooo              ",
"    ooooooooooooooooooooooooooooooooooooooooXXXX                ",
"    ooooooooooooooooooooooooooooooooooooooooXXXX                ",
"    ooooooooooooooooooooooooooooooooooooooXX**                  ",
"    ooooooooooooooooooooooooooooooooooooooXX**                  ",
"    ooooooooooooooooooooooooooooooooooooXX****                  ",
"    ooooooooooooooooooooooooooooooooooooXX****                  ",
"    ooooooooooooooooooooooOOOOOOOOOOOOOOOOOOOOOOOO              ",
"    ooooooooooooooooooooooOOOOOOOOOOOOOOOOOOOOOOOO              ",
"    XXooooooooooooooooooooOOOOOOOO&&&&&&&&&&&&==OO              ",
"    XXooooooooooooooooooooOOOOOOOO&&&&&&&&&&&&==OO              ",
"    XXooooooooooooooooooooXXXXXXOO&&&&&&&&&&&&==OO              ",
"    XXooooooooooooooooooooXXXXXXOO&&&&&&&&&&&&==OO              ",
"    XXXXooooooooooooooooXXXXXXXXOO&&########&&$$OO              ",
"    XXXXooooooooooooooooXXXXXXXXOO&&########&&$$OO              ",
"    XXXXXXXXXXXXXXXXXXXXXXXXXXXXOO&&----@@&&&&$$OO              ",
"    XXXXXXXXXXXXXXXXXXXXXXXXXXXXOO&&----@@&&&&$$OO              ",
"    XXXXXXXXXXXXXXXXXXXXXXXXXXXXOO&&------&&&&$$OO              ",
"    XXXXXXXXXXXXXXXXXXXXXXXXXXXXOO&&------&&&&$$OO              ",
"    XXXXXXXXXXXXXXXXXXXXXXXXXXXXOO&&&&&&&&&&&&$$OO              ",
"    XXXXXXXXXXXXXXXXXXXXXXXXXXXXOO&&&&&&&&&&&&$$OO              ",
"      XXXXXXXXXXXXXXXXXXXXXXXXXX**OO&&&&&&&&&&OO                ",
"      XXXXXXXXXXXXXXXXXXXXXXXXXX**OO&&&&&&&&&&OO                ",
"        XXXXXXXXXXXXXXXXXXXXXXXX****OOOOOOOOOO                  ",
"        XXXXXXXXXXXXXXXXXXXXXXXX****OOOOOOOOOO                  ",
"          XXXXXXXXXXXXXXXXXXXX****************                  ",
"          XXXXXXXXXXXXXXXXXXXX****************                  ",
"            XXXXXXXXXXXXXXXX******************                  ",
"            XXXXXXXXXXXXXXXX******************                  ",
"              XXXXXXXXXX;;;;;;;;;;;;;;;;;;;;;;                  ",
"              XXXXXXXXXX;;;;;;;;;;;;;;;;;;;;;;                  ",
"                  ::::::::;;::::::;;::::::;;;;                  ",
"                  ::::::::;;::::::;;::::::;;;;                  ",
"                  ::::::::;;::::::;;::::::::;;                  ",
"                  ::::::::;;::::::;;::::::::;;                  ",
"                  ::::::::;;::::::;;::::::::::                  ",
"                  ::::::::;;::::::;;::::::::::                  ",
"                  ::::::::::******::::::::::::                  ",
"                  ::::::::::******::::::::::::                  ",
"                  %%%%%%%%%%%%%%%%%%%%%%%%%%%%                  ",
"                  %%%%%%%%%%%%%%%%%%%%%%%%%%%%                  ",
"                  %%%%%%%%%%%%%%%%%%%%%%%%%%%%                  ",
"                  %%%%%%%%%%%%%%%%%%%%%%%%%%%%                  ",
"                  ++++++++++++++++++++++++++++                  ",
"                  ++++++++++++++++++++++++++++                  ",
"                    ......::::::::::......                      ",
"                    ......::::::::::......                      "
};
