/* XPM */
static char *_dcc9b05bf2c4241be0b2b70efaf4241Car806V97ltRCud7[] = {
/* columns rows colors chars-per-pixel */
"64 64 14 1 ",
"  c None",
". c black",
"X c #482F12",
"o c #754A1C",
"O c #682447",
"+ c #375477",
"@ c #8B4063",
"# c #BC5F6E",
"$ c #5686C1",
"% c #F48899",
"& c #F9AD81",
"* c #FFEFCD",
"= c gray89",
"- c white",
/* pixels */
"                                                                ",
"                                                                ",
"                oooooooooooooooooooooooooooooooo                ",
"                oooooooooooooooooooooooooooooooo                ",
"              oooooooooooooooooooooooooooooooooooo              ",
"              oooooooooooooooooooooooooooooooooooo              ",
"            oooooooooooooooooooooooooooooooooooooooo            ",
"            oooooooooooooooooooooooooooooooooooooooo            ",
"          oooooooooooooooooooooooooooooooooooooooooooo          ",
"          oooooooooooooooooooooooooooooooooooooooooooo          ",
"        oooooooooooooooooooooooooooooooooooooooooooooooo        ",
"        oooooooooooooooooooooooooooooooooooooooooooooooo        ",
"      oooooooooooooooooooooooooooooooooooooooooooooooooooo      ",
"      oooooooooooooooooooooooooooooooooooooooooooooooooooo      ",
"    oooooooooooooooooooooooooooooooooooooooooooooooooooooooo    ",
"    oooooooooooooooooooooooooooooooooooooooooooooooooooooooo    ",
"    oooooooooooooooooooooooooooooooooooooooooooooooooooooooo    ",
"    oooooooooooooooooooooooooooooooooooooooooooooooooooooooo    ",
"    ooooooooooooooooXXXXXXXXXXXXXXXXXXXXXXXXoooooooooooooooo    ",
"    ooooooooooooooooXXXXXXXXXXXXXXXXXXXXXXXXoooooooooooooooo    ",
"    ooooooooooooooXX&&&&&&&&&&&&&&&&&&&&&&&&XXoooooooooooooo    ",
"    ooooooooooooooXX&&&&&&&&&&&&&&&&&&&&&&&&XXoooooooooooooo    ",
"    ooooooooooooXX&&&&&&&&&&&&&&&&&&&&&&&&&&&&XXoooooooooooo    ",
"    ooooooooooooXX&&&&&&&&&&&&&&&&&&&&&&&&&&&&XXoooooooooooo    ",
"    XXooooooOOOOOOOOOOOOOOOOOOOOOOOOOOOOOOOOOOOOOOOOooooooXX    ",
"    XXooooooOOOOOOOOOOOOOOOOOOOOOOOOOOOOOOOOOOOOOOOOooooooXX    ",
"    XXooOOOOOO####%%%%%%%%%%OOOOOOOO%%%%%%%%%%####OOOOOOooXX    ",
"    XXooOOOOOO####%%%%%%%%%%OOOOOOOO%%%%%%%%%%####OOOOOOooXX    ",
"    XXXXOOOOOO####%%%%%%%%%%OOOOOOOO%%%%%%%%%%####OOOOOOXXXX    ",
"    XXXXOOOOOO####%%%%%%%%%%OOOOOOOO%%%%%%%%%%####OOOOOOXXXX    ",
"    XXXXXXXXOO############%%OO&&&&OO%%############OOXXXXXXXX    ",
"    XXXXXXXXOO############%%OO&&&&OO%%############OOXXXXXXXX    ",
"    XXXXXXXXOO####@@@@@@%%%%OO&&&&OO%%%%@@@@@@####OOXXXXXXXX    ",
"    XXXXXXXXOO####@@@@@@%%%%OO&&&&OO%%%%@@@@@@####OOXXXXXXXX    ",
"    XXXXXXXXOO####%%%%%%%%%%OO&&&&OO%%%%%%%%%%####OOXXXXXXXX    ",
"    XXXXXXXXOO####%%%%%%%%%%OO&&&&OO%%%%%%%%%%####OOXXXXXXXX    ",
"    XXXXXXXXOO####%%%%%%%%%%OO&&&&OO%%%%%%%%%%####OOXXXXXXXX    ",
"    XXXXXXXXOO####%%%%%%%%%%OO&&&&OO%%%%%%%%%%####OOXXXXXXXX    ",
"      XXXXXXXXOO##%%%%%%%%OO********OO%%%%%%%%##OOXXXXXXXX      ",
"      XXXXXXXXOO##%%%%%%%%OO********OO%%%%%%%%##OOXXXXXXXX      ",
"        XXXXXXXXOOOOOOOOOO************OOOOOOOOOOXXXXXXXX        ",
"        XXXXXXXXOOOOOOOOOO************OOOOOOOOOOXXXXXXXX        ",
"          XXXXXXXX&&&&&&**............**&&&&&&XXXXXXXX          ",
"          XXXXXXXX&&&&&&**............**&&&&&&XXXXXXXX          ",
"            XXXXXX&&&&&&****........&&****&&&&XXXXXX            ",
"            XXXXXX&&&&&&****........&&****&&&&XXXXXX            ",
"                ==========****&&&&&&&&==========                ",
"                ==========****&&&&&&&&==========                ",
"          &&----============**&&&&&&============----&&          ",
"          &&----============**&&&&&&============----&&          ",
"          &&------======----==&&&&==----======------&&          ",
"          &&------======----==&&&&==----======------&&          ",
"          &&--------==------==&&&&==------==--------&&          ",
"          &&--------==------==&&&&==------==--------&&          ",
"                --------------====--------------                ",
"                --------------====--------------                ",
"                $$$$$$$$$$$$$$++++$$$$$$$$$$$$$$                ",
"                $$$$$$$$$$$$$$++++$$$$$$$$$$$$$$                ",
"                $$$$$$$$$$$$$$....$$$$$$$$$$$$$$                ",
"                $$$$$$$$$$$$$$....$$$$$$$$$$$$$$                ",
"                ++++++++++++++....++++++++++++++                ",
"                ++++++++++++++....++++++++++++++                ",
"                  --------............--------                  ",
"                  --------............--------                  "
};
