/* XPM */
static char *_421532cd8754667c7f461b90da86f1fXuDm3gQEzMHMmgHt[] = {
/* columns rows colors chars-per-pixel */
"64 64 12 1 ",
"  c None",
". c black",
"X c #482F12",
"o c #754A1C",
"O c #375477",
"+ c red",
"@ c #C565BB",
"# c #5686C1",
"$ c #F9AD81",
"% c gray89",
"& c gray92",
"* c white",
/* pixels */
"                                                                ",
"                                                                ",
"                                                                ",
"                                                                ",
"              ooooooooooXXXXXXXXXXXXXX                          ",
"              ooooooooooXXXXXXXXXXXXXX                          ",
"            ooooooooooooooooXXXXXXXXXXXX                        ",
"            ooooooooooooooooXXXXXXXXXXXX                        ",
"          ooooooooooooooooooXXXXXXXXXXXXXX                      ",
"          ooooooooooooooooooXXXXXXXXXXXXXX                      ",
"        ooooooooooooooooooooooXXXXXXXXXXXXXX    $$$$$$          ",
"        ooooooooooooooooooooooXXXXXXXXXXXXXX    $$$$$$          ",
"      ooooooooooooooooooooooooooooooooXXXXXXXX  ******          ",
"      ooooooooooooooooooooooooooooooooXXXXXXXX  ******          ",
"    ooooooooooooooooooooooooooooooooooooXXXXXX  %%****          ",
"    ooooooooooooooooooooooooooooooooooooXXXXXX  %%****          ",
"  ooooooooooooooooooooXXooooooooooooooooooXXXX%%%%**++**####OO  ",
"  ooooooooooooooooooooXXooooooooooooooooooXXXX%%%%**++**####OO  ",
"  ooooooooooooooooooXX$$oo$$$$@@&&@@$$$$$$$$%%%%%%******####OO**",
"  ooooooooooooooooooXX$$oo$$$$@@&&@@$$$$$$$$%%%%%%******####OO**",
"  ooooooooooooooooXX$$$$oo$$$$@@..@@$$$$$$%%%%%%%%******####OO**",
"  ooooooooooooooooXX$$$$oo$$$$@@..@@$$$$$$%%%%%%%%******####OO**",
"  ooooooooooooooooXX$$$$oo$$$$@@&&@@$$$$$$$$%%%%%%++****####OO**",
"  ooooooooooooooooXX$$$$oo$$$$@@&&@@$$$$$$$$%%%%%%++****####OO**",
"  ooooooooooooooooXX$$$$oo$$$$@@@@@@$$$$$$$$$$%%%%******####OO**",
"  ooooooooooooooooXX$$$$oo$$$$@@@@@@$$$$$$$$$$%%%%******####OO**",
"  ooooooooooooooooXX$$$$$$$$$$$$$$$$$$$$$$$$$$$$%%******####OO  ",
"  ooooooooooooooooXX$$$$$$$$$$$$$$$$$$$$$$$$$$$$%%******####OO  ",
"  ooooooooooooooooXX$$$$$$$$$$$$$$$$$$$$....**$$$$%%%%**####OO  ",
"  ooooooooooooooooXX$$$$$$$$$$$$$$$$$$$$....**$$$$%%%%**####OO  ",
"  ooooooooooooooooXX$$$$$$$$$$$$$$$$$$$$**....$$$$$$$$$$OO      ",
"  ooooooooooooooooXX$$$$$$$$$$$$$$$$$$$$**....$$$$$$$$$$OO      ",
"  ooooooooooooooooXX$$$$$$$$$$$$$$$$$$$$....**$$$$$$$$$$OO      ",
"  ooooooooooooooooXX$$$$$$$$$$$$$$$$$$$$....**$$$$$$$$$$OO      ",
"  ooooooooooooooooXX$$$$$$$$$$$$$$$$$$$$**....$$$$%%%%**####OO  ",
"  ooooooooooooooooXX$$$$$$$$$$$$$$$$$$$$**....$$$$%%%%**####OO  ",
"  ooooooooooooooooXX$$$$$$++$$$$$$$$$$$$$$$$++$$%%**++**####OO  ",
"  ooooooooooooooooXX$$$$$$++$$$$$$$$$$$$$$$$++$$%%**++**####OO  ",
"  ooooooooooooooooXX$$$$oo$$$$$$$$$$$$$$$$$$$$%%%%****++####OO**",
"  ooooooooooooooooXX$$$$oo$$$$$$$$$$$$$$$$$$$$%%%%****++####OO**",
"  ooooooooooooooooXX$$$$oo$$$$&&&&&&$$$$$$$$$$%%%%%%****####OO**",
"  ooooooooooooooooXX$$$$oo$$$$&&&&&&$$$$$$$$$$%%%%%%****####OO**",
"  ooooooooooooooooXX$$$$oo$$$$&&..&&$$$$$$$$$$%%%%%%%%**####OO**",
"  ooooooooooooooooXX$$$$oo$$$$&&..&&$$$$$$$$$$%%%%%%%%**####OO**",
"  ooooooooooooooooooXX$$oo$$$$&&&&&&$$$$$$$$$$%%%%%%****####OO**",
"  ooooooooooooooooooXX$$oo$$$$&&&&&&$$$$$$$$$$%%%%%%****####OO**",
"  ooooooooooooooooooooXXooooooooooooooooooXXXX%%%%******####OO  ",
"  ooooooooooooooooooooXXooooooooooooooooooXXXX%%%%******####OO  ",
"    ooooooooooooooooooooooooooooooooooooXXXXXX  ******          ",
"    ooooooooooooooooooooooooooooooooooooXXXXXX  ******          ",
"      ooooooooooooooooooooooooooooooooXXXXXXXX  ******          ",
"      ooooooooooooooooooooooooooooooooXXXXXXXX  ******          ",
"        ooooooooooooooooooooooXXXXXXXXXXXXXX    $$$$$$          ",
"        ooooooooooooooooooooooXXXXXXXXXXXXXX    $$$$$$          ",
"          ooooooooooooooooooXXXXXXXXXXXXXX                      ",
"          ooooooooooooooooooXXXXXXXXXXXXXX                      ",
"            ooooooooooooooooXXXXXXXXXXXX                        ",
"            ooooooooooooooooXXXXXXXXXXXX                        ",
"              ooooooooooXXXXXXXXXXXXXX                          ",
"              ooooooooooXXXXXXXXXXXXXX                          ",
"                                                                ",
"                                                                ",
"                                                                ",
"                                                                "
};
