/* XPM */
static char *_5dadb98a1c54879ee8e637c01a378834WE5qtVRV30Z0Avf[] = {
/* columns rows colors chars-per-pixel */
"64 64 10 1 ",
"  c None",
". c black",
"X c #482F12",
"o c #471729",
"O c #754A1C",
"+ c #954012",
"@ c #F7681D",
"# c #922E54",
"$ c #F9AD81",
"% c white",
/* pixels */
"                                                                ",
"                                                                ",
"                OOOOOOOOOOOOOOOOOOOOOOOOOOOOOOOO                ",
"                OOOOOOOOOOOOOOOOOOOOOOOOOOOOOOOO                ",
"              OOOOOOOOOOOOOOOOOOOOOOOOOOOOOOOOOOOO              ",
"              OOOOOOOOOOOOOOOOOOOOOOOOOOOOOOOOOOOO              ",
"            OOOOOOOOOOOOOOOOOOOOOOOOOOOOOOOOOOOOOOOO            ",
"            OOOOOOOOOOOOOOOOOOOOOOOOOOOOOOOOOOOOOOOO            ",
"          OOOOOOOOOOOOOOOOOOOOOOOOOOOOOOOOOOOOOOOOOOOO          ",
"          OOOOOOOOOOOOOOOOOOOOOOOOOOOOOOOOOOOOOOOOOOOO          ",
"        OOOOOOOOOOOOOOOOOOOOOOOOOOOOOOOOOOOOOOOOOOOOOOOO        ",
"        OOOOOOOOOOOOOOOOOOOOOOOOOOOOOOOOOOOOOOOOOOOOOOOO        ",
"      OOOOOOOOOOOOOOOOOOOOOOOOOOOOOOOOOOOOOOOOOOOOOOOOOOOO      ",
"      OOOOOOOOOOOOOOOOOOOOOOOOOOOOOOOOOOOOOOOOOOOOOOOOOOOO      ",
"    OOOOOOOOOOOOOOOOOOOOOOOOOOOOOOOOOOOOOOOOOOOOOOOOOOOOOOOO    ",
"    OOOOOOOOOOOOOOOOOOOOOOOOOOOOOOOOOOOOOOOOOOOOOOOOOOOOOOOO    ",
"    OOOOOOOOOOOOOOOOOOOOOOOOOOOOOOOOOOOOOOOOOOOOOOOOOOOOOOOO    ",
"    OOOOOOOOOOOOOOOOOOOOOOOOOOOOOOOOOOOOOOOOOOOOOOOOOOOOOOOO    ",
"    OOOOOOOOOOOOOOOOOOOOOOOOOOOOOOOOOOOOOOOOOOOOOOOOOOOOOOOO    ",
"    OOOOOOOOOOOOOOOOOOOOOOOOOOOOOOOOOOOOOOOOOOOOOOOOOOOOOOOO    ",
"    OOOOOOOOOOOOOOOOOOOOOOOOOOOOOOOOOOOOOOOOOOOOOOOOOOOOOOOO    ",
"    OOOOOOOOOOOOOOOOOOOOOOOOOOOOOOOOOOOOOOOOOOOOOOOOOOOOOOOO    ",
"    OOOOOOOOOOOOOOOOOOOOOOOOOOOOOOOOOOOOOOOOOOOOOOOOOOOOOOOO    ",
"    OOOOOOOOOOOOOOOOOOOOOOOOOOOOOOOOOOOOOOOOOOOOOOOOOOOOOOOO    ",
"    OOOOOOOOOOOOOOOOOOOOOOOOOOOOOOOOOOOOOOOOOOOOOOOOOOOOOOOO    ",
"    OOOOOOOOOOOOOOOOOOOOOOOOOOOOOOOOOOOOOOOOOOOOOOOOOOOOOOOO    ",
"    XXOOOOOOOOOOOOOOOOOOOOOOOOOOOOOOOOOOOOOOOOOOOOOOOOOOOOXX    ",
"    XXOOOOOOOOOOOOOOOOOOOOOOOOOOOOOOOOOOOOOOOOOOOOOOOOOOOOXX    ",
"    XXXXOOOOOOOOOOOOOOOOOOOOOOOOOOOOOOOOOOOOOOOOOOOOOOOOXXXX    ",
"    XXXXOOOOOOOOOOOOOOOOOOOOOOOOOOOOOOOOOOOOOOOOOOOOOOOOXXXX    ",
"    XXXXXXOOOOOOOOOOOOOOOOOOOOOOOOOOOOOOOOOOOOOOOOOOOOXXXXXX    ",
"    XXXXXXOOOOOOOOOOOOOOOOOOOOOOOOOOOOOOOOOOOOOOOOOOOOXXXXXX    ",
"    XXXXXXXXXXXXXXXXXXXXXXXXXXXXXXXXXXXXXXXXXXXXXXXXXXXXXXXX    ",
"    XXXXXXXXXXXXXXXXXXXXXXXXXXXXXXXXXXXXXXXXXXXXXXXXXXXXXXXX    ",
"    XXXXXXXXXXXXXXXXXXXXXXXXXXXXXXXXXXXXXXXXXXXXXXXXXXXXXXXX    ",
"    XXXXXXXXXXXXXXXXXXXXXXXXXXXXXXXXXXXXXXXXXXXXXXXXXXXXXXXX    ",
"    XXXXXXXXXXXXXXXXXXXXXXXXXXXXXXXXXXXXXXXXXXXXXXXXXXXXXXXX    ",
"    XXXXXXXXXXXXXXXXXXXXXXXXXXXXXXXXXXXXXXXXXXXXXXXXXXXXXXXX    ",
"      XXXXXXXXXXXXXXXXXXXXXXXXXXXXXXXXXXXXXXXXXXXXXXXXXXXX      ",
"      XXXXXXXXXXXXXXXXXXXXXXXXXXXXXXXXXXXXXXXXXXXXXXXXXXXX      ",
"        XXXXXXXXXXXXXXXXXXXXXXXXXXXXXXXXXXXXXXXXXXXXXXXX        ",
"        XXXXXXXXXXXXXXXXXXXXXXXXXXXXXXXXXXXXXXXXXXXXXXXX        ",
"          XXXXXXXXXXXXXXXXXXXXXXXXXXXXXXXXXXXXXXXXXXXX          ",
"          XXXXXXXXXXXXXXXXXXXXXXXXXXXXXXXXXXXXXXXXXXXX          ",
"            XXXXXXXXXXXXXXXXXXXXXXXXXXXXXXXXXXXXXXXX            ",
"            XXXXXXXXXXXXXXXXXXXXXXXXXXXXXXXXXXXXXXXX            ",
"                oooooooooooooooooooooooooooooooo                ",
"                oooooooooooooooooooooooooooooooo                ",
"            $$##oooooooooooooooooooooooooooooooo##$$            ",
"            $$##oooooooooooooooooooooooooooooooo##$$            ",
"          $$$$####################################$$$$          ",
"          $$$$####################################$$$$          ",
"            $$####################################$$            ",
"            $$####################################$$            ",
"                ################################                ",
"                ################################                ",
"                @@@@@@@@@@@@@@@@@@@@@@@@@@@@@@@@                ",
"                @@@@@@@@@@@@@@@@@@@@@@@@@@@@@@@@                ",
"                ++++++++++++++....++++++++++++++                ",
"                ++++++++++++++....++++++++++++++                ",
"                  %%%%%%%%............%%%%%%%%                  ",
"                  %%%%%%%%............%%%%%%%%                  ",
"                    %%%%................%%%%                    ",
"                    %%%%................%%%%                    "
};
