/* XPM */
static char *bWF4X2QrY29weQ__[] = {
/* columns rows colors chars-per-pixel */
"64 64 14 1 ",
"  c black",
". c #482F12",
"X c #754A1C",
"o c #682447",
"O c #375477",
"+ c #8B4063",
"@ c #BC5F6E",
"# c #5686C1",
"$ c #F48899",
"% c #F9AD81",
"& c #FFEFCD",
"* c gray89",
"= c white",
"- c None",
/* pixels */
"----------------------------------------------------------------",
"----------------------------------------------------------------",
"----------------XXXXXXXXXXXXXXXXXXXXXXXXXXXXXXXX----------------",
"----------------XXXXXXXXXXXXXXXXXXXXXXXXXXXXXXXX----------------",
"--------------XXXXXXXXXXXXXXXXXXXXXXXXXXXXXXXXXXXX--------------",
"--------------XXXXXXXXXXXXXXXXXXXXXXXXXXXXXXXXXXXX--------------",
"------------XXXXXXXXXXXXXXXXXXXXXXXXXXXXXXXXXXXXXXXX------------",
"------------XXXXXXXXXXXXXXXXXXXXXXXXXXXXXXXXXXXXXXXX------------",
"----------XXXXXXXXXXXXXXXXXXXXXXXXXXXXXXXXXXXXXXXXXXXX----------",
"----------XXXXXXXXXXXXXXXXXXXXXXXXXXXXXXXXXXXXXXXXXXXX----------",
"--------XXXXXXXXXXXXXXXXXXXXXXXXXXXXXXXXXXXXXXXXXXXXXXXX--------",
"--------XXXXXXXXXXXXXXXXXXXXXXXXXXXXXXXXXXXXXXXXXXXXXXXX--------",
"------XXXXXXXXXXXXXXXXXXXXXXXXXXXXXXXXXXXXXXXXXXXXXXXXXXXX------",
"------XXXXXXXXXXXXXXXXXXXXXXXXXXXXXXXXXXXXXXXXXXXXXXXXXXXX------",
"----XXXXXXXXXXXXXXXXXXXXXXXXXXXXXXXXXXXXXXXXXXXXXXXXXXXXXXXX----",
"----XXXXXXXXXXXXXXXXXXXXXXXXXXXXXXXXXXXXXXXXXXXXXXXXXXXXXXXX----",
"----XXXXXXXXXXXXXXXXXXXXXXXXXXXXXXXXXXXXXXXXXXXXXXXXXXXXXXXX----",
"----XXXXXXXXXXXXXXXXXXXXXXXXXXXXXXXXXXXXXXXXXXXXXXXXXXXXXXXX----",
"----XXXXXXXXXXXXXXXX........................XXXXXXXXXXXXXXXX----",
"----XXXXXXXXXXXXXXXX........................XXXXXXXXXXXXXXXX----",
"----XXXXXXXXXXXXXX..%%%%%%%%%%%%%%%%%%%%%%%%..XXXXXXXXXXXXXX----",
"----XXXXXXXXXXXXXX..%%%%%%%%%%%%%%%%%%%%%%%%..XXXXXXXXXXXXXX----",
"----XXXXXXXXXXXX..%%%%%%%%%%%%%%%%%%%%%%%%%%%%..XXXXXXXXXXXX----",
"----XXXXXXXXXXXX..%%%%%%%%%%%%%%%%%%%%%%%%%%%%..XXXXXXXXXXXX----",
"----..XXXXXXooooooooooooooooooooooooooooooooooooooooXXXXXX..----",
"----..XXXXXXooooooooooooooooooooooooooooooooooooooooXXXXXX..----",
"----..XXoooooo@@@@$$$$$$$$$$oooooooo$$$$$$$$$$@@@@ooooooXX..----",
"----..XXoooooo@@@@$$$$$$$$$$oooooooo$$$$$$$$$$@@@@ooooooXX..----",
"----....oooooo@@@@$$$$$$$$$$oooooooo$$$$$$$$$$@@@@oooooo....----",
"----....oooooo@@@@$$$$$$$$$$oooooooo$$$$$$$$$$@@@@oooooo....----",
"----........oo@@@@@@@@@@@@$$oo%%%%oo$$@@@@@@@@@@@@oo........----",
"----........oo@@@@@@@@@@@@$$oo%%%%oo$$@@@@@@@@@@@@oo........----",
"----........oo@@@@++++++$$$$oo%%%%oo$$$$++++++@@@@oo........----",
"----........oo@@@@++++++$$$$oo%%%%oo$$$$++++++@@@@oo........----",
"----........oo@@@@$$$$$$$$$$oo%%%%oo$$$$$$$$$$@@@@oo........----",
"----........oo@@@@$$$$$$$$$$oo%%%%oo$$$$$$$$$$@@@@oo........----",
"----........oo@@@@$$$$$$$$$$oo%%%%oo$$$$$$$$$$@@@@oo........----",
"----........oo@@@@$$$$$$$$$$oo%%%%oo$$$$$$$$$$@@@@oo........----",
"------........oo@@$$$$$$$$oo&&&&&&&&oo$$$$$$$$@@oo........------",
"------........oo@@$$$$$$$$oo&&&&&&&&oo$$$$$$$$@@oo........------",
"--------........oooooooooo&&&&&&&&&&&&oooooooooo........--------",
"--------........oooooooooo&&&&&&&&&&&&oooooooooo........--------",
"----------........%%%%%%&&            &&%%%%%%........----------",
"----------........%%%%%%&&            &&%%%%%%........----------",
"------------......%%%%%%&&&&        %%&&&&%%%%......------------",
"------------......%%%%%%&&&&        %%&&&&%%%%......------------",
"----------------**********&&&&%%%%%%%%**********----------------",
"----------------**********&&&&%%%%%%%%**********----------------",
"------------%%==************&&%%%%%%************==%%------------",
"------------%%==************&&%%%%%%************==%%------------",
"----------%%%%====******====**%%%%**====******====%%%%----------",
"----------%%%%====******====**%%%%**====******====%%%%----------",
"------------%%======**======**%%%%**======**======%%------------",
"------------%%======**======**%%%%**======**======%%------------",
"----------------==============****==============----------------",
"----------------==============****==============----------------",
"----------------##############OOOO##############----------------",
"----------------##############OOOO##############----------------",
"----------------##############    ##############----------------",
"----------------##############    ##############----------------",
"----------------OOOOOOOOOOOOOO    OOOOOOOOOOOOOO----------------",
"----------------OOOOOOOOOOOOOO    OOOOOOOOOOOOOO----------------",
"------------------========            ========------------------",
"------------------========            ========------------------"
};
