/* XPM */
static char *result[] = {
/* columns rows colors chars-per-pixel */
"64 64 9 1 ",
"  c #FF0F62",
". c #906177",
"X c #FF7BA9",
"o c #7BB9FF",
"O c #F9AD81",
"+ c #9AF981",
"@ c #C0C0C0",
"# c white",
"$ c None",
/* pixels */
"$$$$$$$$$$$$$$@@@@@@@@@@@@@@@@@@@@@@@@@@@@@@@@@@@@$$$$$$$$$$$$$$",
"$$$$$$$$$$$$$$@@@@@@@@@@@@@@@@@@@@@@@@@@@@@@@@@@@@$$$$$$$$$$$$$$",
"$$$$$$$$$$$$@@@@@@@@@@@@@@@@@@@@@@@@@@@@@@@@@@@@@@@@$$$$$$$$$$$$",
"$$$$$$$$$$$$@@@@@@@@@@@@@@@@@@@@@@@@@@@@@@@@@@@@@@@@$$$$$$$$$$$$",
"$$$$$$$$$$@@@@@@@@@@@@@@@@@@@@@@@@@@@@@@@@@@@@@@@@@@@@$$$$$$$$$$",
"$$$$$$$$$$@@@@@@@@@@@@@@@@@@@@@@@@@@@@@@@@@@@@@@@@@@@@$$$$$$$$$$",
"$$$$$$$$@@@@@@@@@@@@@@@@@@@@@@@@@@@@@@@@@@@@@@@@@@@@@@@@$$$$$$$$",
"$$$$$$$$@@@@@@@@@@@@@@@@@@@@@@@@@@@@@@@@@@@@@@@@@@@@@@@@$$$$$$$$",
"$$$$$$@@@@@@@@@@@@@@@@@@@@@@@@@@@@@@@@@@@@@@@@@@@@@@@@@@@@$$$$$$",
"$$$$$$@@@@@@@@@@@@@@@@@@@@@@@@@@@@@@@@@@@@@@@@@@@@@@@@@@@@$$$$$$",
"$$$$@@@@@@@@@@@@@@@@@@@@@@@@@@@@@@@@@@@@@@@@@@@@@@@@@@@@@@@@$$$$",
"$$$$@@@@@@@@@@@@@@@@@@@@@@@@@@@@@@@@@@@@@@@@@@@@@@@@@@@@@@@@$$$$",
"$$$$@@@@@@@@@@@@@@@@@@@@@@@@@@@@@@@@@@@@@@@@@@@@@@@@@@@@@@@@$$$$",
"$$$$@@@@@@@@@@@@@@@@@@@@@@@@@@@@@@@@@@@@@@@@@@@@@@@@@@@@@@@@$$$$",
"$$$$@@@@@@@@@@@@@@@@@@@@@@@@@@@@@@@@@@@@@@@@@@@@@@@@@@@@@@@@$$$$",
"$$$$@@@@@@@@@@@@@@@@@@@@@@@@@@@@@@@@@@@@@@@@@@@@@@@@@@@@@@@@$$$$",
"$$$$@@@@@@@@@@@@@@@@@@@@@@@@@@@@@@@@@@@@@@@@@@@@@@@@@@@@@@@@$$$$",
"$$$$@@@@@@@@@@@@@@@@@@@@@@@@@@@@@@@@@@@@@@@@@@@@@@@@@@@@@@@@$$$$",
"$$$$@@@@@@@@@@@@@@@@@@@@@@@@@@@@@@@@@@@@@@@@@@@@@@@@@@@@@@@@$$$$",
"$$$$@@@@@@@@@@@@@@@@@@@@@@@@@@@@@@@@@@@@@@@@@@@@@@@@@@@@@@@@$$$$",
"$$$$@@@@@@@@@@@@@@@@@@@@@@@@@@@@@@@@@@@@@@@@@@@@@@@@@@@@@@@@$$$$",
"$$$$@@@@@@@@@@@@@@@@@@@@@@@@@@@@@@@@@@@@@@@@@@@@@@@@@@@@@@@@$$$$",
"$$$$@@@@@@@@@@@@@@@@@@@@@@@@@@@@@@@@@@@@@@@@@@@@@@@@@@@@@@@@$$$$",
"$$$$@@@@@@@@@@@@@@@@@@@@@@@@@@@@@@@@@@@@@@@@@@@@@@@@@@@@@@@@$$$$",
"$$$$@@@@@@@@@@@@@@@@@@@@@@@@@@@@@@@@@@@@@@@@@@@@@@@@@@@@@@@@$$$$",
"$$$$@@@@@@@@@@@@@@@@@@@@@@@@@@@@@@@@@@@@@@@@@@@@@@@@@@@@@@@@$$$$",
"$$$$@@@@@@@@@@@@@@@@@@@@@@@@@@@@@@@@@@@@@@@@@@@@@@@@@@@@@@@@$$$$",
"$$$$@@@@@@@@@@@@@@@@@@@@@@@@@@@@@@@@@@@@@@@@@@@@@@@@@@@@@@@@$$$$",
"$$$$@@@@@@@@@@@@@@@@@@@@@@@@@@@@@@@@@@@@@@@@@@@@@@@@@@@@@@@@$$$$",
"$$$$@@@@@@@@@@@@@@@@@@@@@@@@@@@@@@@@@@@@@@@@@@@@@@@@@@@@@@@@$$$$",
"$$$$@@@@@@@@@@OOOOOO........OOOOOOOO........OOOOOO@@@@@@@@@@$$$$",
"$$$$@@@@@@@@@@OOOOOO........OOOOOOOO........OOOOOO@@@@@@@@@@$$$$",
"$$$$$$@@@@@@@@@@OOOO##oooo##OOOOOOOO##oooo##OOOO@@@@@@@@@@$$$$$$",
"$$$$$$@@@@@@@@@@OOOO##oooo##OOOOOOOO##oooo##OOOO@@@@@@@@@@$$$$$$",
"$$$$$$$$@@@@@@@@OOOO########OOOOOOOO########OOOO@@@@@@@@$$$$$$$$",
"$$$$$$$$@@@@@@@@OOOO########OOOOOOOO########OOOO@@@@@@@@$$$$$$$$",
"$$$$$$$$$$@@@@@@OOOOOOOOOOOOOOOOOOOOOOOOOOOOOOOO@@@@@@$$$$$$$$$$",
"$$$$$$$$$$@@@@@@OOOOOOOOOOOOOOOOOOOOOOOOOOOOOOOO@@@@@@$$$$$$$$$$",
"$$$$$$$$$$$$@@@@OOOOOOOOOOOOOOOOOOOOOOOOOOOOOOOO@@@@$$$$$$$$$$$$",
"$$$$$$$$$$$$@@@@OOOOOOOOOOOOOOOOOOOOOOOOOOOOOOOO@@@@$$$$$$$$$$$$",
"$$$$$$$$$$$$$$@@OOOOOOOOOOOOXXXXXXXXOOOOOOOOOOOO@@$$$$$$$$$$$$$$",
"$$$$$$$$$$$$$$@@OOOOOOOOOOOOXXXXXXXXOOOOOOOOOOOO@@$$$$$$$$$$$$$$",
"$$$$$$$$$$$$$$$$OOOOOOOOOO            OOOOOOOOOO$$$$$$$$$$$$$$$$",
"$$$$$$$$$$$$$$$$OOOOOOOOOO            OOOOOOOOOO$$$$$$$$$$$$$$$$",
"$$$$$$$$$$$$$$$$OOOOOOOOOOOO        OOOOOOOOOOOO$$$$$$$$$$$$$$$$",
"$$$$$$$$$$$$$$$$OOOOOOOOOOOO        OOOOOOOOOOOO$$$$$$$$$$$$$$$$",
"$$$$$$$$$$$$OOOO++OOOOOOOOOOOOOOOOOOOOOOOOOOOO++OOOO$$$$$$$$$$$$",
"$$$$$$$$$$$$OOOO++OOOOOOOOOOOOOOOOOOOOOOOOOOOO++OOOO$$$$$$$$$$$$",
"$$$$$$$$$$OOOOOOOO++OOOOOOOO++++++++OOOOOOOO++OOOOOOOO$$$$$$$$$$",
"$$$$$$$$$$OOOOOOOO++OOOOOOOO++++++++OOOOOOOO++OOOOOOOO$$$$$$$$$$",
"$$$$$$$$$$$$OOOOOOOO++++++++OOOOOOOO++++++++OOOOOOOO$$$$$$$$$$$$",
"$$$$$$$$$$$$OOOOOOOO++++++++OOOOOOOO++++++++OOOOOOOO$$$$$$$$$$$$",
"$$$$$$$$$$$$$$$$OOOO++++++++OOOOOOOO++++++++OOOO$$$$$$$$$$$$$$$$",
"$$$$$$$$$$$$$$$$OOOO++++++++OOOOOOOO++++++++OOOO$$$$$$$$$$$$$$$$",
"$$$$$$$$$$$$$$$$OOOOOOOOOOOOOOOOOOOOOOOOOOOOOOOO$$$$$$$$$$$$$$$$",
"$$$$$$$$$$$$$$$$OOOOOOOOOOOOOOOOOOOOOOOOOOOOOOOO$$$$$$$$$$$$$$$$",
"$$$$$$$$$$$$$$$$++++++++++++++++++++++++++++++++$$$$$$$$$$$$$$$$",
"$$$$$$$$$$$$$$$$++++++++++++++++++++++++++++++++$$$$$$$$$$$$$$$$",
"$$$$$$$$$$$$$$$$OOOOOOOOOO$$$$$$$$$$$$OOOOOOOOOO$$$$$$$$$$$$$$$$",
"$$$$$$$$$$$$$$$$OOOOOOOOOO$$$$$$$$$$$$OOOOOOOOOO$$$$$$$$$$$$$$$$",
"$$$$$$$$$$$$$$$$$$OOOOOOOO$$$$$$$$$$$$OOOOOOOO$$$$$$$$$$$$$$$$$$",
"$$$$$$$$$$$$$$$$$$OOOOOOOO$$$$$$$$$$$$OOOOOOOO$$$$$$$$$$$$$$$$$$",
"$$$$$$$$$$$$$$$$$$$$OOOO$$$$$$$$$$$$$$$$OOOO$$$$$$$$$$$$$$$$$$$$",
"$$$$$$$$$$$$$$$$$$$$OOOO$$$$$$$$$$$$$$$$OOOO$$$$$$$$$$$$$$$$$$$$"
};
