/* XPM */
static char *result[] = {
/* columns rows colors chars-per-pixel */
"64 64 11 1 ",
"  c #0D090B",
". c #170109",
"X c #170B0F",
"o c #02100A",
"O c #03160E",
"+ c #0E160C",
"@ c #171500",
"# c #16100C",
"$ c #0B1117",
"% c gray9",
"& c None",
/* pixels */
"&&&&&&&&&&&&&&&&&&&&&&&&&&&&&&&&&&&&&&&&&&&&&&&&&&&&&&&&&&&&&&&&",
"&&&&&&&&&&&&&&&&&&&&&&&&&&&&&&&&&&&&&&&&&&&&&&&&&&&&&&&&&&&&&&&&",
"&&&&&&&&&&&&&&&&&&&&&&oooooooooooooo&&&&&&&&&&&&&&&&&&&&&&&&&&&&",
"&&&&&&&&&&&&&&&&&&&&&&oooooooooooooo&&&&&&&&&&&&&&&&&&&&&&&&&&&&",
"&&&&&&&&&&&&&&&&&&&&oooooooooooooooooooo&&&&&&&&&&&&&&&&&&&&&&&&",
"&&&&&&&&&&&&&&&&&&&&oooooooooooooooooooo&&&&&&&&&&&&&&&&&&&&&&&&",
"&&&&&&&&&&&&&&&&&&&&oooooooooooooooooooooooo&&&&&&&&&&&&&&&&&&&&",
"&&&&&&&&&&&&&&&&&&&&oooooooooooooooooooooooo&&&&&&&&&&&&&&&&&&&&",
"&&&&&&&&&&&&&&&&&&OOoooooooooooooooooooooooooooo&&&&&&&&&&&&&&&&",
"&&&&&&&&&&&&&&&&&&OOoooooooooooooooooooooooooooo&&&&&&&&&&&&&&&&",
"&&&&&&&&&&&&&&&&OOOOOOoooooooooooooooooooooooooooo&&&&&&&&&&&&&&",
"&&&&&&&&&&&&&&&&OOOOOOoooooooooooooooooooooooooooo&&&&&&&&&&&&&&",
"&&&&&&&&&&&&&&&&OOOOOOOOOOoooooooooooooooooooooooooo&&&&&&&&&&&&",
"&&&&&&&&&&&&&&&&OOOOOOOOOOoooooooooooooooooooooooooo&&&&&&&&&&&&",
"&&&&&&&&&&&&&&&&OOOOOOOOOOOOOOoooooooooooooooooooooo&&&&&&&&&&&&",
"&&&&&&&&&&&&&&&&OOOOOOOOOOOOOOoooooooooooooooooooooo&&&&&&&&&&&&",
"&&&&&&&&&&&&&&&&####################oooooooooooooooo&&&&&&&&&&&&",
"&&&&&&&&&&&&&&&&####################oooooooooooooooo&&&&&&&&&&&&",
"&&&&&&&&&&&&&&&&########################oooooooooo&&&&&&&&&&&&&&",
"&&&&&&&&&&&&&&&&########################oooooooooo&&&&&&&&&&&&&&",
"&&&&&&&&&&&&&&&&################################&&&&&&&&&&&&&&&&",
"&&&&&&&&&&&&&&&&################################&&&&&&&&&&&&&&&&",
"&&&&&&&&&&&&&&&&################################&&&&&&&&&&&&&&&&",
"&&&&&&&&&&&&&&&&################################&&&&&&&&&&&&&&&&",
"&&&&&&&&&&&&&&&&################################&&&&&&&&&&&&&&&&",
"&&&&&&&&&&&&&&&&################################&&&&&&&&&&&&&&&&",
"&&&&&&&&&&&&&&####################################&&&&&&&&&&&&&&",
"&&&&&&&&&&&&&&####################################&&&&&&&&&&&&&&",
"&&&&&&&&&&&&&&####################################&&&&&&&&&&&&&&",
"&&&&&&&&&&&&&&####################################&&&&&&&&&&&&&&",
"&&&&&&&&&&&&&&######        ########        ######&&&&&&&&&&&&&&",
"&&&&&&&&&&&&&&######        ########        ######&&&&&&&&&&&&&&",
"&&&&&&&&&&&&@@&&####%%$$$$%%########%%$$$$%%####&&@@&&&&&&&&&&&&",
"&&&&&&&&&&&&@@&&####%%$$$$%%########%%$$$$%%####&&@@&&&&&&&&&&&&",
"&&&&&&&&&&&&@@&&####%%%%%%%%########%%%%%%%%####&&@@&&&&&&&&&&&&",
"&&&&&&&&&&&&@@&&####%%%%%%%%########%%%%%%%%####&&@@&&&&&&&&&&&&",
"&&&&&&&&&&&&&&@@################################@@&&&&&&&&&&&&&&",
"&&&&&&&&&&&&&&@@################################@@&&&&&&&&&&&&&&",
"&&&&&&&&&&&&&&&&################################&&&&&&&&&&&&&&&&",
"&&&&&&&&&&&&&&&&################################&&&&&&&&&&&&&&&&",
"&&&&&&&&&&&&&&&&############XXXXXXXX############&&&&&&&&&&&&&&&&",
"&&&&&&&&&&&&&&&&############XXXXXXXX############&&&&&&&&&&&&&&&&",
"&&&&&&&&&&&&&&&&##########............##########&&&&&&&&&&&&&&&&",
"&&&&&&&&&&&&&&&&##########............##########&&&&&&&&&&&&&&&&",
"&&&&&&&&&&&&&&&&############........############&&&&&&&&&&&&&&&&",
"&&&&&&&&&&&&&&&&############........############&&&&&&&&&&&&&&&&",
"&&&&&&&&&&&&####++############################++####&&&&&&&&&&&&",
"&&&&&&&&&&&&####++############################++####&&&&&&&&&&&&",
"&&&&&&&&&&########++########++++++++########++########&&&&&&&&&&",
"&&&&&&&&&&########++########++++++++########++########&&&&&&&&&&",
"&&&&&&&&&&&&########++++++++########++++++++########&&&&&&&&&&&&",
"&&&&&&&&&&&&########++++++++########++++++++########&&&&&&&&&&&&",
"&&&&&&&&&&&&&&&&####++++++++########++++++++####&&&&&&&&&&&&&&&&",
"&&&&&&&&&&&&&&&&####++++++++########++++++++####&&&&&&&&&&&&&&&&",
"&&&&&&&&&&&&&&&&################################&&&&&&&&&&&&&&&&",
"&&&&&&&&&&&&&&&&################################&&&&&&&&&&&&&&&&",
"&&&&&&&&&&&&&&&&++++++++++++++++++++++++++++++++&&&&&&&&&&&&&&&&",
"&&&&&&&&&&&&&&&&++++++++++++++++++++++++++++++++&&&&&&&&&&&&&&&&",
"&&&&&&&&&&&&&&&&##########&&&&&&&&&&&&##########&&&&&&&&&&&&&&&&",
"&&&&&&&&&&&&&&&&##########&&&&&&&&&&&&##########&&&&&&&&&&&&&&&&",
"&&&&&&&&&&&&&&&&&&########&&&&&&&&&&&&########&&&&&&&&&&&&&&&&&&",
"&&&&&&&&&&&&&&&&&&########&&&&&&&&&&&&########&&&&&&&&&&&&&&&&&&",
"&&&&&&&&&&&&&&&&&&&&####&&&&&&&&&&&&&&&&####&&&&&&&&&&&&&&&&&&&&",
"&&&&&&&&&&&&&&&&&&&&####&&&&&&&&&&&&&&&&####&&&&&&&&&&&&&&&&&&&&"
};
