/* XPM */
static char *c77014576511485cea62a490ec11eb2dp5jqOcFx2KdAtFcL[] = {
/* columns rows colors chars-per-pixel */
"64 64 12 1 ",
"  c None",
". c #0D090B",
"X c #170109",
"o c #170B0F",
"O c #02100A",
"+ c #03160E",
"@ c #0E160C",
"# c #171500",
"$ c #16100C",
"% c #0B1117",
"& c #111111",
"* c gray9",
/* pixels */
"                                                                ",
"                                                                ",
"                                                                ",
"                                                                ",
"                                                                ",
"                                                                ",
"                      OOOOOOOOOOOOOO                            ",
"                      OOOOOOOOOOOOOO                            ",
"                    OOOOOOOOOOOOOOOOOOOOOOOO                    ",
"                    OOOOOOOOOOOOOOOOOOOOOOOO                    ",
"                  OOOOOOOOOOOOOOOOOOOOOOOOOOOO                  ",
"                  OOOOOOOOOOOOOOOOOOOOOOOOOOOO                  ",
"                OO++OOOOOOOOOOOOOOOOOOOOOOOOOOOO                ",
"                OO++OOOOOOOOOOOOOOOOOOOOOOOOOOOO                ",
"                ++++++OOOOOOOOOOOOOOOOOOOOOOOOOOOO              ",
"                ++++++OOOOOOOOOOOOOOOOOOOOOOOOOOOO              ",
"                ++++++++++OOOOOOOOOOOOOOOOOOOOOOOOOO            ",
"                ++++++++++OOOOOOOOOOOOOOOOOOOOOOOOOO            ",
"                ++++++++++++++OOOOOOOOOOOOOOOOOOOOOO            ",
"                ++++++++++++++OOOOOOOOOOOOOOOOOOOOOO            ",
"                $$$$$$$$$$$$$$$$$$$$OOOOOOOOOOOOOOOO            ",
"                $$$$$$$$$$$$$$$$$$$$OOOOOOOOOOOOOOOO            ",
"                $$$$$$$$$$$$$$$$$$$$$$$$OOOOOOOOOO              ",
"                $$$$$$$$$$$$$$$$$$$$$$$$OOOOOOOOOO              ",
"                $$$$$$$$$$$$$$$$$$$$$$$$$$$$$$$$                ",
"                $$$$$$$$$$$$$$$$$$$$$$$$$$$$$$$$                ",
"                $$$$$$$$$$$$$$$$$$$$$$$$$$$$$$$$                ",
"                $$$$$$$$$$$$$$$$$$$$$$$$$$$$$$$$                ",
"              $$$$$$$$$$$$$$$$$$$$$$$$$$$$$$$$$$$$              ",
"              $$$$$$$$$$$$$$$$$$$$$$$$$$$$$$$$$$$$              ",
"              $$$$$$$$$$$$$$$$$$$$$$$$$$$$$$$$$$$$              ",
"              $$$$$$........$$$$$$$$........$$$$$$              ",
"              $$$$$$........$$$$$$$$........$$$$$$              ",
"              $$$$$$**%%%%**$$$$$$$$**%%%%**$$$$$$              ",
"            ##  $$$$**%%%%**$$$$$$$$**%%%%**$$$$  ##            ",
"            ##  $$$$********$$$$$$$$********$$$$  ##            ",
"            ##  $$$$********$$$$$$$$********$$$$  ##            ",
"            ##  $$$$$$$$$$$$$$$$$$$$$$$$$$$$$$$$  ##            ",
"              ##$$$$$$$$$$$$$$$$$$$$$$$$$$$$$$$$##              ",
"              ##$$$$$$$$$$$$$$$$$$$$$$$$$$$$$$$$##              ",
"                $$$$$$$$$$$$$$$$$$$$$$$$$$$$$$$$                ",
"                $$$$$$$$$$$$oooooooo$$$$$$$$$$$$                ",
"                $$$$$$$$$$$$oooooooo$$$$$$$$$$$$                ",
"                $$$$$$$$$$XXXXXXXXXXXX$$$$$$$$$$                ",
"            $$$$$$$$$$$$$$XXXXXXXXXXXX$$$$$$$$$$$$$$            ",
"            $$$$$$$$$$$$$$$$XXXXXXXX$$$$$$$$$$$$$$$$            ",
"          $$$$$$@@$$$$$$$$$$XXXXXXXX$$$$$$$$$$@@$$$$$$          ",
"          $$$$$$@@$$$$$$$$$$$$$$$$$$$$$$$$$$$$@@$$$$$$          ",
"            $$$$$$@@$$$$$$$$@@@@@@@@$$$$$$$$@@$$$$$$            ",
"            $$$$$$@@$$$$$$$$@@@@@@@@$$$$$$$$@@$$$$$$            ",
"                $$$$@@@@@@@@$$$$$$$$@@@@@@@@$$$$                ",
"                $$$$@@@@@@@@$$$$$$$$@@@@@@@@$$$$                ",
"                $$$$@@@@@@@@$$$$$$$$@@@@@@@@$$$$                ",
"                $$$$@@@@@@@@$$$$$$$$@@@@@@@@$$$$                ",
"                $$$$$$$$$$$$$$$$$$$$$$$$$$$$$$$$                ",
"                $$$$$$$$$$$$$$$$$$$$$$$$$$$$$$$$                ",
"                @@@@@@@@@@@@@@@@@@@@@@@@@@@@@@@@                ",
"                @@@@@@@@@@@@@@@@@@@@@@@@@@@@@@@@                ",
"                $$$$$$$$$$$$$$$$$$$$$$$$$$$$$$$$                ",
"                $$$$$$$$$$$$$$$$$$$$$$$$$$$$$$$$                ",
"                &&&&&&&&            &&&&&&&&                    ",
"                &&&&&&&&            &&&&&&&&                    ",
"                  &&&&                &&&&                      ",
"                  &&&&                &&&&                      "
};
