/* XPM */
static char *_593cff86d39475ac20abb7f3c689817qSzMYJBY5vDQPVEi[] = {
/* columns rows colors chars-per-pixel */
"298 24 2 1 ",
"  c None",
". c #FFD303",
/* pixels */
"                                                                                                                                                                                                                                                                                                  ....... ",
"                                                                                                                                                                                                                                                                                                 ........ ",
" .....         ......   ....................  .....         ......        .....         ......     .................         ...............  .....          .....           ...........               ...........        ..............      .................      ....................        ........ ",
" ......        ......   ....................  .....         ......       ......         ......    ..................         ...............  ......        ......           ............             ............       ...............     ..................     .....................        ........ ",
" .....         ......   ....................  .....         ......       ......         ......    ..................         ...............  ......        ......           ...........              ............        ..............     ..................     .....................        ........ ",
" ........      ......   ......                .....         ......       ......         ......          ......            ......              ......        ......        ......      .....         ......     ......  ......        ....    ......         ......  .......                      ........ ",
" .........     ......   ......                .....         ......       ......         ......          ......            ......              ......        ......        ......      .....        .......     ......  ......        ......  ......         ......  ......                       ........ ",
" ........      ......   ......                .....         ......       ......         ......          ......            ......              ......        ......        ......      .....        .......     ......  ......        ......  ......         ......  ......                       ........ ",
" ...........   ......   ......                .....   ...   ......       ......         ......          ......         ......                 ......        ......        ......                 ......                ......        ......  ......         ......  ......                       ........ ",
" ...........   ......   ......                .....   ...   ......       ......         ......          ......         ......                 ......        ......        ......                 ......                ......        ......  ......         ......  ......                       ........ ",
" ...........   ......   ......                .....   ...   ......       ......         ......          ......         ......                 ......        ......        ......                 ......                ......        ......  ......         ......  ......                       ........ ",
" ............  ......   ..............        ....................       .....................          ......         ......                 ....................           ..............      ......                ......        ......  ......      .........  ...............              ........ ",
" ....................   ...............       ....................       .....................          ......         ......      .........  ....................           ..............      ......                ......        ......  ......      .........  ...............              ........ ",
" ....................   ..............        ....................       .....................          ......         ......      .........  ....................           ..............      ......                ......        ......  ......      .........  ...............              ........ ",
" ......  ............   ......                ....................       ......         ......          ......         ......      .........  ......         .....                      ......   ......                ......        ......  ...............        ......                       ........ ",
" ......  ............   ......                ....................       ......         ......          ......         ......         ......  ......         .....                      ......   ......                ......        ......  ...............        ......                        ....... ",
" ......   ...........   ......                ....................       ......         ......          ......         ......         ......  ......         .....                      ......   ......                ......        ......  ...............        ......                                ",
" ......     .........   ......                ........   .........       ......         ......          ......         .........      ......  ......         .....                      ......      .....      ......  ......        ......  ......   .........     ......                                ",
" ......     .........   ......                ........   .........       ......         ......          ......            ......      ......  ......         .....        ......        ......      .....      ......  ......        ......  ......   .........     ......                                ",
" ......     .........   ......                ........   .........       ......         ......          ......            ......      ......  ......         .....        ......        ......      .....      ......  ......        ......  ......   .........     .......                               ",
" ......      ........   ....................  .....         ......       ......         ......    ..................      ..................  ......         .....        .................           ............       ...............     ......      .........  .....................        ........ ",
" ......        ......   ....................  ......        ......       ......         ......    ..................         ...............  ......         .....           ...............          ............        ..............     ......      .........  .....................        ........ ",
" .....          .....   ....................  .....         ......        .....         ......     .................         ...............  ......         .....           ..............            ...........        ..............      .....      .........   ....................        ........ ",
"                                                                                                                                                                                                                                                                                                  ....... "
};
