/* XPM */
static char *edf16484bcef453188e161ca3e00d681Hrx3WWXYHjyc8pL5[] = {
/* columns rows colors chars-per-pixel */
"251 28 2 1 ",
"  c None",
". c #560000",
/* pixels */
"        ....................           ............           ........            ........   ............................              ....................      ........            ........   ............................   ........................    ",
"        ....................           ............           ........            ........   ............................              ....................      ........            ........   ............................   ........................    ",
"        ....................           ............           ........            ........   ............................              ....................      ........            ........   ............................   ........................    ",
"        ....................           ............           ........            ........   ............................              ....................      ........            ........   ............................   ........................    ",
"    ........                       ........    ....           ............    ............   ........                              ........            ....      ........            ........   ........                       ........            ........",
"    ........                       ........    ........       ............    ............   ........                              ........            ........  ........            ........   ........                       ........            ........",
"    ........                       ........    ........       ............    ............   ........                              ........            ........  ........            ........   ........                       ........            ........",
"    ........                       ........    ........       ............    ............   ........                              ........            ........  ........            ........   ........                       ........            ........",
"........                       ........            ........   ............................   ........                              ........            ........  ........            ........   ........                       ........            ........",
"........                       ........            ........   ............................   ........                              ........            ........  ........            ........   ........                       ........            ........",
"........                       ........            ........   ............................   ........                              ........            ........  ........            ........   ........                       ........            ........",
"........                       ........            ........   ............................   ........                              ........            ........  ........            ........   ........                       ........            ........",
"........                       ........            ........   ............................   ....................                  ........            ........  ........        ............   ....................           ........        ............",
"........        ............   ........            ........   ............................   ....................                  ........            ........  ............    ............   ....................           ........        ............",
"........        ............   ........            ........   ............................   ....................                  ........            ........  ............    ............   ....................           ........        ............",
"........        ............   ........            ........   ............................   ....................                  ........            ........  ............    ............   ....................           ........        ............",
"........        ............   ............................   ........    ....    ........   ........                              ........            ........      ....................       ........                       ....................        ",
"........            ........   ............................   ........    ....    ........   ........                              ........            ........      ....................       ........                       ....................        ",
"........            ........   ............................   ........    ....    ........   ........                              ........            ........      ....................       ........                       ....................        ",
"........            ........   ............................   ........    ....    ........   ........                              ........            ........      ....................       ........                       ....................        ",
"............        ........   ........            ........   ........            ........   ........                              ........            ........          .............          ........                       ........    ............    ",
"    ........        ........   ........            ........   ........            ........   ........                              ........            ........          ............           ........                       ........    ............    ",
"    ........        ........   ........            ........   ........            ........   ........                              ........            ........          ............           ........                       ........    ............    ",
"    ........        ........   ........            ........   ........            ........   ........                              ........            ........          ............           ........                       ........    ............    ",
"    ........................   ........            ........   ........            ........   ............................              ....................              ........               ............................   ........        ............",
"        ....................   ........            ........   ........            ........   ............................              ....................                  ....               ............................   ........        ............",
"        ....................   ........            ........   ........            ........   ............................              ....................                  ....               ............................   ........        ............",
"        ....................   ........            ........   ........            ........   ............................              ....................                  ....               ............................   ........        ............"
};
