/* XPM */
static char *_71a3788d18347d9faf89e7b826aae44saLaJutUyGBnNXI8[] = {
/* columns rows colors chars-per-pixel */
"64 64 12 1 ",
"  c None",
". c black",
"X c #2F241E",
"o c #2F182E",
"O c #482F12",
"+ c #754A1C",
"@ c #780053",
"# c #98006A",
"$ c #D074FF",
"% c #F9AD81",
"& c #FAC1A0",
"* c #F981F5",
/* pixels */
"                ++++++++++++++++++++++++++++++++                ",
"                ++++++++++++++++++++++++++++++++                ",
"              ++++++++@@@@@@@@@@@@@@@@@@@@++++++++              ",
"              ++++++++@@@@@@@@@@@@@@@@@@@@++++++++              ",
"            ++++++@@########################@@++++++            ",
"            ++++++@@########################@@++++++            ",
"          ++++++@@############################@@++++++          ",
"          ++++++@@############################@@++++++          ",
"        ++++++@@################################@@++++++        ",
"        ++++++@@################################@@++++++        ",
"      ++++++@@####################################@@++++++      ",
"      ++++++@@####################################@@++++++      ",
"    ++++++++@@####################################@@++++++++    ",
"    ++++++++@@####################################@@++++++++    ",
"    ++++++@@########################################@@++++++    ",
"    ++++++@@########################################@@++++++    ",
"    ++++++@@########################################@@++++++    ",
"    ++++++@@########################################@@++++++    ",
"    ++++++@@########################################@@++++++    ",
"    ++++++@@########################################@@++++++    ",
"    ++++++@@########################################@@++++++    ",
"    ++++++@@########################################@@++++++    ",
"    OO++++@@########################################@@++++OO    ",
"    OO++++@@########################################@@++++OO    ",
"    OO++++@@########################################@@++++OO    ",
"    OO++++@@########################################@@++++OO    ",
"    OOOOOO@@@@@@################################@@@@@@OOOOOO    ",
"    OOOOOO@@@@@@################################@@@@@@OOOOOO    ",
"    OOOOOO@@@@@@@@@@@@####################@@@@@@@@@@@@OOOOOO    ",
"    OOOOOO@@@@@@@@@@@@####################@@@@@@@@@@@@OOOOOO    ",
"    OOOOOO@@@@@@@@@@@@@@@@@@@@@@@@@@@@@@@@@@@@@@@@@@@@OOOOOO    ",
"    OOOOOO@@@@@@@@@@@@@@@@@@@@@@@@@@@@@@@@@@@@@@@@@@@@OOOOOO    ",
"    OOOOOO@@@@@@@@@@@@@@@@@@@@@@@@@@@@@@@@@@@@@@@@@@@@OOOOOO    ",
"    OOOOOO@@@@@@@@@@@@@@@@@@@@@@@@@@@@@@@@@@@@@@@@@@@@OOOOOO    ",
"    OOOOOO@@@@@@@@@@@@@@@@@@@@@@@@@@@@@@@@@@@@@@@@@@@@OOOOOO    ",
"    OOOOOO@@@@@@@@@@@@@@@@@@@@@@@@@@@@@@@@@@@@@@@@@@@@OOOOOO    ",
"      OOOO@@@@@@@@@@@@@@@@@@@@@@@@@@@@@@@@@@@@@@@@@@@@OOOO      ",
"      OOOO@@@@@@@@@@@@@@@@@@@@@@@@@@@@@@@@@@@@@@@@@@@@OOOO      ",
"        OO@@@@@@@@@@@@@@@@@@@@@@@@@@@@@@@@@@@@@@@@@@@@OO        ",
"        OO@@@@@@@@@@@@@@@@@@@@@@@@@@@@@@@@@@@@@@@@@@@@OO        ",
"          @@@@@@@@@@@@@@@@@@@@@@@@@@@@@@@@@@@@@@@@@@@@          ",
"          @@@@@@@@@@@@@@@@@@@@@@@@@@@@@@@@@@@@@@@@@@@@          ",
"          @@@@@@@@@@@@@@@@@@@@@@@@@@@@@@@@@@@@@@@@@@@@          ",
"          @@@@@@@@@@@@@@@@@@@@@@@@@@@@@@@@@@@@@@@@@@@@          ",
"              @@@@@@@@@@@@@@@@@@@@@@@@@@@@@@@@@@@@              ",
"              @@@@@@@@@@@@@@@@@@@@@@@@@@@@@@@@@@@@              ",
"          %%&&$$&&@@@@@@@@@@@@@@@@@@@@@@@@@@@@&&$$&&%%          ",
"          %%&&$$&&@@@@@@@@@@@@@@@@@@@@@@@@@@@@&&$$&&%%          ",
"          &&&&$$&&&&&&$$&&&&&&&&&&&&&&&&$$&&&&&&$$&&&&          ",
"          &&&&$$&&&&&&$$&&&&&&&&&&&&&&&&$$&&&&&&$$&&&&          ",
"          %%&&$$$$$$$$$$$$$$$$$$$$$$$$$$$$$$$$$$$$&&%%          ",
"          %%&&$$$$$$$$$$$$$$$$$$$$$$$$$$$$$$$$$$$$&&%%          ",
"                $$$$$$$$$$$$$$$$$$$$$$$$$$$$$$$$                ",
"                $$$$$$$$$$$$$$$$$$$$$$$$$$$$$$$$                ",
"                $$$$$$$$$$$$$$$$$$$$$$$$$$$$$$$$                ",
"                $$$$$$$$$$$$$$$$$$$$$$$$$$$$$$$$                ",
"                XXXXXXXXXXXXXXXXXXXXXXXXXXXXXXXX                ",
"                XXXXXXXXXXXXXXXXXXXXXXXXXXXXXXXX                ",
"                XXXXXXXXXXXXXXXXXXXXXXXXXXXXXXXX                ",
"                XXXXXXXXXXXXXXXXXXXXXXXXXXXXXXXX                ",
"                ..oooooooo............oooooooo..                ",
"                ..oooooooo............oooooooo..                ",
"                    ****................****                    ",
"                    ****................****                    "
};
