/* XPM */
static char *f9e9ffc545d546aac09a054ffa83d366VYgtgfieb74x8mPU[] = {
/* columns rows colors chars-per-pixel */
"100 100 84 1 ",
"  c None",
". c black",
"X c #010100",
"o c #010001",
"O c #010101",
"+ c #020101",
"@ c #020102",
"# c #020202",
"$ c gray1",
"% c #070603",
"& c #040404",
"* c gray2",
"= c #060506",
"- c #060606",
"; c #070707",
": c #0A0501",
"> c #0B0601",
", c #0C0601",
"< c #0A0802",
"1 c #0A0902",
"2 c #0B0902",
"3 c #0C0A02",
"4 c #0D0B03",
"5 c gray3",
"6 c #090809",
"7 c #09090A",
"8 c #0A090A",
"9 c #0C0C0C",
"0 c #120901",
"q c #121004",
"w c #1E1003",
"e c #181505",
"r c #191505",
"t c #1F1B06",
"y c #191919",
"u c #4F2807",
"i c #4E2A0A",
"p c #524611",
"a c #534612",
"s c #584911",
"d c #756417",
"f c #414141",
"g c gray33",
"h c #565656",
"j c #606060",
"k c #A4540E",
"l c #84701B",
"z c #D56D12",
"x c #D66E12",
"c c #E77714",
"v c #EF7B15",
"b c #F37D15",
"n c #F37E15",
"m c #F34235",
"M c #F48518",
"N c #F69A1F",
"B c #DEBD2C",
"V c #F7A021",
"C c #F8AD24",
"Z c #E6BB2B",
"A c #E4C22E",
"S c #EAC82F",
"D c #FBCC2F",
"F c #F0CC31",
"G c #F1CD31",
"H c #F2CF31",
"J c #F3CF31",
"K c #FBCC33",
"L c #F7D332",
"P c #F8D432",
"I c #FCD733",
"U c #FBD73A",
"Y c #FCD93B",
"T c #FCD93C",
"R c #FCD93D",
"E c #988944",
"W c #A8984C",
"Q c gray78",
"! c #D9D5C5",
"~ c #D5D5D5",
"^ c gray88",
"/ c gray89",
"( c #FFFBEA",
") c white",
/* pixels */
"                                                                                                    ",
"                                                                                                    ",
"                                                                                                    ",
"                                                                                                    ",
"                                                                                                    ",
"                                                                                                    ",
"                                                                                                    ",
"                                                                                                    ",
"                                                                                                    ",
"                                                                                                    ",
"                                                                                                    ",
"                                                                                                    ",
"                                                                            ....                    ",
"                                                                            ....                    ",
"                                                                            ....                    ",
"                                 .......                                ....llll3...                ",
"                                ........                                ....IIII3...                ",
"                                $.......                                ....IIII3...                ",
"                                ........                                ....IIII3...                ",
"                                $.......                                ....IIII3...                ",
"                            ....hjjj&...                            ....IIIIbbbbbbbb....            ",
"                            ....hjjj*...                            ....IIIIbbbbbbbb....            ",
"                            ....hjjj*...                            ....IIIIbbbbbbbb....            ",
"                            ....EWWW<...                            ddddCCCCbbbbbbbb....            ",
"                            ....AIII2...                ............IIIIbbbbbbbbbbbb....            ",
"                            ....AIII2...                ............IIIIbbbbbbbbbbbb....            ",
"                            ....AIII2...                ............IIIIbbbbbbbbbbbb....            ",
"                            ttttZKDD2...                99999999....KDDDbbbbbbbbxxxx....            ",
"                        ....IIIIMbbb:...        ........jjjjjjjj&...bbbbbbbbbbbb:...                ",
"                        ....IIIIMbbb:...        ........jjjjjjjj*...bbbbbbbbbbbb,...                ",
"                        ....IIIIMbbb:...        ........jjjjjjjj*...bbbbbbbbbbbb:...                ",
"                        ....IIIIVNNNsppp        aaaappppjjjjffffiuuubbbbbbbbkkkk,...                ",
"                        ....IIIIIIIIIIII........SIIIIIIIjjjj....cbbbbbbbbbbb....                    ",
"                        ....IIIIIIIIIIII........SIIIIIIIjjjj....cbbbbbbbbbbb....                    ",
"                        ....IIIIIIIIIIII........SIIIIIIIjjjj....cbbbbbbbbbbb....                    ",
"                        ....IIIIIIIIIIII........SIIIIIIIjjjj....cbbbbbbbbbbb....                    ",
"                    ....PIIIIIIIIIIIIIIIIIIIIIIIIIIIIIII........cbbbbbbb....                        ",
"                    ....PIIIIIIIIIIIIIIIIIIIIIIIIIIIIIII........cbbbbbbb....                        ",
"                    ....PIIIIIIIIIIIIIIIIIIIIIIIIIIIIIII........cbbbbbbb....                        ",
"                    ....PIIIIIIIIIIIIIIIIIIIIIIIIIIIIIII........cbbbbbbb....                        ",
"                ....PIIIIIIIIIIIIIIIIIIIIIIIIIIIIIIIbbbb....jjjj$...bbbbbbbb....                    ",
"                ....LPIIIIIIIIIIIIIIIIIIIIIIIIIIIIIIbbbb....jjjj*...bbbbbbbb....                    ",
"                ....LIIIIIIIIIIIIIIIIIIIIIIIIIIIIIIIbbbb....jjjj$...bbbbbbbb....                    ",
"                y...GIIIIIIIIIIIIIIIIIIIIIIIIIIIIIIIbbbM....jjjj*...bbbbbbbb....                    ",
"            ..../)))RIIIIIIIIIIIIIIIIIIIIIIIIIIIIIIIIIII....jjjjjjjj....bbbb....                    ",
"            ..../)))RIIIIIIIIIIIIIIIIIIIIIIIIIIIIIIIIIII....jjjjjjjj....bbbb....                    ",
"            ..../)))YIIIIIIIIIIIIIIIIIIIIIIIIIIIIIIIIIII....jhjjjjjj....bbbb....                    ",
"            ....Q//~YIIIIIIIIIIIIIIIIIIIIIIIIIIIIIIIIIIIwwwwhgghggghwwwwxxxx....                    ",
"            ........GIIIIIIIIIIIIIIIIIIIIIIIIIIIIIIIIIIIbbbb........bbbb....                        ",
"            ........LIIIIIIIIIIIIIIIIIIIIIIIIIIIIIIIIIIIbbbb........bbbb....                        ",
"            ........GIIIIIIIIIIIIIIIIIIIIIIIIIIIIIIIIIIIbbbb........bbbb....                        ",
"            .......4GIIIIIIIIIIIRRRRGGIIIIIIIIIIIIIIIIIIbbbb........bbbb....                        ",
"            ....BIIIIIIIIIIIIIII()))5...IIIIIIIIIIIIbbbbbbbb............                            ",
"            ....BIIIIIIIIIIIIIII()))5...IIIIIIIIIIIIMbbbbbbb............                            ",
"            ....BIIIIIIIIIIIIIII()))5...IIIIIIIIIIIIbbbbbbbb............                            ",
"            ....BIIIIIIIIIIIIIII!~~~*...IIIIIIIIIIIIbbbbbbbb............                            ",
"                ....IIIIIIIIIIIIr.......mmmmmmmmKIIIbbbbjjjjjjjj....                                ",
"                *...IIIIIIIIIIIIr.......mmmmmmmmKIIIbbbbjjjjjjjj*...                                ",
"                ;...IIIIIIIIIIIIr.......mmmmmmmmKIIIbbbbjjjjjjjj*...                                ",
"                ....IIIIIIIIIIIIe.......mmmmmmmmKIIIMbbbjjjjjjjj*...                                ",
"                    ....vbbbIIIIIIIIIIIImmmmbbbbbbbbbbbbbbbbbbbb,...                                ",
"                    ....vbbbIIIIIIIIIIIImmmmbbbbbbbbbbbbbbbbbbbb,...                                ",
"                    ....vbbbIIIIIIIIIIIImmmmbbbbbbbbbbbbbbbbbbbb,...                                ",
"                    ....vbbbIIIIIIIIIIIImmmmbbbbbbbbbbbbbbbbbbbb,...                                ",
"                7...IIIIbbbbbbbbbbbbbbbbbbbbbbbb0...bbbbbbbbjjjj*...                                ",
"                7...IIIIbbbbbbbbbbbbbbbbbbbbbbbb0...vbbbbbbbjjjj*...                                ",
"                7...IIIIbbbbbbbbbbbbbbbbbbbbbbbb0...vbbbbbbbjjjj....                                ",
"                ;...IIIIMbbbbbbbbbbbbbbbbbbbbbbb0...vbbbbbbbjjjj*...                                ",
"                7...........IIIIIIIIIIIIIIII....SIIIbbbbbbbbbbbb,...                                ",
"                *...........IIIIIIIIIIIIIIII....SIIIbbbbbbbbbbbb,...                                ",
"                *...........IIIIIIIIIIIIIIII....SIIIMbbbbbbbbbbb,...                                ",
"                *...........IIIIIIIIIIIIIIII....SIIPbbbbbbbbbbbb,...                                ",
"                    ....bbbb....AIIIIIIIIIIIIIIIq...vbbbbbbbbbbb,...                                ",
"                    ....vbbb....AIIIIIIIIIIIIIIIq...vbbbbbbbbbbb,...                                ",
"                    ....vbbb....AIIIIIIIIIIIIIIIq...vbbbbbbbbbbb,...                                ",
"                    ....vbbb....AIIIIIIIIIIIIIIIq...bbbbbbbbbbbb,...                                ",
"                    ....................bbbbbbbbbbbbbbbbbbbb....                                    ",
"                    ....................bbbbbbbbbbbbbbbbbbbb....                                    ",
"                    ....................bbbbbbbbbbbbbbbbbbbb....                                    ",
"                    ....................bbbbbbbbbbbbbbbbbbbb....                                    ",
"                                        ............vbbb........                                    ",
"                                        ............vbbb........                                    ",
"                                        ............vbbb........                                    ",
"                                        ............vbbb........                                    ",
"                                            ....SIIIIIIIbbbb....                                    ",
"                                            ....SIIIIIIIbbbb....                                    ",
"                                            ....SIIIIIIIbbbb....                                    ",
"                                            ....SIIIIIIIbbbb....                                    ",
"                                                ............                                        ",
"                                                ............                                        ",
"                                                ............                                        ",
"                                                ............                                        ",
"                                                                                                    ",
"                                                                                                    ",
"                                                                                                    ",
"                                                                                                    ",
"                                                                                                    ",
"                                                                                                    ",
"                                                                                                    ",
"                                                                                                    "
};
