/* XPM */
static char *_2a178d9a2244437d689f2f83bc2fc7cyad4KKPSoPuIxoZ9[] = {
/* columns rows colors chars-per-pixel */
"50 43 58 1 ",
"  c None",
". c black",
"X c #010000",
"o c #010101",
"O c #050101",
"+ c #060606",
"@ c #2E0707",
"# c #390B0B",
"$ c #3A0B0B",
"% c gray15",
"& c #272727",
"* c gray17",
"= c #6C1010",
"- c gray25",
"; c #414141",
": c #4B4C4C",
"> c #5F5F5F",
", c #821717",
"< c #D32524",
"1 c #D32726",
"2 c #D32A2A",
"3 c #D32B2B",
"4 c #D42A2A",
"5 c #D42B2B",
"6 c #D62B2B",
"7 c #D72B2B",
"8 c #D42C2C",
"9 c #DB2C2C",
"0 c #E12E2E",
"q c #888888",
"w c gray62",
"e c #9F9F9F",
"r c #A0A0A0",
"t c gray63",
"y c gray70",
"u c gray71",
"i c #B7B7B7",
"p c #E7B8C2",
"a c #E7B8C3",
"s c #EDE7F5",
"d c #EEE8F6",
"f c #EDEAF8",
"g c #EEEFFB",
"h c #F3E6F5",
"j c #F4EDFB",
"k c #F3F3F3",
"l c #F6F2F6",
"z c #F4F4F4",
"x c #F6F6F6",
"c c gray97",
"v c #F8F8F8",
"b c #F9F9F9",
"n c #FBFBFB",
"m c #FAF9FC",
"M c gray99",
"N c #FDFDFD",
"B c #FEFEFE",
"V c white",
/* pixels */
"                                                  ",
"                                                  ",
"                   ............                   ",
"                   ............                   ",
"                  @============@                  ",
"              ....$555555555555$....              ",
"              ....$555555555555$....              ",
"            ..7555555555555555555557..            ",
"            ..5522555555555555555555..            ",
"          ..25fddsp5555555555555555555..          ",
"          ..58fdddp8855555555555555555..          ",
"        ..55ddBBxxlhj5555555555555555555..        ",
"        ..55sdBBxvlhj8855555555555555555..        ",
"        ..55sdxvBBmdg3555555555555555555..        ",
"        ..55sdxxBBmdj3555555555555555555..        ",
"      ..225555fdddp55555555555555555555522..      ",
"      ..555555fddda85555555555555555555555..      ",
"      ..555555<<<<<55555555555555555555555..      ",
"      ..5555555555885555555555555555555555..      ",
"      ..5555555555555555555555555555555555..      ",
"      ..5555555555555555555555555555555555..      ",
"      ..,,55555555555555555555555555555555..      ",
"      ....55555555555555555555555555555555..      ",
"      ....00555500000005555555555555555500..      ",
"      ......2585O......55555555555585585....      ",
"      ......3233O......85555555555223233....      ",
"      ..........vBBxxBB..555555559..........      ",
"      ..........vBBvxBB..555555589..........      ",
"        ..ee....vvvBBBB...............ee..        ",
"        ..ee....vvvBBBB...............ee..        ",
"        ..erBB..vBBvxBB..........+BBxxee..        ",
"        ..erBB..vBBxxBB..........+BBvxee..        ",
"          ..eeBv+......BBxkvBkxvvBxvee..          ",
"          ..eeBB+......BBxvBBxxBBBxvee..          ",
"            ..rrBBBxxBBxxBBBBBBieeer..            ",
"            ..reBBBxxBBxvBBBBBBuerrr..            ",
"              &&;;>yyuuyyuuuuuu:&&&&              ",
"              ....*eeeeeeeeeeee*....              ",
"              ....&qqqqqqqqqqqq&....              ",
"                   ............                   ",
"                   ............                   ",
"                                                  ",
"                                                  "
};
