/* XPM */
static char *cmFwMQ__[] = {
/* columns rows colors chars-per-pixel */
"64 64 9 1 ",
"  c black",
". c #082506",
"X c #3E2B20",
"o c gray19",
"O c #400000",
"+ c #3E4007",
"@ c #404025",
"# c gray25",
"$ c None",
/* pixels */
"$$$$$$$$$$$$$$$$$$$$$$$$$$@@@@@@@@@@@@$$$$$$$$$$$$$$$$$$$$$$$$$$",
"$$$$$$$$$$$$$$$$$$$$$$$$$$@@@@@@@@@@@@$$$$$$$$$$$$$$$$$$$$$$$$$$",
"$$$$$$$$$$$$$$$$$$$$$$$$@@@@@@@@@@@@@@@@$$$$$$$$$$$$$$$$$$$$$$$$",
"$$$$$$$$$$$$$$$$$$$$$$$$@@@@@@@@@@@@@@@@$$$$$$$$$$$$$$$$$$$$$$$$",
"$$$$$$$$$$$$$$$$$$$$$$@@@@@@@@@@@@@@@@@@@@$$$$$$$$$$$$$$$$$$$$$$",
"$$$$$$$$$$$$$$$$$$$$$$@@@@@@@@@@@@@@@@@@@@$$$$$$$$$$$$$$$$$$$$$$",
"$$$$$$$$$$$$$$$$$$$$XX@@@@@@@@@@@@@@@@@@@@XX$$$$$$$$$$$$$$$$$$$$",
"$$$$$$$$$$$$$$$$$$$$XX@@@@@@@@@@@@@@@@@@@@XX$$$$$$$$$$$$$$$$$$$$",
"$$$$$$$$$$$$$$$$$$XXXX@@@@@@@@@@@@@@@@@@@@XXXX$$$$$$$$$$$$$$$$$$",
"$$$$$$$$$$$$$$$$$$XXXX@@@@@@@@@@@@@@@@@@@@XXXX$$$$$$$$$$$$$$$$$$",
"$$$$$$$$$$$$$$$$XXXXXX@@@@@@@@@@@@@@@@@@@@XXXXXX$$$$$$$$$$$$$$$$",
"$$$$$$$$$$$$$$$$XXXXXX@@@@@@@@@@@@@@@@@@@@XXXXXX$$$$$$$$$$$$$$$$",
"$$$$$$$$$$$$$$$$XXXXXX@@@@@@@@@@@@@@@@@@@@XXXXXX$$$$$$$$$$$$$$$$",
"$$$$$$$$$$$$$$$$XXXXXX@@@@@@@@@@@@@@@@@@@@XXXXXX$$$$$$$$$$$$$$$$",
"$$$$$$$$$$$$$$$$XXXXXX@@@@@@@@@@@@@@@@@@@@XXXXXX$$$$$$$$$$$$$$$$",
"$$$$$$$$$$$$$$$$XXXXXX@@@@@@@@@@@@@@@@@@@@XXXXXX$$$$$$$$$$$$$$$$",
"$$$$$$$$$$$$$$$$XXXXXXXX@@@@@@@@@@@@@@@@XXXXXXXX$$$$$$$$$$$$$$$$",
"$$$$$$$$$$$$$$$$XXXXXXXX@@@@@@@@@@@@@@@@XXXXXXXX$$$$$$$$$$$$$$$$",
"$$$$$$$$$$$$$$$$XXXXXXXXXX@@@@@@@@@@@@XXXXXXXXXX$$$$$$$$$$$$$$$$",
"$$$$$$$$$$$$$$$$XXXXXXXXXX@@@@@@@@@@@@XXXXXXXXXX$$$$$$$$$$$$$$$$",
"$$$$$$$$$$$$$$$$XXXXXXXXXXXXXXXXXXXXXXXXXXXXXXXX$$$$$$$$$$$$$$$$",
"$$$$$$$$$$$$$$$$XXXXXXXXXXXXXXXXXXXXXXXXXXXXXXXX$$$$$$$$$$$$$$$$",
"$$$$$$$$$$$$$$$$XXXXXXXXXXXXXXXXXXXXXXXXXXXXXXXX$$$$$$$$$$$$$$$$",
"$$$$$$$$$$$$$$$$XXXXXXXXXXXXXXXXXXXXXXXXXXXXXXXX$$$$$$$$$$$$$$$$",
"$$$$$$$$$$$$$$$$XXXXXXXXXXXXXXXXXXXXXXXXXXXXXXXX$$$$$$$$$$$$$$$$",
"$$$$$$$$$$$$$$$$XXXXXXXXXXXXXXXXXXXXXXXXXXXXXXXX$$$$$$$$$$$$$$$$",
"$$$$$$$$$$$$$$XXXXXXXXXXXXXXXXXXXXXXXXXXXXXXXXXXXX$$$$$$$$$$$$$$",
"$$$$$$$$$$$$$$XXXXXXXXXXXXXXXXXXXXXXXXXXXXXXXXXXXX$$$$$$$$$$$$$$",
"$$$$$$$$$$$$$$XXXXXXXXXXXXXXXXXXXXXXXXXXXXXXXXXXXX$$$$$$$$$$$$$$",
"$$$$$$$$$$$$$$XXXXXXXXXXXXXXXXXXXXXXXXXXXXXXXXXXXX$$$$$$$$$$$$$$",
"$$$$$$$$$$$$$$XXXXXX          XXXX          XXXX++$$$$$$$$$$$$$$",
"$$$$$$$$$$$$$$XXXXXX          XXXX          XXXX++$$$$$$$$$$$$$$",
"$$$$$$$$$$$$$$$$XXXXXX####  XXXXXXXX  ####XXXXXX$$$$$$$$$$$$$$$$",
"$$$$$$$$$$$$$$$$XXXXXX####  XXXXXXXX  ####XXXXXX$$$$$$$$$$$$$$$$",
"$$$$$$$$$$$$$$$$XXXXXXXXXXXXXXXXXXXXXXXXXXXXXXXX$$$$$$$$$$$$$$$$",
"$$$$$$$$$$$$$$$$XXXXXXXXXXXXXXXXXXXXXXXXXXXXXXXX$$$$$$$$$$$$$$$$",
"$$$$$$$$$$$$$$$$XXXXXXXXXXXXXXXXXXXXXXXXXXXXXXXX$$$$$$$$$$$$$$$$",
"$$$$$$$$$$$$$$$$XXXXXXXXXXXXXXXXXXXXXXXXXXXXXXXX$$$$$$$$$$$$$$$$",
"$$$$$$$$$$$$$$$$XXXXXXXXXXXXXX####XXXXXXXXXXXXXX$$$$$$$$$$$$$$$$",
"$$$$$$$$$$$$$$$$XXXXXXXXXXXXXX####XXXXXXXXXXXXXX$$$$$$$$$$$$$$$$",
"$$$$$$$$$$$$$$$$XXXXXXXXXXXXXX    XXXXXXXXXXXXXX$$$$$$$$$$$$$$$$",
"$$$$$$$$$$$$$$$$XXXXXXXXXXXXXX    XXXXXXXXXXXXXX$$$$$$$$$$$$$$$$",
"$$$$$$$$$$$$$$$$XXXXXXXXXXXXXXXXXXXXXXXXXXXXXXXX$$$$$$$$$$$$$$$$",
"$$$$$$$$$$$$$$$$XXXXXXXXXXXXXXXXXXXXXXXXXXXXXXXX$$$$$$$$$$$$$$$$",
"$$$$$$$$$$$$$$$$XXXXXXXXXXXXXXXXXXXXXXXXXXXXXXXX$$$$$$$$$$$$$$$$",
"$$$$$$$$$$$$$$$$XXXXXXXXXXXXXXXXXXXXXXXXXXXXXXXX$$$$$$$$$$$$$$$$",
"$$$$$$$$$$$$XX..++XXXXXXXXXXXXXXXXXXXXXXXXXXXX++..XX$$$$$$$$$$$$",
"$$$$$$$$$$$$XX..++XXXXXXXXXXXXXXXXXXXXXXXXXXXX++..XX$$$$$$$$$$$$",
"$$$$$$$$$$++XX....++++++++++++XXXX++++++++++++....XXXX$$$$$$$$$$",
"$$$$$$$$$$++XX....++++++++++++XXXX++++++++++++....XXXX$$$$$$$$$$",
"$$$$$$$$$$$$XX................++++................XX$$$$$$$$$$$$",
"$$$$$$$$$$$$XX................++++................XX$$$$$$$$$$$$",
"$$$$$$$$$$$$$$..............++++++++..............$$$$$$$$$$$$$$",
"$$$$$$$$$$$$$$..............++++++++..............$$$$$$$$$$$$$$",
"$$$$$$$$$$$$$$$$..............++++..............$$$$$$$$$$$$$$$$",
"$$$$$$$$$$$$$$$$..............++++..............$$$$$$$$$$$$$$$$",
"$$$$$$$$$$$$$$$$................................$$$$$$$$$$$$$$$$",
"$$$$$$$$$$$$$$$$................................$$$$$$$$$$$$$$$$",
"$$$$$$$$$$$$$$$$OOOOOOOOOOOOOO$$$$OOOOOOOOOOOOOO$$$$$$$$$$$$$$$$",
"$$$$$$$$$$$$$$$$OOOOOOOOOOOOOO$$$$OOOOOOOOOOOOOO$$$$$$$$$$$$$$$$",
"$$$$$$$$$$$$$$$$$$oooooooo$$$$$$$$$$$$oooooooo$$$$$$$$$$$$$$$$$$",
"$$$$$$$$$$$$$$$$$$oooooooo$$$$$$$$$$$$oooooooo$$$$$$$$$$$$$$$$$$",
"$$$$$$$$$$$$$$$$$$$$oooo$$$$$$$$$$$$$$$$oooo$$$$$$$$$$$$$$$$$$$$",
"$$$$$$$$$$$$$$$$$$$$oooo$$$$$$$$$$$$$$$$oooo$$$$$$$$$$$$$$$$$$$$"
};
