/* XPM */
static char *result[] = {
/* columns rows colors chars-per-pixel */
"64 64 8 1 ",
"  c black",
". c red",
"X c #F7FF1D",
"o c gray75",
"O c #F9AD81",
"+ c #FFFE93",
"@ c white",
"# c None",
/* pixels */
"##########################++++++++++++##########################",
"##########################++++++++++++##########################",
"########################++++++++++++++++########################",
"########################++++++++++++++++########################",
"######################++++++++++++++++++++######################",
"######################++++++++++++++++++++######################",
"####################OO++++++++++++++++++++OO####################",
"####################OO++++++++++++++++++++OO####################",
"##################OOOO++++++++++++++++++++OOOO##################",
"##################OOOO++++++++++++++++++++OOOO##################",
"################OOOOOO++++++++++++++++++++OOOOOO################",
"################OOOOOO++++++++++++++++++++OOOOOO################",
"################OOOOOO++++++++++++++++++++OOOOOO################",
"################OOOOOO++++++++++++++++++++OOOOOO################",
"################OOOOOO++++++++++++++++++++OOOOOO################",
"################OOOOOO++++++++++++++++++++OOOOOO################",
"################OOOOOOOO++++++++++++++++OOOOOOOO################",
"################OOOOOOOO++++++++++++++++OOOOOOOO################",
"################OOOOOOOOOO++++++++++++OOOOOOOOOO################",
"################OOOOOOOOOO++++++++++++OOOOOOOOOO################",
"################OOOOOOOOOOOOOOOOOOOOOOOOOOOOOOOO################",
"################OOOOOOOOOOOOOOOOOOOOOOOOOOOOOOOO################",
"################OOOOOOOOOOOOOOOOOOOOOOOOOOOOOOOO################",
"################OOOOOOOOOOOOOOOOOOOOOOOOOOOOOOOO################",
"################OOOOOOOOOOOOOOOOOOOOOOOOOOOOOOOO################",
"################OOOOOOOOOOOOOOOOOOOOOOOOOOOOOOOO################",
"##############OOOOOOOOOOOOOOOOOOOOOOOOOOOOOOOOOOOO##############",
"##############OOOOOOOOOOOOOOOOOOOOOOOOOOOOOOOOOOOO##############",
"##############OOOOOOOOOOOOOOOOOOOOOOOOOOOOOOOOOOOO##############",
"##############OOOOOOOOOOOOOOOOOOOOOOOOOOOOOOOOOOOO##############",
"##############OOOOOO          OOOO          OOOOXX##############",
"##############OOOOOO          OOOO          OOOOXX##############",
"################OOOOOO@@@@  OOOOOOOO  @@@@OOOOOO################",
"################OOOOOO@@@@  OOOOOOOO  @@@@OOOOOO################",
"################OOOOOOOOOOOOOOOOOOOOOOOOOOOOOOOO################",
"################OOOOOOOOOOOOOOOOOOOOOOOOOOOOOOOO################",
"################OOOOOOOOOOOOOOOOOOOOOOOOOOOOOOOO################",
"################OOOOOOOOOOOOOOOOOOOOOOOOOOOOOOOO################",
"################OOOOOOOOOOOOOO@@@@OOOOOOOOOOOOOO################",
"################OOOOOOOOOOOOOO@@@@OOOOOOOOOOOOOO################",
"################OOOOOOOOOOOOOO    OOOOOOOOOOOOOO################",
"################OOOOOOOOOOOOOO    OOOOOOOOOOOOOO################",
"################OOOOOOOOOOOOOOOOOOOOOOOOOOOOOOOO################",
"################OOOOOOOOOOOOOOOOOOOOOOOOOOOOOOOO################",
"################OOOOOOOOOOOOOOOOOOOOOOOOOOOOOOOO################",
"################OOOOOOOOOOOOOOOOOOOOOOOOOOOOOOOO################",
"############OO@@XXOOOOOOOOOOOOOOOOOOOOOOOOOOOOXX@@OO############",
"############OO@@XXOOOOOOOOOOOOOOOOOOOOOOOOOOOOXX@@OO############",
"##########XXOO@@@@XXXXXXXXXXXXOOOOXXXXXXXXXXXX@@@@OOOO##########",
"##########XXOO@@@@XXXXXXXXXXXXOOOOXXXXXXXXXXXX@@@@OOOO##########",
"############OO@@@@@@@@@@@@@@@@XXXX@@@@@@@@@@@@@@@@OO############",
"############OO@@@@@@@@@@@@@@@@XXXX@@@@@@@@@@@@@@@@OO############",
"##############@@@@@@@@@@@@@@XXXXXXXX@@@@@@@@@@@@@@##############",
"##############@@@@@@@@@@@@@@XXXXXXXX@@@@@@@@@@@@@@##############",
"################@@@@@@@@@@@@@@XXXX@@@@@@@@@@@@@@################",
"################@@@@@@@@@@@@@@XXXX@@@@@@@@@@@@@@################",
"################@@@@@@@@@@@@@@@@@@@@@@@@@@@@@@@@################",
"################@@@@@@@@@@@@@@@@@@@@@@@@@@@@@@@@################",
"################..............####..............################",
"################..............####..............################",
"##################oooooooo############oooooooo##################",
"##################oooooooo############oooooooo##################",
"####################oooo################oooo####################",
"####################oooo################oooo####################"
};
