/* XPM */
static char *_8bc8b6970f543e6de72217e3c89b336NGMp4lKIxvu61ksW[] = {
/* columns rows colors chars-per-pixel */
"12 39 8 1 ",
"  c #070874",
". c #D7132D",
"X c #F7CA00",
"o c #0F1097",
"O c #1E1E9E",
"+ c #DBD7C3",
"@ c #D8D8D8",
"# c white",
/* pixels */
"++++++++++++",
"++++++++++++",
"oooooooooo@@",
"oooooooooo@@",
"oooooooooo@@",
"oooooooooo@@",
"oooooooooo@@",
"oooooooooo@@",
"oooooooo##@@",
"oooooooo##@@",
"oooooooo##@@",
"oooooooo##@@",
"oooooo####@@",
"oooooo####@@",
"..oooo..##..",
"..oooo..##..",
"............",
"............",
"OOOOOO####@@",
"OOOOOO####@@",
"##..XXXX..  ",
"##..XXXX..  ",
"######OOoo  ",
"######OOoo  ",
"######OOoo  ",
"######OOoo  ",
"######OOoo  ",
"####oooooo  ",
"####oooooo  ",
"##oooooooo  ",
"##oooooooo  ",
"##oooooooo  ",
"##oooooooo  ",
"##oooooooo  ",
"##oooooooooo",
"oo########@@",
"oo########@@",
"##oooooooooo",
"##oooooooooo"
};
