/* XPM */
static char *result[] = {
/* columns rows colors chars-per-pixel */
"64 64 8 1 ",
"  c black",
". c #D7132D",
"X c #F7CA00",
"o c #0F1097",
"O c #1E1E9E",
"+ c #DBD7C3",
"@ c white",
"# c None",
/* pixels */
"################################################################",
"################################################################",
"################################################################",
"################################################################",
"################################################################",
"################################################################",
"################################################################",
"################################################################",
"################################################################",
"################################################################",
"##########################++++++++++++##########################",
"##########################++++++++++++##########################",
"##########################oooooooooo@@##########################",
"##########################oooooooooo@@##########################",
"##########################oooooooooo@@##########################",
"##########################oooooooooo@@##########################",
"##########################oooooooooo@@##########################",
"##########################oooooooooo@@##########################",
"##########################oooooooo@@@@##########################",
"##########################oooooooo@@@@##########################",
"##########################oooooooo@@@@##########################",
"##########################oooooooo@@@@##########################",
"##########################oooooo@@@@@@##########################",
"##########################oooooo@@@@@@##########################",
"##########################..oooo..@@..##########################",
"##########################..oooo..@@..##########################",
"##########################............##########################",
"##########################............##########################",
"##########################OOOOOO@@@@@@##########################",
"##########################OOOOOO@@@@@@##########################",
"##########################@@..XXXX..oo##########################",
"##########################@@..XXXX..oo##########################",
"##########################@@@@@@OOoooo##########################",
"##########################@@@@@@OOoooo##########################",
"##########################@@@@@@OOoooo##########################",
"##########################@@@@@@OOoooo##########################",
"##########################@@@@@@OOoooo##########################",
"##########################@@@@oooooooo##########################",
"##########################@@@@oooooooo##########################",
"##########################@@oooooooooo##########################",
"##########################@@oooooooooo##########################",
"##########################@@oooooooooo##########################",
"##########################@@oooooooooo##########################",
"##########################@@oooooooooo##########################",
"##########################@@oooooooooo##########################",
"##########################oo@@@@@@@@@@##########################",
"##########################oo@@@@@@@@@@##########################",
"##########################@@oooooooooo##########################",
"##########################@@oooooooooo##########################",
"################################################################",
"################################################################",
"############################        ############################",
"############################        ############################",
"##########################            ##########################",
"##########################            ##########################",
"############################        ############################",
"############################        ############################",
"################################################################",
"################################################################",
"################################################################",
"################################################################",
"################################################################",
"################################################################",
"################################################################"
};
