/* XPM */
static char *c2NvcmU_[] = {
/* columns rows colors chars-per-pixel */
"179 33 2 1 ",
"  c white",
". c None",
/* pixels */
".....                   .....................                   .............                       .........                            ........                                 .",
".....                   .....................                   .............                       .........                            ........                                 .",
".....                   .....................                   .............                       .........                            ........                                 .",
".....                   .....................                   .............                       .........                            ........                                 .",
".....                       .................                        ........                        ........                                 ...                                 .",
"         ..........         .............         ..........         ...         ...............         ....         ...............         ...          ........................",
"         ..........         .............         ..........         ...         ...............         ....         ...............         ...          ........................",
"         ..........         .............         ..........         ...         ...............         ....         ...............         ...          ........................",
"         ..........         .............         ..........         ...         ...............         ....         ...............         ...          ........................",
"         ...........................         ...........................         ...............         ....         ...............         ...          ........................",
"         ...........................         ...........................         ...............         ....         ...............         ...          ........................",
"         ...........................         ...........................         ...............         ....         ...............         ...          ........................",
"         ...........................         ...........................         ...............         ....         ...............         ...          ........................",
"         ...........................         ...........................         ...............         ....         ...............         ...                        ..........",
".....                       ........         ...........................         ...............         ....         ..........              ...                        ..........",
".....                       ........         ...........................         ...............         ....         ..........              ...                        ..........",
".....                       ........         ...........................         ...............         ....         ..........              ...                        ..........",
".....                       ........         ...........................         ...............         ....         ..........              ...                        ..........",
".....                       ........         ...........................         ...............         ....                       .............          ........................",
"........................         ...         ...........................         ...............         ....                       .............          ........................",
"........................         ...         ...........................         ...............         ....                       .............          ........................",
"........................         ...         ...........................         ...............         ....                       .............          ........................",
"........................         ...         ...........................         ...............         ....                       .............          ........................",
"         ...............         ........    ..............          ...         ...............         ....         .....         .............          ........................",
"         ...............         ........         .........          ...         ...............         ....         .....              ........          ........................",
"         ...............         ........         .........          ...         ...............         ....         .....              ........          ........................",
"         ...............         ........         .........          ...         ...............         ....         .....              ........          ........................",
"         ...............         ........         .........          ...         ...............         ....         ..........         ........          ........................",
".....                       ..................                  .............                       .........         ..........              ...                                 .",
".....                       ..................                  .............                       .........         ..........              ...                                 .",
".....                       ..................                  .............                       .........         ..........              ...                                 .",
".....                       ..................                  .............                       .........         ..........              ...                                 .",
".....                       ..................                  .............                       .........         ..........              ...                                 ."
};
