/* XPM */
static char *_636cd97174a4ae8ec06c7a2023a2678KApyBR9NhFDUxbpz[] = {
/* columns rows colors chars-per-pixel */
"64 64 7 1 ",
"  c None",
". c black",
"X c #0C0C0C",
"o c #131313",
"O c #221812",
"+ c #432F23",
"@ c gray27",
/* pixels */
"                                                                ",
"                                                                ",
"                                                                ",
"                                                                ",
"                                                                ",
"                      OOOOOOOOOOOOOOOOOOOO                      ",
"                      OOOOOOOOOOOOOOOOOOOO                      ",
"                    OOOOOOOOOOOOOOOOOOOOOOOO                    ",
"                    OOOOOOOOOOOOOOOOOOOOOOOO                    ",
"                  OOOO++++OOOOOOOOOOOO++++OOOO                  ",
"                  OOOO++++OOOOOOOOOOOO++++OOOO                  ",
"                OOOO++++++++OOOOOOOO++++++++OOOO                ",
"                OOOO++++++++OOOOOOOO++++++++OOOO                ",
"                OO++++++++++++++++++++++++++++OO                ",
"                OO++++++++++++++++++++++++++++OO                ",
"                OO++++++++++++++++++++++++++++OO                ",
"                OO++++++++++++++++++++++++++++OO                ",
"                OO++++++++++++++++++++++++++++OO                ",
"                OO++++++++++++++++++++++++++++OO                ",
"                OO++++++++++++++++++++++++++++OO                ",
"                OO++++++++++++++++++++++++++++OO                ",
"                OO++++++++++++++++++++++++++++OO                ",
"                OO++++++++++++++++++++++++++++OO                ",
"                OO++++++++++++++++++++++++++++OO                ",
"                OO++++++++++++++++++++++++++++OO                ",
"                ++++++++++++++++++++++++++++++++..              ",
"                ++++++++++++++++++++++++++++++++..              ",
"              ++................................++..            ",
"              ++................................++..            ",
"              ++++..ooo..ooo..++++..oooo..oo..++++..            ",
"              ++++..ooo..ooo..++++..oooo..oo..++++..            ",
"              ++++++........++++++++........++++++..            ",
"              ++++++........++++++++........++++++..            ",
"                ++++++++++++++++++++++++++++++++..              ",
"                ++++++++++++++++++++++++++++++++..              ",
"                ++++++++++++++++++++++++++++++++..              ",
"                ++++++++++++++++++++++++++++++++..              ",
"                ++++++++++++++++++++++++++++++..                ",
"                ++++++++++++++++++++++++++++++..                ",
"                ++++++++++++........++++++++..++                ",
"                ++++++++++++........++++++++..++                ",
"                ++++++++++++........++++++..++++                ",
"                ++++++++++++........++++++..++++                ",
"                ++++++++++++++++++++++++++++++++                ",
"                ++++++++++++++++++++++++++++++++                ",
"                ++++++++++++++++++++++++++++++++                ",
"            ++......@@@@@@@@++++++++@@@@@@@@......++            ",
"            ++......@@@@@@@@++++++++@@@@@@@@......++            ",
"          ++++..........@@@@@@XXXX@@@@@@..........++++          ",
"          ++++..........@@@@@@XXXX@@@@@@..........++++          ",
"            ++..............@@....@@..............++            ",
"            ++..............@@....@@..............++            ",
"                ............@@....@@............                ",
"                ............@@....@@............                ",
"                ............@@@@@@@@............                ",
"                ............@@@@@@@@............                ",
"                ................................                ",
"                ................................                ",
"                ................................                ",
"                ................................                ",
"                ............        ............                ",
"                ............        ............                ",
"                  ......                ......                  ",
"                  ......                ......                  "
};
