/* XPM */
static char *_9c20b8af17c43cbecc1cadb7a83a7a4MewNLbHl4g99sUJg[] = {
/* columns rows colors chars-per-pixel */
"64 64 7 1 ",
"  c None",
". c black",
"X c #0C0C0C",
"o c #131313",
"O c #221812",
"+ c #432F23",
"@ c gray27",
/* pixels */
"                                                                ",
"                                                                ",
"                                                                ",
"                                                                ",
"                      OOOOOOOOOOOOOOOOOOOO                      ",
"                      OOOOOOOOOOOOOOOOOOOO                      ",
"                    OOOOOOOOOOOOOOOOOOOOOOOO                    ",
"                    OOOOOOOOOOOOOOOOOOOOOOOO                    ",
"                  OOOO++++OOOOOOOOOOOO++++OOOO                  ",
"                  OOOO++++OOOOOOOOOOOO++++OOOO                  ",
"                OOOO++++++++OOOOOOOO++++++++OOOO                ",
"                OOOO++++++++OOOOOOOO++++++++OOOO                ",
"                OO++++++++++++++++++++++++++++OO                ",
"                OO++++++++++++++++++++++++++++OO                ",
"                OO++++++++++++++++++++++++++++OO                ",
"                OO++++++++++++++++++++++++++++OO                ",
"                OO++++++++++++++++++++++++++++OO                ",
"                OO++++++++++++++++++++++++++++OO                ",
"                OO++++++++++++++++++++++++++++OO                ",
"                OO++++++++++++++++++++++++++++OO                ",
"                OO++++++++++++++++++++++++++++OO                ",
"                OO++++++++++++++++++++++++++++OO                ",
"                OO++++++++++++++++++++++++++++OO                ",
"                OO++++++++++++++++++++++++++++OO                ",
"                ++++++++++++++++++++++++++++++++..              ",
"                ++++++++++++++++++++++++++++++++..              ",
"              ++................................++..            ",
"              ++................................++..            ",
"              ++++..oooo..oo..++++..ooooo..o..++++..            ",
"              ++++..oooo..oo..++++..ooooo..o..++++..            ",
"              ++++++........++++++++........++++++..            ",
"              ++++++........++++++++........++++++..            ",
"                ++++++++++++++++++++++++++++++++..              ",
"                ++++++++++++++++++++++++++++++++..              ",
"                ++++++++++++++++++++++++++++++++..              ",
"                ++++++++++++++++++++++++++++++++..              ",
"                ++++++++++++++++++++++++++++++..                ",
"                ++++++++++++++++++++++++++++++..                ",
"                ++++++++++++++......++++++++..++                ",
"                ++++++++++++++......++++++++..++                ",
"                ++++++++++++++......++++++..++++                ",
"                ++++++++++++++......++++++..++++                ",
"                ++++++++++++++++++++++++++++++++                ",
"                ++++++++++++++++++++++++++++++++                ",
"                ++++++++++++++++++++++++++++++++                ",
"                ++++++++++++++++++++++++++++++++                ",
"            ++......@@@@@@@@++++++++@@@@@@@@......++            ",
"            ++......@@@@@@@@++++++++@@@@@@@@......++            ",
"          ++++..........@@@@@@XXXX@@@@@@..........++++          ",
"          ++++..........@@@@@@XXXX@@@@@@..........++++          ",
"            ++..............@@....@@..............++            ",
"            ++..............@@....@@..............++            ",
"                ............@@....@@............                ",
"                ............@@....@@............                ",
"                ............@@@@@@@@............                ",
"                ............@@@@@@@@............                ",
"                ................................                ",
"                ................................                ",
"                ................................                ",
"                ................................                ",
"                ............        ............                ",
"                ............        ............                ",
"                  ......                ......                  ",
"                  ......                ......                  "
};
