/* XPM */
static char *e9505e2a888e44dd99f898ffa2789466V3QZWBXm3i0P9chC[] = {
/* columns rows colors chars-per-pixel */
"64 64 36 1 ",
"  c black",
". c #010101",
"X c #020202",
"o c gray1",
"O c gray2",
"+ c #060606",
"@ c #070707",
"# c #090909",
"$ c gray4",
"% c #0B0B0B",
"& c gray5",
"* c #0E0E0E",
"= c gray6",
"- c #101010",
"; c #111111",
": c gray7",
"> c gray8",
", c #151515",
"< c #161616",
"1 c gray9",
"2 c #191919",
"3 c gray10",
"4 c #1B1B1B",
"5 c gray11",
"6 c #1D1D1D",
"7 c gray12",
"8 c #202020",
"9 c gray13",
"0 c #222222",
"q c #232323",
"w c gray15",
"e c gray19",
"r c #313131",
"t c gray22",
"y c #444444",
"u c gray32",
/* pixels */
"uyywwwwwwwwwwwwwwwwwwwwwwwwwwwwwwwwwwwwwwwwwwwwwwwwwwwwwwwwwwyyu",
"y11111111111111111111111111111111111111111111111111111111111111y",
"y11111111111111111111111111111111111111111111111111111111111111y",
"w11111111111111111111111111111111111111111111111111111111111111w",
"w11111111111111111111111111111111111111111111111111111111111111w",
"w11111111111111111111111111111111111111111111111111111111111111w",
"w11111111111111111111111111111111111111111111111111111111111111w",
"w11111111111111111111111111111111111111111111111111111111111111w",
"w11111111111111111111111111111111111111111111111111111111111111w",
"w11111111111111111111111111111111111111111111111111111111111111w",
"y11111111111111111111111111111111111111111111111111111111111111y",
"y11111111111111111111111111111111111111111111111111111111111111y",
"u11111111111111111111111111111111111111111111111111111111111111u",
"u11111111111111111111111111111111111111111111111111111111111111u",
"uuuyywwwwwwwwwwwwwwwwwwwwwwwwwwwwwwwwwwwwwwwwwwwwwwwwwwwwwwyyuuu",
"uuuyywwwwwwwwwwwwwwwwwwwwwwwwwwwwwwwwwwwwwwwwwwwwwwwwwwwwwwyyuuu",
"w11111111111111111111111111111111111111111111111111111111111111w",
"w11111111111111211121111111111111111111111121112111111111111111w",
"w111111000tt11&-+++++#++#+++++##+++#+##+++++++++&&11tt111111111w",
"w111111000tt11&&+##++++#++#+#++++#+#+++++##++###-&11tt111111111w",
"w111111000ttttttrr50++o++o+++o+++o++++oo+o++05rrtttttt111111111w",
"w111111000ttttttrr00++o++o+o+++++++oo++++++o05rrtttttt111111111w",
"w111111000ttttttrr0511++++o+o+5252+oo++++o1100rrtttttt111111111w",
"w111111000ttttttrr0511+oo+++o+5222++++oo++1150rrtttttt111111111w",
"w111111000ttttttrr0511++oo++o+2555+o+++oo+1150rrtttttt111111111w",
"w111111000ttttttrr0011o++++o++2552+++o++++1150rrtttttt111111111w",
"w111111000tttttt22--oo+##++++#+###+++++++#oo--55tttttt111111111w",
"w111111000tttttt221-o+++++#++#+++++###++++o+1-22tttttt111111111w",
"w11111100000555555555555555555552222225222552222eeeeee111111111w",
"w11111100000555555525555555555555522225222225522eeeeer111111111w",
"w11111111111111121112111111111112111112111112111111111111111111w",
"w11111111111111121111111111111111111111111111111111111111111111w",
"01111ooooooo111111111111111111111111111121111111111111111111111w",
"w1111ooooooo111111111111111111111111111122111111111111111111111w",
"w11ooooooooooo1111111111&&&&&&&&&&&&&&&&----1111111111111111111w",
"w11ooooooooooo1111111111&&&&&&&#&&&&&&&&---&1111111111111111111w",
"w1111ooooooo11111111oooooooooooooooooooooooo&###111111111111111w",
"w1111ooooooo11111111oooooooooooooooooooooooo#&##111111111111111w",
"w1111111111111oooooo#ooooooooooooooooooooooooooooo&-11111111111w",
"w1111111111111oooooo#ooooooooooooooooooooooooooooo&-11111111111w",
"w11111111111oo##+#######&###oooooooooooooooooooooooo-----111111w",
"w11111111111oo###########&##oooooooooooooooooooooooo-----111111w",
"w111111##&##+#############oo+++++++++#&#&####&#####&&####--1111w",
"w111111###&&###########&##oo+++++++++##&#&##&#&###&&###&#--2111w",
"w111111##&-----1--------ooo+0505-1-1++++&#1111111111-1###--1111w",
"w111112###--------1---&&oo++5050-11-+##+#&1--111111111###--1111w",
"w1112##---001----------&oo++1-1-1-11++1-1111111111-111---##2111w",
"w1111&#&&&00-----1-1---&oo++11-1-11-#+111111111--11111---&#1111w",
"w1111&&-&-0022222222---1&&&#++++++#+11111-1111111111-1---&&1111w",
"w1111&&&&-0022222222----&&##++++++++--11111111-1111-11---&&1111w",
"w111112###--0522222252221122111111112111111111111-1111###111111w",
"w111111#&#-&002222222222111111111111112211111-11111111&##211111w",
"w111111111##&-22222222221111111111110505505005055055&#111111111w",
"w111111111&#-&22222222221111111111115050050550500505&#111111111w",
"w11111111111##-&&-55555555555555555555555555055555##11111111111w",
"w11111111111&#---&55555555555555555555555555555055&#11111111111w",
"011111111111+#&-&-55555555555555552555552555555555#+111111111110",
"w1111ooooooo11##&#1111111155555555w0w000w0w005####1111ooooooo11w",
"w1111ooooooo11#&##11111111550555550000w0w00w55&#&#1111ooooooo21w",
"w11ooooooooooo1111&-&&&&1111111-21111111&-&--&111211ooooooooo--w",
"w11ooooooooooo1111&&-&&&1-11111111111-11&-&&&&111111ooooooooo--w",
"w1111ooooooo11111121212111111111-11-11111-111111111111ooooooo11w",
"w1111ooooooo11111111111111111111111111111111111-111111ooooooo11w",
"wwwwww0ww0wwwww0wwwwwwwwwwwwwwwwwwwwwww0wwwwwwwwwwwwwwwww0wwwwww"
};
