/* XPM */
static char *_7076219e2ef4afdc585286a57cc7b29pilV41N8JSaw43x9[] = {
/* columns rows colors chars-per-pixel */
"64 64 37 1 ",
"  c black",
". c #010101",
"X c #020202",
"o c gray1",
"O c gray2",
"+ c #060606",
"@ c #070707",
"# c #090909",
"$ c gray4",
"% c #0B0B0B",
"& c #0C0C0C",
"* c gray5",
"= c #0E0E0E",
"- c gray6",
"; c #101010",
": c #111111",
"> c gray7",
", c gray8",
"< c #151515",
"1 c #161616",
"2 c gray9",
"3 c #191919",
"4 c gray10",
"5 c #1B1B1B",
"6 c gray11",
"7 c #1D1D1D",
"8 c gray12",
"9 c #202020",
"0 c gray13",
"q c #222222",
"w c #232323",
"e c gray15",
"r c gray19",
"t c #313131",
"y c gray22",
"u c #444444",
"i c gray32",
/* pixels */
"iuueeeeeeeeeeeeeeeeeeeeeeeeeeeeeeeeeeeeeeeeeeeeeeeeeeeeeeeeeeuui",
"u22222222222222222222222222222222222222222222222222222222222222u",
"u22222222222222222222222222222222222222222222222222222222222222u",
"e22222222222222222222222222222222222222222222222222222222222222e",
"e22222222222222222222222222222222222222222222222222222222222222e",
"e22222222222222222222222222222222222222222222222222222222222222e",
"e22222222222222222222222222222222222222222222222222222222222222e",
"e22222222222222222222222222222222222222222222222222222222222222e",
"e22222222222222222222222222222222222222222222222222222222222222e",
"e22222222222222222222222222222222222222222222222222222222222222e",
"u22222222222222222222222222222222222222222222222222222222222222u",
"u22222222222222222222222222222222222222222222222222222222222222u",
"i22222222222222222222222222222222222222222222222222222222222222i",
"i22222222222222222222222222222222222222222222222222222222222222i",
"iiiuueeeeeeeeeeeeeeeeeeeeeeeeeeeeeeeeeeeeeeeeeeeeeeeeeeeeeeuuiii",
"iiiuueeeeeeeeeeeeeeeeeeeeeeeeeeeeeeeeeeeeeeeeeeeeeeeeeeeeeeuuiii",
"e22222222222222222222222222222222222222222222222222222222222222e",
"e22222222222222322232222222222222222222222232223222222222222222e",
"e222222qqqyy22*;+++++#++#+++++##+++#+##+++++++++**22yy222222222e",
"e222222qqqyy22**+##++++#++#+#++++#+#+++++##++###;*22yy222222222e",
"e222222qqqyyyyyytt6q++o++o+++o+++o++++oo+o++q6ttyyyyyy222222222e",
"e222222qqqyyyyyyttqq++o++o+o+++++++oo++++++oq6ttyyyyyy222222222e",
"e222222qqqyyyyyyttq622++++o+o+6363+oo++++o22qqttyyyyyy222222222e",
"e222222qqqyyyyyyttq622+oo+++o+6333++++oo++226qttyyyyyy222222222e",
"e222222qqqyyyyyyttq622++oo++o+3666+o+++oo+226qttyyyyyy222222222e",
"e222222qqqyyyyyyttqq22o++++o++3663+++o++++226qttyyyyyy222222222e",
"e222222qqqyyyyyy33;;oo+##++++#+###+++++++#oo;;66yyyyyy222222222e",
"e222222qqqyyyyyy332;o+++++#++#+++++###++++o+2;33yyyyyy222222222e",
"e222222qqqqq666666666666666666663333336333663333rrrrrr222222222e",
"e222222qqqqq666666636666666666666633336333336633rrrrrt222222222e",
"e22222222222222232223222222222223222223222223222222222222222222e",
"e22222222222222232222222222222222222222222222222222222222222222e",
"q2222ooooooo222222222222222222222222222232222222222222222222222e",
"e2222ooooooo222222222222222222222222222233222222222222222222222e",
"e22ooooooooooo2222222222****************;;;;2222222222222222222e",
"e22ooooooooooo2222222222*******#********;;;*2222222222222222222e",
"e2222ooooooo22222222oooooooooooooooooooooooo*###222222222222222e",
"e2222ooooooo22222222oooooooooooooooooooooooo#*##222222222222222e",
"e2222222222222oooooo*#*#*###oooooo****##***#oooooo*;22222222222e",
"e2222222222222oooooo#*#*#*##oooooo*#*#**#**#oooooo*;22222222222e",
"e22222222222oo##+#########oo++++o+++#+#*#*#**#*###oo;;;;;222222e",
"e22222222222oo############oo++++++++++*#*#*##*#**#oo;;;;;222222e",
"e222222##*##+###########oo++6q6q;22;+#++#*#**#*##**##*###;;2222e",
"e222222###**###########*oo++q6q62;22+#++*#*##*#**##*##*##;;3222e",
"e222222##*;;;;;2;;;;;;;;oo++;22;;222++;22;;2;22;2;2;2;###;;2222e",
"e222223###;;;;;;;;2;;;**o+++2;22;2;2++22;2222;;2;222;2*##;;2222e",
"e2223##;;;qq2;;;;;;;;;;***##++++++++2;3333333333332333;;;##3222e",
"e2222*#***qq;;;;;2;2;;;*;*##++++++#+;23333333333333333;;;*#2222e",
"e2222**;*;qq33333333;;;2**;***;;;***22q6q6q6q6q66q6q6q;;;**2222e",
"e2222****;qq33333333;;;;**;*******;*;26q6q6q6q6qq6q6q6;;;**2222e",
"e222223###;;q6333333633322322222326q6qq6q6q6q6q66q6q6q###222222e",
"e222222#*#;*qq33333333332222222322q6q66q6q6q6q6qq6q6q6*##322222e",
"e222222222##*;666666666666666666666qq6q6q6q6q6q66q6q##222222222e",
"e222222222*#;*66666666636663666366q66q6q6q6q6q6qq666*#222222222e",
"e22222222222##;**;q6qqqqq6qqqq6qqqqeqqqqqqeqqqqq66##22222222222e",
"e22222222222*#;;;*qqqqq6qqqqqqqqqqqqqeqeqeqqqeqe66*#22222222222e",
"q22222222222+#*;*;qqq6qqqqqqqqqq6qqqqqqeqqqqqeeq66#+22222222222q",
"e2222ooooooo22##*#2222222266666666eqeqqqeqeq66####2222ooooooo22e",
"e2222ooooooo22#*##2222222;66663666qqqqqeeqqe66*#*#2222ooooooo32e",
"e22ooooooooooo2222*;***;2222222232222222*;*;;*222322ooooooooo;;e",
"e22ooooooooooo2222**;***2222222222;22222*;****222222ooooooooo;;e",
"e2222ooooooo2222223232322222222222222;222;222222222222ooooooo22e",
"e2222ooooooo222222222222222222222;22222;2222222;222222ooooooo22e",
"eeeeeeqeeqeeeeeqeeeeeeeeeeeqeeeeeeeeeeeeeeeeeeeeeeeeeeeeeqeeeeee"
};
