/* XPM */
static char *d58ca72cacee43f2d699b4a9b3a9e7c34NYFAj1s2BLFyqL9[] = {
/* columns rows colors chars-per-pixel */
"64 64 38 1 ",
"  c black",
". c #010101",
"X c #020202",
"o c gray1",
"O c gray2",
"+ c #060606",
"@ c #070707",
"# c #090909",
"$ c gray4",
"% c #0B0B0B",
"& c #0C0C0C",
"* c gray5",
"= c #0E0E0E",
"- c gray6",
"; c #101010",
": c #111111",
"> c gray7",
", c gray8",
"< c #151515",
"1 c #161616",
"2 c gray9",
"3 c #191919",
"4 c gray10",
"5 c #1B1B1B",
"6 c gray11",
"7 c #1D1D1D",
"8 c gray12",
"9 c #202020",
"0 c gray13",
"q c #222222",
"w c #232323",
"e c #252525",
"r c gray15",
"t c gray19",
"y c #313131",
"u c gray22",
"i c #444444",
"p c gray32",
/* pixels */
"piirrrrrrrrrrrrrrrrrrrrrrrrrrrrrrrrrrrrrrrrrrrrrrrrrrrrrrrrrriip",
"i22222222222222222222222222222222222222222222222222222222222222i",
"i22222222222222222222222222222222222222222222222222222222222222i",
"r22222222222222222222222222222222222222222222222222222222222222r",
"r22222222222222222222222222222222222222222222222222222222222222r",
"r22222222222222222222222222222222222222222222222222222222222222r",
"r22222222222222222222222222222222222222222222222222222222222222r",
"r22222222222222222222222222222222222222222222222222222222222222r",
"r22222222222222222222222222222222222222222222222222222222222222r",
"r22222222222222222222222222222222222222222222222222222222222222r",
"i22222222222222222222222222222222222222222222222222222222222222i",
"i22222222222222222222222222222222222222222222222222222222222222i",
"p22222222222222222222222222222222222222222222222222222222222222p",
"p22222222222222222222222222222222222222222222222222222222222222p",
"pppiirrrrrrrrrrrrrrrrrrrrrrrrrrrrrrrrrrrrrrrrrrrrrrrrrrrrrriippp",
"pppiirrrrrrrrrrrrrrrrrrrrrrrrrrrrrrrrrrrrrrrrrrrrrrrrrrrrrriippp",
"r22222222222222222222222222222222222222222222222222222222222222r",
"r22222222222222322232222222222222222222222232223222222222222222r",
"r222222qqquu22*;+++++#++#+++++##+++#+##+++++++++**22uu222222222r",
"r222222qqquu22**+##++++#++#+#++++#+#+++++##++###;*22uu222222222r",
"r222222qqquuuuuuyy6q++o++o+++o+++o++++oo+o++q6yyuuuuuu222222222r",
"r222222qqquuuuuuyyqq++o++o+o+++++++oo++++++oq6yyuuuuuu222222222r",
"r222222qqquuuuuuyyq622++++o+o+6363+oo++++o22qqyyuuuuuu222222222r",
"r222222qqquuuuuuyyq622+oo+++o+6333++++oo++226qyyuuuuuu222222222r",
"r222222qqquuuuuuyyq622++oo++o+3666+o+++oo+226qyyuuuuuu222222222r",
"r222222qqquuuuuuyyqq22o++++o++3663+++o++++226qyyuuuuuu222222222r",
"r222222qqquuuuuu33;;oo+##++++#+###+++++++#oo;;66uuuuuu222222222r",
"r222222qqquuuuuu332;o+++++#++#+++++###++++o+2;33uuuuuu222222222r",
"r222222qqqqq666666666666666666663333336333663333tttttt222222222r",
"r222222qqqqq666666636666666666666633336333336633ttttty222222222r",
"r22222222222222232223222222222223222223222223222222222222222222r",
"r22222222222222232222222222222222222222222222222222222222222222r",
"q2222ooooooo222222222222222222222222222232222222222222222222222r",
"r2222ooooooo222222222222222222222222222233222222222222222222222r",
"r22ooooooooooo2222222222****************;;;;2222222222222222222r",
"r22ooooooooooo2222222222*******#********;;;*2222222222222222222r",
"r2222ooooooo22222222oooooooooooooooooooooooo#*##222222222222222r",
"r2222ooooooo22222222oooooooooooooooooooooooo*#*#222222222222222r",
"r2222222222222oooooo*#*#*###*#####****##***#oooooo*;22222222222r",
"r2222222222222oooooo#*#*#*###*##***#*#***#*#oooooo*;22222222222r",
"r22222222222oo##+#########+#oooooo###*#*#*#**#*###oo;;;;;222222r",
"r22222223322oo############++oooooo***#*#*#*##*#**#oo;;;;;222222r",
"r222222#####+###########++oo++++++++#+#*#*#**#*##**##*###;;2222r",
"r222222##*##############++oo++++++#+++*#*#*##*##*##*##*##;;3222r",
"r222222###;22;;;;;;2;;**ooo+q6q62;2;+#+#33333333333333###;;2222r",
"r222223#*#;;;;;;;;;;;;*;oo++6q6q;22;++++33333333333332###;;2222r",
"r2223##;;*qq;;;22;;;2;*;oo++2;2;22;2##22222222222;22rr;;;##3222r",
"r2222*#*;*qq;;;;;;;;;;**oo++22;2;22;++2;222;22;22222rr;;;*#2222r",
"r2222**;*;qq33333333;;;2***#++++++++;26qq6q6q6q66q22rr*;;**2222r",
"r2222****;qq33333333;;;;**##++++++#+22q66q6q6q6qq622rq;;;**2222r",
"r222223###;;q6333333633322332222226q6q6qq6q6q6q622ttrr###222222r",
"r222222#*#;*qq33333333332222222322q6q6q66q6q6q6q;2ytrr*##322222r",
"r222222222##*;666666666666666666666q6q6qq6q6q6yyyy66*#222222222r",
"r222222222*#;*66666666636663666366q6q6q66q6q6qyyyy66*#222222222r",
"r22222222222##;**;q6qqqqq6qqqq6qqqqqrqrqrqyyyyyy66**22222222222r",
"r22222222222*#;;;*qqqqq6qqqqqqqq6qqrqqqqqryyyyyy66##22222222222r",
"q22222222222+#*;*;qqq6qqqqqqqqqqqqqqrqrqrqyyyyyy66#+22222222222q",
"r2222ooooooo22##*#2222222266666666qqqqqqqqyy66####2222ooooooo22r",
"r2222ooooooo22#*##2222222;66666666rqqqrqrqyy66##*#2222ooooooo32r",
"r22ooooooooooo2222*;***;2222232;22222222;*;;;;322322ooooooooo;;r",
"r22ooooooooooo2222**;***2222222222222;22*;****222222ooooooooo;;r",
"r2222ooooooo22222232323222222222;22;22222;222222222222ooooooo22r",
"r2222ooooooo22222222222222222222222222222222222;222222ooooooo22r",
"rrrrrrqrrqrrrrrqrrrrrrrrrrrqrrrrrrrrrrrqrrrrrrrrrrrrrrrrrqrrrrrr"
};
