/* XPM */
static char *_52e1960a0e84dfdd84bcc09c73588eeql2JsIWK3tHOlCXi[] = {
/* columns rows colors chars-per-pixel */
"64 64 7 1 ",
"  c None",
". c black",
"X c #241508",
"o c #2A1D16",
"O c #110C2B",
"+ c #202020",
"@ c gray17",
/* pixels */
"                                                                ",
"                                                                ",
"                                                                ",
"                                                                ",
"                      oooooooooooooooooooo                      ",
"                      oooooooooooooooooooo                      ",
"                    oooooooooooooooooooooooo                    ",
"                    oooooooooooooooooooooooo                    ",
"                  oooooooooooooooooooooooooooo                  ",
"                  oooooooooooooooooooooooooooo                  ",
"                oooooooooooooooooooooooooooooooo                ",
"                oooooooooooooooooooooooooooooooo                ",
"                oooooooooooooooooooooooooooooooo                ",
"                oooooooooooooooooooooooooooooooo                ",
"                oooooooooooooooooooooooooooooooo                ",
"                oooooooooooooooooooooooooooooooo                ",
"                oooooooooooooooooooooooooooooooo                ",
"                oooooooooooooooooooooooooooooooo                ",
"                oooooooooooooooooooooooooooooooo                ",
"                oooooooooooooooooooooooooooooooo                ",
"                oooooooooooooooooooooooooooooooo                ",
"                oooooooooooooooooooooooooooooooo                ",
"                oooo....oooooooooooooooo....oooo                ",
"                oooo....oooooooooooooooo....oooo                ",
"                oooooo....oooooooooooo....oooooo                ",
"                oooooo....oooooooooooo....oooooo                ",
"              oooooo@@oo......oooo......oo@@oooooo              ",
"              oooooo@@oo......oooo......oo@@oooooo              ",
"              oooooo@@@@oooo........oooo@@@@oooooo              ",
"              oooooo@@@@oooo........oooo@@@@oooooo              ",
"              oooooo@@..@@oooooooooooo@@..@@oooooo              ",
"              oooooo@@..@@oooooooooooo@@..@@oooooo              ",
"                oooooooooooooooooooooooooooooooo                ",
"                oooooooooooooooooooooooooooooooo                ",
"                oooooooooooooooooooooooooooooooo                ",
"                oooooooooooooooooooooooooooooooo                ",
"                ooXXooXXooXXooXXXXooXXooXXooXXoo                ",
"                ooXXooXXooXXooXXXXooXXooXXooXXoo                ",
"                XXooXXooXXooXX....XXooXXooXXooXX                ",
"                XXooXXooXXooXX....XXooXXooXXooXX                ",
"                ooXXooXXooXX........XXooXXooXXoo                ",
"                ooXXooXXooXX........XXooXXooXXoo                ",
"                XXooXXooXX............XXooXXooXX                ",
"                XXooXXooXX............XXooXXooXX                ",
"                ooXXooXXooXXooXXXXooXXooXXooXXoo                ",
"                ooXXooXXooXXooXXXXooXXooXXooXXoo                ",
"            oo++++++++++++oooooooooooo++++++++++++oo            ",
"            oo++++++++++++oooooooooooo++++++++++++oo            ",
"          oooo++++++++++++oooooooooooo++++++++++++oooo          ",
"          oooo++++++++++++oooooooooooo++++++++++++oooo          ",
"            oo++++++++++++++++++++++++++++++++++++oo            ",
"            oo++++++++++++++++++++++++++++++++++++oo            ",
"                ++++++++++++++++++++++++++++++++                ",
"                ++++++++++++++++++++++++++++++++                ",
"                @@OO@@OOOOOOOOOOOOOOOOOOOO@@OO@@                ",
"                @@OO@@OOOOOOOOOOOOOOOOOOOO@@OO@@                ",
"                @@OO@@OOOOOOOO....OOOOOOOO@@OO@@                ",
"                @@OO@@OOOOOOOO....OOOOOOOO@@OO@@                ",
"                ................................                ",
"                ................................                ",
"                  ............................                  ",
"                  ............................                  ",
"                    ........................                    ",
"                    ........................                    "
};
