/* XPM */
static char *_2e89be918344207ddbeeab8856c8a87zp2E7WOLmqiYLusa[] = {
/* columns rows colors chars-per-pixel */
"64 64 165 2 ",
"   c #000002",
".  c #000003",
"X  c #000104",
"o  c #000105",
"O  c #000106",
"+  c #000107",
"@  c #000108",
"#  c #000109",
"$  c #00010A",
"%  c #00020B",
"&  c #00020C",
"*  c #00020D",
"=  c #00020E",
"-  c #00020F",
";  c #000210",
":  c #010311",
">  c #010312",
",  c #010313",
"<  c #010314",
"1  c #010315",
"2  c #010316",
"3  c #010317",
"4  c #010418",
"5  c #010419",
"6  c #01041A",
"7  c #01041B",
"8  c #01041C",
"9  c #01041D",
"0  c #01041E",
"q  c #01051F",
"w  c #010520",
"e  c #010521",
"r  c #010522",
"t  c #010523",
"y  c #010524",
"u  c #010525",
"i  c #010626",
"p  c #010627",
"a  c #010628",
"s  c #010629",
"d  c #01062A",
"f  c #01062B",
"g  c #01062C",
"h  c #01072D",
"j  c #01072E",
"k  c #01072F",
"l  c #010730",
"z  c #010731",
"x  c #020731",
"c  c #020732",
"v  c #020833",
"b  c #020834",
"n  c #020835",
"m  c #020836",
"M  c #020837",
"N  c #020838",
"B  c #020839",
"V  c #02093A",
"C  c #02093B",
"Z  c #02093C",
"A  c #02093D",
"S  c #02093E",
"D  c #02093F",
"F  c #020940",
"G  c #020A41",
"H  c #020A42",
"J  c #020A43",
"K  c #020A44",
"L  c #020A45",
"P  c #020A46",
"I  c #020A47",
"U  c #020B48",
"Y  c #020B49",
"T  c #020B4A",
"R  c #020B4B",
"E  c #020B4C",
"W  c #020B4D",
"Q  c #020B4E",
"!  c #020C4F",
"~  c #020C50",
"^  c #020C51",
"/  c #020C52",
"(  c #030C53",
")  c #030C54",
"_  c #030D55",
"`  c #030D56",
"'  c #030D57",
"]  c #030D58",
"[  c #030D59",
"{  c #030D5A",
"}  c #030D5B",
"|  c #030E5C",
" . c #030E5D",
".. c #030E5E",
"X. c #030E5F",
"o. c #030E60",
"O. c #030E61",
"+. c #030E62",
"@. c #030F63",
"#. c #030F64",
"$. c #030F65",
"%. c #030F66",
"&. c #030F67",
"*. c #030F68",
"=. c #030F69",
"-. c #03106A",
";. c #03106B",
":. c #03106C",
">. c #03106D",
",. c #03106E",
"<. c #03106F",
"1. c #031070",
"2. c #031171",
"3. c #031172",
"4. c #041173",
"5. c #041174",
"6. c #041175",
"7. c #041176",
"8. c #041277",
"9. c #041278",
"0. c #041279",
"q. c #04127A",
"w. c #04127B",
"e. c #04127C",
"r. c #04127D",
"t. c #04137E",
"y. c #04137F",
"u. c #041380",
"i. c #041381",
"p. c #041382",
"a. c #041383",
"s. c #041384",
"d. c #041485",
"f. c #041486",
"g. c #041487",
"h. c #041488",
"j. c #041489",
"k. c #04148A",
"l. c #04148B",
"z. c #04158C",
"x. c #04158D",
"c. c #04158E",
"v. c #04158F",
"b. c #041590",
"n. c #041591",
"m. c #041592",
"M. c #041693",
"N. c #041694",
"B. c #051694",
"V. c #051695",
"C. c #051696",
"Z. c #051697",
"A. c #051698",
"S. c #051799",
"D. c #05179A",
"F. c #05179B",
"G. c #05179C",
"H. c #05179D",
"J. c #05179F",
"K. c #0518A0",
"L. c #0518A2",
"P. c #0518A3",
"I. c #0518A5",
"U. c #0519A7",
"Y. c #061DC5",
/* pixels */
"              X X X @ X @ X @ @ @ & @ & & & & & ; & ; ; ; ; ; ; ; ; ; ; ; ; ; & ; & ; & & & & @ & @ @ @ @ X X X X X X X X       ",
"            X X X X X X X @ @ @ @ @ & & @ & & & & ; ; ; & ; & ; ; ; ; ; & ; ; ; ; & & & & & & & @ @ @ @ @ @ @ X X @ X X X       ",
"              X X X X X X @ @ @ X @ & @ & & & & & & & ; ; ; & & ; ; ; ; ; ; ; & & ; & & & & & & @ @ @ @ X X X X X X X X X       ",
"          X X b $.b X N $.N @ N =.N & C =.Z & Z =.J ; Z =.Z 1 J ,.Z 1 Z ,.Z ; J ;.Z ; C =.Z & Z =.C @ C &.V @ m &.M X X X       ",
"        X X @ $.Y.$.X $.Y.=.@ =.Y.=.& =.Y.=.& =.Y.=.; =.Y.1.1 ,.Y.,.1 ,.Y.,.1 ,.Y.;.> ;.Y.;.& -.Y.=.& ;.Y.&.@ =.Y.&.X X X X X   ",
"        X X X b $.N @ N =.N & C =.Z & Z =.J 1 J 4.K 1 J 1.K 1 K 1.K 1 J ,.K 1 J ,.J > J ,.J ; J =.Z @ D =.m @ V &.M @ X X X X X ",
"  X   X X X X X X @ @ @ & @ & & & & ; 1 1 1 1 1 1 7 1 7 7 9 7 9 9 7 9 7 9 7 7 7 7 1 1 1 ; 1 ; ; ; ; & & & @ @ @ X @ @ X X X X X ",
"X   X b $.b X N $.N @ N =.Z & C =.J ; Z -.J 7 K =.Y 0 K ,.K 9 K 1.K 9 Y ,.K 9 K ,.J 7 J ,.J 1 J ,.D ; D =.V & V &.B X M &.M X X ",
"X X   &.Y.&.X &.Y.=.@ -.Y.:.; -.Y.:.1 =.Y.3.7 =.Y.4.r 4.Y.5.r 4.Y.6.r 6.Y.5.r 4.Y.4.0 4.Y.:.7 :.Y.,.> ;.Y.;.& ;.Y.&.@ =.Y.+.X X ",
"X X X m &.M @ B =.C & Z -.Z ; Z =.J 7 J 4.Y 0 Y 6.Y r Y 5.E i / 9.~ i ! 9.E r E 5.E r K 7.K 7 K ,.F 1 D ;.D & V =.B @ B =.M X X ",
"X X X X X X X @ @ & & ; ; & 1 1 7 7 7 0 7 0 r r y y s s s s s s s s s s s s s i s i r r r 9 0 7 7 1 1 1 > > = = & & @ @ @ X @ X ",
"X X   M &.B @ V =.Z & Z ;.J 1 J =.K 0 K 4.Y r E 4./ s / 5./ j ) 9.( j ' 9./ s / 7.E s E 3.Y 9 Y ,.U 7 F ,.D > D =.V & B =.V @ X ",
"@ X @ %.Y.&.@ =.Y.;.& ;.Y.,.1 ,.Y.4.0 3.Y.5.i 6.Y.q.j q.Y.q.z 9.Y.e.b e.Y.e.z e.Y.7.s 9.Y.6.r 6.Y.,.7 1.Y.,.> ,.Y.&.@ &.Y.&.@ X ",
"X @ X V ;.V & V ;.D > D ,.K 7 K 4.Y r E 9./ j ' y.) z [ y.X.N X.u.| N | u.| b } y.{ z _ 9./ s E 6.T 9 U ,.F 1 F =.D ; D =.B @ @ ",
"X @ X @ @ @ & & & > 1 1 7 7 9 9 0 i y i s j j z z b N N N Z Z Z J Z Z Z Z N Z N b b b z j j s s i r 9 9 9 7 1 1 1 ; ; & & & & @ ",
"@ @ @ V %.D & V ;.D ; J ,.K 9 T 4.E s / 9.` m { e.X.Z X.y.@.J @.u.+.K +.u.&.J | y.{ N { 9.) z / 6.! r ! 1.L 7 F ,.F & D =.V & @ ",
"@ @ @ =.Y.=.& ;.Y.,.1 ,.Y.1.9 1.Y.w.j 9.Y.y.m y.Y.s.J u.Y.d.Y h.Y.h.Y d.Y.d.K s.Y.u.Z u.Y.e.z e.Y.6.i 6.Y.4.7 4.Y.=.; =.Y.=.& & ",
"@ @ @ B =.D & D ,.F 1 U 1.T r ! w.' j [ y.| C +.d.=.K =.h.:.E =.x.:.E =.x.:.Y =.l.$.F @.u.X.b { 9.' s ! 5.Y 0 K =.J 1 Z =.Z & & ",
"& @ & & & ; ; 1 1 7 7 9 r r i a a j v m C C Z K K Y E E ~ E _ / ~ _ / / / / / E Y Y Y J J Z N b m j s s y r r 0 0 7 1 1 ; ; & & ",
"& & & B ;.F ; F ,.F 7 U 4.! i ! w.' m [ y.+.K %.h.:.~ :.x.3._ 3.x.3.{ 7.x.=.) =.l.=.Y $.u.@.Z X.9.' j ( 5.Y r Y =.K 1 F ,.Z & & ",
"& & @ ;.Y.;., ,.Y.1.9 1.Y.6.s 6.Y.u.C u.Y.d.K d.Y.x._ x.Y.x.X.b.Y.b.@.b.Y.b.{ b.Y.l.E l.Y.u.K s.Y.e.x 9.Y.6.r 5.Y.,.7 ,.Y.;.; & ",
"& & & D ;.D < F 1.L r T 6.( j ' e.| C +.d.;.! ,.x.6.{ 6.V.q.@.q.V.e.$.e.V.9.X.9.b.4.) =.l.=.K $.s.| m ' 9.( i E 1.L 7 F ,.Z ; & ",
"& & & & ; < < 4 7 9 9 r s j j m C C Z K Y E ! ' { { X.@.@.$.&.-.=.=.=.$.=.$.$.@.X.{ { ) / E Y K F D m m j s s i 9 9 7 1 1 ; ; & ",
"& & & V ,.F < F 1.T r ! 6.( v [ e.+.J &.d.,.( 1.x.9.@.e.b.i.-.u.D.u.4.u.V.u.$.e.b.6.X.6.x.=.E $.s.| V [ 9._ s E 1.T 9 L ,.J ; ; ",
"; & ; ;.Y.,.< ,.Y.6.y 6.Y.e.m e.Y.d.K h.Y.x.{ x.Y.V.=.V.Y.F.3.F.Y.D.5.H.Y.D.=.D.Y.V.@.b.Y.l./ l.Y.u.Z u.Y.6.j 9.Y.1.9 1.Y.;.> = ",
"& ; & D ,.F 6 L 1.W y ! 9.' m [ u.=.Y ,.x.6.{ 9.V.u.:.s.H.k.7.k.K.l.9.l.H.l.3.s.H.u.@.9.b.3._ =.h.+.J | e.' j ~ 6.T 7 U ,.G > > ",
"& ; & , , < 6 0 9 r a a j v m D J K Y ~ _ { X.@.=.-.:.3.7.7.q.q.e.e.9.9.9.6.6.3.=.=.&.&.X.{ _ / ! K J C C v j s i r r 7 7 1 > > ",
"; ; & D ,.F 6 Y 1.W i ( 9.[ V | s.=.Y ,.x.6.@.9.V.s.3.h.H.x.q.x.K.b.u.b.K.x.6.l.D.u.=.e.b.6.{ =.d.&.J +.e.' z ( 6.T 9 T ,.G > > ",
"; ; ; ;.Y.1.6 =.Y.9.s 6.Y.y.V y.Y.h.! h.Y.V.@.V.Y.H.6.H.Y.P.y.P.Y.I.i.P.Y.K.e.K.Y.D.=.D.Y.b.[ x.Y.s.K s.Y.9.v 9.Y.1.9 1.Y.,.> > ",
"; & & F ,.F 6 Y 6.! s ( e.| D +.d.,.~ 1.b.e.%.e.H.h.9.x.P.b.i.V.I.V.s.V.I.b.e.x.K.h.=.s.V.9.| 6.h.=.K &.y.[ v ' 8.! r T ,.G 1 > ",
"; & ; < < 4 4 0 r i s j v V D F Y Y ~ [ | +.%.;.3.6.9.e.u.d.s.d.g.g.s.g.s.i.u.e.9.6.1.=.=.+.| [ ~ E K K C C v j a i r 9 7 7 1 > ",
"; ; ; F ,.L 4 Y 1.( s ( e.| V +.d.,.' 1.b.e.;.u.D.h.9.b.P.b.d.V.I.V.h.V.I.V.u.b.H.h.6.s.V.9.| 6.x.=.K &.y.[ v ' 8.! r T ,.G 1 > ",
"; ; & ,.Y.1.9 1.Y.6.s 9.Y.u.Z u.Y.h.' x.Y.V.=.D.Y.P.9.P.Y.I.d.I.Y.I.k.U.Y.I.u.I.Y.H.3.F.Y.b.X.x.Y.d.Y d.Y.e.M e.Y.1.r 6.Y.,.1 > ",
"; ; ; F ,.J 9 K 6./ s ( e.| Z &.h.;.( 1.b.e.=.u.D.x.9.b.I.V.d.D.I.D.k.V.I.N.u.x.H.g.3.g.V.q.X.6.x.=.Y $.u.[ x ' 9.! r T ,.L 1 > ",
"; ; ; ; 1 1 9 9 r i s z b N Z K T ! ( [ +.+.=.,.1.6.e.u.u.s.d.d.k.k.k.k.g.g.g.y.y.7.7.:.-.@.X.{ ~ ! K K D M x j s i r 9 7 7 1 1 ",
"; ; & J ,.K 7 K 1.! s ( e.+.Z +.d.,.' 1.b.e.;.u.D.x.9.x.P.V.d.D.I.D.g.V.I.b.i.x.H.k.3.s.D.q.X.3.x.-.K &.u.[ M ' 9.W r Y 1.F 1 1 ",
"; ; ; ;.Y.,.7 ,.Y.9.s 9.Y.u.Z u.Y.h.' h.Y.V.;.V.Y.H.9.K.Y.I.u.I.Y.I.k.I.Y.P.y.P.Y.D.3.H.Y.x.X.b.Y.d.Y s.Y.e.z e.Y.6.r 1.Y.,.1 > ",
"& ; & D ,.K 7 K 6.E s ~ e.[ Z +.d.;.~ 1.b.e.@.y.D.h.9.l.P.b.d.b.I.N.i.b.P.x.y.x.H.s.:.u.V.q.{ 3.h.=.K $.u.{ z ` 6.T r T ,.F 1 > ",
"& ; ; > ; 1 7 9 9 i s j z m Z Z K Y ~ ' [ | +.=.,.1.6.9.9.e.y.u.i.i.i.i.y.y.q.7.6.3.-.=.$.X.{ ) ~ Y K Z C m z j a y r 9 7 7 1 > ",
"; ; & D ;.J 7 Y 1.E s ~ e.[ C +.d.=.Y ,.b.6.+.e.D.d.1.l.P.x.e.x.I.b.y.x.K.x.q.k.H.s.=.u.b.7._ 3.h.=.J @.e.{ j ~ 6.T 9 U ,.G > > ",
"; ; ; ;.Y.,.7 ,.Y.6.s 6.Y.e.m e.Y.h.Y h.Y.b.X.b.Y.H.,.F.Y.P.w.P.Y.P.q.H.Y.H.6.H.Y.V.=.V.Y.x._ x.Y.u.J u.Y.6.j 9.Y.1.0 1.Y.,.> > ",
"& & & D ;.F 7 F 3.Y i E 9.{ m | u.&.Y =.h.6.X.9.b.u.;.u.F.d.6.h.D.k.7.k.H.h.3.u.V.e.$.9.x.4./ =.d.+.J | e.' j ~ 8.T 0 U ,.G > = ",
"; ; & ; > 1 1 7 0 9 i i s z m m Z J K Y E ' _ X.+.+.&.,.;.,.1.1.3.3.3.3.3.=.:.-.$.$.@.{ { _ / Y K K Z C m j s s y 0 0 4 1 > > > ",
"& & & D ,.F 1 F 3.Y r E 9._ z [ u.&.J &.x.=.' 1.V.9.+.e.F.u.,.u.D.g.3.u.D.u.=.u.V.6.X.6.b.=.Y =.d.+.C [ e.( i ( 6.U 4 U ,.D > = ",
"% = @ ;.Y.;.1 ,.Y.6.r 3.Y.9.z 9.Y.s.J u.Y.l./ l.Y.b.+.b.Y.V.&.D.Y.V.&.V.Y.V.@.b.Y.x.{ x.Y.s.Y s.Y.e.C e.Y.6.i 6.Y.,.7 1.Y.;.= = ",
"% % = V ;.D > G =.K r Y 6.E j ` e.[ C +.u.=.E =.h.1.[ 6.b.9.+.9.b.q.&.q.x.q.X.6.x.3._ :.d.$.K @.e.| m [ 8.( i T ,.U 7 G ,.D = = ",
"% % = % = > > 1 7 7 0 9 i s s j z b C Z J K Y E / / ' ' [ | | | X.X.X.{ X.X.{ { _ _ E Y Y K J Z C m v j a i r r 9 7 1 1 > > = = ",
"@ @ @ V ;.D > F =.K 0 Y 6.E s ) e.[ m | u.&.K =.x.=.E 4.b.1.[ 6.b.7.{ 7.x.3.~ 3.x.=.E =.d.@.Z X.e.' j ( 8.! r T 1.G 1 G ;.D = % ",
"& & @ ;.Y.=.; ;.Y.,.7 ,.Y.6.i 6.Y.e.z e.Y.u.J u.Y.l.Y s.Y.h.' h.Y.h.' h.Y.h.( h.Y.d.Y d.Y.e.V y.Y.9.j 9.Y.1.r 1.Y.,.1 ,.Y.;.& @ ",
"@ @ @ V =.D ; D ,.F 1 U ,.T i T 6.) z ' e.| Z | u.&.K &.d.;.Y ;.d.;.! ;.d.&.Y &.s.+.F | y.[ m ' 9.~ s E 6.K 9 K ,.J ; J ;.Z & & ",
"@ @ @ @ @ & ; & > 1 1 7 7 9 9 i s s j z b b N Z Z J J J L L L L T T K T Y K L F F F D V V m v j j s s i r 9 0 7 1 > > ; ; & & @ ",
"@ @ @ V &.D & D ;.F 1 F ,.Y 9 Y 6.E s ) e.[ z [ u.| C +.d.%.F &.d.%.J &.d.&.F +.d.| V [ e.' j ( 9.E i Y 1.K 7 K ,.J & Z ;.Z & @ ",
"X @ @ =.Y.=.& =.Y.;.> ;.Y.1.9 1.Y.6.i 6.Y.9.v 9.Y.e.V e.Y.u.D u.Y.u.J u.Y.u.D e.Y.9.m e.Y.9.s 6.Y.4.r 4.Y.=.7 =.Y.;.& ;.Y.=.@ @ ",
"X @ X M &.M & V ;.D > D ,.F 7 L 3.Y i Y 6.~ s ~ 9.' z ' e.| m [ e.[ C [ 9.[ x [ 9.' j ' 6.! s ! 4.Y 0 K =.J ; J ;.Z ; Z =.m @ @ ",
"@ @ X @ X X & & @ = = > 1 1 1 7 9 9 r r i i i s j j j j x x M x v v v v M x z j j s s s i i r r 0 0 0 7 7 1 1 ; ; & & & @ @ @ X ",
"X X X B =.B @ B %.D = D ;.F 1 F =.K 0 Y 6.Y i ! 6.~ s ' 9.' j ' 9.' j ' 9.' s ' 9.( s W 8.T q T 4.K 7 J 4.Z ; J ,.Z & C =.m @ @ ",
"X X X +.Y.&.@ &.Y.;.& =.Y.,.; ,.Y.,.7 ,.Y.1.r 1.Y.6.i 8.Y.w.a w.Y.9.s 9.Y.6.s 6.Y.8.i 1.Y.4.9 1.Y.,.1 ,.Y.,.; =.Y.&.& =.Y.&.X X ",
"@ X X M &.B X V &.V @ D =.D > D ;.J 1 J 1.K 9 K 1.T r T 1.T i T 6.E i W 6.Y i W 1.T 9 T ,.U 7 U ,.F 1 F ;.Z ; Z &.C @ N &.b X X ",
"X X X X   X X @ X @ & & & & & ; > > 1 1 7 7 7 7 9 9 9 q q r i r r i r r r r 9 r 9 9 9 7 7 7 1 1 1 1 ; ; & & & & @ X @ @ @ X X X ",
"X X X X X X X m =.m @ V ;.V & D ,.Z > J ,.J 1 J 1.U 7 U 4.T 9 T 1.Y 9 Y 1.Y 9 Y 1.L 7 L ,.G 1 G ,.D ; Z ;.Z & Z =.C @ X X X X @ ",
"X X X   X X X &.Y.&.@ &.Y.=.& =.Y.;.> ,.Y.,.1 ,.Y.,.7 ,.Y.,.9 1.Y.1.9 1.Y.1.7 ,.Y.,.1 ,.Y.,.; ;.Y.=.& =.Y.=.@ =.Y.&.X @ X X X X ",
"      X   X X m &.V X V =.m @ V ;.Z & Z ;.Z > Z ;.G 1 G ,.G 1 G ,.G 7 F ,.F 7 F ,.F 1 D ;.D > D =.V & V =.N @ N &.N X X @ X X X ",
"        X X @ X   X X @ @ @ @ & & & & ; > & > > > 1 > > > 1 1 1 1 1 1 1 1 > > 1 1 > > > & ; ; ; & & & @ @ @ @ @ X X X X X X X X ",
"          X X X X X X @ @ @ @ @ @ & & & & & = = = = > > > > > 1 > 1 1 > > > > > > ; & ; ; & & & & & @ @ @ @ X @ X X X X X X     "
};
