/* XPM */
static char *_3a870249184428988e80e1235fc8d3bjoFfg0m0Y2giEBBe[] = {
/* columns rows colors chars-per-pixel */
"64 64 209 2 ",
"   c #020002",
".  c #030103",
"X  c #040104",
"o  c #040105",
"O  c #050106",
"+  c #060207",
"@  c #070208",
"#  c #080209",
"$  c #09020A",
"%  c #0A030B",
"&  c #0B030C",
"*  c #0B030D",
"=  c #0C030E",
"-  c #0D040F",
";  c #0E0410",
":  c #0F0411",
">  c #100412",
",  c #110513",
"<  c #120514",
"1  c #120515",
"2  c #130516",
"3  c #140617",
"4  c #150618",
"5  c #160619",
"6  c #17061A",
"7  c #18071B",
"8  c #19071C",
"9  c #19071D",
"0  c #1A071E",
"q  c #1B081F",
"w  c #1C0820",
"e  c #1D0821",
"r  c #1E0822",
"t  c #1F0923",
"y  c #200924",
"u  c #210925",
"i  c #210926",
"p  c #220927",
"a  c #230A28",
"s  c #240A29",
"d  c #250A2A",
"f  c #260A2B",
"g  c #270B2C",
"h  c #280B2D",
"j  c #280B2E",
"k  c #290B2F",
"l  c #2A0C30",
"z  c #2B0C31",
"x  c #2C0C32",
"c  c #2D0C33",
"v  c #2E0D34",
"b  c #2F0D35",
"n  c #2F0D36",
"m  c #300D37",
"M  c #310E38",
"N  c #320E39",
"B  c #330E3A",
"V  c #340E3B",
"C  c #350F3C",
"Z  c #360F3D",
"A  c #360F3E",
"S  c #370F3F",
"D  c #38103F",
"F  c #391040",
"G  c #3A1041",
"H  c #3B1042",
"J  c #3C1143",
"K  c #3D1144",
"L  c #3D1145",
"P  c #3E1146",
"I  c #3F1247",
"U  c #401248",
"Y  c #411249",
"T  c #42124A",
"R  c #43124B",
"E  c #44134C",
"W  c #45134D",
"Q  c #45134E",
"!  c #46134F",
"~  c #471450",
"^  c #481451",
"/  c #491452",
"(  c #4A1453",
")  c #4B1554",
"_  c #4C1555",
"`  c #4C1556",
"'  c #4D1557",
"]  c #4E1658",
"[  c #4F1659",
"{  c #50165A",
"}  c #51165B",
"|  c #52175C",
" . c #53175D",
".. c #53175E",
"X. c #54175F",
"o. c #551860",
"O. c #561861",
"+. c #571862",
"@. c #581863",
"#. c #591964",
"$. c #5A1965",
"%. c #5A1966",
"&. c #5B1967",
"*. c #5C1A68",
"=. c #5D1A69",
"-. c #5E1A6A",
";. c #5F1A6B",
":. c #601B6C",
">. c #611B6D",
",. c #621B6E",
"<. c #621B6F",
"1. c #631B70",
"2. c #641C71",
"3. c #651C72",
"4. c #661C73",
"5. c #671C74",
"6. c #681D75",
"7. c #691D76",
"8. c #691D77",
"9. c #6A1D78",
"0. c #6B1E79",
"q. c #6C1E7A",
"w. c #6D1E7B",
"e. c #6E1E7C",
"r. c #6F1F7D",
"t. c #701F7E",
"y. c #701F7F",
"u. c #711F80",
"i. c #722081",
"p. c #732082",
"a. c #742083",
"s. c #752084",
"d. c #762185",
"f. c #772186",
"g. c #772187",
"h. c #782188",
"j. c #792289",
"k. c #7A228A",
"l. c #7B228B",
"z. c #7C228C",
"x. c #7D238D",
"c. c #7E238E",
"v. c #7E238F",
"b. c #7F2390",
"n. c #802391",
"m. c #812492",
"M. c #822493",
"N. c #832494",
"B. c #842495",
"V. c #852596",
"C. c #862597",
"Z. c #862598",
"A. c #872599",
"S. c #88269A",
"D. c #89269B",
"F. c #8A269C",
"G. c #8B269D",
"H. c #8C279E",
"J. c #8D279F",
"K. c #8D27A0",
"L. c #8E27A1",
"P. c #8F28A2",
"I. c #9028A3",
"U. c #9128A4",
"Y. c #9228A5",
"T. c #9329A6",
"R. c #9429A7",
"E. c #9429A8",
"W. c #9529A9",
"Q. c #962AAA",
"!. c #972AAB",
"~. c #982AAC",
"^. c #992AAD",
"/. c #9A2BAE",
"(. c #9B2BAF",
"). c #9B2BB0",
"_. c #9C2BB1",
"`. c #9D2CB2",
"'. c #9E2CB3",
"]. c #9F2CB4",
"[. c #A02CB5",
"{. c #A22DB7",
"}. c #A32DB8",
"|. c #A32DB9",
" X c #A42DBA",
".X c #A52EBB",
"XX c #A62EBC",
"oX c #A72EBD",
"OX c #A82EBE",
"+X c #A92FBE",
"@X c #AA2FBF",
"#X c #AA2FC0",
"$X c #AB2FC1",
"%X c #AC30C2",
"&X c #AD30C3",
"*X c #AE30C4",
"=X c #AF30C5",
"-X c #B031C6",
";X c #B131C7",
":X c #B131C8",
">X c #B231C9",
",X c #B532CC",
"<X c #B632CD",
"1X c #B833D0",
"2X c #B933D1",
"3X c #BB34D3",
"4X c #BC34D4",
"5X c #BE35D6",
"6X c #E03EFD",
/* pixels */
"        . . X . @ O O @ @ @ @ $ % % % ; ; - ; > > > 2 > < < < < < < : < < < < < , > > > ; - - - % % % % @ @ @ @ X X . X X . . . ",
"        . . X @ . O O O @ @ $ $ % - - % % - ; ; > > > > < < < < < < 2 4 < < < : , > > ; ; - - - % - % % % @ @ X X @ . @ X . . . ",
"        . . . . O O O @ @ @ $ $ - % - - ; ; ; ; > > < , > < 2 2 < < < < < < < < , ; : : ; - - % - % % % % @ @ @ @ X X X . . . . ",
"        . X . G u.J @ J p.I % I u.R % T u.Q > Q k.Q 2 Q k.Q 5 ` l.~ 5 ~ g.~ 4 ~ k.Q < Q d.Q ; R u.I % P u.L % U u.L @ X O . . . ",
"X   . . X X @ p.6Xu.% u.6Xg.% g.6Xd.; u.6Xk.2 k.6Xk.5 k.6Xc.0 u.6Xu.t u.6Xl.7 l.6Xk.< k.6Xk.< g.6Xu.- g.6Xu.% u.6Xp.@ O @ . . . ",
"  X . X X X X J p.L $ I d.I ; T d.Q 2 Q k.~ 4 ~ c.) 0 _ c.) 0 ' M.' t ' b.] w ' c.` 5 ( l.~ < ~ c./ ; R g.R & L p.L O O . @ O . ",
"X X X X @ X @ @ @ $ % % % ; ; ; 2 < 2 5 5 5 7 0 0 0 w e e e e t u u t t t t t w t 0 0 0 7 5 5 < 2 2 > > - - % % * @ @ @ @ O @ . ",
"X X X J p.L @ J p.I % I d.T : T u.Q 4 ~ l.) 0 ) l.] t ] b.} p } n.} d } b.[ t [ c._ 0 ` l.` 0 ( k.Q < Q g.R - R p.I $ L u.J O O ",
"X X . p.6Xa.% u.6Xd.; u.6Xu.5 k.6Xl.7 c.6Xc.e b.6Xm.s n.6Xm.j m.6XM.g B.6Xn.s n.6Xb.y n.6Xc.q c.6Xk.2 k.6Xd.> d.6Xd.% u.6Xu.@ X ",
"@ X X L a.L X U d.T ; T k.~ 2 / c._ 0 _ b.} s } C.O.j O.C.@.v %.F.&.l &.A.%.l &.C.O.s X.B.{ t _ c._ 7 ( z.Q , Q g.R % I u.R @ @ ",
". @ X @ % X % & ; ; ; : 2 2 5 7 0 0 t y y s g g g j v x b b m b m c m m b b b x x l j j s s y y t q 0 5 5 2 < , ; ; % % % @ @ @ ",
"@ @ X J p.R & R d.T : Q u.~ 7 ) c.] y { n.O.l O.C.%.m %.C.-.V -.F.,.Z -.A.-.M &.C.%.x @.m.O.s { c._ q ` k.( 2 Q g.T ; I u.L @ @ ",
"@ @ @ u.6Xd.- u.6Xu.< g.6Xc.0 c.6XB.s B.6XC.b C.6XF.Z F.6XJ.D J.6XK.F K.6XF.Z J.6XF.m F.6Xm.j C.6Xm.t b.6Xk.5 z.6Xu.> u.6Xu.% % ",
"@ @ @ I u.R - R z.~ < / n.] e { n.O.g O.A.-.M ,.J.1.F 3.I.7.U 7.Y.8.R 8.Y.7.J 3.K.,.Z ,.J.&.l @.A.} y { n._ 7 / c.Q 2 Q k.R % % ",
"@ @ @ $ - - - > 2 2 5 7 0 e y y s j l b b M Z D G L L R R Q Q Q ~ ~ Q Q Q T Q R U J G Z Z M m v l g g s y e 0 7 7 2 2 ; ; ; % % ",
"% $ $ I u.R > R k./ 7 _ c.} y X.m.O.b %.F.1.G 3.K.7.Q 0.I.w.` r.Y.t.` t.R.r.~ w.P.7.R 3.F.,.Z -.A.O.l } n._ q ` k./ 2 / u.T % - ",
"% % % u.6Xu.6 u.6Xc.7 c.6Xn.g M.6XF.M F.6XK.I P.6XE.( W.6X^.{ ^.6X^.| ^.6XW.] !.6XY.Q E.6XJ.F P.6XA.l A.6Xm.t b.6Xk.2 k.6Xg.- - ",
"% % % I u.) 6 ' c._ w ] M.o.g @.F.;.Z 1.P.0.T r.~.d.] g.).k.@.k.].z.O.k.].k...g./.p.` r.E.7.J 1.K.-.b %.C.} y { c.` 2 ( k.E - * ",
"; % ; ; ; : 2 5 5 0 e y s g l c M Z F L R Q ) ) ] ..O.O.%.%.-.-.-.-.-.-.-.%.%.O.O.| } ` ( T R J F Z M b j j s y t 0 5 2 2 , , - ",
"; % ; I u.~ 4 ~ c.] y } M.@.c &.F.1.L 5.P.r.] u.~.k.&.c.`.b.,.m.{.m.3.m.`.m.-.c.).d.} d.E.r.Q 7.J.,.Z -.C.O.j } c.` 0 ( k.R , - ",
"- - - d.6Xl.5 l.6Xn.y b.6XF.b F.6XK.R P.6X_.} ).6X].>.].6XoX5. X6X.X0..X6X X3.{.6X).%.`.6XW.` W.6XJ.F J.6XB.j B.6Xc.0 c.6Xk., : ",
"- - - Q c./ 5 ) b.} s O.C.-.M ,.K.0.Q r.^.u.O.c.{.B.5.A.+XF.r.P.#XK.u.K.#XF.0.F.oXm.-.c.`.k._ p.R.7.J 1.F.%.l O.n.] w _ z.E , , ",
"- ; ; > < 2 0 0 t y s g x M Z J R T / _ } O.&.;.1.5.0.r.p.p.d.d.d.k.d.d.d.u.p.w.0.5.3.;.&.O.} _ / R L F Z m x g s s e 0 5 5 < > ",
"; > ; Q k./ 0 ) b.} j O.A.;.D 3.P.r.` d.^.c.,.n.{.F.r.J.oXY.k.Y.#XY.c.W.#XP.d.P.oXA.7.B.].l.O.d.W.0.R 7.J.-.b %.M.{ t _ c./ < , ",
"> > > g.6Xc.0 c.6XB.j B.6XP.G K.6X^.] ^.6X X1.{.6XOXd.OX6X-Xm.=X6X:Xn.:X6X=Xz.&X6XoXw.oX6X).%.).6XY.E Y.6XA.M S.6Xn.y n.6Xk.< < ",
"> > > Q k.) 0 _ n.O.l %.F.<.J 7.E.p.} k.[.M.5.F.%XY.k.W.:X/.C.`.,X].F.`.,X(.n.!.=XP.r.F.oXm.-.l.).p.~ 0.P.1.B &.A.} y { b.` 5 < ",
", , , 2 5 0 e u s j x M C G L Q ` ] O.%.,.3.0.p.a.k.c.m.C.A.F.F.K.J.F.F.F.F.C.m.c.k.d.r.0.3.,.%.O.{ ( E I G C b v j s y w 7 5 < ",
", , , Q l.) e ] n.O.x &.F.3.R 0.E.d.O.c.].A.r.F.%XW.m./.:X].P. X,X.XI. X,X`.F.^.=XE.d.P..XC.1.b.).p.` r.P.1.F ;.C.} s { c.) 5 5 ",
"< < < g.6Xb.t b.6XA.v C.6XI.R I.6X).%._.6XOXr.oX6X:XC.:X6X1XY.1X6X1XW.1X6X,XJ.,X6X&Xk.&X6X X3. X6XQ.] W.6XF.F F.6XM.s B.6Xk.5 < ",
"< < < ~ l.` e } n.%.m -.J.7.Q r.^.k.&.n. XJ.p.Y.-X^.A.].1XoXY.+X4X+XW.+X1X.XK.{.,X^.c.E.+XF.5.B.].d.{ u.Y.5.G ;.A.O.g } b.` 5 5 ",
"< < < 5 0 0 e p j l m V G U Q _ } O.-.1.7.r.d.k.m.C.F.J.Y.W.W.W.^.^.^.!.W.Y.Y.K.F.C.b.k.p.r.5.1.-.O.{ ` Q I F Z b l g s t 0 7 4 ",
"< < < / k._ t } B.%.b -.J.7.Q t.^.l.-.m. XK.d.Y.=X`.F. X<XoX!.%X4X&X^.%X4XoXY..X,X).m.E.%XF.0.C.].d.| r.Y.5.F ,.A.@.g } c.` 5 5 ",
": 2 < g.6Xb.t b.6XA.M A.6XY.~ Y.6X_.;.].6X#Xk.#X6X,XJ.,X6X4X^.4X6X4X).4X6X1XW.1X6X:XB.-X6XoX0..X6X^.} ^.6XP.G P.6XB.h B.6Xl.9 4 ",
"4 4 < ~ l.] t ] B.@.M ;.K.7.~ r.^.c.;.n.oXK.d.R.-X`.J.{.1XOX^.&X4X=X`.&X4XOXR..X,X^.m.!.%XJ.0.C.].g.| p.Y.5.G >.A.O.h | b.` 9 4 ",
": 4 2 4 7 w t s g l M Z G R ~ ` X.%.,.3.0.u.g.c.m.F.J.P.W.W.^./.`.`.`.^.^.W.R.I.J.A.m.c.d.u.w.1.-.O.| _ E R G Z b l h s t q 9 < ",
"< : 2 ~ l.' t [ B.%.b ;.P.5.E p.^.k.-.n..XK.d.R.-X`.J..X1X+XW.&X4X&X/.&X4XoXY..X,X`.m.W.#XF.0.C.{.k.{ p.Y.3.G ,.F.O.h | b.` 9 5 ",
"< < < g.6Xb.t b.6XA.b A.6XR.E Y.6X`.-.{.6XOXu.#X6X,XF.,X6X3XW.1X6X4X^.4X6X,XY.1X6X-Xm.-X6X X7..X6XW.{ ^.6XJ.G P.6XB.g C.6Xl.7 2 ",
"< < 2 ~ k.` w ] B.@.b &.F.7.E r.!.k.%.c..XF.a.Y.&X(.F.`.,X.XW.oX1XOXW.OX1X.XK.{.:XW.c.R.OXF.5.n._.d.] r.Y.3.Z ,.A.O.s ..c.` 4 4 ",
"< < 2 4 5 q t t s k b M Z L T ~ ] } %.,.3.0.t.d.c.n.C.A.J.K.I.Y.W.R.R.Y.Y.K.J.A.C.m.k.d.y.0.3.,.%.X.] ( R L Z M b g s y t q 7 5 ",
": < < T l.` w ] B.@.b &.J.3.R w.^.d.O.c.{.F.r.J.&X!.m.^.,X{.J. X1X.XK..X1X`.F.`.:XW.g.I.+XC.3.n._.a._ r.Y.,.Z -.A.O.s { c.` 5 < ",
"< < < g.6Xc.w c.6XA.l A.6XK.L I.6X).O.).6X.X0..X6X=Xc.-X6X,XF.,X6X,XJ.,X6X:XC.:X6XOXd.#X6X{.,._.6XE.) E.6XF.Z F.6Xb.s B.6Xl.5 < ",
": : : T l.` 0 ] b.O.l %.A.1.L 7.Y.p.} k.`.m.7.A.oXI.k.Y.=X^.C._.-X_.A._.-XW.m.W.%XJ.r.F.{.c.-.k.~.r.~ 0.K.;.B &.C.| y ] l.( 5 < ",
": 2 ; 2 4 5 7 e t s g b M Z G I Q _ { } %.;.1.7.w.u.a.k.c.c.n.m.N.m.m.n.m.c.z.g.d.r.w.7.3.-.%.O.] ) ~ I H Z M x g s y t 7 7 4 < ",
": : : ~ k./ 0 ) b.o.g @.F.,.Z 5.Y.y._ d.`.c.-.C.oXJ.r.P.&XY.k.W.-X!.c.W.-XY.d.I.#XF.7.C.{.z.O.g.~.r.T 5.K.;.c &.B.} y ] l.~ 4 : ",
"; ; 2 u.6Xc.7 l.6XM.s B.6XF.Z F.6XE.( E.6X].-.`.6X.X0..X6XOXd.OX6X&Xg.$X6XOXt.OX6X{.3.{.6X^.} ^.6XK.I P.6XZ.x Z.6Xb.w b.6Xk.< : ",
"; ; ; R u.) 7 ) c.] s } C.&.B ;.J.0.T r.Y.d.O.k.).m.3.C. XF.r.F..XJ.u.F..XF.w.C.].b.-.k.^.u.] t.P.5.H 1.S.&.l o.b.] w ) l.~ < : ",
"% ; % ; 2 2 6 7 0 t t g g b b Z G G R T ( ] | O.%.-.,.,.3.7.0.0.0.0.0.7.7.7.3.,.,.-.%.O.} ] ( Q T H F Z m x j d t t w 7 4 < < : ",
"; % ; Q u.~ 2 ~ b.] t } B.@.v -.K.3.L 7.E.u.] d._.l.%.c..Xm.>.C..XC.3.C. Xm.:.n.].k.} k.^.y.Q 0.P.1.Z ;.A.@.d o.b.' 7 ) l.~ : : ",
"% ; % u.6Xk.< g.6Xb.e b.6XA.l C.6XK.F J.6XW.( R.6X(.O.(.6X`.=.`.6X`.-.{.6X).%._.6X~.[ ~.6XP.T P.6XF.M F.6XM.s M.6Xl.7 l.6Xu.2 : ",
"% % ; T d.~ < ~ k.` 0 ] b.} g O.B.-.S ,.J.8.R 9.R.t.] a.Q.d.O.k.^.k.%.k.^.d.O.u.E.u.` r.P.5.H 1.F.&.b %.M.} s ] c./ 7 ~ u.~ ; ; ",
"% % % % ; ; < < 4 5 0 w t u s l x m m Z S J U R Q E ( _ { { | | } X.} } } { _ ` ) ~ T T I H F Z M b l j g p t w 0 7 4 < 2 ; ; % ",
"$ % % I g.T ; T k.~ 7 ` b.} u o.Z.&.m -.J.<.H 5.R.w.Q w.W.p.( p.^.p._ u.^.u.~ r.E.8.R 5.P.1.Z ;.F.%.g O.M.] e ` l.~ 2 T u.T ; % ",
"$ @ $ u.6Xg.; d.6Xu.0 u.6Xb.t b.6XZ.l Z.6XF.Z F.6XI.L I.6XY.E R.6XY.~ Y.6XY.R Y.6XK.F K.6XA.m A.6XM.g M.6Xl.0 c.6Xu.5 u.6Xu.- % ",
"@ $ $ L u.I ; T k.Q 6 ~ l.) t ] b.o.g O.M.%.M -.F.,.G 3.J.3.U 3.K.5.I 7.K.3.J 1.F.;.Z ;.Z.&.x @.B.} s [ c.` 7 ~ c.Q 2 R k.I % % ",
"@ @ @ $ % % ; ; 2 > 2 2 6 6 w w t u s g l l c b m M Z Z D D G G J G G G F F F Z Z M M b x l k f s y t w w 0 5 4 2 > ; ; % % % @ ",
"@ O @ J u.T % T u.Q 2 ) u.) 7 ) n.] u X.M.O.g %.F.%.m -.J.>.Z >.K.,.Z ,.K.;.M ;.F.&.c %.Z.o.d o.B.] t ' c.~ 4 Q k.Q ; Q u.P % @ ",
"O O @ u.6Xu.% u.6Xk.- u.6Xc.5 z.6Xc.e c.6Xn.g M.6XA.l A.6XA.b A.6XF.b A.6XA.b A.6XM.l Z.6Xb.t b.6Xl.w l.6Xl.< k.6Xd.- u.6Xu.% X ",
"O @ . J u.I % I u.R - R k.Q 2 Q k.` 0 ` c.{ y } m.} g O.B.@.l O.B.O.v O.B.O.l | b.o.s } b.] t ' l./ 5 ~ g.T < T d.U - L u.U X % ",
"O . @ . @ @ @ @ - - - - > > < < < 5 5 0 w w t t y s s s s g g g s g g j g g s s s t s t e w w 7 0 5 4 < < : : : - % % % % X X @ ",
"O O . . . @ @ I u.R % R g.R > Q k./ 5 / c.` 0 _ n.] y ] B.} s | C.} s } B.| y | M.] w ] b.) 7 ) l.~ < ~ k.T % R u.R % X X @ @ X ",
". . . O @ . @ u.6Xu.- u.6Xg.- g.6Xc.2 k.6Xl.7 l.6Xc.w c.6Xb.t b.6Xb.t b.6Xb.t c.6Xl.w l.6Xl.5 l.6Xg.< g.6Xk.% d.6Xu.@ @ @ X @ . ",
". . . . X X @ H u.H % P u.R & R u.T < Q u.~ 5 ~ k.` 0 / l._ w ` l.` w ` l.` 0 ` l./ 5 ~ g.~ < ~ g.T : R u.I % R p.J O @ X @ @ . ",
". . . . X X X @ % @ % % % % - % ; ; ; ; 4 < < 4 4 5 5 5 7 5 q 5 0 0 7 7 7 5 5 5 5 4 4 4 4 : < : ; ; % % % % % @ @ @ @ . @ . . . ",
". . . . X X X X @ X X X % % % & % ; ; ; ; 2 ; < < < < < < 4 < 5 5 < 4 4 4 4 4 < 4 : 2 < : : ; ; ; ; % % $ $ @ @ @ @ @ O . . . . "
};
