/* XPM */
static char *d8d75cb986ea4f019555700cd2d496fdh6yWYhZlCdY0AVQe[] = {
/* columns rows colors chars-per-pixel */
"64 64 8 1 ",
"  c None",
". c black",
"X c red",
"o c #FF8E2A",
"O c #FC17FF",
"+ c gray75",
"@ c #F9AD81",
"# c white",
/* pixels */
"                                  ooooooooooooooooooooooo       ",
"                                  ooooooooooooooooooooooo       ",
"                          ooooooooooooooooooooooooooooooooo     ",
"                          ooooooooooooooooooooooooooooooooo     ",
"                ooooooooooooooooooooooooooooooooooooooooooooo   ",
"                ooooooooooooooooooooooooooooooooooooooooooooo   ",
"            ooooooooooooooooooooooooooooooooooooooooooooooo     ",
"            ooooooooooooooooooooooooooooooooooooooooooooooo     ",
"          ooooooooooooooooooooooooooooooooooooooooooooooo       ",
"          ooooooooooooooooooooooooooooooooooooooooooooooo       ",
"          ooooooooooooooooooooooooooooooooooooooooooooooooooo   ",
"          ooooooooooooooooooooooooooooooooooooooooooooooooooo   ",
"          oooooo@@@@@@@@@@@@@@@@@@@@@@@@@@@oooooooooooooooo     ",
"          oooooo@@@@@@@@@@@@@@@@@@@@@@@@@@@oooooooooooooooo     ",
"          oooo@@@@@@@@@@@@@@@@@@@@@@@@@@@@@@@oooooooooooooooo   ",
"          oooo@@@@@@@@@@@@@@@@@@@@@@@@@@@@@@@oooooooooooooooo   ",
"          oooo@@@@@@@@@@@@@@@@@@@@@@@@@@@@@@@oooooooooooooo     ",
"          oooo@@@@@@@@@@@@@@@@@@@@@@@@@@@@@@@oooooooooooooo     ",
"          oooo@@@@@@@@@@@@@@@@@@@@@@@@@@@@@@@oooooooooooo       ",
"          oooo@@@@@@@@@@@@@@@@@@@@@@@@@@@@@@@oooooooooooo       ",
"          oooo@@@@@@@@@@@@@@@@@@@@@@@@@@@@@@@oooooooooo         ",
"          oooo@@@@@@@@@@@@@@@@@@@@@@@@@@@@@@@oooooooooo         ",
"          oooo@@@@@@@@@@@@@@@@@@@@@@@@@@@@@@@oooooooooooo       ",
"          oooo@@@@@@@@@@@@@@@@@@@@@@@@@@@@@@@oooooooooooo       ",
"          oooo@@@@@@@@@@@@@@@@@@@@@@@@@@@@@@@oooooooooooooo     ",
"          oooo@@@@@@@@@@@@@@@@@@@@@@@@@@@@@@@oooooooooooooo     ",
"          oo@@@@@@@@@@@@@@@@@@@@@@@@@@@@@@@@@@@oooooooooo       ",
"          oo@@@@@@@@@@@@@@@@@@@@@@@@@@@@@@@@@@@oooooooooo       ",
"          oo@@@@@@........@@@@@@@@.......@@@@@@oooooooo         ",
"          oo@@@@@@........@@@@@@@@.......@@@@@@oooooooo         ",
"          oo@@@@@@##..##OO@@@@@@@@O##..##@@@@@@oooooo           ",
"          oo@@@@@@##..##OO@@@@@@@@O##..##@@@@@@oooooo           ",
"          oooo@@@@######OO@@@@@@@@O######@@@@oooooo             ",
"          oooo@@@@######OO@@@@@@@@O######@@@@oooooo             ",
"          oooo@@@@OOOOOOOO@@@@@@@@OOOOOOO@@@@oooo               ",
"          oooo@@@@OOOOOOOO@@@@@@@@OOOOOOO@@@@oooo               ",
"            oo@@@@@@@@@@@@@@@@@@@@@@@@@@@@@@@oo                 ",
"            oo@@@@@@@@@@@@@@@@@@@@@@@@@@@@@@@oo                 ",
"              @@@@@@@@@@@@@@####@@@@@@@@@@@@@                   ",
"              @@@@@@@@@@@@@@####@@@@@@@@@@@@@                   ",
"              @@@@@@@@@@@@@@....@@@@@@@@@@@@@                   ",
"              @@@@@@@@@@@@@@....@@@@@@@@@@@@@                   ",
"              @@@@@@@@@@@@@@....@@@@@@@@@@@@@                   ",
"              @@@@@@@@@@@@@@....@@@@@@@@@@@@@                   ",
"              @@@@@@@@@@@@@@####@@@@@@@@@@@@@                   ",
"              @@@@@@@@@@@@@@####@@@@@@@@@@@@@                   ",
"          @@@@##@@@@@@@@@@@@@@@@@@@@@@@@@@@##@@@@               ",
"          @@@@##@@@@@@@@@@@@@@@@@@@@@@@@@@@##@@@@               ",
"        @@@@@@##@@@@@@@@@@@@@@@@@@@@@@@@@@@##@@@@@@             ",
"        @@@@@@##@@@@@@@@@@@@@@@@@@@@@@@@@@@##@@@@@@             ",
"          @@@@###############################@@@@               ",
"          @@@@###############################@@@@               ",
"              ###############################                   ",
"              ###############################                   ",
"              XXXXXXXXXXXXXXXXXXXXXXXXXXXXXXX                   ",
"              XXXXXXXXXXXXXXXXXXXXXXXXXXXXXXX                   ",
"              XXXXXXXXXXXXXX    XXXXXXXXXXXXX                   ",
"              XXXXXXXXXXXXXX    XXXXXXXXXXXXX                   ",
"              XXXXXXXXXXXX        XXXXXXXXXXX                   ",
"              XXXXXXXXXXXX        XXXXXXXXXXX                   ",
"                ++++++++           ++++++++                     ",
"                ++++++++           ++++++++                     ",
"                  ++++               ++++                       ",
"                  ++++               ++++                       "
};
