/* XPM */
static char *bca272ba13974146ab68e091a81820494p8dSRMhAPERG2Dy[] = {
/* columns rows colors chars-per-pixel */
"64 64 8 1 ",
"  c None",
". c black",
"X c gray5",
"o c #120000",
"O c #120A03",
"+ c #120C09",
"@ c #120212",
"# c gray7",
/* pixels */
"                                                                ",
"                                                                ",
"                                  OOOOOOOOOOOOOOOOOOOOOOO       ",
"                                  OOOOOOOOOOOOOOOOOOOOOOO       ",
"                          OOOOOOOOOOOOOOOOOOOOOOOOOOOOOOOOO     ",
"                          OOOOOOOOOOOOOOOOOOOOOOOOOOOOOOOOO     ",
"                OOOOOOOOOOOOOOOOOOOOOOOOOOOOOOOOOOOOOOOOOOOOO   ",
"                OOOOOOOOOOOOOOOOOOOOOOOOOOOOOOOOOOOOOOOOOOOOO   ",
"            OOOOOOOOOOOOOOOOOOOOOOOOOOOOOOOOOOOOOOOOOOOOOOO     ",
"            OOOOOOOOOOOOOOOOOOOOOOOOOOOOOOOOOOOOOOOOOOOOOOO     ",
"          OOOOOOOOOOOOOOOOOOOOOOOOOOOOOOOOOOOOOOOOOOOOOOO       ",
"          OOOOOOOOOOOOOOOOOOOOOOOOOOOOOOOOOOOOOOOOOOOOOOO       ",
"          OOOOOOOOOOOOOOOOOOOOOOOOOOOOOOOOOOOOOOOOOOOOOOOOOOO   ",
"          OOOOOOOOOOOOOOOOOOOOOOOOOOOOOOOOOOOOOOOOOOOOOOOOOOO   ",
"          OOOOOO+++++++++++++++++++++++++++OOOOOOOOOOOOOOOO     ",
"          OOOOOO+++++++++++++++++++++++++++OOOOOOOOOOOOOOOO     ",
"          OOOO+++++++++++++++++++++++++++++++OOOOOOOOOOOOOOOO   ",
"          OOOO+++++++++++++++++++++++++++++++OOOOOOOOOOOOOOOO   ",
"          OOOO+++++++++++++++++++++++++++++++OOOOOOOOOOOOOO     ",
"          OOOO+++++++++++++++++++++++++++++++OOOOOOOOOOOOOO     ",
"          OOOO+++++++++++++++++++++++++++++++OOOOOOOOOOOO       ",
"          OOOO+++++++++++++++++++++++++++++++OOOOOOOOOOOO       ",
"          OOOO+++++++++++++++++++++++++++++++OOOOOOOOOO         ",
"          OOOO+++++++++++++++++++++++++++++++OOOOOOOOOO         ",
"          OOOO+++++++++++++++++++++++++++++++OOOOOOOOOOOO       ",
"          OOOO+++++++++++++++++++++++++++++++OOOOOOOOOOOO       ",
"          OOOO+++++++++++++++++++++++++++++++OOOOOOOOOOOOOO     ",
"          OOOO+++++++++++++++++++++++++++++++OOOOOOOOOOOOOO     ",
"          OO+++++++++++++++++++++++++++++++++++OOOOOOOOOO       ",
"          OO+++++++++++++++++++++++++++++++++++OOOOOOOOOO       ",
"          OO++++++........++++++++.......++++++OOOOOOOO         ",
"          OO++++++........++++++++.......++++++OOOOOOOO         ",
"          OO++++++######@@++++++++@######++++++OOOOOO           ",
"          OO++++++######@@++++++++@######++++++OOOOOO           ",
"          OOOO++++##..##@@++++++++@##..##++++OOOOOO             ",
"          OOOO++++##..##@@++++++++@##..##++++OOOOOO             ",
"          OOOO++++@@@@@@@@++++++++@@@@@@@++++OOOO               ",
"          OOOO++++@@@@@@@@++++++++@@@@@@@++++OOOO               ",
"            OO+++++++++++++++++++++++++++++++OO                 ",
"            OO+++++++++++++++++++++++++++++++OO                 ",
"              ++++++++++++++####+++++++++++++                   ",
"              ++++++++++++++####+++++++++++++                   ",
"              ++++++++++++++....+++++++++++++                   ",
"              ++++++++++++++....+++++++++++++                   ",
"          ++++++++++++++++++....+++++++++++++                   ",
"          ++++++++++++++++++....+++++++++++++                   ",
"        ++++++##+++++++++++++++++++++++++++##                   ",
"        ++++++##+++++++++++++++++++++++++++##                   ",
"          ++++##+++++++++++++++++++++++++++##++++               ",
"          ++++##+++++++++++++++++++++++++++##++++               ",
"              ###############################++++++             ",
"              ###############################++++++             ",
"              ###############################++++               ",
"              ###############################++++               ",
"              ooooooooooooooooooooooooooooooo                   ",
"              ooooooooooooooooooooooooooooooo                   ",
"              oooooooooooooo    ooooooooooooo                   ",
"              oooooooooooooo    ooooooooooooo                   ",
"              oooooooooooo      ooooooooooo                     ",
"              oooooooooooo      ooooooooooo                     ",
"                XXXXXXXX         XXXXXXXX                       ",
"                XXXXXXXX         XXXXXXXX                       ",
"                  XXXX             XXXX                         ",
"                  XXXX             XXXX                         "
};
