/* XPM */
static char *_a2b7ac0079a4132d5ef25a9291da2e95OQhaSWuIey0e3KH[] = {
/* columns rows colors chars-per-pixel */
"64 64 12 1 ",
"  c #060B18",
". c #070D1C",
"X c #080E1E",
"o c #0A1020",
"O c #0C1222",
"+ c #131825",
"@ c #1D1F25",
"# c #171E2C",
"$ c #23252C",
"% c #232835",
"& c #2A2E37",
"* c #2D323C",
/* pixels */
"$$&&&&&&&&&&&&&&$$&&&&&&&&&&&&&&$$&&&&&&&&&&&&&&$$&&&&&&&&&&&&&&",
"$$&&&&&&&&&&&&&&$$&&&&&&&&&&&&&&$$&&&&&&&&&&&&&&$$&&&&&&&&&&&&&&",
"$$********%%****$$******%%%%****$$********%%%%**$$********%%****",
"$$********%%****$$******%%%%****$$********%%%%**$$********%%****",
"$$**************$$********%%****$$**************$$********%%****",
"$$**************$$********%%****$$**************$$********%%****",
"$$****%%********$$**************$$**************$$**************",
"$$****%%********$$**************$$**************$$**************",
"$$**********%%%%$$**************$$******%%******$$**************",
"$$**********%%%%$$**************$$******%%******$$**************",
"$$************%%$$**************$$****%%%%******$$**************",
"$$************%%$$**************$$****%%%%******$$**************",
"$$**************$$**************$$**************$$**************",
"$$**************$$**************$$**************$$**************",
"@@&&&&&&&&&&&&&&@@&&&&&&&&&&&&&&@@&&&&&&&&&&&&&&@@&&&&&&&&&&&&&&",
"@@&&&&&&&&&&&&&&@@&&&&&&&&&&&&&&@@&&&&&&&&&&&&&&@@&&&&&&&&&&&&&&",
"                                                                ",
"                                                                ",
"############..  XX################XX  ..##################..  ..",
"############..  XX################XX  ..##################..  ..",
"++++++++++++++  ++++++++++++++++++++  ++++++++++++++++++++++  ++",
"++++++++++++++  ++++++++++++++++++++  ++++++++++++++++++++++  ++",
"++++++++++++..  XX++++++++++++++++XX  ..++++++++++++++++++..  ..",
"++++++++++++..  XX++++++++++++++++XX  ..++++++++++++++++++..  ..",
"                                                                ",
"                                                                ",
"  ..##++############++..  oo################oo  oo++##########..",
"  ..##++############++..  oo################oo  oo++##########..",
"  ++++++++++++++++++++++  ++++++++++++++++++++  ++++++++++++++++",
"  ++++++++++++++++++++++  ++++++++++++++++++++  ++++++++++++++++",
"  oo++++++++++++++++++OO  oo++++++++++++++++oo  oo++++++++++++..",
"  oo++++++++++++++++++OO  oo++++++++++++++++oo  oo++++++++++++..",
"                                                                ",
"                                                                ",
"############++oo  oo################oo  oo++############oo  ..##",
"############++oo  oo################oo  oo++############oo  ..##",
"++++++++++++++++  ++++++++++++++++++++  ++++++++++++++++++  ++++",
"++++++++++++++++  ++++++++++++++++++++  ++++++++++++++++++  ++++",
"++++++++++++++oo  oo++++++++++++++++oo  oo++++++++++++++oo  oo++",
"++++++++++++++oo  oo++++++++++++++++oo  oo++++++++++++++oo  oo++",
"                                                                ",
"                                                                ",
"########oo  oo######oo  oo################oo  oo########oo  oo##",
"########oo  oo######oo  oo################oo  oo########oo  oo##",
"++++++++++  ++++++++++  ++++++++++++++++++++  ++++++++++++  ++++",
"++++++++++  ++++++++++  ++++++++++++++++++++  ++++++++++++  ++++",
"++++++++oo  oo++++++oo  oo++++++++++++++++oo  oo++++++++oo  oo++",
"++++++++oo  oo++++++oo  oo++++++++++++++++oo  oo++++++++oo  oo++",
"                                                                ",
"                                                                ",
"oo  oo++############++++##oo  oo++##############oo  oo########++",
"oo  oo++############++++##oo  oo++##############oo  oo########++",
"++  ++++++++++++++++++++++++  ++++++++++++++++++++  ++++++++++++",
"++  ++++++++++++++++++++++++  ++++++++++++++++++++  ++++++++++++",
"oo  oo++++++++++++++++++++oo  oo++++++++++++++++oo  oo++++++++++",
"oo  oo++++++++++++++++++++oo  oo++++++++++++++++oo  oo++++++++++",
"                                                                ",
"                                                                ",
"oo##########++oo  oo++############oo  oo++########++oo  oo++oo  ",
"oo##########++oo  oo++############oo  oo++########++oo  oo++oo  ",
"++++++++++++++++  ++++++++++++++++++  ++++++++++++++++  ++++++  ",
"++++++++++++++++  ++++++++++++++++++  ++++++++++++++++  ++++++  ",
"oo++++++++++++oo  oo++++++++++++++oo  oo++++++++++++oo  oo++oo  ",
"oo++++++++++++oo  oo++++++++++++++oo  oo++++++++++++oo  oo++oo  "
};
