/* XPM */
static char *_61b91d79e504138c63bde41124e71ddi1BGCKYeTOSmeD5I[] = {
/* columns rows colors chars-per-pixel */
"64 64 8 1 ",
"  c None",
". c black",
"X c #010E00",
"o c gray5",
"O c #120000",
"+ c #120C09",
"@ c #121100",
"# c gray7",
/* pixels */
"            OOOOOO                            OOOOOO            ",
"            OOOOOO                            OOOOOO            ",
"          OOOOOOOOOO                        OOOOOOOOOO          ",
"          OOOOOOOOOO                        OOOOOOOOOO          ",
"        OOOOOOOOOOOOOO                    OOOOOOOOOOOOOO        ",
"        OOOOOOOOOOOOOO                    OOOOOOOOOOOOOO        ",
"        OOOOOOOOOOOOOOOOOOOOOOOOOOOOOOOOOOOOOOOOOOOOOOOO        ",
"        OOOOOOOOOOOOOOOOOOOOOOOOOOOOOOOOOOOOOOOOOOOOOOOO        ",
"        OOOOOOOOOOOOOOOOOOOOOOOOOOOOOOOOOOOOOOOOOOOOOOOO        ",
"        OOOOOOOOOOOOOOOOOOOOOOOOOOOOOOOOOOOOOOOOOOOOOOOO        ",
"          OOOOOOOOOOOOOOOOOOOOOOOOOOOOOOOOOOOOOOOOOOOO          ",
"          OOOOOOOOOOOOOOOOOOOOOOOOOOOOOOOOOOOOOOOOOOOO          ",
"            OOOOOO++++++++++++++++++++++++++++OOOOOO            ",
"            OOOOOO++++++++++++++++++++++++++++OOOOOO            ",
"            OOOO++++++++++++++++++++++++++++++++OOOO            ",
"            OOOO++++++++++++++++++++++++++++++++OOOO            ",
"            OOOO++++++++++++++++++++++++++++++++OOOO            ",
"            OOOO++++++++++++++++++++++++++++++++OOOO            ",
"            OOOO++++++++++++++++++++++++++++++++OOOO            ",
"            OOOO++++++++++++++++++++++++++++++++OOOO            ",
"            OOOO++++++++++++++++++++++++++++++++OOOO            ",
"            OOOO++++++++++++++++++++++++++++++++OOOO            ",
"            OOOO++++++++++++++++++++++++++++++++OOOO            ",
"            OOOO++++++++++++++++++++++++++++++++OOOO            ",
"            OOOO++++++++++++++++++++++++++++++++OOOO            ",
"            OOOO++++++++++++++++++++++++++++++++OOOO            ",
"            OO++++++++++++++++++++++++++++++++++++OO            ",
"            OO++++++++++++++++++++++++++++++++++++OO            ",
"            OO++++++######++++++++++++######++++++OO            ",
"            OO++++++######++++++++++++######++++++OO            ",
"            OO++++++##..##++++++++++++##..##++++++OO            ",
"            OO++++++##..##++++++++++++##..##++++++OO            ",
"            OOOO++++######++++++++++++######++++OOOO            ",
"            OOOO++++######++++++++++++######++++OOOO            ",
"            OOOO++++++++++++++++++++++++++++++++OOOO            ",
"            OOOO++++++++++++++++++++++++++++++++OOOO            ",
"              OO++++++++++++........++++++++++++OO              ",
"              OO++++++++++++........++++++++++++OO              ",
"                ++++++++++++........++++++++++++                ",
"                ++++++++++++........++++++++++++                ",
"                ++++++++++++........++++++++++++                ",
"                ++++++++++++........++++++++++++                ",
"                ++++++++++++++++++++++++++++++++                ",
"                ++++++++++++++++++++++++++++++++                ",
"                ++++++++++++++++++++++++++++++++                ",
"                ++++++++++++++++++++++++++++++++                ",
"            ++@@@@@@@@@@@@@@@@@@@@@@@@@@@@@@@@@@@@++            ",
"            ++@@@@@@@@@@@@@@@@@@@@@@@@@@@@@@@@@@@@++            ",
"          ++++@@@@@@@@@@@@@@@@@@@@@@@@@@@@@@@@@@@@++++          ",
"          ++++@@@@@@@@@@@@@@@@@@@@@@@@@@@@@@@@@@@@++++          ",
"            ++@@@@@@@@@@@@@@@@@@@@@@@@@@@@@@@@@@@@++            ",
"            ++@@@@@@@@@@@@@@@@@@@@@@@@@@@@@@@@@@@@++            ",
"                @@@@@@@@@@@@@@@@@@@@@@@@@@@@@@@@                ",
"                @@@@@@@@@@@@@@@@@@@@@@@@@@@@@@@@                ",
"                XXXXXXXXXXXXXXXXXXXXXXXXXXXXXXXX                ",
"                XXXXXXXXXXXXXXXXXXXXXXXXXXXXXXXX                ",
"                XXXXXXXXXXXXXX    XXXXXXXXXXXXXX                ",
"                XXXXXXXXXXXXXX    XXXXXXXXXXXXXX                ",
"                XXXXXXXXXXXX        XXXXXXXXXXXX                ",
"                XXXXXXXXXXXX        XXXXXXXXXXXX                ",
"                  oooooooo            oooooooo                  ",
"                  oooooooo            oooooooo                  ",
"                    oooo                oooo                    ",
"                    oooo                oooo                    "
};
