/* XPM */
static char *c7051b95abf8403bb9ece32e3c98c247FlFF6b1gD4K6OzSB[] = {
/* columns rows colors chars-per-pixel */
"100 100 60 1 ",
"  c #2E2D2A",
". c #2F2D2B",
"X c #2E2E2B",
"o c #2F2E2B",
"O c #2F2D2D",
"+ c #2E2E2C",
"@ c #2F2D2F",
"# c #302D2C",
"$ c #302F2C",
"% c #302F2D",
"& c #403E38",
"* c #4F4D44",
"= c #4F4E44",
"- c #4E4D46",
"; c #4E4E46",
": c #504C40",
"> c #514D41",
", c #524C43",
"< c #514F43",
"1 c #504F45",
"2 c #514E47",
"3 c #534E48",
"4 c #525044",
"5 c #505047",
"6 c #535047",
"7 c #515148",
"8 c #59554A",
"9 c #615C4F",
"0 c #615C50",
"q c #625D50",
"w c #6A6454",
"e c #6E6A5D",
"r c #716955",
"t c #706957",
"y c #726A56",
"u c #736B57",
"i c #736C57",
"p c #736B58",
"a c #70695A",
"s c #716B5B",
"d c #726C5A",
"f c #746C58",
"g c #746D5B",
"h c #736D5E",
"j c #746D5D",
"k c #746D5F",
"l c #7F7A66",
"z c #7F7B66",
"x c #8A8870",
"c c #8B8970",
"v c #8B8973",
"b c #8C8A71",
"n c #8C8973",
"m c #8C8A73",
"M c #8C8B73",
"N c #8B8974",
"B c #8C8A74",
"V c #8D8B75",
"C c #8C8A77",
"Z c #8E8C77",
/* pixels */
"mmmmmmmmmmmmmmmmmmm# %#% MvMmmmmmmmmmmmmmmmmmmc# $vMvddpNvmmmmmmmmmmmmmx## depNmmmmmmmmmmmmmmmmmx...",
"mmmmmmmmmmmmmmmmmmmO%#$ %mMvmmmmmmmBmmmmmmmmmmxO##MvNpppmvmBmmmmmmmmmmmc  #yppBBmmmBmmmmmmmmmmmmx#O.",
"mmBvmmmBmmmmBBmmvmN# % $ mvMBmBBmBBBmmmmmmvxmmx##$vMmpyymmmBmmmmvmBBmvmx## dsdvNmBBBmvmmnmmmmmmmM .#",
"mBB322ddfdfddfdfdddpfd%#%22;dddsdfdff922<2<22<3O$ mmm222224sdf9222dsd42;yiydpyyddfdf44222,<22<2<6$#O",
"mmm222pepdppppppydpppp# #62<ydppppepd92<;6<<2<4  $MNM;<2<22ddd92<2ypp<2;yiydppppppep<<222<2<,<226 $ ",
"mmm22<pppepppppsdepppy # =2;fpdsppdpi9<2<322444#%#NMv2242<2ddy942;yip2<;eideppdyeppp2<2<2;<2;2<,4$  ",
"mmm2<2ypppeddspspppppp2<2ydppppeedppppppy;2<2<4# % #%6=2yppeepydpppppppeieipeppdppppppyyppp22<2<4$ $",
"mmm22<ppdepppepppiepie;<4dyfppppdyeppeppy2<2<26 %#% O624pppppppupdeppeppppppdppeppeppppppye,<2<24#$#",
"vmB32<pdydydppedpppydy<22depepdsppedpppyd;362<<#OOOO =33pppppppppppydpdpdyppdeppepppppedppe3;22<6 OX",
"MNBsyepyppdeppppdsedpi2<<ydpdppepppppeedsfdy<2< OOpskeyppppdedeppdedppydpdepyppdsppeppdyppsipy<24X%X",
"vMNddpedpdpppdpppepppi;22ypppppppdppppppuuye2<4$%Oppyppppdpeppdypedypppeppdpdppedsppedpdppfdpe<<4X%O",
"mmNppppppepppydepppspe;<2pdepppppydeppeppddy<44# %eppppyesppeppdpppdedppepeppppppepppppyepfepp226$%#",
"zzzuppeppdeppdpppppepe009999ydpppppppw990099<;<#% zzz999ppdydppedppeppdydppepedpppppededippppe2<4 $ ",
"ddpuppdppydppeppepppppppp;<2dpppdedyp0<22;<2<2<#O$vmm222eppdppydepppeppdppydppyddeppdyppppdeyd<24XX%",
"pppeydppppppppedppppppppp<2<dpdeppedp92<2<2<22<#$OMvm22;dppededpppdedppededpdpppyppdppepedpfdi2<6X#$",
"ddpddeppdedeppdypseppeppp<2<dpppppeye9<2<2<2<,2# %vMB<<2pppppppppdypppppppppeppddppeppdpdysfpe<24$ X",
"mvvpdpppdppedydydpdppedppedppppppp<22,<22<2<424$% Mmmppppepedppedydppepedppepppypdppeppdpep<<2<24X$X",
"mvmdppdeeppppdepppydppppppydeppdpp<22<2<<2<2244 #%vmmdpppdppppydeppppdppppydpdedpeppdppyppp222,<6  X",
"vmmiydppppdepedppppepppedpppdppypp<,<2<2<2;2<24#$OMvvddepedpdedppppppedpdedppedyppydppedppp;<,224$ $",
"mmmddepppdypppppedpppdydeppdppedpp<2,<2<<uir2<4# %vMvdypppydpppppdepppydpppppppddedepppppey22;,<4X$#",
"mmmdpdpppedpppdeppdepppppppydeppep3;;322=ypp2<< %#vMvdyidepppedypedppppppppppepeypppppeppep;<,;26 OX",
"mmmdyteppppppdyppdypedeppdedpppdpp,33322:ypp<2<# %MvMdyypppdpppdppydpdepeppdydppdpdeppdpppy22<2<4X$$",
"mmm6;;ipdppppepppeppppdypedyppdypppppeeppeep2<4$%%NMm72=ppdyppppdppppedpdppedpppydppydppyep322<24XXO",
"mmv22;ppydeppdpdpdpdeppdpppdepeppyeppppppppp424  #Mvm242epeppdepeppdydydydppppeddeppdeppdpy;,<226$$#",
"mmm2;2pedpppdppepedypedppedppedppedipdydpppp;24#$ mmv242dyddfifdpedppepeppdepppppppppdppppe<2<<,4 $ ",
"mmmyppppydepydpppppdppydppppppppppeepeppp<;2<22###mmv224 O#sdeeuppppydppeppppdepppdypek82,<22,2<4XX$",
"mmmfppppdedppedeppppdppppppedpppppppppppe<<2,<< $Ommv222##%kydiudpppdpppdypppedpeppdidi92<,<2<,26X#$",
"mmBddeppyppppppppdepeppdpdydydeppeppppdep<2<22<# $mmm22;O  ddeppydepppedpdpdydyddppepdd0<222<2;24$ X",
"dfppedyddpdppppppepedydypepedpdpppepedppy;3;<44#$ #OOOOOdyyippedppppdypppedpdppeppdyppe92<<<2<,<4X$X",
"ppppppdeppydeppdydpppdeppdppppepppdpdyppy224<14X#%O%#OO%ppdppppppdedpdepppppepppeppdppd9<2;2<2226  X",
"pddppdpppppedppydppppedppedppydpedppepede422;44X $%  #O#ppedpdppdyppppdppppeppdedppedep9;23;,22<4$ $",
"NNNdpeppedppppedppedppppppydedppdydydpppydyy426#%#deiddepppppydeeppdepeppdydpdyppppppppppppppy2,4X$#",
"mmmyydppppepepppdeppppseppeppeppppedppedpppp;32#$ ddpppppppedppppppdpppppdydppeppeedppedeppepp2<6%$#",
"mmmddeppepppppppppppepppepppppppppppppdyuypp3;<##$iippepepppydepdypeppdepeppppppppppppdypppppp<2< XX",
"mmmdppedpppp022<3;3psypppppp-22<;2pppdppe<2222< # mmmppudpppdedpedpdedpppppppeeppdyppdppppp23=2<4X $",
"mmvepppppppy922,22;pfdppppuu,<2,22dppeppy2<,<2< #Omvmdeuppedyppppppedyppppdepppppedppepppye<;3<21%X$",
"mmmdpppppppp0;2<42<ysppeeppe,22<<2dyppeie22<<<6$O$vMvdyddeppdppeydppppppedpppepppdpppdydepp2<<2<4X$#",
"mmvppeepe0008,<22<2ieppppppp-2<222990wppy<<21<4X$OMvm999yppdpppddeppppepdyp999999epppeppppe<22<24X $",
"mmmdppppy<3;2<,<;42ypppppppp,2<2<2<229pee4<24;6X %vMm22<dppedyppppepedypppe<2<2<2yydppppppp;2<2<6$$#",
"mmvpppepf<22<222<3;ypeppeppe-<222<2<29ydy<24241X%#Mvm242pppppdepppdpppepppd2<2<22ddeppdeepp,<2<2< X$",
"mmvkdydyu22<,22<<22ppwpppppp;,<,<2<<29yye2<2661OO.mmm2<<pepedppepppppeppyyy2<2<2<ppppeddpye2;4261%$X",
"mmm222pfu<<2<22,<2;ppe33;pep;22<2<22<2;22<,<X$OO.Ommm2;2pdppppydeppei2<2;2;22;<<2ydeppy9;2<26;   %OX",
"mmm22<edu2<22;2<222pdy;2<pyi,222<2<2,22<;,22XO% O.mmm22<pedpdedpppppy22<22<,<,<2<dppepy92<2<;<X%% %%",
"mmm2<2dyy2<<<,<2<,<pyy<22fey-22<22,<<2<22<2<$OO%O#mmm2<2ppydpppppepyf;<22<2<222<2eppppu9<2<2<6OO %XO",
"mmv22<2<<2<22<2<<2<<22<22<2<2<;<<,2<2<2<2<2<# %###Mvv6<<<2<2342<2<2<<2<<<2<,4;42<2<2<2<22<;##$% $OOX",
"mmv2<22<2=2<<2<<2<24242<<4<2<24=22<2<2<2<2<2 # % %vMv2<22<24;2<2<<<22<2<2<22142<2<2<2<2<;<2O$ O XX$$",
"mmm=<<<<44<<<<4=<<42<<<<42<4<<64<<<<<<<<<<<<#O##$#Mvm<<<<<42<<<<44<<<<<2<<<<6:46<<<6<<<<<<2##$ %O$XO",
"# .....## # # #   # # #  # #  #%#...  # # # O# % $ $ # #   # #   # # # # # ##X   # #  # ##O.$O$#OX$O",
"#$#$##O$ % %#%#%#O$#% %#%#% #O# #%#%%###$ $ $ $ $ %## %O$ %#$ $ O # %#$ % %#OO % % #.O.O#%#%O$ #$$XO",
"$ $  O%O%## % O O# %#% % % %  O%% % O#  #$#$#$#$#$ $ ##$#% %O$%#O##% %O%#% %##%#%#$O#.O.% % $#% XOX$",
"vMmmmmmmveidzvMvmmmmMvMvvMBM2<2mvMMmMvmmMvMvMvc# %vMmmmmMvMdiizNmmmmMvMvMvMmmmmmmMmmvmmmvMmmvMmmxXO$",
"MvMvmmmBMiidzMvMmmmBvMvMMvMv224mMvvMvMmmvMvMvMx#%OMvmmmmvMvidezvmmmmBMvMvMvmmmmmMvmmmmmmMvMvMvvvbXOX",
"vMBmmmBBNydezvvMmmmBmmmmvMvv2=;vvMmmNNmmMvMvvvv##%vMvvvmmmNydizmmmmBmNBBMvmmmmBBvMmmmmmnvvmmnnxvx$O$",
"mmM222ddppypddfdddpddp2222<=yyyddddip022131<<26 O MvM62<<222232;<<uudddsddu<22dddddi,<2<6=42,<336$X$",
"mmm242ypddppppddpppppy;<42<2yppepuddp0<2<26;2<4#%$vMM2222<,22<2<2;ppddppdyd2<2upppdd<22<2<2<<2<24$ #",
"mmm22<yfydpdeuiddepppd2;242<yipppudfy9<<2<24424#XOMvN72<<2<2<2<22;ppdyppddd22<uupppf2<<2<2<222,<4X%X",
"mmm2;3ppdppppdydppedpppppdepydppedpppdyde<<2<2<# #mmm2<2pppeppeppppdydydydppeppdppedppedppe<2<226XX$",
"mmm22;ppppdepeppppdyppdypydpdeppppdepeppp2<2,<<.# mmv22<ppppppppdepeppdedeppdppeseppppdyded2<2<<4$OO",
"mmB224edpdppppppedpdeppdppppppedpdppppppp;<222<##Ommm2<2pppppdppppydpdppppedydppdpeppdppppp;2<<24X$X",
"mmBseypppeppppdepppydppededepppppeppppdep<2<2<<#O%mmvkdeeppepydeppdepeppppppppppppdppeppfykpye2<6 OX",
"mmmyedypppepedpppppdeppdppededypppepedppe<<2;=4#$#Mvmddppdeppdppedppppydepppppedpdpppdydppedud;44X#$",
"mmmdppdpppdpdyppdepedppyppdyppdpppdpdyppy22<<64% %vMviuupydppeppppppppdedpdeppdypepppeppppdypy4;4X$ ",
"mmmdppppedppepedppydppedpdppppppedppepede9992<4 % MvNdppppppppedppepedppepydedpdppydppppedpeep<<6$X#",
"mmBydeppdydydpppppdepppppeppdeppdydydpppppiy<24%#%vMNeppdedeppdydydpppppdppppppydedeppdepppppp41< X$",
"mmNdfpepdppedpdppedypedpppppppppppedpppppdpp2<< ##vmmduepedppppppepedppedppedpdppedypedppppppp2<4X$#",
"mmNeppppydppppeppppdppydeppdedepppdyppdypepp<2< $Omvmieuppydeppdpdppppydydppppeppppdppydeppded<26  $",
"pppppppepedepydpppppdpppdppyppdyedpdeppdpped244# %ddp;<<dpppdppypedpdedppedepydpppppdpppdppypp2<4X X",
"ppppeppdppppedpppdepeppdppedeppdpppydppeppdy424#$#dyp<<2eppdppedppydppppppppedpppdepeppdppedep<26X$$",
"pddydppedydpppdepepedydyppdydppepppdeppdeded3<4 ##pya-22pppydeppdepppedydydpppdepepedydypepppp;24X$#",
"vmBdpppdepppepppydpppdepeppdppyddepedppypppp<26 O#BmB3,<pdedpppdpppdpppdepppepppydpppdeppppepp<26  $",
"mmBdydppppppdyppdppppedpdppededpppydppedpdyp2<<  #mmm222pedyppdyppdyppppppppdyppdppppedppppppp2<4X X",
"mmNdyyeppdeppdpdppedppppppppppppppdepppppedp<2<O%#mmm222pppdepepepeppdeppdeppdpdppedppppeppyty;<6X$$",
"mmm62=ypeppepppyppdyppdepepedppppppdpppppppp244$O$vMBddppppppedpdpppdppedppepppypppppeppppy;;;244X$#",
"mmv2<2ipppydpdedeppdpdypydppydepdypeppdepepi<44 $OMvNyuueppeppppydepydppppydpdedpseppppeppy23<<;6  $",
"mmm22<ppdedppedydppepeppdpppdedpedpdedpppeye2<4# #vMmpppppppdpppdedppedededppedypeppppppppe<222<4X X",
"mmmdeppdpppppppdpppppdpdppedyppppppedyppppiy<24#% dddepppdepydepyppppppppppppppdysppepp9;322<<<26X$$",
"mmmipppepppppepepydpdppedeppdppeydppeppdpppp2<< #%dpppedpepedpdpdpdppppppppppepedppeppe9<2;,2;224X$#",
"mmmkppppeppdydppedppydppyppdpppddeppdppepeep<22#% eieppppdppppepppydeppdeppdydppdppdppp0,<2<<,2<6  $",
"2<2yepppdppedppppppepededppedyppppepydppk2222<2 #%mMmdiupedppydppppedppydppedpppdypppey922<2<2<,4X X",
"<22yppedydppppedeppdpppppppppdepppdppppfy<22464#% mvvdduppydedppedppppedydppppedpdeppuu92<22,<226X$$",
"2<2ddepppdppeppddpppdppedpdppedyedypppppe;3<2<< O#NNBpdspdepydppppeppdppeppdppydpedpped88;2<22<24X$#",
" ##iyppdpeppdppyydepydppppeppppdppdpdeppdppp<2< % idpppepydpdeppppdppeppdppyppdeppppppppppepyd2<6  %",
"# Oydppeppydppeddedppedepydpppppdpppppedpppp<<4#O$pepeppppppppededppppydppededpppppedppppedppp<24X#X",
"##Opppppdedeppppypppppppedpppdepseppppdyppep444#% pppdppdedeppppdydydedepppppppppdydydeppppppy2<4X$$",
"MZCypedpypppppepdpdppppppppppydpppppppppe2<2<22##%mvmyfpppedppeppp226diuedppdppdpepedpdppppppp;24XX ",
"MBNdppyddpdeppdpppydeppdpdepedpppepepeppy22<<<<#% mvBdppppdyppdppe2<6ddudyppdypepdppppeppeppep<26 #$",
"mmBdefppydppedpdpppedppypedppppepppppeype2<222<# $vMMdikpdppedppfk<28kpdepedespspedppydppepepp2<4X#X",
"mmm900ppdepppppeedppppedydydeppdppeppw999<2<2<<O%OmmB008peppppppfk&##ppydppppppeppydedppppp909<26X$$",
"mmm222ydpppppppppeppppppdpdppedpeppep9<22<<<2=4##%BBN;33ppppppdffk#$Xiidppppppppeppdppyeppe<<2<24XX ",
"mmm224dyeppeeppppppupeppppydppppppppp92<<222444X% MMM6;<pypeepspds$XOeideppeepppdppypppppey22<2<6 $$",
"mmm2<2ueyppupkpppppeeheypppeeppeyyeye9<2,;2<244 #%mMN262ueuuppppde%$ yeiypepppepppedespppye<<2<<6X%#",
"mmm22<2<<22<8pdpepp<2;ppedppipi22<<2<22<<2<2<26%% mvmiyy<2;2;28hfk$$ 24;2<2ppppyppppppe0;222,<226 XX",
"mmm2<2<<<2<28pppppp;<;pppepppei22<22<2<2222<244 ##mmmuup2<2;778dfk  %;24,;2ppfiyedppppp02,<222<,4X %",
"mmm22<222<<20pepppp;2;eypppyppp<2,<,,<2<<,<2;14 O mmmdpp2,<,688ies# O6<2<2<ppeyydyppyyp02<2<2<2;6X$ ",
"mmm222<2<2<232<22<32,22<;222<2;22<;,22<22O..%O% # mmm2;22<<<2<<<64426# #2<2<;3<242;3;2<2<2<2<2#.O$X$",
"mmm2<;,<2<2<22<2<;42<2<2<2<<2<2<<22<2<2<2.O. %#%#%mmm222<222<2=4422=; # 2<<2<22<22;3,<22,<2<22.OX$OO",
"mmm<6114=44<=>4<611<4<6<=4><6<14=>4>611<6X$XOO$XXOMcM46<1<1<6<14=4<46X X6<6114=46<1<1<6<=>4>6< % XO%",
"##.. %   XX$X$$  X X# X$X   X$  X$$X X X%XOX$X$O$O %  $# X$ X$       X%X%  %   X%  X$ #XX$$X% %  %OX",
" #.. O %$$ #$# $O$X$$  ##$X%XO$ % $$#%X$# $%X$XO$XOXO$XX# $$XO%  $##O$ $ % O $$$%X X$#$%X$ $$X#X$O$X",
"#...%#%#$#$ XX% X%# $$%X$$%X$#XXXX$ X$ #$XX#OOX$OX$$X# %$%  %#XX%#% X%O#% % # $##X$$$    X$XOX$%XX$O"
};
